G04 #@! TF.GenerationSoftware,KiCad,Pcbnew,9.0.7*
G04 #@! TF.CreationDate,2026-03-11T17:11:57-05:00*
G04 #@! TF.ProjectId,Game_Cat_R4,47616d65-5f43-4617-945f-52342e6b6963,4.1.4*
G04 #@! TF.SameCoordinates,Original*
G04 #@! TF.FileFunction,Soldermask,Top*
G04 #@! TF.FilePolarity,Negative*
%FSLAX46Y46*%
G04 Gerber Fmt 4.6, Leading zero omitted, Abs format (unit mm)*
G04 Created by KiCad (PCBNEW 9.0.7) date 2026-03-11 17:11:57*
%MOMM*%
%LPD*%
G01*
G04 APERTURE LIST*
G04 Aperture macros list*
%AMRoundRect*
0 Rectangle with rounded corners*
0 $1 Rounding radius*
0 $2 $3 $4 $5 $6 $7 $8 $9 X,Y pos of 4 corners*
0 Add a 4 corners polygon primitive as box body*
4,1,4,$2,$3,$4,$5,$6,$7,$8,$9,$2,$3,0*
0 Add four circle primitives for the rounded corners*
1,1,$1+$1,$2,$3*
1,1,$1+$1,$4,$5*
1,1,$1+$1,$6,$7*
1,1,$1+$1,$8,$9*
0 Add four rect primitives between the rounded corners*
20,1,$1+$1,$2,$3,$4,$5,0*
20,1,$1+$1,$4,$5,$6,$7,0*
20,1,$1+$1,$6,$7,$8,$9,0*
20,1,$1+$1,$8,$9,$2,$3,0*%
%AMRotRect*
0 Rectangle, with rotation*
0 The origin of the aperture is its center*
0 $1 length*
0 $2 width*
0 $3 Rotation angle, in degrees counterclockwise*
0 Add horizontal line*
21,1,$1,$2,0,0,$3*%
G04 Aperture macros list end*
%ADD10RoundRect,0.250000X0.425000X-0.450000X0.425000X0.450000X-0.425000X0.450000X-0.425000X-0.450000X0*%
%ADD11RoundRect,0.250000X0.650000X-0.325000X0.650000X0.325000X-0.650000X0.325000X-0.650000X-0.325000X0*%
%ADD12RoundRect,0.250000X0.325000X0.650000X-0.325000X0.650000X-0.325000X-0.650000X0.325000X-0.650000X0*%
%ADD13RoundRect,0.250000X-0.250000X-0.475000X0.250000X-0.475000X0.250000X0.475000X-0.250000X0.475000X0*%
%ADD14RoundRect,0.250000X-0.650000X0.325000X-0.650000X-0.325000X0.650000X-0.325000X0.650000X0.325000X0*%
%ADD15RoundRect,0.250000X-0.475000X0.250000X-0.475000X-0.250000X0.475000X-0.250000X0.475000X0.250000X0*%
%ADD16C,3.810000*%
%ADD17C,1.397000*%
%ADD18C,1.600000*%
%ADD19C,2.095500*%
%ADD20RoundRect,0.150000X-0.150000X0.587500X-0.150000X-0.587500X0.150000X-0.587500X0.150000X0.587500X0*%
%ADD21RoundRect,0.150000X-0.587500X-0.150000X0.587500X-0.150000X0.587500X0.150000X-0.587500X0.150000X0*%
%ADD22RoundRect,0.150000X0.150000X-0.587500X0.150000X0.587500X-0.150000X0.587500X-0.150000X-0.587500X0*%
%ADD23RoundRect,0.250000X-0.220971X0.662913X-0.662913X0.220971X0.220971X-0.662913X0.662913X-0.220971X0*%
%ADD24RoundRect,0.250000X0.625000X-0.312500X0.625000X0.312500X-0.625000X0.312500X-0.625000X-0.312500X0*%
%ADD25C,1.422400*%
%ADD26RoundRect,0.250000X-0.625000X0.312500X-0.625000X-0.312500X0.625000X-0.312500X0.625000X0.312500X0*%
%ADD27RoundRect,0.250000X-0.312500X-0.625000X0.312500X-0.625000X0.312500X0.625000X-0.312500X0.625000X0*%
%ADD28RoundRect,0.250000X0.312500X0.625000X-0.312500X0.625000X-0.312500X-0.625000X0.312500X-0.625000X0*%
%ADD29C,2.100000*%
%ADD30C,1.750000*%
%ADD31C,2.000000*%
%ADD32RoundRect,0.150000X-0.150000X0.825000X-0.150000X-0.825000X0.150000X-0.825000X0.150000X0.825000X0*%
%ADD33O,1.524000X3.048000*%
%ADD34RoundRect,0.250000X0.250000X0.475000X-0.250000X0.475000X-0.250000X-0.475000X0.250000X-0.475000X0*%
%ADD35RoundRect,0.150000X0.150000X-0.512500X0.150000X0.512500X-0.150000X0.512500X-0.150000X-0.512500X0*%
%ADD36RoundRect,0.250000X-0.700000X0.275000X-0.700000X-0.275000X0.700000X-0.275000X0.700000X0.275000X0*%
%ADD37RoundRect,0.250000X0.475000X-0.250000X0.475000X0.250000X-0.475000X0.250000X-0.475000X-0.250000X0*%
%ADD38RoundRect,0.243750X-0.456250X0.243750X-0.456250X-0.243750X0.456250X-0.243750X0.456250X0.243750X0*%
%ADD39R,1.200000X3.500000*%
%ADD40RoundRect,0.243750X0.243750X0.456250X-0.243750X0.456250X-0.243750X-0.456250X0.243750X-0.456250X0*%
%ADD41R,1.250000X1.250000*%
%ADD42R,0.305000X0.813000*%
%ADD43R,0.813000X0.305000*%
%ADD44RoundRect,0.162500X-0.162500X0.650000X-0.162500X-0.650000X0.162500X-0.650000X0.162500X0.650000X0*%
%ADD45RoundRect,0.075000X-0.662500X-0.075000X0.662500X-0.075000X0.662500X0.075000X-0.662500X0.075000X0*%
%ADD46RoundRect,0.075000X-0.075000X-0.662500X0.075000X-0.662500X0.075000X0.662500X-0.075000X0.662500X0*%
%ADD47RotRect,3.000000X1.800000X225.000000*%
%ADD48RotRect,3.000000X1.800000X315.000000*%
%ADD49RotRect,3.000000X1.800000X135.000000*%
%ADD50RotRect,3.000000X1.800000X45.000000*%
%ADD51RoundRect,0.243750X0.456250X-0.243750X0.456250X0.243750X-0.456250X0.243750X-0.456250X-0.243750X0*%
%ADD52RoundRect,0.243750X-0.150260X0.494975X-0.494975X0.150260X0.150260X-0.494975X0.494975X-0.150260X0*%
%ADD53O,1.498600X2.184400*%
%ADD54C,4.200000*%
%ADD55C,4.100000*%
%ADD56RotRect,1.000000X0.800000X160.000000*%
%ADD57C,0.900000*%
%ADD58RotRect,0.700000X1.500000X160.000000*%
%ADD59C,1.000000*%
%ADD60RoundRect,0.162500X0.162500X-0.650000X0.162500X0.650000X-0.162500X0.650000X-0.162500X-0.650000X0*%
%ADD61C,0.650000*%
%ADD62R,0.600000X1.450000*%
%ADD63R,0.300000X1.450000*%
%ADD64O,1.000000X2.100000*%
%ADD65O,1.000000X1.600000*%
%ADD66RoundRect,0.250000X-0.250000X0.250000X-0.250000X-0.250000X0.250000X-0.250000X0.250000X0.250000X0*%
%ADD67RoundRect,0.250000X0.600000X-0.600000X0.600000X0.600000X-0.600000X0.600000X-0.600000X-0.600000X0*%
%ADD68C,1.700000*%
%ADD69RoundRect,0.150000X0.150000X-0.825000X0.150000X0.825000X-0.150000X0.825000X-0.150000X-0.825000X0*%
%ADD70RoundRect,0.375000X0.375000X1.925000X-0.375000X1.925000X-0.375000X-1.925000X0.375000X-1.925000X0*%
%ADD71RoundRect,0.102000X0.800000X-0.500000X0.800000X0.500000X-0.800000X0.500000X-0.800000X-0.500000X0*%
%ADD72RoundRect,0.102000X1.250000X-1.500000X1.250000X1.500000X-1.250000X1.500000X-1.250000X-1.500000X0*%
%ADD73RoundRect,0.102000X-1.000000X-1.000000X1.000000X-1.000000X1.000000X1.000000X-1.000000X1.000000X0*%
%ADD74C,2.204000*%
%ADD75RoundRect,0.102000X-0.350000X-0.600000X0.350000X-0.600000X0.350000X0.600000X-0.350000X0.600000X0*%
%ADD76RoundRect,0.102000X-0.500000X-0.600000X0.500000X-0.600000X0.500000X0.600000X-0.500000X0.600000X0*%
%ADD77RoundRect,0.102000X-0.500000X-1.400000X0.500000X-1.400000X0.500000X1.400000X-0.500000X1.400000X0*%
%ADD78RoundRect,0.102000X-0.650000X-0.950000X0.650000X-0.950000X0.650000X0.950000X-0.650000X0.950000X0*%
%ADD79RoundRect,0.102000X-0.500000X-0.400000X0.500000X-0.400000X0.500000X0.400000X-0.500000X0.400000X0*%
G04 APERTURE END LIST*
D10*
X106324000Y-99365000D03*
X106324000Y-96665000D03*
D11*
X108966000Y-99365000D03*
X108966000Y-96415000D03*
X127279400Y-93346800D03*
X127279400Y-90396800D03*
X135686800Y-112725200D03*
X135686800Y-109775200D03*
D12*
X166321000Y-110998000D03*
X163371000Y-110998000D03*
D13*
X154269360Y-101828600D03*
X156169360Y-101828600D03*
D11*
X61976000Y-106125000D03*
X61976000Y-103175000D03*
X167805100Y-127027200D03*
X167805100Y-124077200D03*
D14*
X165417500Y-113968000D03*
X165417500Y-116918000D03*
D15*
X93091000Y-98112500D03*
X93091000Y-100012500D03*
D11*
X159778700Y-127027200D03*
X159778700Y-124077200D03*
D14*
X91033600Y-79830400D03*
X91033600Y-82780400D03*
D13*
X96502140Y-110999000D03*
X98402140Y-110999000D03*
D14*
X104902000Y-84631000D03*
X104902000Y-87581000D03*
D16*
X80000000Y-100000000D03*
D17*
X77460000Y-110033000D03*
X80000000Y-110033000D03*
X82540000Y-110033000D03*
X90033000Y-102540000D03*
X90033000Y-100000000D03*
X90033000Y-97460000D03*
D18*
X67750000Y-96750000D03*
X67750000Y-103250000D03*
X72250000Y-96750000D03*
X72250000Y-103250000D03*
D19*
X73205500Y-92507000D03*
X73205500Y-107493000D03*
X86794500Y-92507000D03*
X86794500Y-107493000D03*
D20*
X77251600Y-82364500D03*
X75351600Y-82364500D03*
X76301600Y-84239500D03*
D21*
X136730500Y-119954000D03*
X136730500Y-121854000D03*
X138605500Y-120904000D03*
D22*
X126443700Y-84135200D03*
X128343700Y-84135200D03*
X127393700Y-82260200D03*
X131320500Y-84135200D03*
X133220500Y-84135200D03*
X132270500Y-82260200D03*
X116220200Y-84135200D03*
X118120200Y-84135200D03*
X117170200Y-82260200D03*
D23*
X202387200Y-94107000D03*
X200318912Y-96175288D03*
X204165200Y-95885000D03*
X202096912Y-97953288D03*
X200609200Y-92329000D03*
X198540912Y-94397288D03*
D24*
X145262600Y-115798600D03*
X145262600Y-112873600D03*
D23*
X198831200Y-90551000D03*
X196762912Y-92619288D03*
D24*
X88744600Y-82780400D03*
X88744600Y-79855400D03*
X64389000Y-106112500D03*
X64389000Y-103187500D03*
X165417500Y-121731500D03*
X165417500Y-118806500D03*
D25*
X162115500Y-118869000D03*
X162115500Y-116329000D03*
D26*
X167805100Y-118806500D03*
X167805100Y-121731500D03*
D24*
X162064700Y-127014700D03*
X162064700Y-124089700D03*
D26*
X133858000Y-118933500D03*
X133858000Y-121858500D03*
X102489000Y-84643500D03*
X102489000Y-87568500D03*
D27*
X125931200Y-80378300D03*
X128856200Y-80378300D03*
D28*
X128856200Y-86017100D03*
X125931200Y-86017100D03*
D27*
X130808000Y-80378300D03*
X133733000Y-80378300D03*
X115707700Y-80378300D03*
X118632700Y-80378300D03*
D28*
X118632700Y-86017100D03*
X115707700Y-86017100D03*
D29*
X83840000Y-75261000D03*
X90850000Y-75261000D03*
D30*
X85090000Y-72771000D03*
X89590000Y-72771000D03*
D31*
X54102000Y-92456000D03*
X58698194Y-87859806D03*
X57283981Y-95637981D03*
X61880175Y-91041786D03*
D32*
X119227600Y-112510800D03*
X117957600Y-112510800D03*
X116687600Y-112510800D03*
X115417600Y-112510800D03*
X115417600Y-117460800D03*
X116687600Y-117460800D03*
X117957600Y-117460800D03*
X119227600Y-117460800D03*
D20*
X165884900Y-124214700D03*
X163984900Y-124214700D03*
X164934900Y-126089700D03*
D22*
X121071600Y-84135200D03*
X122971600Y-84135200D03*
X122021600Y-82260200D03*
D27*
X120559100Y-80378300D03*
X123484100Y-80378300D03*
D28*
X123484100Y-86017100D03*
X120559100Y-86017100D03*
D29*
X168930000Y-75261000D03*
X175940000Y-75261000D03*
D30*
X170180000Y-72771000D03*
X174680000Y-72771000D03*
D33*
X146837400Y-75920600D03*
X144297400Y-75920600D03*
X141757400Y-75920600D03*
D28*
X133733000Y-86017100D03*
X130808000Y-86017100D03*
D34*
X81887500Y-113030000D03*
X79987500Y-113030000D03*
D35*
X155463200Y-86446636D03*
X156413200Y-86446636D03*
X157363200Y-86446636D03*
X157363200Y-84171636D03*
X155463200Y-84171636D03*
D26*
X79375000Y-82239500D03*
X79375000Y-85164500D03*
D13*
X119207200Y-97713800D03*
X121107200Y-97713800D03*
D24*
X147624800Y-115798600D03*
X147624800Y-112873600D03*
D36*
X103632000Y-96215000D03*
X103632000Y-99365000D03*
D37*
X152654000Y-97266800D03*
X152654000Y-95366800D03*
D15*
X152654000Y-90286800D03*
X152654000Y-92186800D03*
D13*
X119207200Y-91287600D03*
X121107200Y-91287600D03*
D38*
X136448800Y-79761300D03*
X136448800Y-81636300D03*
X138988800Y-79761300D03*
X138988800Y-81636300D03*
D24*
X136448800Y-86403100D03*
X136448800Y-83478100D03*
X138988800Y-86403100D03*
X138988800Y-83478100D03*
D39*
X149098000Y-91026800D03*
X149098000Y-96526800D03*
D10*
X129540000Y-93199300D03*
X129540000Y-90499300D03*
D24*
X123698000Y-121858500D03*
X123698000Y-118933500D03*
X126238000Y-121858500D03*
X126238000Y-118933500D03*
X128778000Y-121858500D03*
X128778000Y-118933500D03*
X131318000Y-121858500D03*
X131318000Y-118933500D03*
D40*
X74829100Y-118715000D03*
X72954100Y-118715000D03*
X74829100Y-123414000D03*
X72954100Y-123414000D03*
D20*
X78826400Y-116840000D03*
X76926400Y-116840000D03*
X77876400Y-118715000D03*
X78829400Y-121539000D03*
X76929400Y-121539000D03*
X77879400Y-123414000D03*
D28*
X71056341Y-118715000D03*
X68131341Y-118715000D03*
X71056341Y-123414000D03*
X68131341Y-123414000D03*
D26*
X133146800Y-109789500D03*
X133146800Y-112714500D03*
D27*
X80681100Y-121539000D03*
X83606100Y-121539000D03*
X112837500Y-108762800D03*
X115762500Y-108762800D03*
D41*
X153924000Y-116298600D03*
D42*
X152924000Y-117573600D03*
X153424000Y-117573600D03*
X153924000Y-117573600D03*
X154424000Y-117573600D03*
X154924000Y-117573600D03*
D43*
X155199000Y-116798600D03*
X155199000Y-116298600D03*
X155199000Y-115798600D03*
D42*
X154924000Y-115023600D03*
X154424000Y-115023600D03*
X153924000Y-115023600D03*
X153424000Y-115023600D03*
X152924000Y-115023600D03*
D43*
X152649000Y-115798600D03*
X152649000Y-116298600D03*
X152649000Y-116798600D03*
D37*
X149860000Y-121109000D03*
X149860000Y-119209000D03*
D11*
X147599400Y-121109000D03*
X147599400Y-118159000D03*
D27*
X80681100Y-116812300D03*
X83606100Y-116812300D03*
D32*
X158709360Y-105513100D03*
X157439360Y-105513100D03*
X156169360Y-105513100D03*
X154899360Y-105513100D03*
X153629360Y-105513100D03*
X152359360Y-105513100D03*
X151089360Y-105513100D03*
X149819360Y-105513100D03*
X149819360Y-110463100D03*
X151089360Y-110463100D03*
X152359360Y-110463100D03*
X153629360Y-110463100D03*
X154899360Y-110463100D03*
X156169360Y-110463100D03*
X157439360Y-110463100D03*
X158709360Y-110463100D03*
D24*
X97663000Y-87568500D03*
X97663000Y-84643500D03*
D11*
X112966500Y-125173000D03*
X112966500Y-122223000D03*
D44*
X112966500Y-112448300D03*
X111696500Y-112448300D03*
X110426500Y-112448300D03*
X109156500Y-112448300D03*
X109156500Y-119623300D03*
X110426500Y-119623300D03*
X111696500Y-119623300D03*
X112966500Y-119623300D03*
D26*
X102158800Y-108074000D03*
X102158800Y-110999000D03*
D45*
X124619500Y-98854000D03*
X124619500Y-99354000D03*
X124619500Y-99854000D03*
X124619500Y-100354000D03*
X124619500Y-100854000D03*
X124619500Y-101354000D03*
X124619500Y-101854000D03*
X124619500Y-102354000D03*
X124619500Y-102854000D03*
X124619500Y-103354000D03*
X124619500Y-103854000D03*
X124619500Y-104354000D03*
D46*
X126032000Y-105766500D03*
X126532000Y-105766500D03*
X127032000Y-105766500D03*
X127532000Y-105766500D03*
X128032000Y-105766500D03*
X128532000Y-105766500D03*
X129032000Y-105766500D03*
X129532000Y-105766500D03*
X130032000Y-105766500D03*
X130532000Y-105766500D03*
X131032000Y-105766500D03*
X131532000Y-105766500D03*
D45*
X132944500Y-104354000D03*
X132944500Y-103854000D03*
X132944500Y-103354000D03*
X132944500Y-102854000D03*
X132944500Y-102354000D03*
X132944500Y-101854000D03*
X132944500Y-101354000D03*
X132944500Y-100854000D03*
X132944500Y-100354000D03*
X132944500Y-99854000D03*
X132944500Y-99354000D03*
X132944500Y-98854000D03*
D46*
X131532000Y-97441500D03*
X131032000Y-97441500D03*
X130532000Y-97441500D03*
X130032000Y-97441500D03*
X129532000Y-97441500D03*
X129032000Y-97441500D03*
X128532000Y-97441500D03*
X128032000Y-97441500D03*
X127532000Y-97441500D03*
X127032000Y-97441500D03*
X126532000Y-97441500D03*
X126032000Y-97441500D03*
D26*
X104571800Y-108074000D03*
X104571800Y-110999000D03*
D24*
X95275400Y-87568500D03*
X95275400Y-84643500D03*
D11*
X134112000Y-95847200D03*
X134112000Y-92897200D03*
D47*
X183323402Y-104141064D03*
X173141064Y-114323402D03*
X186858936Y-107676598D03*
X176676598Y-117858936D03*
D48*
X184141064Y-96676598D03*
X194323402Y-106858936D03*
X187676598Y-93141064D03*
X197858936Y-103323402D03*
D49*
X175858936Y-103323402D03*
X165676598Y-93141064D03*
X172323402Y-106858936D03*
X162141064Y-96676598D03*
D50*
X176676598Y-95858936D03*
X186858936Y-85676598D03*
X173141064Y-92323402D03*
X183323402Y-82141064D03*
D51*
X151739600Y-80490300D03*
X151739600Y-78615300D03*
D38*
X149352000Y-78655300D03*
X149352000Y-80530300D03*
D52*
X192432913Y-84173087D03*
X191107087Y-85498913D03*
D23*
X194328144Y-86087856D03*
X192259856Y-88156144D03*
D53*
X121119994Y-126745999D03*
X123659994Y-126745999D03*
X126199994Y-126745999D03*
X128739994Y-126745999D03*
X131279994Y-126745999D03*
X133819994Y-126745999D03*
X136359994Y-126745999D03*
D54*
X109425994Y-86351999D03*
X109425994Y-127499999D03*
D53*
X138899994Y-126745999D03*
D55*
X150573994Y-86351999D03*
D54*
X150573994Y-127499999D03*
D56*
X192596302Y-76352534D03*
X193352167Y-74275813D03*
D57*
X190955607Y-74574132D03*
X188136528Y-73548071D03*
D56*
X185736546Y-73855787D03*
X186492411Y-71779066D03*
D58*
X191058420Y-76484506D03*
X188239342Y-75458445D03*
X186829803Y-74945415D03*
D23*
X197053200Y-88773000D03*
X194984912Y-90841288D03*
D59*
X197154800Y-86055200D03*
X109067600Y-106172000D03*
D28*
X83606100Y-123901200D03*
X80681100Y-123901200D03*
D60*
X137845800Y-117025200D03*
X139115800Y-117025200D03*
X140385800Y-117025200D03*
X141655800Y-117025200D03*
X141655800Y-109850200D03*
X140385800Y-109850200D03*
X139115800Y-109850200D03*
X137845800Y-109850200D03*
D59*
X172434999Y-77266800D03*
X145669000Y-107442000D03*
X157073600Y-125552200D03*
X117754400Y-108762800D03*
D61*
X161132000Y-75319006D03*
X155352000Y-75319006D03*
D62*
X161492000Y-76764006D03*
X160692000Y-76764006D03*
D63*
X159492000Y-76764006D03*
X158492000Y-76764006D03*
X157992000Y-76764006D03*
X156992000Y-76764006D03*
D62*
X155792000Y-76764006D03*
X154992000Y-76764006D03*
X154992000Y-76764006D03*
X155792000Y-76764006D03*
D63*
X156492000Y-76764006D03*
X157492000Y-76764006D03*
X158992000Y-76764006D03*
X159992000Y-76764006D03*
D62*
X160692000Y-76764006D03*
X161492000Y-76764006D03*
D64*
X162562000Y-75849006D03*
D65*
X162562000Y-71669006D03*
D64*
X153922000Y-75849006D03*
D65*
X153922000Y-71669006D03*
D59*
X141969066Y-103073200D03*
D28*
X83606100Y-119175650D03*
X80681100Y-119175650D03*
D66*
X100076000Y-84643500D03*
X100076000Y-87143500D03*
D67*
X100833000Y-78968600D03*
D68*
X100833000Y-76428600D03*
X103373000Y-78968600D03*
X103373000Y-76428600D03*
X105913000Y-78968600D03*
X105913000Y-76428600D03*
D24*
X167386000Y-85028500D03*
X167386000Y-82103500D03*
D59*
X121894600Y-116230400D03*
D27*
X112837500Y-106172000D03*
X115762500Y-106172000D03*
D59*
X114427000Y-83312000D03*
X86185200Y-116840000D03*
D33*
X136382000Y-75920600D03*
X133842000Y-75920600D03*
X131302000Y-75920600D03*
X128762000Y-75920600D03*
D69*
X136398000Y-95439000D03*
X137668000Y-95439000D03*
X138938000Y-95439000D03*
X140208000Y-95439000D03*
X141478000Y-95439000D03*
X142748000Y-95439000D03*
X144018000Y-95439000D03*
X144018000Y-90489000D03*
X142748000Y-90489000D03*
X141478000Y-90489000D03*
X140208000Y-90489000D03*
X138938000Y-90489000D03*
X137668000Y-90489000D03*
X136398000Y-90489000D03*
D59*
X123596400Y-115214400D03*
X157454600Y-113004600D03*
X145669000Y-109728000D03*
X161925000Y-88341200D03*
D33*
X123382000Y-75920600D03*
X120842000Y-75920600D03*
X118302000Y-75920600D03*
X115762000Y-75920600D03*
D59*
X106172000Y-104394000D03*
D70*
X164092008Y-84353400D03*
X160692008Y-84353400D03*
D71*
X121107200Y-95808800D03*
X121107200Y-93208800D03*
D72*
X114857200Y-94508800D03*
D59*
X87985600Y-77266800D03*
D73*
X67741800Y-76708000D03*
D74*
X67741800Y-83208000D03*
D24*
X169926000Y-85015800D03*
X169926000Y-82090800D03*
D69*
X142684500Y-85025000D03*
X143954500Y-85025000D03*
X145224500Y-85025000D03*
X146494500Y-85025000D03*
X146494500Y-80075000D03*
X145224500Y-80075000D03*
X143954500Y-80075000D03*
X142684500Y-80075000D03*
D59*
X169062400Y-116918000D03*
X82219800Y-85164500D03*
X91033600Y-84702650D03*
D24*
X100556133Y-99140000D03*
X100556133Y-96215000D03*
D59*
X158292800Y-101828600D03*
X117729000Y-106172000D03*
X143967200Y-103073200D03*
X134112000Y-90489000D03*
D75*
X101702140Y-113322400D03*
X100602140Y-113322400D03*
X99502140Y-113322400D03*
X98402140Y-113322400D03*
X97302140Y-113322400D03*
X96202140Y-113322400D03*
X95102140Y-113322400D03*
X94002140Y-113322400D03*
D76*
X92102140Y-117622400D03*
D77*
X92102140Y-127972400D03*
D78*
X105602140Y-128422400D03*
D76*
X103252140Y-113322400D03*
D79*
X92102140Y-123822400D03*
D75*
X93052140Y-113322400D03*
D59*
X86185200Y-121538999D03*
X139979400Y-103073200D03*
X136017000Y-98076850D03*
X96266000Y-95834200D03*
X121894600Y-114198400D03*
M02*
