G04 #@! TF.GenerationSoftware,KiCad,Pcbnew,9.0.7*
G04 #@! TF.CreationDate,2026-03-11T17:11:57-05:00*
G04 #@! TF.ProjectId,Game_Cat_R4,47616d65-5f43-4617-945f-52342e6b6963,4.1.4*
G04 #@! TF.SameCoordinates,Original*
G04 #@! TF.FileFunction,Soldermask,Bot*
G04 #@! TF.FilePolarity,Negative*
%FSLAX46Y46*%
G04 Gerber Fmt 4.6, Leading zero omitted, Abs format (unit mm)*
G04 Created by KiCad (PCBNEW 9.0.7) date 2026-03-11 17:11:57*
%MOMM*%
%LPD*%
G01*
G04 APERTURE LIST*
G04 Aperture macros list*
%AMRoundRect*
0 Rectangle with rounded corners*
0 $1 Rounding radius*
0 $2 $3 $4 $5 $6 $7 $8 $9 X,Y pos of 4 corners*
0 Add a 4 corners polygon primitive as box body*
4,1,4,$2,$3,$4,$5,$6,$7,$8,$9,$2,$3,0*
0 Add four circle primitives for the rounded corners*
1,1,$1+$1,$2,$3*
1,1,$1+$1,$4,$5*
1,1,$1+$1,$6,$7*
1,1,$1+$1,$8,$9*
0 Add four rect primitives between the rounded corners*
20,1,$1+$1,$2,$3,$4,$5,0*
20,1,$1+$1,$4,$5,$6,$7,0*
20,1,$1+$1,$6,$7,$8,$9,0*
20,1,$1+$1,$8,$9,$2,$3,0*%
%AMFreePoly0*
4,1,23,0.500000,-0.750000,0.000000,-0.750000,0.000000,-0.745722,-0.065263,-0.745722,-0.191342,-0.711940,-0.304381,-0.646677,-0.396677,-0.554381,-0.461940,-0.441342,-0.495722,-0.315263,-0.495722,-0.250000,-0.500000,-0.250000,-0.500000,0.250000,-0.495722,0.250000,-0.495722,0.315263,-0.461940,0.441342,-0.396677,0.554381,-0.304381,0.646677,-0.191342,0.711940,-0.065263,0.745722,0.000000,0.745722,
0.000000,0.750000,0.500000,0.750000,0.500000,-0.750000,0.500000,-0.750000,$1*%
%AMFreePoly1*
4,1,23,0.000000,0.745722,0.065263,0.745722,0.191342,0.711940,0.304381,0.646677,0.396677,0.554381,0.461940,0.441342,0.495722,0.315263,0.495722,0.250000,0.500000,0.250000,0.500000,-0.250000,0.495722,-0.250000,0.495722,-0.315263,0.461940,-0.441342,0.396677,-0.554381,0.304381,-0.646677,0.191342,-0.711940,0.065263,-0.745722,0.000000,-0.745722,0.000000,-0.750000,-0.500000,-0.750000,
-0.500000,0.750000,0.000000,0.750000,0.000000,0.745722,0.000000,0.745722,$1*%
G04 Aperture macros list end*
%ADD10C,3.810000*%
%ADD11C,1.397000*%
%ADD12C,1.600000*%
%ADD13C,2.095500*%
%ADD14C,1.422400*%
%ADD15C,2.100000*%
%ADD16C,1.750000*%
%ADD17C,2.000000*%
%ADD18O,1.524000X3.048000*%
%ADD19O,1.498600X2.184400*%
%ADD20C,4.200000*%
%ADD21C,4.100000*%
%ADD22C,0.900000*%
%ADD23C,0.650000*%
%ADD24O,1.000000X2.100000*%
%ADD25O,1.000000X1.600000*%
%ADD26RoundRect,0.250000X0.600000X-0.600000X0.600000X0.600000X-0.600000X0.600000X-0.600000X-0.600000X0*%
%ADD27C,1.700000*%
%ADD28RoundRect,0.102000X-1.000000X-1.000000X1.000000X-1.000000X1.000000X1.000000X-1.000000X1.000000X0*%
%ADD29C,2.204000*%
%ADD30RoundRect,0.150000X0.150000X-0.587500X0.150000X0.587500X-0.150000X0.587500X-0.150000X-0.587500X0*%
%ADD31R,3.500000X1.000000*%
%ADD32R,3.400000X1.500000*%
%ADD33FreePoly0,270.000000*%
%ADD34FreePoly1,270.000000*%
%ADD35RoundRect,0.250000X-0.650000X0.325000X-0.650000X-0.325000X0.650000X-0.325000X0.650000X0.325000X0*%
%ADD36RoundRect,0.250000X0.650000X-0.325000X0.650000X0.325000X-0.650000X0.325000X-0.650000X-0.325000X0*%
%ADD37RoundRect,0.250000X0.450000X0.425000X-0.450000X0.425000X-0.450000X-0.425000X0.450000X-0.425000X0*%
%ADD38RoundRect,0.250000X0.250000X-0.250000X0.250000X0.250000X-0.250000X0.250000X-0.250000X-0.250000X0*%
%ADD39RoundRect,0.150000X0.587500X0.150000X-0.587500X0.150000X-0.587500X-0.150000X0.587500X-0.150000X0*%
%ADD40RoundRect,0.250000X-0.625000X0.312500X-0.625000X-0.312500X0.625000X-0.312500X0.625000X0.312500X0*%
%ADD41RoundRect,0.250000X0.312500X0.625000X-0.312500X0.625000X-0.312500X-0.625000X0.312500X-0.625000X0*%
%ADD42RoundRect,0.250000X0.625000X-0.312500X0.625000X0.312500X-0.625000X0.312500X-0.625000X-0.312500X0*%
%ADD43RoundRect,0.150000X-0.512500X-0.150000X0.512500X-0.150000X0.512500X0.150000X-0.512500X0.150000X0*%
%ADD44RoundRect,0.250000X-0.700000X0.275000X-0.700000X-0.275000X0.700000X-0.275000X0.700000X0.275000X0*%
%ADD45RoundRect,0.250000X0.325000X0.650000X-0.325000X0.650000X-0.325000X-0.650000X0.325000X-0.650000X0*%
%ADD46RoundRect,0.250000X-0.312500X-0.625000X0.312500X-0.625000X0.312500X0.625000X-0.312500X0.625000X0*%
%ADD47RoundRect,0.150000X-0.150000X0.825000X-0.150000X-0.825000X0.150000X-0.825000X0.150000X0.825000X0*%
%ADD48R,3.050000X1.520000*%
%ADD49R,3.049999X1.520000*%
%ADD50RoundRect,0.225000X0.375000X-0.225000X0.375000X0.225000X-0.375000X0.225000X-0.375000X-0.225000X0*%
%ADD51RoundRect,0.250000X-0.425000X0.450000X-0.425000X-0.450000X0.425000X-0.450000X0.425000X0.450000X0*%
%ADD52RoundRect,0.250000X0.250000X0.475000X-0.250000X0.475000X-0.250000X-0.475000X0.250000X-0.475000X0*%
%ADD53RoundRect,0.250000X0.425000X-0.450000X0.425000X0.450000X-0.425000X0.450000X-0.425000X-0.450000X0*%
%ADD54C,1.000000*%
G04 APERTURE END LIST*
D10*
X80000000Y-100000000D03*
D11*
X77460000Y-110033000D03*
X80000000Y-110033000D03*
X82540000Y-110033000D03*
X90033000Y-102540000D03*
X90033000Y-100000000D03*
X90033000Y-97460000D03*
D12*
X67750000Y-96750000D03*
X67750000Y-103250000D03*
X72250000Y-96750000D03*
X72250000Y-103250000D03*
D13*
X73205500Y-92507000D03*
X73205500Y-107493000D03*
X86794500Y-92507000D03*
X86794500Y-107493000D03*
D14*
X162115500Y-118869000D03*
X162115500Y-116329000D03*
D15*
X83840000Y-75261000D03*
X90850000Y-75261000D03*
D16*
X85090000Y-72771000D03*
X89590000Y-72771000D03*
D17*
X54102000Y-92456000D03*
X58698194Y-87859806D03*
X57283981Y-95637981D03*
X61880175Y-91041786D03*
D15*
X168930000Y-75261000D03*
X175940000Y-75261000D03*
D16*
X170180000Y-72771000D03*
X174680000Y-72771000D03*
D18*
X146837400Y-75920600D03*
X144297400Y-75920600D03*
X141757400Y-75920600D03*
D19*
X121119994Y-126745999D03*
X123659994Y-126745999D03*
X126199994Y-126745999D03*
X128739994Y-126745999D03*
X131279994Y-126745999D03*
X133819994Y-126745999D03*
X136359994Y-126745999D03*
D20*
X109425994Y-86351999D03*
X109425994Y-127499999D03*
D19*
X138899994Y-126745999D03*
D21*
X150573994Y-86351999D03*
D20*
X150573994Y-127499999D03*
D22*
X190955607Y-74574132D03*
X188136528Y-73548071D03*
D23*
X161132000Y-75319006D03*
X155352000Y-75319006D03*
D24*
X162562000Y-75849006D03*
D25*
X162562000Y-71669006D03*
D24*
X153922000Y-75849006D03*
D25*
X153922000Y-71669006D03*
D26*
X100833000Y-78968600D03*
D27*
X100833000Y-76428600D03*
X103373000Y-78968600D03*
X103373000Y-76428600D03*
X105913000Y-78968600D03*
X105913000Y-76428600D03*
D18*
X136382000Y-75920600D03*
X133842000Y-75920600D03*
X131302000Y-75920600D03*
X128762000Y-75920600D03*
X123382000Y-75920600D03*
X120842000Y-75920600D03*
X118302000Y-75920600D03*
X115762000Y-75920600D03*
D28*
X67741800Y-76708000D03*
D29*
X67741800Y-83208000D03*
D30*
X146492000Y-73454500D03*
X144592000Y-73454500D03*
X145542000Y-71579500D03*
D31*
X168324660Y-101000000D03*
X168324660Y-99000000D03*
D32*
X162574660Y-103350000D03*
X162574660Y-96650000D03*
D33*
X143256000Y-79868000D03*
D34*
X143256000Y-81168000D03*
D35*
X166665100Y-82078300D03*
X166665100Y-85028300D03*
D36*
X161569400Y-85217200D03*
X161569400Y-82267200D03*
X171754800Y-85018140D03*
X171754800Y-82068140D03*
D37*
X176717400Y-96520000D03*
X174017400Y-96520000D03*
D38*
X176737000Y-94463200D03*
X176737000Y-91963200D03*
D39*
X174419500Y-91963200D03*
X174419500Y-93863200D03*
X172544500Y-92913200D03*
D40*
X149352000Y-78090300D03*
X149352000Y-81015300D03*
D41*
X164367160Y-92887800D03*
X161442160Y-92887800D03*
D42*
X174066200Y-85015800D03*
X174066200Y-82090800D03*
X174523400Y-90108500D03*
X174523400Y-87183500D03*
D43*
X161387160Y-89545200D03*
X161387160Y-88595200D03*
X161387160Y-87645200D03*
X163662160Y-87645200D03*
X163662160Y-89545200D03*
D44*
X164030660Y-82067200D03*
X164030660Y-85217200D03*
D40*
X145796000Y-79817500D03*
X145796000Y-82742500D03*
D42*
X151739600Y-81015300D03*
X151739600Y-78090300D03*
D45*
X170519660Y-89979500D03*
X167569660Y-89979500D03*
D46*
X167562160Y-87630000D03*
X170487160Y-87630000D03*
D39*
X169602160Y-91963200D03*
X169602160Y-93863200D03*
X167727160Y-92913200D03*
D36*
X171450000Y-109185700D03*
X171450000Y-106235700D03*
D47*
X180426611Y-99633000D03*
X181696611Y-99633000D03*
X182966611Y-99633000D03*
X184236611Y-99633000D03*
X184236611Y-104583000D03*
X182966611Y-104583000D03*
X181696611Y-104583000D03*
X180426611Y-104583000D03*
D42*
X186344811Y-104842789D03*
X186344811Y-101917789D03*
D48*
X177647600Y-106883200D03*
D49*
X177647600Y-109173200D03*
D50*
X178276611Y-103671388D03*
X178276611Y-100371388D03*
D36*
X186817000Y-96533988D03*
X186817000Y-93583988D03*
D42*
X184277000Y-96521488D03*
X184277000Y-93596488D03*
D51*
X185481211Y-107315000D03*
X185481211Y-110015000D03*
D41*
X183540111Y-110045500D03*
X180615111Y-110045500D03*
D35*
X175895000Y-100546388D03*
X175895000Y-103496388D03*
D52*
X182979112Y-107315000D03*
X181079112Y-107315000D03*
D42*
X174076610Y-109173200D03*
X174076610Y-106248200D03*
D36*
X179334411Y-96533988D03*
X179334411Y-93583988D03*
D53*
X171704000Y-101000000D03*
X171704000Y-98300000D03*
D42*
X181696612Y-96521488D03*
X181696612Y-93596488D03*
X123382000Y-81726500D03*
X123382000Y-78801500D03*
D46*
X95250000Y-78968600D03*
X98175000Y-78968600D03*
D42*
X171450000Y-114798750D03*
X171450000Y-111873750D03*
X136382000Y-81726500D03*
X136382000Y-78801500D03*
D54*
X176737000Y-90170000D03*
M02*
