G04 #@! TF.GenerationSoftware,KiCad,Pcbnew,7.0.5*
G04 #@! TF.CreationDate,2023-06-10T10:24:39-05:00*
G04 #@! TF.ProjectId,Game_Cat_R4,47616d65-5f43-4617-945f-52342e6b6963,4.1.4*
G04 #@! TF.SameCoordinates,Original*
G04 #@! TF.FileFunction,Paste,Bot*
G04 #@! TF.FilePolarity,Positive*
%FSLAX46Y46*%
G04 Gerber Fmt 4.6, Leading zero omitted, Abs format (unit mm)*
G04 Created by KiCad (PCBNEW 7.0.5) date 2023-06-10 10:24:39*
%MOMM*%
%LPD*%
G01*
G04 APERTURE LIST*
G04 Aperture macros list*
%AMRoundRect*
0 Rectangle with rounded corners*
0 $1 Rounding radius*
0 $2 $3 $4 $5 $6 $7 $8 $9 X,Y pos of 4 corners*
0 Add a 4 corners polygon primitive as box body*
4,1,4,$2,$3,$4,$5,$6,$7,$8,$9,$2,$3,0*
0 Add four circle primitives for the rounded corners*
1,1,$1+$1,$2,$3*
1,1,$1+$1,$4,$5*
1,1,$1+$1,$6,$7*
1,1,$1+$1,$8,$9*
0 Add four rect primitives between the rounded corners*
20,1,$1+$1,$2,$3,$4,$5,0*
20,1,$1+$1,$4,$5,$6,$7,0*
20,1,$1+$1,$6,$7,$8,$9,0*
20,1,$1+$1,$8,$9,$2,$3,0*%
G04 Aperture macros list end*
%ADD10RoundRect,0.124600X0.150000X-0.587500X0.150000X0.587500X-0.150000X0.587500X-0.150000X-0.587500X0*%
%ADD11R,3.449200X0.949200*%
%ADD12R,3.349200X1.449200*%
%ADD13R,0.949200X0.949200*%
%ADD14RoundRect,0.224600X-0.650000X0.325000X-0.650000X-0.325000X0.650000X-0.325000X0.650000X0.325000X0*%
%ADD15RoundRect,0.224600X0.650000X-0.325000X0.650000X0.325000X-0.650000X0.325000X-0.650000X-0.325000X0*%
%ADD16RoundRect,0.224600X0.450000X0.425000X-0.450000X0.425000X-0.450000X-0.425000X0.450000X-0.425000X0*%
%ADD17RoundRect,0.124600X0.587500X0.150000X-0.587500X0.150000X-0.587500X-0.150000X0.587500X-0.150000X0*%
%ADD18RoundRect,0.224600X-0.625000X0.312500X-0.625000X-0.312500X0.625000X-0.312500X0.625000X0.312500X0*%
%ADD19RoundRect,0.224600X0.312500X0.625000X-0.312500X0.625000X-0.312500X-0.625000X0.312500X-0.625000X0*%
%ADD20RoundRect,0.224600X0.625000X-0.312500X0.625000X0.312500X-0.625000X0.312500X-0.625000X-0.312500X0*%
%ADD21RoundRect,0.124600X-0.512500X-0.150000X0.512500X-0.150000X0.512500X0.150000X-0.512500X0.150000X0*%
%ADD22RoundRect,0.224600X-0.700000X0.275000X-0.700000X-0.275000X0.700000X-0.275000X0.700000X0.275000X0*%
%ADD23RoundRect,0.224600X0.325000X0.650000X-0.325000X0.650000X-0.325000X-0.650000X0.325000X-0.650000X0*%
%ADD24RoundRect,0.224600X-0.312500X-0.625000X0.312500X-0.625000X0.312500X0.625000X-0.312500X0.625000X0*%
%ADD25RoundRect,0.124600X-0.150000X0.825000X-0.150000X-0.825000X0.150000X-0.825000X0.150000X0.825000X0*%
%ADD26R,2.999200X1.469200*%
%ADD27R,2.999199X1.469200*%
%ADD28R,1.149200X0.849200*%
%ADD29RoundRect,0.224600X-0.425000X0.450000X-0.425000X-0.450000X0.425000X-0.450000X0.425000X0.450000X0*%
%ADD30RoundRect,0.224600X0.250000X0.475000X-0.250000X0.475000X-0.250000X-0.475000X0.250000X-0.475000X0*%
%ADD31RoundRect,0.224600X0.425000X-0.450000X0.425000X0.450000X-0.425000X0.450000X-0.425000X-0.450000X0*%
G04 APERTURE END LIST*
D10*
X146492000Y-73454500D03*
X144592000Y-73454500D03*
X145542000Y-71579500D03*
D11*
X168324660Y-101000000D03*
X168324660Y-99000000D03*
D12*
X162574660Y-103350000D03*
X162574660Y-96650000D03*
D13*
X171754800Y-84803300D03*
X171754800Y-82303300D03*
D14*
X166665100Y-82078300D03*
X166665100Y-85028300D03*
D15*
X161569400Y-85217200D03*
X161569400Y-82267200D03*
X169336720Y-85018140D03*
X169336720Y-82068140D03*
D16*
X176717400Y-96520000D03*
X174017400Y-96520000D03*
D13*
X176737000Y-94463200D03*
X176737000Y-91963200D03*
D17*
X174419500Y-91963200D03*
X174419500Y-93863200D03*
X172544500Y-92913200D03*
D18*
X149352000Y-78090300D03*
X149352000Y-81015300D03*
D19*
X164367160Y-92887800D03*
X161442160Y-92887800D03*
D20*
X174066200Y-85015800D03*
X174066200Y-82090800D03*
X174523400Y-90108500D03*
X174523400Y-87183500D03*
D21*
X161387160Y-89545200D03*
X161387160Y-88595200D03*
X161387160Y-87645200D03*
X163662160Y-87645200D03*
X163662160Y-89545200D03*
D22*
X164030660Y-82067200D03*
X164030660Y-85217200D03*
D18*
X145796000Y-79817500D03*
X145796000Y-82742500D03*
D20*
X151739600Y-81015300D03*
X151739600Y-78090300D03*
D23*
X170519660Y-89979500D03*
X167569660Y-89979500D03*
D24*
X167562160Y-87630000D03*
X170487160Y-87630000D03*
D17*
X169602160Y-91963200D03*
X169602160Y-93863200D03*
X167727160Y-92913200D03*
D15*
X171450000Y-108388889D03*
X171450000Y-105438889D03*
D25*
X180426611Y-99633000D03*
X181696611Y-99633000D03*
X182966611Y-99633000D03*
X184236611Y-99633000D03*
X184236611Y-104583000D03*
X182966611Y-104583000D03*
X181696611Y-104583000D03*
X180426611Y-104583000D03*
D20*
X186344811Y-104842789D03*
X186344811Y-101917789D03*
D26*
X177647600Y-106023889D03*
D27*
X177647600Y-108313889D03*
D28*
X178276611Y-103671388D03*
X178276611Y-100371388D03*
D15*
X186817000Y-96533988D03*
X186817000Y-93583988D03*
D20*
X184277000Y-96521488D03*
X184277000Y-93596488D03*
D29*
X185481211Y-107315000D03*
X185481211Y-110015000D03*
D19*
X183540111Y-110045500D03*
X180615111Y-110045500D03*
D14*
X175895000Y-100546388D03*
X175895000Y-103496388D03*
D30*
X182979112Y-107315000D03*
X181079112Y-107315000D03*
D20*
X174076610Y-108376389D03*
X174076610Y-105451389D03*
D15*
X179334411Y-96533988D03*
X179334411Y-93583988D03*
D31*
X171704000Y-101000000D03*
X171704000Y-98300000D03*
D20*
X181696612Y-96521488D03*
X181696612Y-93596488D03*
X123382000Y-81726500D03*
X123382000Y-78801500D03*
D24*
X95250000Y-78968600D03*
X98175000Y-78968600D03*
D20*
X136382000Y-81726500D03*
X136382000Y-78801500D03*
M02*
