%TF.GenerationSoftware,KiCad,Pcbnew,(6.0.7)*%
%TF.CreationDate,2022-08-21T12:48:38-05:00*%
%TF.ProjectId,Game_Cat_R4,47616d65-5f43-4617-945f-52342e6b6963,4.1.4*%
%TF.SameCoordinates,Original*%
%TF.FileFunction,Drillmap*%
%TF.FilePolarity,Positive*%
%FSLAX45Y45*%
G04 Gerber Fmt 4.5, Leading zero omitted, Abs format (unit mm)*
G04 Created by KiCad (PCBNEW (6.0.7)) date 2022-08-21 12:48:38*
%MOMM*%
%LPD*%
G01*
G04 APERTURE LIST*
%ADD10C,0.100000*%
%ADD11C,0.200000*%
%ADD12C,0.065000*%
%ADD13C,0.090000*%
%ADD14C,0.381000*%
G04 APERTURE END LIST*
D10*
X8000000Y-7000000D02*
X18000000Y-7000000D01*
X8000000Y-13000000D02*
X18000000Y-13000000D01*
X8000000Y-7000000D02*
G75*
G03*
X8000000Y-13000000I0J-3000000D01*
G01*
X18150000Y-7250000D02*
G75*
G03*
X18150000Y-7250000I-150000J0D01*
G01*
X8150000Y-7250000D02*
G75*
G03*
X8150000Y-7250000I-150000J0D01*
G01*
X8150000Y-12750000D02*
G75*
G03*
X8150000Y-12750000I-150000J0D01*
G01*
X18150000Y-12750000D02*
G75*
G03*
X18150000Y-12750000I-150000J0D01*
G01*
X18000000Y-13000000D02*
G75*
G03*
X18000000Y-7000000I0J3000000D01*
G01*
D11*
D12*
X15502700Y-7499401D02*
X15567700Y-7564401D01*
X15567700Y-7499401D02*
X15502700Y-7564401D01*
X16080700Y-7499401D02*
X16145700Y-7564401D01*
X16145700Y-7499401D02*
X16080700Y-7564401D01*
D13*
X18858653Y-7354807D02*
G75*
G03*
X18858653Y-7354807I-45000J0D01*
G01*
X19140561Y-7457413D02*
G75*
G03*
X19140561Y-7457413I-45000J0D01*
G01*
D14*
X8000000Y-9809500D02*
X8000000Y-10190500D01*
X7809500Y-10000000D02*
X8190500Y-10000000D01*
D11*
X5252619Y-13315476D02*
X5252619Y-13115476D01*
X5300238Y-13115476D01*
X5328810Y-13125000D01*
X5347857Y-13144048D01*
X5357381Y-13163095D01*
X5366905Y-13201190D01*
X5366905Y-13229762D01*
X5357381Y-13267857D01*
X5347857Y-13286905D01*
X5328810Y-13305952D01*
X5300238Y-13315476D01*
X5252619Y-13315476D01*
X5452619Y-13315476D02*
X5452619Y-13182143D01*
X5452619Y-13220238D02*
X5462143Y-13201190D01*
X5471667Y-13191667D01*
X5490714Y-13182143D01*
X5509762Y-13182143D01*
X5576429Y-13315476D02*
X5576429Y-13182143D01*
X5576429Y-13115476D02*
X5566905Y-13125000D01*
X5576429Y-13134524D01*
X5585952Y-13125000D01*
X5576429Y-13115476D01*
X5576429Y-13134524D01*
X5700238Y-13315476D02*
X5681190Y-13305952D01*
X5671667Y-13286905D01*
X5671667Y-13115476D01*
X5805000Y-13315476D02*
X5785952Y-13305952D01*
X5776428Y-13286905D01*
X5776428Y-13115476D01*
X6033571Y-13315476D02*
X6033571Y-13115476D01*
X6100238Y-13258333D01*
X6166905Y-13115476D01*
X6166905Y-13315476D01*
X6347857Y-13315476D02*
X6347857Y-13210714D01*
X6338333Y-13191667D01*
X6319286Y-13182143D01*
X6281190Y-13182143D01*
X6262143Y-13191667D01*
X6347857Y-13305952D02*
X6328809Y-13315476D01*
X6281190Y-13315476D01*
X6262143Y-13305952D01*
X6252619Y-13286905D01*
X6252619Y-13267857D01*
X6262143Y-13248809D01*
X6281190Y-13239286D01*
X6328809Y-13239286D01*
X6347857Y-13229762D01*
X6443095Y-13182143D02*
X6443095Y-13382143D01*
X6443095Y-13191667D02*
X6462143Y-13182143D01*
X6500238Y-13182143D01*
X6519286Y-13191667D01*
X6528809Y-13201190D01*
X6538333Y-13220238D01*
X6538333Y-13277381D01*
X6528809Y-13296428D01*
X6519286Y-13305952D01*
X6500238Y-13315476D01*
X6462143Y-13315476D01*
X6443095Y-13305952D01*
X6624048Y-13296428D02*
X6633571Y-13305952D01*
X6624048Y-13315476D01*
X6614524Y-13305952D01*
X6624048Y-13296428D01*
X6624048Y-13315476D01*
X6624048Y-13191667D02*
X6633571Y-13201190D01*
X6624048Y-13210714D01*
X6614524Y-13201190D01*
X6624048Y-13191667D01*
X6624048Y-13210714D01*
D12*
X4930000Y-13612500D02*
X4995000Y-13677500D01*
X4995000Y-13612500D02*
X4930000Y-13677500D01*
D11*
X5290714Y-13535476D02*
X5309762Y-13535476D01*
X5328810Y-13545000D01*
X5338333Y-13554524D01*
X5347857Y-13573571D01*
X5357381Y-13611667D01*
X5357381Y-13659286D01*
X5347857Y-13697381D01*
X5338333Y-13716428D01*
X5328810Y-13725952D01*
X5309762Y-13735476D01*
X5290714Y-13735476D01*
X5271667Y-13725952D01*
X5262143Y-13716428D01*
X5252619Y-13697381D01*
X5243095Y-13659286D01*
X5243095Y-13611667D01*
X5252619Y-13573571D01*
X5262143Y-13554524D01*
X5271667Y-13545000D01*
X5290714Y-13535476D01*
X5443095Y-13716428D02*
X5452619Y-13725952D01*
X5443095Y-13735476D01*
X5433571Y-13725952D01*
X5443095Y-13716428D01*
X5443095Y-13735476D01*
X5624048Y-13535476D02*
X5585952Y-13535476D01*
X5566905Y-13545000D01*
X5557381Y-13554524D01*
X5538333Y-13583095D01*
X5528810Y-13621190D01*
X5528810Y-13697381D01*
X5538333Y-13716428D01*
X5547857Y-13725952D01*
X5566905Y-13735476D01*
X5605000Y-13735476D01*
X5624048Y-13725952D01*
X5633571Y-13716428D01*
X5643095Y-13697381D01*
X5643095Y-13649762D01*
X5633571Y-13630714D01*
X5624048Y-13621190D01*
X5605000Y-13611667D01*
X5566905Y-13611667D01*
X5547857Y-13621190D01*
X5538333Y-13630714D01*
X5528810Y-13649762D01*
X5824048Y-13535476D02*
X5728809Y-13535476D01*
X5719286Y-13630714D01*
X5728809Y-13621190D01*
X5747857Y-13611667D01*
X5795476Y-13611667D01*
X5814524Y-13621190D01*
X5824048Y-13630714D01*
X5833571Y-13649762D01*
X5833571Y-13697381D01*
X5824048Y-13716428D01*
X5814524Y-13725952D01*
X5795476Y-13735476D01*
X5747857Y-13735476D01*
X5728809Y-13725952D01*
X5719286Y-13716428D01*
X5957381Y-13535476D02*
X5976428Y-13535476D01*
X5995476Y-13545000D01*
X6005000Y-13554524D01*
X6014524Y-13573571D01*
X6024048Y-13611667D01*
X6024048Y-13659286D01*
X6014524Y-13697381D01*
X6005000Y-13716428D01*
X5995476Y-13725952D01*
X5976428Y-13735476D01*
X5957381Y-13735476D01*
X5938333Y-13725952D01*
X5928809Y-13716428D01*
X5919286Y-13697381D01*
X5909762Y-13659286D01*
X5909762Y-13611667D01*
X5919286Y-13573571D01*
X5928809Y-13554524D01*
X5938333Y-13545000D01*
X5957381Y-13535476D01*
X6109762Y-13735476D02*
X6109762Y-13602143D01*
X6109762Y-13621190D02*
X6119286Y-13611667D01*
X6138333Y-13602143D01*
X6166905Y-13602143D01*
X6185952Y-13611667D01*
X6195476Y-13630714D01*
X6195476Y-13735476D01*
X6195476Y-13630714D02*
X6205000Y-13611667D01*
X6224048Y-13602143D01*
X6252619Y-13602143D01*
X6271667Y-13611667D01*
X6281190Y-13630714D01*
X6281190Y-13735476D01*
X6376428Y-13735476D02*
X6376428Y-13602143D01*
X6376428Y-13621190D02*
X6385952Y-13611667D01*
X6405000Y-13602143D01*
X6433571Y-13602143D01*
X6452619Y-13611667D01*
X6462143Y-13630714D01*
X6462143Y-13735476D01*
X6462143Y-13630714D02*
X6471667Y-13611667D01*
X6490714Y-13602143D01*
X6519286Y-13602143D01*
X6538333Y-13611667D01*
X6547857Y-13630714D01*
X6547857Y-13735476D01*
X6938333Y-13525952D02*
X6766905Y-13783095D01*
X7195476Y-13535476D02*
X7214524Y-13535476D01*
X7233571Y-13545000D01*
X7243095Y-13554524D01*
X7252619Y-13573571D01*
X7262143Y-13611667D01*
X7262143Y-13659286D01*
X7252619Y-13697381D01*
X7243095Y-13716428D01*
X7233571Y-13725952D01*
X7214524Y-13735476D01*
X7195476Y-13735476D01*
X7176428Y-13725952D01*
X7166905Y-13716428D01*
X7157381Y-13697381D01*
X7147857Y-13659286D01*
X7147857Y-13611667D01*
X7157381Y-13573571D01*
X7166905Y-13554524D01*
X7176428Y-13545000D01*
X7195476Y-13535476D01*
X7347857Y-13716428D02*
X7357381Y-13725952D01*
X7347857Y-13735476D01*
X7338333Y-13725952D01*
X7347857Y-13716428D01*
X7347857Y-13735476D01*
X7481190Y-13535476D02*
X7500238Y-13535476D01*
X7519286Y-13545000D01*
X7528809Y-13554524D01*
X7538333Y-13573571D01*
X7547857Y-13611667D01*
X7547857Y-13659286D01*
X7538333Y-13697381D01*
X7528809Y-13716428D01*
X7519286Y-13725952D01*
X7500238Y-13735476D01*
X7481190Y-13735476D01*
X7462143Y-13725952D01*
X7452619Y-13716428D01*
X7443095Y-13697381D01*
X7433571Y-13659286D01*
X7433571Y-13611667D01*
X7443095Y-13573571D01*
X7452619Y-13554524D01*
X7462143Y-13545000D01*
X7481190Y-13535476D01*
X7624048Y-13554524D02*
X7633571Y-13545000D01*
X7652619Y-13535476D01*
X7700238Y-13535476D01*
X7719286Y-13545000D01*
X7728809Y-13554524D01*
X7738333Y-13573571D01*
X7738333Y-13592619D01*
X7728809Y-13621190D01*
X7614524Y-13735476D01*
X7738333Y-13735476D01*
X7919286Y-13535476D02*
X7824048Y-13535476D01*
X7814524Y-13630714D01*
X7824048Y-13621190D01*
X7843095Y-13611667D01*
X7890714Y-13611667D01*
X7909762Y-13621190D01*
X7919286Y-13630714D01*
X7928809Y-13649762D01*
X7928809Y-13697381D01*
X7919286Y-13716428D01*
X7909762Y-13725952D01*
X7890714Y-13735476D01*
X7843095Y-13735476D01*
X7824048Y-13725952D01*
X7814524Y-13716428D01*
X8100238Y-13535476D02*
X8062143Y-13535476D01*
X8043095Y-13545000D01*
X8033571Y-13554524D01*
X8014524Y-13583095D01*
X8005000Y-13621190D01*
X8005000Y-13697381D01*
X8014524Y-13716428D01*
X8024048Y-13725952D01*
X8043095Y-13735476D01*
X8081190Y-13735476D01*
X8100238Y-13725952D01*
X8109762Y-13716428D01*
X8119286Y-13697381D01*
X8119286Y-13649762D01*
X8109762Y-13630714D01*
X8100238Y-13621190D01*
X8081190Y-13611667D01*
X8043095Y-13611667D01*
X8024048Y-13621190D01*
X8014524Y-13630714D01*
X8005000Y-13649762D01*
X8195476Y-13535476D02*
X8195476Y-13573571D01*
X8271667Y-13535476D02*
X8271667Y-13573571D01*
X8566905Y-13811667D02*
X8557381Y-13802143D01*
X8538333Y-13773571D01*
X8528810Y-13754524D01*
X8519286Y-13725952D01*
X8509762Y-13678333D01*
X8509762Y-13640238D01*
X8519286Y-13592619D01*
X8528810Y-13564048D01*
X8538333Y-13545000D01*
X8557381Y-13516428D01*
X8566905Y-13506905D01*
X8633571Y-13554524D02*
X8643095Y-13545000D01*
X8662143Y-13535476D01*
X8709762Y-13535476D01*
X8728810Y-13545000D01*
X8738333Y-13554524D01*
X8747857Y-13573571D01*
X8747857Y-13592619D01*
X8738333Y-13621190D01*
X8624048Y-13735476D01*
X8747857Y-13735476D01*
X8985952Y-13735476D02*
X8985952Y-13535476D01*
X9071667Y-13735476D02*
X9071667Y-13630714D01*
X9062143Y-13611667D01*
X9043095Y-13602143D01*
X9014524Y-13602143D01*
X8995476Y-13611667D01*
X8985952Y-13621190D01*
X9195476Y-13735476D02*
X9176429Y-13725952D01*
X9166905Y-13716428D01*
X9157381Y-13697381D01*
X9157381Y-13640238D01*
X9166905Y-13621190D01*
X9176429Y-13611667D01*
X9195476Y-13602143D01*
X9224048Y-13602143D01*
X9243095Y-13611667D01*
X9252619Y-13621190D01*
X9262143Y-13640238D01*
X9262143Y-13697381D01*
X9252619Y-13716428D01*
X9243095Y-13725952D01*
X9224048Y-13735476D01*
X9195476Y-13735476D01*
X9376429Y-13735476D02*
X9357381Y-13725952D01*
X9347857Y-13706905D01*
X9347857Y-13535476D01*
X9528810Y-13725952D02*
X9509762Y-13735476D01*
X9471667Y-13735476D01*
X9452619Y-13725952D01*
X9443095Y-13706905D01*
X9443095Y-13630714D01*
X9452619Y-13611667D01*
X9471667Y-13602143D01*
X9509762Y-13602143D01*
X9528810Y-13611667D01*
X9538333Y-13630714D01*
X9538333Y-13649762D01*
X9443095Y-13668809D01*
X9614524Y-13725952D02*
X9633571Y-13735476D01*
X9671667Y-13735476D01*
X9690714Y-13725952D01*
X9700238Y-13706905D01*
X9700238Y-13697381D01*
X9690714Y-13678333D01*
X9671667Y-13668809D01*
X9643095Y-13668809D01*
X9624048Y-13659286D01*
X9614524Y-13640238D01*
X9614524Y-13630714D01*
X9624048Y-13611667D01*
X9643095Y-13602143D01*
X9671667Y-13602143D01*
X9690714Y-13611667D01*
X9766905Y-13811667D02*
X9776429Y-13802143D01*
X9795476Y-13773571D01*
X9805000Y-13754524D01*
X9814524Y-13725952D01*
X9824048Y-13678333D01*
X9824048Y-13640238D01*
X9814524Y-13592619D01*
X9805000Y-13564048D01*
X9795476Y-13545000D01*
X9776429Y-13516428D01*
X9766905Y-13506905D01*
X10128810Y-13811667D02*
X10119286Y-13802143D01*
X10100238Y-13773571D01*
X10090714Y-13754524D01*
X10081190Y-13725952D01*
X10071667Y-13678333D01*
X10071667Y-13640238D01*
X10081190Y-13592619D01*
X10090714Y-13564048D01*
X10100238Y-13545000D01*
X10119286Y-13516428D01*
X10128810Y-13506905D01*
X10205000Y-13602143D02*
X10205000Y-13735476D01*
X10205000Y-13621190D02*
X10214524Y-13611667D01*
X10233571Y-13602143D01*
X10262143Y-13602143D01*
X10281190Y-13611667D01*
X10290714Y-13630714D01*
X10290714Y-13735476D01*
X10414524Y-13735476D02*
X10395476Y-13725952D01*
X10385952Y-13716428D01*
X10376429Y-13697381D01*
X10376429Y-13640238D01*
X10385952Y-13621190D01*
X10395476Y-13611667D01*
X10414524Y-13602143D01*
X10443095Y-13602143D01*
X10462143Y-13611667D01*
X10471667Y-13621190D01*
X10481190Y-13640238D01*
X10481190Y-13697381D01*
X10471667Y-13716428D01*
X10462143Y-13725952D01*
X10443095Y-13735476D01*
X10414524Y-13735476D01*
X10538333Y-13602143D02*
X10614524Y-13602143D01*
X10566905Y-13535476D02*
X10566905Y-13706905D01*
X10576429Y-13725952D01*
X10595476Y-13735476D01*
X10614524Y-13735476D01*
X10833571Y-13602143D02*
X10833571Y-13802143D01*
X10833571Y-13611667D02*
X10852619Y-13602143D01*
X10890714Y-13602143D01*
X10909762Y-13611667D01*
X10919286Y-13621190D01*
X10928810Y-13640238D01*
X10928810Y-13697381D01*
X10919286Y-13716428D01*
X10909762Y-13725952D01*
X10890714Y-13735476D01*
X10852619Y-13735476D01*
X10833571Y-13725952D01*
X11043095Y-13735476D02*
X11024048Y-13725952D01*
X11014524Y-13706905D01*
X11014524Y-13535476D01*
X11205000Y-13735476D02*
X11205000Y-13630714D01*
X11195476Y-13611667D01*
X11176429Y-13602143D01*
X11138333Y-13602143D01*
X11119286Y-13611667D01*
X11205000Y-13725952D02*
X11185952Y-13735476D01*
X11138333Y-13735476D01*
X11119286Y-13725952D01*
X11109762Y-13706905D01*
X11109762Y-13687857D01*
X11119286Y-13668809D01*
X11138333Y-13659286D01*
X11185952Y-13659286D01*
X11205000Y-13649762D01*
X11271667Y-13602143D02*
X11347857Y-13602143D01*
X11300238Y-13535476D02*
X11300238Y-13706905D01*
X11309762Y-13725952D01*
X11328809Y-13735476D01*
X11347857Y-13735476D01*
X11490714Y-13725952D02*
X11471667Y-13735476D01*
X11433571Y-13735476D01*
X11414524Y-13725952D01*
X11405000Y-13706905D01*
X11405000Y-13630714D01*
X11414524Y-13611667D01*
X11433571Y-13602143D01*
X11471667Y-13602143D01*
X11490714Y-13611667D01*
X11500238Y-13630714D01*
X11500238Y-13649762D01*
X11405000Y-13668809D01*
X11671667Y-13735476D02*
X11671667Y-13535476D01*
X11671667Y-13725952D02*
X11652619Y-13735476D01*
X11614524Y-13735476D01*
X11595476Y-13725952D01*
X11585952Y-13716428D01*
X11576428Y-13697381D01*
X11576428Y-13640238D01*
X11585952Y-13621190D01*
X11595476Y-13611667D01*
X11614524Y-13602143D01*
X11652619Y-13602143D01*
X11671667Y-13611667D01*
X11747857Y-13811667D02*
X11757381Y-13802143D01*
X11776428Y-13773571D01*
X11785952Y-13754524D01*
X11795476Y-13725952D01*
X11805000Y-13678333D01*
X11805000Y-13640238D01*
X11795476Y-13592619D01*
X11785952Y-13564048D01*
X11776428Y-13545000D01*
X11757381Y-13516428D01*
X11747857Y-13506905D01*
D13*
X4995000Y-13909000D02*
G75*
G03*
X4995000Y-13909000I-45000J0D01*
G01*
D11*
X5290714Y-13799476D02*
X5309762Y-13799476D01*
X5328810Y-13809000D01*
X5338333Y-13818524D01*
X5347857Y-13837571D01*
X5357381Y-13875667D01*
X5357381Y-13923286D01*
X5347857Y-13961381D01*
X5338333Y-13980428D01*
X5328810Y-13989952D01*
X5309762Y-13999476D01*
X5290714Y-13999476D01*
X5271667Y-13989952D01*
X5262143Y-13980428D01*
X5252619Y-13961381D01*
X5243095Y-13923286D01*
X5243095Y-13875667D01*
X5252619Y-13837571D01*
X5262143Y-13818524D01*
X5271667Y-13809000D01*
X5290714Y-13799476D01*
X5443095Y-13980428D02*
X5452619Y-13989952D01*
X5443095Y-13999476D01*
X5433571Y-13989952D01*
X5443095Y-13980428D01*
X5443095Y-13999476D01*
X5547857Y-13999476D02*
X5585952Y-13999476D01*
X5605000Y-13989952D01*
X5614524Y-13980428D01*
X5633571Y-13951857D01*
X5643095Y-13913762D01*
X5643095Y-13837571D01*
X5633571Y-13818524D01*
X5624048Y-13809000D01*
X5605000Y-13799476D01*
X5566905Y-13799476D01*
X5547857Y-13809000D01*
X5538333Y-13818524D01*
X5528810Y-13837571D01*
X5528810Y-13885190D01*
X5538333Y-13904238D01*
X5547857Y-13913762D01*
X5566905Y-13923286D01*
X5605000Y-13923286D01*
X5624048Y-13913762D01*
X5633571Y-13904238D01*
X5643095Y-13885190D01*
X5766905Y-13799476D02*
X5785952Y-13799476D01*
X5805000Y-13809000D01*
X5814524Y-13818524D01*
X5824048Y-13837571D01*
X5833571Y-13875667D01*
X5833571Y-13923286D01*
X5824048Y-13961381D01*
X5814524Y-13980428D01*
X5805000Y-13989952D01*
X5785952Y-13999476D01*
X5766905Y-13999476D01*
X5747857Y-13989952D01*
X5738333Y-13980428D01*
X5728809Y-13961381D01*
X5719286Y-13923286D01*
X5719286Y-13875667D01*
X5728809Y-13837571D01*
X5738333Y-13818524D01*
X5747857Y-13809000D01*
X5766905Y-13799476D01*
X5957381Y-13799476D02*
X5976428Y-13799476D01*
X5995476Y-13809000D01*
X6005000Y-13818524D01*
X6014524Y-13837571D01*
X6024048Y-13875667D01*
X6024048Y-13923286D01*
X6014524Y-13961381D01*
X6005000Y-13980428D01*
X5995476Y-13989952D01*
X5976428Y-13999476D01*
X5957381Y-13999476D01*
X5938333Y-13989952D01*
X5928809Y-13980428D01*
X5919286Y-13961381D01*
X5909762Y-13923286D01*
X5909762Y-13875667D01*
X5919286Y-13837571D01*
X5928809Y-13818524D01*
X5938333Y-13809000D01*
X5957381Y-13799476D01*
X6109762Y-13999476D02*
X6109762Y-13866143D01*
X6109762Y-13885190D02*
X6119286Y-13875667D01*
X6138333Y-13866143D01*
X6166905Y-13866143D01*
X6185952Y-13875667D01*
X6195476Y-13894714D01*
X6195476Y-13999476D01*
X6195476Y-13894714D02*
X6205000Y-13875667D01*
X6224048Y-13866143D01*
X6252619Y-13866143D01*
X6271667Y-13875667D01*
X6281190Y-13894714D01*
X6281190Y-13999476D01*
X6376428Y-13999476D02*
X6376428Y-13866143D01*
X6376428Y-13885190D02*
X6385952Y-13875667D01*
X6405000Y-13866143D01*
X6433571Y-13866143D01*
X6452619Y-13875667D01*
X6462143Y-13894714D01*
X6462143Y-13999476D01*
X6462143Y-13894714D02*
X6471667Y-13875667D01*
X6490714Y-13866143D01*
X6519286Y-13866143D01*
X6538333Y-13875667D01*
X6547857Y-13894714D01*
X6547857Y-13999476D01*
X6938333Y-13789952D02*
X6766905Y-14047095D01*
X7195476Y-13799476D02*
X7214524Y-13799476D01*
X7233571Y-13809000D01*
X7243095Y-13818524D01*
X7252619Y-13837571D01*
X7262143Y-13875667D01*
X7262143Y-13923286D01*
X7252619Y-13961381D01*
X7243095Y-13980428D01*
X7233571Y-13989952D01*
X7214524Y-13999476D01*
X7195476Y-13999476D01*
X7176428Y-13989952D01*
X7166905Y-13980428D01*
X7157381Y-13961381D01*
X7147857Y-13923286D01*
X7147857Y-13875667D01*
X7157381Y-13837571D01*
X7166905Y-13818524D01*
X7176428Y-13809000D01*
X7195476Y-13799476D01*
X7347857Y-13980428D02*
X7357381Y-13989952D01*
X7347857Y-13999476D01*
X7338333Y-13989952D01*
X7347857Y-13980428D01*
X7347857Y-13999476D01*
X7481190Y-13799476D02*
X7500238Y-13799476D01*
X7519286Y-13809000D01*
X7528809Y-13818524D01*
X7538333Y-13837571D01*
X7547857Y-13875667D01*
X7547857Y-13923286D01*
X7538333Y-13961381D01*
X7528809Y-13980428D01*
X7519286Y-13989952D01*
X7500238Y-13999476D01*
X7481190Y-13999476D01*
X7462143Y-13989952D01*
X7452619Y-13980428D01*
X7443095Y-13961381D01*
X7433571Y-13923286D01*
X7433571Y-13875667D01*
X7443095Y-13837571D01*
X7452619Y-13818524D01*
X7462143Y-13809000D01*
X7481190Y-13799476D01*
X7614524Y-13799476D02*
X7738333Y-13799476D01*
X7671667Y-13875667D01*
X7700238Y-13875667D01*
X7719286Y-13885190D01*
X7728809Y-13894714D01*
X7738333Y-13913762D01*
X7738333Y-13961381D01*
X7728809Y-13980428D01*
X7719286Y-13989952D01*
X7700238Y-13999476D01*
X7643095Y-13999476D01*
X7624048Y-13989952D01*
X7614524Y-13980428D01*
X7919286Y-13799476D02*
X7824048Y-13799476D01*
X7814524Y-13894714D01*
X7824048Y-13885190D01*
X7843095Y-13875667D01*
X7890714Y-13875667D01*
X7909762Y-13885190D01*
X7919286Y-13894714D01*
X7928809Y-13913762D01*
X7928809Y-13961381D01*
X7919286Y-13980428D01*
X7909762Y-13989952D01*
X7890714Y-13999476D01*
X7843095Y-13999476D01*
X7824048Y-13989952D01*
X7814524Y-13980428D01*
X8100238Y-13866143D02*
X8100238Y-13999476D01*
X8052619Y-13789952D02*
X8005000Y-13932809D01*
X8128809Y-13932809D01*
X8195476Y-13799476D02*
X8195476Y-13837571D01*
X8271667Y-13799476D02*
X8271667Y-13837571D01*
X8566905Y-14075667D02*
X8557381Y-14066143D01*
X8538333Y-14037571D01*
X8528810Y-14018524D01*
X8519286Y-13989952D01*
X8509762Y-13942333D01*
X8509762Y-13904238D01*
X8519286Y-13856619D01*
X8528810Y-13828048D01*
X8538333Y-13809000D01*
X8557381Y-13780428D01*
X8566905Y-13770905D01*
X8633571Y-13818524D02*
X8643095Y-13809000D01*
X8662143Y-13799476D01*
X8709762Y-13799476D01*
X8728810Y-13809000D01*
X8738333Y-13818524D01*
X8747857Y-13837571D01*
X8747857Y-13856619D01*
X8738333Y-13885190D01*
X8624048Y-13999476D01*
X8747857Y-13999476D01*
X8985952Y-13999476D02*
X8985952Y-13799476D01*
X9071667Y-13999476D02*
X9071667Y-13894714D01*
X9062143Y-13875667D01*
X9043095Y-13866143D01*
X9014524Y-13866143D01*
X8995476Y-13875667D01*
X8985952Y-13885190D01*
X9195476Y-13999476D02*
X9176429Y-13989952D01*
X9166905Y-13980428D01*
X9157381Y-13961381D01*
X9157381Y-13904238D01*
X9166905Y-13885190D01*
X9176429Y-13875667D01*
X9195476Y-13866143D01*
X9224048Y-13866143D01*
X9243095Y-13875667D01*
X9252619Y-13885190D01*
X9262143Y-13904238D01*
X9262143Y-13961381D01*
X9252619Y-13980428D01*
X9243095Y-13989952D01*
X9224048Y-13999476D01*
X9195476Y-13999476D01*
X9376429Y-13999476D02*
X9357381Y-13989952D01*
X9347857Y-13970905D01*
X9347857Y-13799476D01*
X9528810Y-13989952D02*
X9509762Y-13999476D01*
X9471667Y-13999476D01*
X9452619Y-13989952D01*
X9443095Y-13970905D01*
X9443095Y-13894714D01*
X9452619Y-13875667D01*
X9471667Y-13866143D01*
X9509762Y-13866143D01*
X9528810Y-13875667D01*
X9538333Y-13894714D01*
X9538333Y-13913762D01*
X9443095Y-13932809D01*
X9614524Y-13989952D02*
X9633571Y-13999476D01*
X9671667Y-13999476D01*
X9690714Y-13989952D01*
X9700238Y-13970905D01*
X9700238Y-13961381D01*
X9690714Y-13942333D01*
X9671667Y-13932809D01*
X9643095Y-13932809D01*
X9624048Y-13923286D01*
X9614524Y-13904238D01*
X9614524Y-13894714D01*
X9624048Y-13875667D01*
X9643095Y-13866143D01*
X9671667Y-13866143D01*
X9690714Y-13875667D01*
X9766905Y-14075667D02*
X9776429Y-14066143D01*
X9795476Y-14037571D01*
X9805000Y-14018524D01*
X9814524Y-13989952D01*
X9824048Y-13942333D01*
X9824048Y-13904238D01*
X9814524Y-13856619D01*
X9805000Y-13828048D01*
X9795476Y-13809000D01*
X9776429Y-13780428D01*
X9766905Y-13770905D01*
X10128810Y-14075667D02*
X10119286Y-14066143D01*
X10100238Y-14037571D01*
X10090714Y-14018524D01*
X10081190Y-13989952D01*
X10071667Y-13942333D01*
X10071667Y-13904238D01*
X10081190Y-13856619D01*
X10090714Y-13828048D01*
X10100238Y-13809000D01*
X10119286Y-13780428D01*
X10128810Y-13770905D01*
X10205000Y-13866143D02*
X10205000Y-13999476D01*
X10205000Y-13885190D02*
X10214524Y-13875667D01*
X10233571Y-13866143D01*
X10262143Y-13866143D01*
X10281190Y-13875667D01*
X10290714Y-13894714D01*
X10290714Y-13999476D01*
X10414524Y-13999476D02*
X10395476Y-13989952D01*
X10385952Y-13980428D01*
X10376429Y-13961381D01*
X10376429Y-13904238D01*
X10385952Y-13885190D01*
X10395476Y-13875667D01*
X10414524Y-13866143D01*
X10443095Y-13866143D01*
X10462143Y-13875667D01*
X10471667Y-13885190D01*
X10481190Y-13904238D01*
X10481190Y-13961381D01*
X10471667Y-13980428D01*
X10462143Y-13989952D01*
X10443095Y-13999476D01*
X10414524Y-13999476D01*
X10538333Y-13866143D02*
X10614524Y-13866143D01*
X10566905Y-13799476D02*
X10566905Y-13970905D01*
X10576429Y-13989952D01*
X10595476Y-13999476D01*
X10614524Y-13999476D01*
X10833571Y-13866143D02*
X10833571Y-14066143D01*
X10833571Y-13875667D02*
X10852619Y-13866143D01*
X10890714Y-13866143D01*
X10909762Y-13875667D01*
X10919286Y-13885190D01*
X10928810Y-13904238D01*
X10928810Y-13961381D01*
X10919286Y-13980428D01*
X10909762Y-13989952D01*
X10890714Y-13999476D01*
X10852619Y-13999476D01*
X10833571Y-13989952D01*
X11043095Y-13999476D02*
X11024048Y-13989952D01*
X11014524Y-13970905D01*
X11014524Y-13799476D01*
X11205000Y-13999476D02*
X11205000Y-13894714D01*
X11195476Y-13875667D01*
X11176429Y-13866143D01*
X11138333Y-13866143D01*
X11119286Y-13875667D01*
X11205000Y-13989952D02*
X11185952Y-13999476D01*
X11138333Y-13999476D01*
X11119286Y-13989952D01*
X11109762Y-13970905D01*
X11109762Y-13951857D01*
X11119286Y-13932809D01*
X11138333Y-13923286D01*
X11185952Y-13923286D01*
X11205000Y-13913762D01*
X11271667Y-13866143D02*
X11347857Y-13866143D01*
X11300238Y-13799476D02*
X11300238Y-13970905D01*
X11309762Y-13989952D01*
X11328809Y-13999476D01*
X11347857Y-13999476D01*
X11490714Y-13989952D02*
X11471667Y-13999476D01*
X11433571Y-13999476D01*
X11414524Y-13989952D01*
X11405000Y-13970905D01*
X11405000Y-13894714D01*
X11414524Y-13875667D01*
X11433571Y-13866143D01*
X11471667Y-13866143D01*
X11490714Y-13875667D01*
X11500238Y-13894714D01*
X11500238Y-13913762D01*
X11405000Y-13932809D01*
X11671667Y-13999476D02*
X11671667Y-13799476D01*
X11671667Y-13989952D02*
X11652619Y-13999476D01*
X11614524Y-13999476D01*
X11595476Y-13989952D01*
X11585952Y-13980428D01*
X11576428Y-13961381D01*
X11576428Y-13904238D01*
X11585952Y-13885190D01*
X11595476Y-13875667D01*
X11614524Y-13866143D01*
X11652619Y-13866143D01*
X11671667Y-13875667D01*
X11747857Y-14075667D02*
X11757381Y-14066143D01*
X11776428Y-14037571D01*
X11785952Y-14018524D01*
X11795476Y-13989952D01*
X11805000Y-13942333D01*
X11805000Y-13904238D01*
X11795476Y-13856619D01*
X11785952Y-13828048D01*
X11776428Y-13809000D01*
X11757381Y-13780428D01*
X11747857Y-13770905D01*
X4895000Y-14073000D02*
X4895000Y-14273000D01*
X4795000Y-14173000D02*
X4995000Y-14173000D01*
X5233571Y-14063476D02*
X5357381Y-14063476D01*
X5290714Y-14139667D01*
X5319286Y-14139667D01*
X5338333Y-14149190D01*
X5347857Y-14158714D01*
X5357381Y-14177762D01*
X5357381Y-14225381D01*
X5347857Y-14244428D01*
X5338333Y-14253952D01*
X5319286Y-14263476D01*
X5262143Y-14263476D01*
X5243095Y-14253952D01*
X5233571Y-14244428D01*
X5443095Y-14244428D02*
X5452619Y-14253952D01*
X5443095Y-14263476D01*
X5433571Y-14253952D01*
X5443095Y-14244428D01*
X5443095Y-14263476D01*
X5566905Y-14149190D02*
X5547857Y-14139667D01*
X5538333Y-14130143D01*
X5528810Y-14111095D01*
X5528810Y-14101571D01*
X5538333Y-14082524D01*
X5547857Y-14073000D01*
X5566905Y-14063476D01*
X5605000Y-14063476D01*
X5624048Y-14073000D01*
X5633571Y-14082524D01*
X5643095Y-14101571D01*
X5643095Y-14111095D01*
X5633571Y-14130143D01*
X5624048Y-14139667D01*
X5605000Y-14149190D01*
X5566905Y-14149190D01*
X5547857Y-14158714D01*
X5538333Y-14168238D01*
X5528810Y-14187286D01*
X5528810Y-14225381D01*
X5538333Y-14244428D01*
X5547857Y-14253952D01*
X5566905Y-14263476D01*
X5605000Y-14263476D01*
X5624048Y-14253952D01*
X5633571Y-14244428D01*
X5643095Y-14225381D01*
X5643095Y-14187286D01*
X5633571Y-14168238D01*
X5624048Y-14158714D01*
X5605000Y-14149190D01*
X5833571Y-14263476D02*
X5719286Y-14263476D01*
X5776428Y-14263476D02*
X5776428Y-14063476D01*
X5757381Y-14092048D01*
X5738333Y-14111095D01*
X5719286Y-14120619D01*
X5957381Y-14063476D02*
X5976428Y-14063476D01*
X5995476Y-14073000D01*
X6005000Y-14082524D01*
X6014524Y-14101571D01*
X6024048Y-14139667D01*
X6024048Y-14187286D01*
X6014524Y-14225381D01*
X6005000Y-14244428D01*
X5995476Y-14253952D01*
X5976428Y-14263476D01*
X5957381Y-14263476D01*
X5938333Y-14253952D01*
X5928809Y-14244428D01*
X5919286Y-14225381D01*
X5909762Y-14187286D01*
X5909762Y-14139667D01*
X5919286Y-14101571D01*
X5928809Y-14082524D01*
X5938333Y-14073000D01*
X5957381Y-14063476D01*
X6109762Y-14263476D02*
X6109762Y-14130143D01*
X6109762Y-14149190D02*
X6119286Y-14139667D01*
X6138333Y-14130143D01*
X6166905Y-14130143D01*
X6185952Y-14139667D01*
X6195476Y-14158714D01*
X6195476Y-14263476D01*
X6195476Y-14158714D02*
X6205000Y-14139667D01*
X6224048Y-14130143D01*
X6252619Y-14130143D01*
X6271667Y-14139667D01*
X6281190Y-14158714D01*
X6281190Y-14263476D01*
X6376428Y-14263476D02*
X6376428Y-14130143D01*
X6376428Y-14149190D02*
X6385952Y-14139667D01*
X6405000Y-14130143D01*
X6433571Y-14130143D01*
X6452619Y-14139667D01*
X6462143Y-14158714D01*
X6462143Y-14263476D01*
X6462143Y-14158714D02*
X6471667Y-14139667D01*
X6490714Y-14130143D01*
X6519286Y-14130143D01*
X6538333Y-14139667D01*
X6547857Y-14158714D01*
X6547857Y-14263476D01*
X6938333Y-14053952D02*
X6766905Y-14311095D01*
X7195476Y-14063476D02*
X7214524Y-14063476D01*
X7233571Y-14073000D01*
X7243095Y-14082524D01*
X7252619Y-14101571D01*
X7262143Y-14139667D01*
X7262143Y-14187286D01*
X7252619Y-14225381D01*
X7243095Y-14244428D01*
X7233571Y-14253952D01*
X7214524Y-14263476D01*
X7195476Y-14263476D01*
X7176428Y-14253952D01*
X7166905Y-14244428D01*
X7157381Y-14225381D01*
X7147857Y-14187286D01*
X7147857Y-14139667D01*
X7157381Y-14101571D01*
X7166905Y-14082524D01*
X7176428Y-14073000D01*
X7195476Y-14063476D01*
X7347857Y-14244428D02*
X7357381Y-14253952D01*
X7347857Y-14263476D01*
X7338333Y-14253952D01*
X7347857Y-14244428D01*
X7347857Y-14263476D01*
X7547857Y-14263476D02*
X7433571Y-14263476D01*
X7490714Y-14263476D02*
X7490714Y-14063476D01*
X7471667Y-14092048D01*
X7452619Y-14111095D01*
X7433571Y-14120619D01*
X7728809Y-14063476D02*
X7633571Y-14063476D01*
X7624048Y-14158714D01*
X7633571Y-14149190D01*
X7652619Y-14139667D01*
X7700238Y-14139667D01*
X7719286Y-14149190D01*
X7728809Y-14158714D01*
X7738333Y-14177762D01*
X7738333Y-14225381D01*
X7728809Y-14244428D01*
X7719286Y-14253952D01*
X7700238Y-14263476D01*
X7652619Y-14263476D01*
X7633571Y-14253952D01*
X7624048Y-14244428D01*
X7862143Y-14063476D02*
X7881190Y-14063476D01*
X7900238Y-14073000D01*
X7909762Y-14082524D01*
X7919286Y-14101571D01*
X7928809Y-14139667D01*
X7928809Y-14187286D01*
X7919286Y-14225381D01*
X7909762Y-14244428D01*
X7900238Y-14253952D01*
X7881190Y-14263476D01*
X7862143Y-14263476D01*
X7843095Y-14253952D01*
X7833571Y-14244428D01*
X7824048Y-14225381D01*
X7814524Y-14187286D01*
X7814524Y-14139667D01*
X7824048Y-14101571D01*
X7833571Y-14082524D01*
X7843095Y-14073000D01*
X7862143Y-14063476D01*
X8052619Y-14063476D02*
X8071667Y-14063476D01*
X8090714Y-14073000D01*
X8100238Y-14082524D01*
X8109762Y-14101571D01*
X8119286Y-14139667D01*
X8119286Y-14187286D01*
X8109762Y-14225381D01*
X8100238Y-14244428D01*
X8090714Y-14253952D01*
X8071667Y-14263476D01*
X8052619Y-14263476D01*
X8033571Y-14253952D01*
X8024048Y-14244428D01*
X8014524Y-14225381D01*
X8005000Y-14187286D01*
X8005000Y-14139667D01*
X8014524Y-14101571D01*
X8024048Y-14082524D01*
X8033571Y-14073000D01*
X8052619Y-14063476D01*
X8195476Y-14063476D02*
X8195476Y-14101571D01*
X8271667Y-14063476D02*
X8271667Y-14101571D01*
X8566905Y-14339667D02*
X8557381Y-14330143D01*
X8538333Y-14301571D01*
X8528810Y-14282524D01*
X8519286Y-14253952D01*
X8509762Y-14206333D01*
X8509762Y-14168238D01*
X8519286Y-14120619D01*
X8528810Y-14092048D01*
X8538333Y-14073000D01*
X8557381Y-14044428D01*
X8566905Y-14034905D01*
X8747857Y-14263476D02*
X8633571Y-14263476D01*
X8690714Y-14263476D02*
X8690714Y-14063476D01*
X8671667Y-14092048D01*
X8652619Y-14111095D01*
X8633571Y-14120619D01*
X8985952Y-14263476D02*
X8985952Y-14063476D01*
X9071667Y-14263476D02*
X9071667Y-14158714D01*
X9062143Y-14139667D01*
X9043095Y-14130143D01*
X9014524Y-14130143D01*
X8995476Y-14139667D01*
X8985952Y-14149190D01*
X9195476Y-14263476D02*
X9176429Y-14253952D01*
X9166905Y-14244428D01*
X9157381Y-14225381D01*
X9157381Y-14168238D01*
X9166905Y-14149190D01*
X9176429Y-14139667D01*
X9195476Y-14130143D01*
X9224048Y-14130143D01*
X9243095Y-14139667D01*
X9252619Y-14149190D01*
X9262143Y-14168238D01*
X9262143Y-14225381D01*
X9252619Y-14244428D01*
X9243095Y-14253952D01*
X9224048Y-14263476D01*
X9195476Y-14263476D01*
X9376429Y-14263476D02*
X9357381Y-14253952D01*
X9347857Y-14234905D01*
X9347857Y-14063476D01*
X9528810Y-14253952D02*
X9509762Y-14263476D01*
X9471667Y-14263476D01*
X9452619Y-14253952D01*
X9443095Y-14234905D01*
X9443095Y-14158714D01*
X9452619Y-14139667D01*
X9471667Y-14130143D01*
X9509762Y-14130143D01*
X9528810Y-14139667D01*
X9538333Y-14158714D01*
X9538333Y-14177762D01*
X9443095Y-14196809D01*
X9605000Y-14339667D02*
X9614524Y-14330143D01*
X9633571Y-14301571D01*
X9643095Y-14282524D01*
X9652619Y-14253952D01*
X9662143Y-14206333D01*
X9662143Y-14168238D01*
X9652619Y-14120619D01*
X9643095Y-14092048D01*
X9633571Y-14073000D01*
X9614524Y-14044428D01*
X9605000Y-14034905D01*
X9966905Y-14339667D02*
X9957381Y-14330143D01*
X9938333Y-14301571D01*
X9928810Y-14282524D01*
X9919286Y-14253952D01*
X9909762Y-14206333D01*
X9909762Y-14168238D01*
X9919286Y-14120619D01*
X9928810Y-14092048D01*
X9938333Y-14073000D01*
X9957381Y-14044428D01*
X9966905Y-14034905D01*
X10043095Y-14130143D02*
X10043095Y-14263476D01*
X10043095Y-14149190D02*
X10052619Y-14139667D01*
X10071667Y-14130143D01*
X10100238Y-14130143D01*
X10119286Y-14139667D01*
X10128810Y-14158714D01*
X10128810Y-14263476D01*
X10252619Y-14263476D02*
X10233571Y-14253952D01*
X10224048Y-14244428D01*
X10214524Y-14225381D01*
X10214524Y-14168238D01*
X10224048Y-14149190D01*
X10233571Y-14139667D01*
X10252619Y-14130143D01*
X10281190Y-14130143D01*
X10300238Y-14139667D01*
X10309762Y-14149190D01*
X10319286Y-14168238D01*
X10319286Y-14225381D01*
X10309762Y-14244428D01*
X10300238Y-14253952D01*
X10281190Y-14263476D01*
X10252619Y-14263476D01*
X10376429Y-14130143D02*
X10452619Y-14130143D01*
X10405000Y-14063476D02*
X10405000Y-14234905D01*
X10414524Y-14253952D01*
X10433571Y-14263476D01*
X10452619Y-14263476D01*
X10671667Y-14130143D02*
X10671667Y-14330143D01*
X10671667Y-14139667D02*
X10690714Y-14130143D01*
X10728810Y-14130143D01*
X10747857Y-14139667D01*
X10757381Y-14149190D01*
X10766905Y-14168238D01*
X10766905Y-14225381D01*
X10757381Y-14244428D01*
X10747857Y-14253952D01*
X10728810Y-14263476D01*
X10690714Y-14263476D01*
X10671667Y-14253952D01*
X10881190Y-14263476D02*
X10862143Y-14253952D01*
X10852619Y-14234905D01*
X10852619Y-14063476D01*
X11043095Y-14263476D02*
X11043095Y-14158714D01*
X11033571Y-14139667D01*
X11014524Y-14130143D01*
X10976429Y-14130143D01*
X10957381Y-14139667D01*
X11043095Y-14253952D02*
X11024048Y-14263476D01*
X10976429Y-14263476D01*
X10957381Y-14253952D01*
X10947857Y-14234905D01*
X10947857Y-14215857D01*
X10957381Y-14196809D01*
X10976429Y-14187286D01*
X11024048Y-14187286D01*
X11043095Y-14177762D01*
X11109762Y-14130143D02*
X11185952Y-14130143D01*
X11138333Y-14063476D02*
X11138333Y-14234905D01*
X11147857Y-14253952D01*
X11166905Y-14263476D01*
X11185952Y-14263476D01*
X11328809Y-14253952D02*
X11309762Y-14263476D01*
X11271667Y-14263476D01*
X11252619Y-14253952D01*
X11243095Y-14234905D01*
X11243095Y-14158714D01*
X11252619Y-14139667D01*
X11271667Y-14130143D01*
X11309762Y-14130143D01*
X11328809Y-14139667D01*
X11338333Y-14158714D01*
X11338333Y-14177762D01*
X11243095Y-14196809D01*
X11509762Y-14263476D02*
X11509762Y-14063476D01*
X11509762Y-14253952D02*
X11490714Y-14263476D01*
X11452619Y-14263476D01*
X11433571Y-14253952D01*
X11424048Y-14244428D01*
X11414524Y-14225381D01*
X11414524Y-14168238D01*
X11424048Y-14149190D01*
X11433571Y-14139667D01*
X11452619Y-14130143D01*
X11490714Y-14130143D01*
X11509762Y-14139667D01*
X11585952Y-14339667D02*
X11595476Y-14330143D01*
X11614524Y-14301571D01*
X11624048Y-14282524D01*
X11633571Y-14253952D01*
X11643095Y-14206333D01*
X11643095Y-14168238D01*
X11633571Y-14120619D01*
X11624048Y-14092048D01*
X11614524Y-14073000D01*
X11595476Y-14044428D01*
X11585952Y-14034905D01*
M02*
