M48
; DRILL file {KiCad 9.0.2} date 2025-05-25T14:11:43-0500
; FORMAT={-:-/ absolute / metric / decimal}
; #@! TF.CreationDate,2025-05-25T14:11:43-05:00
; #@! TF.GenerationSoftware,Kicad,Pcbnew,9.0.2
; #@! TF.FileFunction,Plated,1,2,PTH
FMAT,2
METRIC
; #@! TA.AperFunction,Plated,PTH,ViaDrill
T1C0.400
; #@! TA.AperFunction,Plated,PTH,ComponentDrill
T2C0.600
; #@! TA.AperFunction,Plated,PTH,ComponentDrill
T3C0.762
; #@! TA.AperFunction,Plated,PTH,ComponentDrill
T4C0.787
; #@! TA.AperFunction,Plated,PTH,ComponentDrill
T5C0.800
; #@! TA.AperFunction,Plated,PTH,ComponentDrill
T6C0.889
; #@! TA.AperFunction,Plated,PTH,ComponentDrill
T7C0.899
; #@! TA.AperFunction,Plated,PTH,ComponentDrill
T8C0.990
; #@! TA.AperFunction,Plated,PTH,ComponentDrill
T9C1.000
; #@! TA.AperFunction,Plated,PTH,ComponentDrill
T10C1.016
; #@! TA.AperFunction,Plated,PTH,ComponentDrill
T11C1.100
; #@! TA.AperFunction,Plated,PTH,ComponentDrill
T12C1.300
; #@! TA.AperFunction,Plated,PTH,ComponentDrill
T13C1.397
; #@! TA.AperFunction,Plated,PTH,ComponentDrill
T14C2.880
%
G90
G05
T1
X77.202Y-113.03
X77.826Y-113.03
X82.55Y-127.635
X84.455Y-127.635
X86.36Y-127.614
X88.265Y-127.571
X91.034Y-84.703
X92.329Y-72.349
X92.964Y-82.78
X94.234Y-72.349
X95.733Y-97.536
X96.19Y-115.24
X96.19Y-116.002
X96.19Y-116.764
X96.393Y-127.631
X96.749Y-97.536
X97.409Y-121.158
X97.409Y-122.174
X98.298Y-127.631
X99.464Y-107.763
X99.466Y-108.387
X99.568Y-121.158
X100.203Y-127.61
X100.33Y-122.174
X102.108Y-127.566
X102.489Y-83.058
X105.016Y-90.932
X105.016Y-91.948
X105.029Y-89.916
X106.68Y-112.014
X106.68Y-113.03
X106.68Y-114.046
X108.534Y-109.697
X108.534Y-110.612
X109.269Y-107.763
X109.271Y-108.387
X109.423Y-109.703
X109.423Y-110.617
X111.354Y-117.348
X111.76Y-72.351
X112.163Y-89.23
X112.268Y-117.348
X113.03Y-127.591
X113.182Y-117.348
X113.665Y-72.351
X113.981Y-89.23
X114.017Y-97.714
X114.427Y-83.312
X114.873Y-122.301
X114.935Y-127.591
X115.508Y-122.299
X115.77Y-87.782
X115.77Y-89.238
X115.835Y-97.714
X116.84Y-127.571
X117.653Y-97.714
X118.364Y-102.128
X118.364Y-103.1
X118.745Y-127.527
X119.634Y-83.312
X120.332Y-102.029
X120.622Y-87.782
X122.196Y-111.022
X122.199Y-112.102
X123.441Y-111.023
X123.444Y-112.103
X123.797Y-105.766
X123.8Y-106.515
X124.46Y-83.312
X124.612Y-105.766
X124.612Y-106.528
X124.638Y-111.023
X124.638Y-112.116
X125.12Y-72.371
X125.994Y-87.782
X126.009Y-94.945
X126.162Y-99.187
X126.162Y-100.203
X126.162Y-102.235
X126.162Y-103.251
X126.162Y-104.267
X127.025Y-72.371
X127.178Y-99.187
X127.178Y-100.203
X127.178Y-102.235
X127.178Y-103.251
X127.178Y-104.267
X127.279Y-95.199
X129.032Y-99.187
X129.032Y-100.203
X129.108Y-102.235
X129.108Y-103.251
X129.108Y-104.267
X129.857Y-83.312
X129.896Y-95.656
X130.124Y-102.235
X130.124Y-103.251
X130.124Y-104.267
X130.81Y-95.275
X130.87Y-87.782
X130.988Y-94.31
X131.14Y-100.203
X131.14Y-101.219
X131.14Y-102.235
X131.14Y-103.251
X131.14Y-104.267
X133.147Y-114.337
X134.112Y-90.489
X134.522Y-83.312
X134.874Y-87.782
X136.423Y-106.223
X137.668Y-92.05
X137.744Y-101.854
X138.036Y-98.692
X138.1Y-72.371
X138.379Y-101.092
X138.379Y-102.616
X138.938Y-92.05
X140.005Y-72.371
X140.208Y-92.05
X141.478Y-86.716
X141.478Y-92.05
X141.605Y-127.548
X141.656Y-106.223
X142.841Y-122.297
X143.502Y-122.301
X143.51Y-127.548
X145.263Y-111.608
X145.415Y-127.527
X147.32Y-127.483
X147.625Y-111.608
X149.352Y-76.81
X149.352Y-82.702
X149.86Y-72.39
X151.74Y-76.81
X151.765Y-72.39
X153.67Y-103.686
X154.305Y-127.504
X154.424Y-118.829
X154.899Y-103.686
X155.296Y-113.005
X155.486Y-79.502
X155.486Y-80.112
X155.702Y-119.329
X156.121Y-79.502
X156.121Y-80.112
X156.169Y-103.686
X156.21Y-127.504
X156.667Y-118.364
X156.667Y-119.329
X156.972Y-117.221
X157.439Y-103.686
X158.115Y-127.483
X159.766Y-122.657
X160.377Y-79.505
X160.377Y-80.115
X161.012Y-79.505
X161.012Y-80.115
X161.798Y-110.719
X161.798Y-111.277
X163.775Y-79.487
X163.775Y-80.096
X164.41Y-79.487
X164.41Y-80.096
X164.821Y-72.375
X164.891Y-88.011
X164.897Y-88.646
X166.726Y-72.375
X169.875Y-124.152
X170.561Y-124.152
X171.45Y-127.504
X172.604Y-88.087
X172.606Y-88.722
X173.355Y-127.504
X175.26Y-127.483
X177.165Y-127.44
X185.42Y-98.552
X185.928Y-98.044
X187.706Y-76.708
X195.453Y-87.224
X195.91Y-87.655
T3
X162.115Y-116.329
T4
X162.115Y-118.869
T5
X121.12Y-126.746
X123.66Y-126.746
X126.2Y-126.746
X128.74Y-126.746
X131.28Y-126.746
X133.82Y-126.746
X136.36Y-126.746
X138.9Y-126.746
T6
X77.46Y-110.033
X80.0Y-110.033
X82.54Y-110.033
X90.033Y-97.46
X90.033Y-100.0
X90.033Y-102.54
T7
X67.75Y-96.75
X67.75Y-103.25
X72.25Y-96.75
X72.25Y-103.25
T8
X85.09Y-72.771
X89.59Y-72.771
X170.18Y-72.771
X174.68Y-72.771
T9
X67.75Y-76.708
X67.75Y-84.308
X100.833Y-76.429
X100.833Y-78.969
X103.373Y-76.429
X103.373Y-78.969
X105.913Y-76.429
X105.913Y-78.969
T10
X115.762Y-75.921
X118.302Y-75.921
X120.842Y-75.921
X123.382Y-75.921
X128.762Y-75.921
X131.302Y-75.921
X133.842Y-75.921
X136.382Y-75.921
X141.757Y-75.921
X144.297Y-75.921
X146.837Y-75.921
T11
X54.102Y-92.456
X57.284Y-95.638
X58.698Y-87.86
X61.88Y-91.042
T12
X83.84Y-75.261
X90.85Y-75.261
X168.93Y-75.261
X175.94Y-75.261
T13
X73.206Y-92.507
X73.206Y-107.493
X86.794Y-92.507
X86.794Y-107.493
T14
X109.426Y-86.352
X109.426Y-127.5
X150.574Y-86.352
X150.574Y-127.5
T2
G00X153.922Y-71.969
M15
G01X153.922Y-71.369
M16
G05
G00X153.922Y-76.399
M15
G01X153.922Y-75.299
M16
G05
G00X162.562Y-71.969
M15
G01X162.562Y-71.369
M16
G05
G00X162.562Y-76.399
M15
G01X162.562Y-75.299
M16
G05
M30
