G04 #@! TF.GenerationSoftware,KiCad,Pcbnew,(6.0.9)*
G04 #@! TF.CreationDate,2022-12-19T15:28:56-05:00*
G04 #@! TF.ProjectId,Game_Cat_R4,47616d65-5f43-4617-945f-52342e6b6963,4.1.4*
G04 #@! TF.SameCoordinates,Original*
G04 #@! TF.FileFunction,Paste,Top*
G04 #@! TF.FilePolarity,Positive*
%FSLAX46Y46*%
G04 Gerber Fmt 4.6, Leading zero omitted, Abs format (unit mm)*
G04 Created by KiCad (PCBNEW (6.0.9)) date 2022-12-19 15:28:56*
%MOMM*%
%LPD*%
G01*
G04 APERTURE LIST*
G04 Aperture macros list*
%AMRoundRect*
0 Rectangle with rounded corners*
0 $1 Rounding radius*
0 $2 $3 $4 $5 $6 $7 $8 $9 X,Y pos of 4 corners*
0 Add a 4 corners polygon primitive as box body*
4,1,4,$2,$3,$4,$5,$6,$7,$8,$9,$2,$3,0*
0 Add four circle primitives for the rounded corners*
1,1,$1+$1,$2,$3*
1,1,$1+$1,$4,$5*
1,1,$1+$1,$6,$7*
1,1,$1+$1,$8,$9*
0 Add four rect primitives between the rounded corners*
20,1,$1+$1,$2,$3,$4,$5,0*
20,1,$1+$1,$4,$5,$6,$7,0*
20,1,$1+$1,$6,$7,$8,$9,0*
20,1,$1+$1,$8,$9,$2,$3,0*%
%AMRotRect*
0 Rectangle, with rotation*
0 The origin of the aperture is its center*
0 $1 length*
0 $2 width*
0 $3 Rotation angle, in degrees counterclockwise*
0 Add horizontal line*
21,1,$1,$2,0,0,$3*%
G04 Aperture macros list end*
%ADD10RoundRect,0.224600X0.425000X-0.450000X0.425000X0.450000X-0.425000X0.450000X-0.425000X-0.450000X0*%
%ADD11RoundRect,0.224600X0.650000X-0.325000X0.650000X0.325000X-0.650000X0.325000X-0.650000X-0.325000X0*%
%ADD12RoundRect,0.224600X0.325000X0.650000X-0.325000X0.650000X-0.325000X-0.650000X0.325000X-0.650000X0*%
%ADD13RoundRect,0.224600X-0.250000X-0.475000X0.250000X-0.475000X0.250000X0.475000X-0.250000X0.475000X0*%
%ADD14RoundRect,0.224600X-0.650000X0.325000X-0.650000X-0.325000X0.650000X-0.325000X0.650000X0.325000X0*%
%ADD15RoundRect,0.224600X-0.475000X0.250000X-0.475000X-0.250000X0.475000X-0.250000X0.475000X0.250000X0*%
%ADD16RoundRect,0.124600X-0.150000X0.587500X-0.150000X-0.587500X0.150000X-0.587500X0.150000X0.587500X0*%
%ADD17RoundRect,0.124600X-0.587500X-0.150000X0.587500X-0.150000X0.587500X0.150000X-0.587500X0.150000X0*%
%ADD18RoundRect,0.124600X0.150000X-0.587500X0.150000X0.587500X-0.150000X0.587500X-0.150000X-0.587500X0*%
%ADD19RoundRect,0.224600X-0.220971X0.662913X-0.662913X0.220971X0.220971X-0.662913X0.662913X-0.220971X0*%
%ADD20RoundRect,0.224600X0.625000X-0.312500X0.625000X0.312500X-0.625000X0.312500X-0.625000X-0.312500X0*%
%ADD21RoundRect,0.224600X-0.625000X0.312500X-0.625000X-0.312500X0.625000X-0.312500X0.625000X0.312500X0*%
%ADD22RoundRect,0.224600X-0.312500X-0.625000X0.312500X-0.625000X0.312500X0.625000X-0.312500X0.625000X0*%
%ADD23RoundRect,0.224600X0.312500X0.625000X-0.312500X0.625000X-0.312500X-0.625000X0.312500X-0.625000X0*%
%ADD24RoundRect,0.124600X-0.150000X0.825000X-0.150000X-0.825000X0.150000X-0.825000X0.150000X0.825000X0*%
%ADD25RoundRect,0.224600X0.250000X0.475000X-0.250000X0.475000X-0.250000X-0.475000X0.250000X-0.475000X0*%
%ADD26RoundRect,0.124600X0.150000X-0.512500X0.150000X0.512500X-0.150000X0.512500X-0.150000X-0.512500X0*%
%ADD27R,1.450340X1.648460*%
%ADD28R,0.749300X1.628140*%
%ADD29R,1.239520X1.249680*%
%ADD30R,1.648460X1.450340*%
%ADD31RoundRect,0.124600X0.150000X-0.825000X0.150000X0.825000X-0.150000X0.825000X-0.150000X-0.825000X0*%
%ADD32RoundRect,0.224600X-0.700000X0.275000X-0.700000X-0.275000X0.700000X-0.275000X0.700000X0.275000X0*%
%ADD33RoundRect,0.224600X0.475000X-0.250000X0.475000X0.250000X-0.475000X0.250000X-0.475000X-0.250000X0*%
%ADD34RoundRect,0.224600X-0.400000X0.412500X-0.400000X-0.412500X0.400000X-0.412500X0.400000X0.412500X0*%
%ADD35R,1.149200X3.449200*%
%ADD36R,1.549200X0.949200*%
%ADD37R,2.449200X2.949200*%
%ADD38RoundRect,0.224600X0.412500X0.400000X-0.412500X0.400000X-0.412500X-0.400000X0.412500X-0.400000X0*%
%ADD39R,1.199200X1.199200*%
%ADD40R,0.254200X0.762200*%
%ADD41R,0.762200X0.254200*%
%ADD42R,0.599200X1.649200*%
%ADD43RoundRect,0.049600X-0.662500X-0.075000X0.662500X-0.075000X0.662500X0.075000X-0.662500X0.075000X0*%
%ADD44RoundRect,0.049600X-0.075000X-0.662500X0.075000X-0.662500X0.075000X0.662500X-0.075000X0.662500X0*%
%ADD45RotRect,2.349200X2.249200X225.000000*%
%ADD46RotRect,2.349200X2.249200X315.000000*%
%ADD47RotRect,2.349200X2.249200X135.000000*%
%ADD48RotRect,2.349200X2.249200X45.000000*%
%ADD49RoundRect,0.224600X0.400000X-0.412500X0.400000X0.412500X-0.400000X0.412500X-0.400000X-0.412500X0*%
%ADD50RoundRect,0.218350X-0.150260X0.494975X-0.494975X0.150260X0.150260X-0.494975X0.494975X-0.150260X0*%
%ADD51RoundRect,0.224600X1.450000X-0.312500X1.450000X0.312500X-1.450000X0.312500X-1.450000X-0.312500X0*%
%ADD52RotRect,0.949200X0.749200X160.000000*%
%ADD53RotRect,0.649200X1.449200X160.000000*%
%ADD54R,0.549200X1.399200*%
%ADD55R,0.249200X1.399200*%
G04 APERTURE END LIST*
D10*
X106324000Y-99365000D03*
X106324000Y-96665000D03*
D11*
X108966000Y-99365000D03*
X108966000Y-96415000D03*
X127279400Y-93346800D03*
X127279400Y-90396800D03*
X135686800Y-112725200D03*
X135686800Y-109775200D03*
D12*
X166321000Y-110998000D03*
X163371000Y-110998000D03*
D13*
X154269360Y-101828600D03*
X156169360Y-101828600D03*
D11*
X61976000Y-106125000D03*
X61976000Y-103175000D03*
X167805100Y-127027200D03*
X167805100Y-124077200D03*
D14*
X165417500Y-113968000D03*
X165417500Y-116918000D03*
D15*
X93091000Y-98112500D03*
X93091000Y-100012500D03*
D11*
X159778700Y-127027200D03*
X159778700Y-124077200D03*
D14*
X91033600Y-79830400D03*
X91033600Y-82780400D03*
D13*
X96502140Y-111252000D03*
X98402140Y-111252000D03*
D14*
X104902000Y-84631000D03*
X104902000Y-87581000D03*
D16*
X77251600Y-82364500D03*
X75351600Y-82364500D03*
X76301600Y-84239500D03*
D17*
X136730500Y-119954000D03*
X136730500Y-121854000D03*
X138605500Y-120904000D03*
D18*
X126443700Y-84135200D03*
X128343700Y-84135200D03*
X127393700Y-82260200D03*
X131320500Y-84135200D03*
X133220500Y-84135200D03*
X132270500Y-82260200D03*
X116220200Y-84135200D03*
X118120200Y-84135200D03*
X117170200Y-82260200D03*
D19*
X202387200Y-94107000D03*
X200318912Y-96175288D03*
X204165200Y-95885000D03*
X202096912Y-97953288D03*
X200609200Y-92329000D03*
X198540912Y-94397288D03*
D20*
X145262600Y-115798600D03*
X145262600Y-112873600D03*
D19*
X198831200Y-90551000D03*
X196762912Y-92619288D03*
D20*
X88744600Y-82780400D03*
X88744600Y-79855400D03*
X64389000Y-106112500D03*
X64389000Y-103187500D03*
X165417500Y-121731500D03*
X165417500Y-118806500D03*
D21*
X167805100Y-118806500D03*
X167805100Y-121731500D03*
D20*
X162064700Y-127014700D03*
X162064700Y-124089700D03*
D21*
X133858000Y-118933500D03*
X133858000Y-121858500D03*
X102489000Y-84643500D03*
X102489000Y-87568500D03*
D22*
X125931200Y-80378300D03*
X128856200Y-80378300D03*
D23*
X128856200Y-86017100D03*
X125931200Y-86017100D03*
D22*
X130808000Y-80378300D03*
X133733000Y-80378300D03*
X115707700Y-80378300D03*
X118632700Y-80378300D03*
D23*
X118632700Y-86017100D03*
X115707700Y-86017100D03*
D24*
X119227600Y-112510800D03*
X117957600Y-112510800D03*
X116687600Y-112510800D03*
X115417600Y-112510800D03*
X115417600Y-117460800D03*
X116687600Y-117460800D03*
X117957600Y-117460800D03*
X119227600Y-117460800D03*
D16*
X165884900Y-124214700D03*
X163984900Y-124214700D03*
X164934900Y-126089700D03*
D18*
X121071600Y-84135200D03*
X122971600Y-84135200D03*
X122021600Y-82260200D03*
D22*
X120559100Y-80378300D03*
X123484100Y-80378300D03*
D23*
X123484100Y-86017100D03*
X120559100Y-86017100D03*
X133733000Y-86017100D03*
X130808000Y-86017100D03*
D25*
X81887500Y-113030000D03*
X79987500Y-113030000D03*
D26*
X155463200Y-86446636D03*
X156413200Y-86446636D03*
X157363200Y-86446636D03*
X157363200Y-84171636D03*
X155463200Y-84171636D03*
D21*
X79375000Y-82239500D03*
X79375000Y-85164500D03*
D27*
X105808780Y-128720160D03*
X92311220Y-128720160D03*
D28*
X101701600Y-113960220D03*
X100601780Y-113960220D03*
X99501960Y-113960220D03*
X98402140Y-113960220D03*
X97299780Y-113960220D03*
X96199960Y-113960220D03*
X95100140Y-113960220D03*
X94000320Y-113960220D03*
D29*
X92456000Y-113724000D03*
X92456000Y-124138000D03*
D30*
X103251000Y-113660500D03*
D13*
X119519500Y-97409000D03*
X121419500Y-97409000D03*
D20*
X147624800Y-115798600D03*
X147624800Y-112873600D03*
D31*
X137845800Y-114743000D03*
X139115800Y-114743000D03*
X140385800Y-114743000D03*
X141655800Y-114743000D03*
X141655800Y-109793000D03*
X140385800Y-109793000D03*
X139115800Y-109793000D03*
X137845800Y-109793000D03*
D32*
X103632000Y-96215000D03*
X103632000Y-99365000D03*
D33*
X152654000Y-97216000D03*
X152654000Y-95316000D03*
D15*
X152654000Y-90236000D03*
X152654000Y-92136000D03*
D13*
X119519500Y-91313000D03*
X121419500Y-91313000D03*
D34*
X136398000Y-79758700D03*
X136398000Y-81683700D03*
X138938000Y-79758700D03*
X138938000Y-81683700D03*
D20*
X136398000Y-86425500D03*
X136398000Y-83500500D03*
X138938000Y-86425500D03*
X138938000Y-83500500D03*
D31*
X142684500Y-85025000D03*
X143954500Y-85025000D03*
X145224500Y-85025000D03*
X146494500Y-85025000D03*
X146494500Y-80075000D03*
X145224500Y-80075000D03*
X143954500Y-80075000D03*
X142684500Y-80075000D03*
D35*
X149098000Y-90976000D03*
X149098000Y-96476000D03*
D36*
X121419500Y-93091000D03*
X121419500Y-95631000D03*
D37*
X114869500Y-94361000D03*
D10*
X129540000Y-93199300D03*
X129540000Y-90499300D03*
D20*
X123698000Y-121858500D03*
X123698000Y-118933500D03*
X126238000Y-121858500D03*
X126238000Y-118933500D03*
X128778000Y-121858500D03*
X128778000Y-118933500D03*
X131318000Y-121858500D03*
X131318000Y-118933500D03*
D38*
X74854100Y-118973600D03*
X72929100Y-118973600D03*
X74854100Y-121693700D03*
X72929100Y-121693700D03*
D16*
X78829400Y-117197900D03*
X76929400Y-117197900D03*
X77879400Y-119072900D03*
X78829400Y-121693700D03*
X76929400Y-121693700D03*
X77879400Y-123568700D03*
D23*
X71056341Y-118973600D03*
X68131341Y-118973600D03*
X83380500Y-118922800D03*
X80455500Y-118922800D03*
X71056341Y-121693700D03*
X68131341Y-121693700D03*
X83380500Y-123418600D03*
X80455500Y-123418600D03*
D21*
X133146800Y-109789500D03*
X133146800Y-112714500D03*
D22*
X80455500Y-121174000D03*
X83380500Y-121174000D03*
X112837500Y-108762800D03*
X115762500Y-108762800D03*
D39*
X153924000Y-116298600D03*
D40*
X152924000Y-117573600D03*
X153424000Y-117573600D03*
X153924000Y-117573600D03*
X154424000Y-117573600D03*
X154924000Y-117573600D03*
D41*
X155199000Y-116798600D03*
X155199000Y-116298600D03*
X155199000Y-115798600D03*
D40*
X154924000Y-115023600D03*
X154424000Y-115023600D03*
X153924000Y-115023600D03*
X153424000Y-115023600D03*
X152924000Y-115023600D03*
D41*
X152649000Y-115798600D03*
X152649000Y-116298600D03*
X152649000Y-116798600D03*
D33*
X149860000Y-121109000D03*
X149860000Y-119209000D03*
D11*
X147599400Y-121109000D03*
X147599400Y-118159000D03*
D22*
X80455500Y-116678200D03*
X83380500Y-116678200D03*
D24*
X158709360Y-105513100D03*
X157439360Y-105513100D03*
X156169360Y-105513100D03*
X154899360Y-105513100D03*
X153629360Y-105513100D03*
X152359360Y-105513100D03*
X151089360Y-105513100D03*
X149819360Y-105513100D03*
X149819360Y-110463100D03*
X151089360Y-110463100D03*
X152359360Y-110463100D03*
X153629360Y-110463100D03*
X154899360Y-110463100D03*
X156169360Y-110463100D03*
X157439360Y-110463100D03*
X158709360Y-110463100D03*
D20*
X95250000Y-87568500D03*
X95250000Y-84643500D03*
D11*
X112966500Y-125173000D03*
X112966500Y-122223000D03*
D42*
X112966500Y-112385800D03*
X111696500Y-112385800D03*
X110426500Y-112385800D03*
X109156500Y-112385800D03*
X109156500Y-119685800D03*
X110426500Y-119685800D03*
X111696500Y-119685800D03*
X112966500Y-119685800D03*
D21*
X102158800Y-108074000D03*
X102158800Y-110999000D03*
D43*
X124619500Y-98854000D03*
X124619500Y-99354000D03*
X124619500Y-99854000D03*
X124619500Y-100354000D03*
X124619500Y-100854000D03*
X124619500Y-101354000D03*
X124619500Y-101854000D03*
X124619500Y-102354000D03*
X124619500Y-102854000D03*
X124619500Y-103354000D03*
X124619500Y-103854000D03*
X124619500Y-104354000D03*
D44*
X126032000Y-105766500D03*
X126532000Y-105766500D03*
X127032000Y-105766500D03*
X127532000Y-105766500D03*
X128032000Y-105766500D03*
X128532000Y-105766500D03*
X129032000Y-105766500D03*
X129532000Y-105766500D03*
X130032000Y-105766500D03*
X130532000Y-105766500D03*
X131032000Y-105766500D03*
X131532000Y-105766500D03*
D43*
X132944500Y-104354000D03*
X132944500Y-103854000D03*
X132944500Y-103354000D03*
X132944500Y-102854000D03*
X132944500Y-102354000D03*
X132944500Y-101854000D03*
X132944500Y-101354000D03*
X132944500Y-100854000D03*
X132944500Y-100354000D03*
X132944500Y-99854000D03*
X132944500Y-99354000D03*
X132944500Y-98854000D03*
D44*
X131532000Y-97441500D03*
X131032000Y-97441500D03*
X130532000Y-97441500D03*
X130032000Y-97441500D03*
X129532000Y-97441500D03*
X129032000Y-97441500D03*
X128532000Y-97441500D03*
X128032000Y-97441500D03*
X127532000Y-97441500D03*
X127032000Y-97441500D03*
X126532000Y-97441500D03*
X126032000Y-97441500D03*
D21*
X104571800Y-108074000D03*
X104571800Y-110999000D03*
D20*
X97663000Y-87568500D03*
X97663000Y-84643500D03*
D11*
X134112000Y-95847200D03*
X134112000Y-92897200D03*
D45*
X173141064Y-114323402D03*
X183323402Y-104141064D03*
X176676598Y-117858936D03*
X186858936Y-107676598D03*
D46*
X194323402Y-106858936D03*
X184141064Y-96676598D03*
X197858936Y-103323402D03*
X187676598Y-93141064D03*
D47*
X165676598Y-93141064D03*
X175858936Y-103323402D03*
X162141064Y-96676598D03*
X172323402Y-106858936D03*
D48*
X186858936Y-85676598D03*
X176676598Y-95858936D03*
X183323402Y-82141064D03*
X173141064Y-92323402D03*
D49*
X151739600Y-80515300D03*
X151739600Y-78590300D03*
D34*
X149352000Y-78630300D03*
X149352000Y-80555300D03*
D50*
X192432913Y-84173087D03*
X191107087Y-85498913D03*
D19*
X194328144Y-86087856D03*
X192259856Y-88156144D03*
D51*
X161925000Y-86465500D03*
X161925000Y-82190500D03*
D20*
X100076000Y-87568500D03*
X100076000Y-84643500D03*
D52*
X193352167Y-74275813D03*
X192596302Y-76352534D03*
X186492411Y-71779066D03*
X185736546Y-73855787D03*
D53*
X191058420Y-76484506D03*
X188239342Y-75458445D03*
X186829803Y-74945415D03*
D19*
X197053200Y-88773000D03*
X194984912Y-90841288D03*
D54*
X161492000Y-76764006D03*
X160692000Y-76764006D03*
D55*
X159492000Y-76764006D03*
X158492000Y-76764006D03*
X157992000Y-76764006D03*
X156992000Y-76764006D03*
D54*
X155792000Y-76764006D03*
X154992000Y-76764006D03*
X154992000Y-76764006D03*
X155792000Y-76764006D03*
D55*
X156492000Y-76764006D03*
X157492000Y-76764006D03*
X158992000Y-76764006D03*
X159992000Y-76764006D03*
D54*
X160692000Y-76764006D03*
X161492000Y-76764006D03*
D20*
X167386000Y-85028500D03*
X167386000Y-82103500D03*
D22*
X112837500Y-106172000D03*
X115762500Y-106172000D03*
D31*
X136398000Y-95439000D03*
X137668000Y-95439000D03*
X138938000Y-95439000D03*
X140208000Y-95439000D03*
X141478000Y-95439000D03*
X142748000Y-95439000D03*
X144018000Y-95439000D03*
X144018000Y-90489000D03*
X142748000Y-90489000D03*
X141478000Y-90489000D03*
X140208000Y-90489000D03*
X138938000Y-90489000D03*
X137668000Y-90489000D03*
X136398000Y-90489000D03*
D20*
X169926000Y-85015800D03*
X169926000Y-82090800D03*
M02*
