M48
; DRILL file {KiCad (6.0.9)} date Wed Dec 14 16:31:10 2022
; FORMAT={-:-/ absolute / inch / decimal}
; #@! TF.CreationDate,2022-12-14T16:31:10-05:00
; #@! TF.GenerationSoftware,Kicad,Pcbnew,(6.0.9)
; #@! TF.FileFunction,Plated,1,2,PTH
FMAT,2
INCH
; #@! TA.AperFunction,Plated,PTH,ViaDrill
T1C0.0157
; #@! TA.AperFunction,Plated,PTH,ComponentDrill
T2C0.0236
; #@! TA.AperFunction,Plated,PTH,ComponentDrill
T3C0.0300
; #@! TA.AperFunction,Plated,PTH,ComponentDrill
T4C0.0310
; #@! TA.AperFunction,Plated,PTH,ComponentDrill
T5C0.0315
; #@! TA.AperFunction,Plated,PTH,ComponentDrill
T6C0.0350
; #@! TA.AperFunction,Plated,PTH,ComponentDrill
T7C0.0354
; #@! TA.AperFunction,Plated,PTH,ComponentDrill
T8C0.0390
; #@! TA.AperFunction,Plated,PTH,ComponentDrill
T9C0.0394
; #@! TA.AperFunction,Plated,PTH,ComponentDrill
T10C0.0400
; #@! TA.AperFunction,Plated,PTH,ComponentDrill
T11C0.0433
; #@! TA.AperFunction,Plated,PTH,ComponentDrill
T12C0.0512
; #@! TA.AperFunction,Plated,PTH,ComponentDrill
T13C0.0550
; #@! TA.AperFunction,Plated,PTH,ComponentDrill
T14C0.0900
%
G90
G05
T1
X3.25Y-5.025
X3.325Y-5.025
X3.4Y-5.0242
X3.475Y-5.0225
X3.584Y-3.3348
X3.635Y-2.8484
X3.66Y-3.2591
X3.71Y-2.8484
X3.71Y-4.0249
X3.7102Y-4.0489
X3.77Y-3.78
X3.787Y-4.567
X3.787Y-4.597
X3.795Y-5.0248
X3.81Y-3.78
X3.835Y-4.77
X3.835Y-4.81
X3.8698Y-4.0249
X3.87Y-4.0489
X3.87Y-5.0248
X3.92Y-4.77
X3.935Y-4.31
X3.935Y-4.34
X3.935Y-4.37
X3.945Y-5.024
X3.95Y-4.81
X4.02Y-5.0223
X4.035Y-3.27
X4.1345Y-3.58
X4.1345Y-3.62
X4.135Y-3.54
X4.2Y-4.41
X4.2Y-4.45
X4.2Y-4.49
X4.2785Y-4.3178
X4.2785Y-4.3478
X4.2839Y-4.2426
X4.284Y-4.2671
X4.306Y-4.318
X4.306Y-4.348
X4.39Y-4.62
X4.4Y-2.8485
X4.42Y-4.62
X4.45Y-4.62
X4.45Y-5.0233
X4.475Y-2.8485
X4.498Y-3.28
X4.5225Y-4.815
X4.525Y-5.0233
X4.5475Y-4.8149
X4.5579Y-3.456
X4.6Y-5.0225
X4.66Y-4.0208
X4.66Y-4.059
X4.675Y-5.0207
X4.71Y-3.28
X4.7375Y-4.0169
X4.7489Y-3.456
X4.8279Y-4.384
X4.828Y-4.4135
X4.8599Y-4.384
X4.86Y-4.4135
X4.8739Y-4.164
X4.874Y-4.1935
X4.892Y-4.384
X4.892Y-4.414
X4.9Y-3.28
X4.906Y-4.164
X4.906Y-4.194
X4.926Y-2.8492
X4.9604Y-3.456
X4.961Y-3.738
X4.967Y-3.905
X4.967Y-3.945
X4.967Y-4.025
X4.967Y-4.065
X4.967Y-4.105
X5.001Y-2.8492
X5.007Y-3.905
X5.007Y-3.945
X5.007Y-4.025
X5.007Y-4.065
X5.007Y-4.105
X5.011Y-3.748
X5.08Y-3.905
X5.08Y-3.945
X5.083Y-4.025
X5.083Y-4.065
X5.083Y-4.105
X5.1125Y-3.28
X5.114Y-3.766
X5.123Y-4.025
X5.123Y-4.065
X5.123Y-4.105
X5.15Y-3.751
X5.1524Y-3.456
X5.157Y-3.713
X5.163Y-3.945
X5.163Y-3.985
X5.163Y-4.025
X5.163Y-4.065
X5.163Y-4.105
X5.242Y-4.5014
X5.28Y-3.5626
X5.298Y-3.28
X5.31Y-3.456
X5.423Y-4.01
X5.4345Y-3.8855
X5.437Y-2.8492
X5.44Y-3.65
X5.448Y-3.98
X5.448Y-4.04
X5.47Y-3.625
X5.511Y-3.625
X5.512Y-2.8492
X5.537Y-3.652
X5.57Y-3.414
X5.575Y-5.0216
X5.6237Y-4.8148
X5.6497Y-4.815
X5.65Y-5.0216
X5.718Y-3.413
X5.719Y-4.394
X5.725Y-5.0207
X5.8Y-5.019
X5.812Y-4.394
X5.88Y-3.024
X5.88Y-3.256
X5.9Y-2.85
X5.974Y-3.024
X5.975Y-2.85
X6.05Y-4.0821
X6.075Y-5.0198
X6.0797Y-4.6783
X6.0984Y-4.0821
X6.114Y-4.449
X6.1195Y-4.68
X6.1215Y-3.13
X6.1215Y-3.154
X6.1465Y-3.13
X6.1465Y-3.154
X6.1484Y-4.0821
X6.1495Y-4.65
X6.1495Y-4.68
X6.15Y-5.0198
X6.18Y-4.615
X6.1984Y-4.0821
X6.225Y-5.019
X6.29Y-4.829
X6.3141Y-3.1301
X6.3141Y-3.1541
X6.3391Y-3.1301
X6.3391Y-3.1541
X6.37Y-4.359
X6.37Y-4.381
X6.486Y-3.1294
X6.486Y-3.1534
X6.489Y-2.8494
X6.4918Y-3.465
X6.492Y-3.49
X6.511Y-3.1294
X6.511Y-3.1534
X6.564Y-2.8494
X6.6921Y-4.8879
X6.715Y-4.8878
X6.75Y-5.0198
X6.7954Y-3.468
X6.7955Y-3.493
X6.825Y-5.0198
X6.9Y-5.019
X6.975Y-5.0173
X7.3Y-3.88
X7.32Y-3.86
X7.39Y-3.02
X7.58Y-3.587
X7.596Y-3.604
X7.695Y-3.434
X7.713Y-3.451
T3
X6.3825Y-4.5799
T4
X6.3825Y-4.6799
T5
X4.7685Y-4.99
X4.8685Y-4.99
X4.9685Y-4.99
X5.0685Y-4.99
X5.1685Y-4.99
X5.2685Y-4.99
X5.3685Y-4.99
X5.4685Y-4.99
T6
X3.0496Y-4.332
X3.1496Y-4.332
X3.2496Y-4.332
X3.5446Y-3.837
X3.5446Y-3.937
X3.5446Y-4.037
T7
X2.6673Y-3.8091
X2.6673Y-4.065
X2.8445Y-3.8091
X2.8445Y-4.065
T8
X3.35Y-2.865
X3.5272Y-2.865
X6.7Y-2.865
X6.8772Y-2.865
T9
X2.6673Y-3.02
X2.6673Y-3.3192
X3.9698Y-3.009
X3.9698Y-3.109
X4.0698Y-3.009
X4.0698Y-3.109
X4.1698Y-3.009
X4.1698Y-3.109
T10
X4.5576Y-2.989
X4.6576Y-2.989
X4.7576Y-2.989
X4.8576Y-2.989
X5.0694Y-2.989
X5.1694Y-2.989
X5.2694Y-2.989
X5.3694Y-2.989
X5.581Y-2.989
X5.681Y-2.989
X5.781Y-2.989
T11
X2.13Y-3.64
X2.2553Y-3.7653
X2.311Y-3.459
X2.4362Y-3.5843
T12
X3.3008Y-2.963
X3.5768Y-2.963
X6.6508Y-2.963
X6.9268Y-2.963
T13
X2.8821Y-3.642
X2.8821Y-4.232
X3.4171Y-3.642
X3.4171Y-4.232
T14
X4.3081Y-3.3997
X4.3081Y-5.0197
X5.9281Y-3.3997
X5.9281Y-5.0197
T2
G00X6.0599Y-2.8334
M15
G01X6.0599Y-2.8098
M16
G05
G00X6.0599Y-3.0078
M15
G01X6.0599Y-2.9645
M16
G05
G00X6.4001Y-2.8334
M15
G01X6.4001Y-2.8098
M16
G05
G00X6.4001Y-3.0078
M15
G01X6.4001Y-2.9645
M16
G05
T0
M30
