G04 #@! TF.GenerationSoftware,KiCad,Pcbnew,(6.0.7)*
G04 #@! TF.CreationDate,2022-08-21T12:48:53-05:00*
G04 #@! TF.ProjectId,Game_Cat_R4,47616d65-5f43-4617-945f-52342e6b6963,4.1.4*
G04 #@! TF.SameCoordinates,Original*
G04 #@! TF.FileFunction,Soldermask,Bot*
G04 #@! TF.FilePolarity,Negative*
%FSLAX46Y46*%
G04 Gerber Fmt 4.6, Leading zero omitted, Abs format (unit mm)*
G04 Created by KiCad (PCBNEW (6.0.7)) date 2022-08-21 12:48:53*
%MOMM*%
%LPD*%
G01*
G04 APERTURE LIST*
G04 Aperture macros list*
%AMRoundRect*
0 Rectangle with rounded corners*
0 $1 Rounding radius*
0 $2 $3 $4 $5 $6 $7 $8 $9 X,Y pos of 4 corners*
0 Add a 4 corners polygon primitive as box body*
4,1,4,$2,$3,$4,$5,$6,$7,$8,$9,$2,$3,0*
0 Add four circle primitives for the rounded corners*
1,1,$1+$1,$2,$3*
1,1,$1+$1,$4,$5*
1,1,$1+$1,$6,$7*
1,1,$1+$1,$8,$9*
0 Add four rect primitives between the rounded corners*
20,1,$1+$1,$2,$3,$4,$5,0*
20,1,$1+$1,$4,$5,$6,$7,0*
20,1,$1+$1,$6,$7,$8,$9,0*
20,1,$1+$1,$8,$9,$2,$3,0*%
%AMFreePoly0*
4,1,37,0.535921,0.785921,0.550800,0.750000,0.550800,-0.750000,0.535921,-0.785921,0.500000,-0.800800,0.000000,-0.800800,-0.012526,-0.795612,-0.080872,-0.794359,-0.095090,-0.792057,-0.230405,-0.749782,-0.243405,-0.743581,-0.361415,-0.665026,-0.372153,-0.655426,-0.463373,-0.546907,-0.470984,-0.534678,-0.528079,-0.404919,-0.531952,-0.391047,-0.549535,-0.256587,-0.548147,-0.256405,-0.550800,-0.250000,
-0.550800,0.250000,-0.550314,0.251174,-0.550158,0.263925,-0.528347,0.404002,-0.524136,0.417775,-0.463888,0.546100,-0.455980,0.558139,-0.362136,0.664397,-0.351168,0.673732,-0.231273,0.749380,-0.218125,0.755261,-0.081818,0.794218,-0.067547,0.796173,-0.011991,0.795833,0.000000,0.800800,0.500000,0.800800,0.535921,0.785921,0.535921,0.785921,$1*%
%AMFreePoly1*
4,1,37,0.012350,0.795685,0.074215,0.795307,0.088460,0.793178,0.224281,0.752559,0.237356,0.746518,0.356318,0.669411,0.367173,0.659942,0.459711,0.552545,0.467470,0.540411,0.526147,0.411359,0.530190,0.397535,0.550287,0.257202,0.550800,0.250000,0.550800,-0.250000,0.550796,-0.250620,0.550647,-0.262836,0.549947,-0.270644,0.526427,-0.410445,0.522048,-0.424167,0.460236,-0.551746,
0.452182,-0.563686,0.357047,-0.668790,0.345965,-0.677991,0.225155,-0.752168,0.211936,-0.757888,0.075163,-0.795177,0.060870,-0.796957,0.011464,-0.796051,0.000000,-0.800800,-0.500000,-0.800800,-0.535921,-0.785921,-0.550800,-0.750000,-0.550800,0.750000,-0.535921,0.785921,-0.500000,0.800800,0.000000,0.800800,0.012350,0.795685,0.012350,0.795685,$1*%
G04 Aperture macros list end*
%ADD10C,0.751600*%
%ADD11O,1.101600X2.201600*%
%ADD12O,1.101600X1.701600*%
%ADD13RoundRect,0.050800X-1.000000X1.000000X-1.000000X-1.000000X1.000000X-1.000000X1.000000X1.000000X0*%
%ADD14C,2.101600*%
%ADD15C,3.911600*%
%ADD16C,1.498600*%
%ADD17C,1.701600*%
%ADD18C,2.197100*%
%ADD19C,1.524000*%
%ADD20C,2.201600*%
%ADD21C,1.851600*%
%ADD22O,1.625600X3.149600*%
%ADD23O,1.600200X2.286000*%
%ADD24C,1.001600*%
%ADD25RoundRect,0.300800X0.600000X-0.600000X0.600000X0.600000X-0.600000X0.600000X-0.600000X-0.600000X0*%
%ADD26C,1.801600*%
%ADD27RoundRect,0.200800X0.150000X-0.587500X0.150000X0.587500X-0.150000X0.587500X-0.150000X-0.587500X0*%
%ADD28RoundRect,0.050800X1.750000X-0.500000X1.750000X0.500000X-1.750000X0.500000X-1.750000X-0.500000X0*%
%ADD29RoundRect,0.050800X1.700000X-0.750000X1.700000X0.750000X-1.700000X0.750000X-1.700000X-0.750000X0*%
%ADD30FreePoly0,270.000000*%
%ADD31FreePoly1,270.000000*%
%ADD32RoundRect,0.050800X0.500000X-0.500000X0.500000X0.500000X-0.500000X0.500000X-0.500000X-0.500000X0*%
%ADD33RoundRect,0.300800X-0.650000X0.325000X-0.650000X-0.325000X0.650000X-0.325000X0.650000X0.325000X0*%
%ADD34RoundRect,0.300800X0.650000X-0.325000X0.650000X0.325000X-0.650000X0.325000X-0.650000X-0.325000X0*%
%ADD35RoundRect,0.300800X0.450000X0.425000X-0.450000X0.425000X-0.450000X-0.425000X0.450000X-0.425000X0*%
%ADD36RoundRect,0.200800X0.587500X0.150000X-0.587500X0.150000X-0.587500X-0.150000X0.587500X-0.150000X0*%
%ADD37RoundRect,0.300800X-0.625000X0.312500X-0.625000X-0.312500X0.625000X-0.312500X0.625000X0.312500X0*%
%ADD38RoundRect,0.300800X0.312500X0.625000X-0.312500X0.625000X-0.312500X-0.625000X0.312500X-0.625000X0*%
%ADD39RoundRect,0.300800X0.625000X-0.312500X0.625000X0.312500X-0.625000X0.312500X-0.625000X-0.312500X0*%
%ADD40RoundRect,0.200800X-0.512500X-0.150000X0.512500X-0.150000X0.512500X0.150000X-0.512500X0.150000X0*%
%ADD41RoundRect,0.300800X-0.700000X0.275000X-0.700000X-0.275000X0.700000X-0.275000X0.700000X0.275000X0*%
%ADD42RoundRect,0.300800X0.325000X0.650000X-0.325000X0.650000X-0.325000X-0.650000X0.325000X-0.650000X0*%
%ADD43RoundRect,0.300800X-0.312500X-0.625000X0.312500X-0.625000X0.312500X0.625000X-0.312500X0.625000X0*%
%ADD44RoundRect,0.200800X-0.150000X0.825000X-0.150000X-0.825000X0.150000X-0.825000X0.150000X0.825000X0*%
%ADD45RoundRect,0.050800X-1.525000X0.760000X-1.525000X-0.760000X1.525000X-0.760000X1.525000X0.760000X0*%
%ADD46RoundRect,0.050800X-1.524999X0.760000X-1.524999X-0.760000X1.524999X-0.760000X1.524999X0.760000X0*%
%ADD47RoundRect,0.050800X0.600000X-0.450000X0.600000X0.450000X-0.600000X0.450000X-0.600000X-0.450000X0*%
%ADD48RoundRect,0.300800X-0.425000X0.450000X-0.425000X-0.450000X0.425000X-0.450000X0.425000X0.450000X0*%
%ADD49RoundRect,0.300800X0.250000X0.475000X-0.250000X0.475000X-0.250000X-0.475000X0.250000X-0.475000X0*%
%ADD50RoundRect,0.300800X0.425000X-0.450000X0.425000X0.450000X-0.425000X0.450000X-0.425000X-0.450000X0*%
%ADD51C,1.101600*%
G04 APERTURE END LIST*
D10*
X155352000Y-75319006D03*
X161132000Y-75319006D03*
D11*
X162562000Y-75849006D03*
D12*
X162562000Y-71669006D03*
X153922000Y-71669006D03*
D11*
X153922000Y-75849006D03*
D13*
X67750000Y-76708000D03*
D14*
X67750000Y-84308000D03*
D15*
X80000000Y-100000000D03*
D16*
X77460000Y-110033000D03*
X80000000Y-110033000D03*
X82540000Y-110033000D03*
X90033000Y-102540000D03*
X90033000Y-100000000D03*
X90033000Y-97460000D03*
D17*
X67750000Y-103250000D03*
X67750000Y-96750000D03*
X72250000Y-96750000D03*
X72250000Y-103250000D03*
D18*
X73205500Y-107493000D03*
X86794500Y-92507000D03*
X73205500Y-92507000D03*
X86794500Y-107493000D03*
D19*
X162115500Y-118869000D03*
X162115500Y-116329000D03*
D20*
X90850000Y-75261000D03*
X83840000Y-75261000D03*
D21*
X85090000Y-72771000D03*
X89590000Y-72771000D03*
D14*
X58698194Y-87859806D03*
X54102000Y-92456000D03*
X61880175Y-91041786D03*
X57283981Y-95637981D03*
D20*
X168930000Y-75261000D03*
X175940000Y-75261000D03*
D21*
X170180000Y-72771000D03*
X174680000Y-72771000D03*
D22*
X146837400Y-75920600D03*
X144297400Y-75920600D03*
X141757400Y-75920600D03*
D23*
X121119994Y-126745999D03*
X123659994Y-126745999D03*
X126199994Y-126745999D03*
X128739994Y-126745999D03*
X131279994Y-126745999D03*
X133819994Y-126745999D03*
X136359994Y-126745999D03*
X138899994Y-126745999D03*
D15*
X109425994Y-86351999D03*
X150573994Y-86351999D03*
X109425994Y-127499999D03*
X150573994Y-127499999D03*
D24*
X188136528Y-73548071D03*
X190955606Y-74574132D03*
D25*
X100833000Y-78968600D03*
D26*
X100833000Y-76428600D03*
X103373000Y-78968600D03*
X103373000Y-76428600D03*
X105913000Y-78968600D03*
X105913000Y-76428600D03*
D22*
X136382000Y-75920600D03*
X133842000Y-75920600D03*
X131302000Y-75920600D03*
X128762000Y-75920600D03*
X123382000Y-75920600D03*
X120842000Y-75920600D03*
X118302000Y-75920600D03*
X115762000Y-75920600D03*
D27*
X146492000Y-73454500D03*
X144592000Y-73454500D03*
X145542000Y-71579500D03*
D28*
X168324660Y-101000000D03*
X168324660Y-99000000D03*
D29*
X162574660Y-103350000D03*
X162574660Y-96650000D03*
D30*
X143256000Y-79868000D03*
D31*
X143256000Y-81168000D03*
D32*
X171754800Y-84803300D03*
X171754800Y-82303300D03*
D33*
X166665100Y-82078300D03*
X166665100Y-85028300D03*
D34*
X161569400Y-85217200D03*
X161569400Y-82267200D03*
X169336720Y-85018140D03*
X169336720Y-82068140D03*
D35*
X176717400Y-96520000D03*
X174017400Y-96520000D03*
D32*
X176737000Y-94463200D03*
X176737000Y-91963200D03*
D36*
X174419500Y-91963200D03*
X174419500Y-93863200D03*
X172544500Y-92913200D03*
D37*
X149352000Y-78090300D03*
X149352000Y-81015300D03*
D38*
X164367160Y-92887800D03*
X161442160Y-92887800D03*
D39*
X174066200Y-85015800D03*
X174066200Y-82090800D03*
X174498000Y-90108500D03*
X174498000Y-87183500D03*
D40*
X161387160Y-89545200D03*
X161387160Y-88595200D03*
X161387160Y-87645200D03*
X163662160Y-87645200D03*
X163662160Y-89545200D03*
D41*
X164030660Y-82067200D03*
X164030660Y-85217200D03*
D37*
X145796000Y-79817500D03*
X145796000Y-82742500D03*
D39*
X151739600Y-81015300D03*
X151739600Y-78090300D03*
D42*
X170519660Y-89979500D03*
X167569660Y-89979500D03*
D43*
X167562160Y-87630000D03*
X170487160Y-87630000D03*
D36*
X169602160Y-91963200D03*
X169602160Y-93863200D03*
X167727160Y-92913200D03*
D34*
X171450000Y-108388889D03*
X171450000Y-105438889D03*
D44*
X180426611Y-99633000D03*
X181696611Y-99633000D03*
X182966611Y-99633000D03*
X184236611Y-99633000D03*
X184236611Y-104583000D03*
X182966611Y-104583000D03*
X181696611Y-104583000D03*
X180426611Y-104583000D03*
D39*
X186344811Y-104842789D03*
X186344811Y-101917789D03*
D45*
X177647600Y-106023889D03*
D46*
X177647600Y-108313889D03*
D47*
X178276611Y-103671388D03*
X178276611Y-100371388D03*
D34*
X186817000Y-96533988D03*
X186817000Y-93583988D03*
D39*
X184277000Y-96521488D03*
X184277000Y-93596488D03*
D48*
X185481211Y-107315000D03*
X185481211Y-110015000D03*
D38*
X183540111Y-110045500D03*
X180615111Y-110045500D03*
D33*
X175895000Y-100546388D03*
X175895000Y-103496388D03*
D49*
X182979112Y-107315000D03*
X181079112Y-107315000D03*
D39*
X174076610Y-108376389D03*
X174076610Y-105451389D03*
D34*
X179334411Y-96533988D03*
X179334411Y-93583988D03*
D50*
X171704000Y-101000000D03*
X171704000Y-98300000D03*
D39*
X181696612Y-96521488D03*
X181696612Y-93596488D03*
X123382000Y-81726500D03*
X123382000Y-78801500D03*
D43*
X95250000Y-78968600D03*
X98175000Y-78968600D03*
D39*
X136382000Y-81726500D03*
X136382000Y-78801500D03*
D51*
X176737000Y-90170000D03*
G36*
X144322085Y-74196330D02*
G01*
X144365936Y-74225630D01*
X144442199Y-74240800D01*
X144644912Y-74240800D01*
X144646644Y-74241800D01*
X144646644Y-74243800D01*
X144645596Y-74244679D01*
X144589140Y-74265227D01*
X144559463Y-74316630D01*
X144569777Y-74375123D01*
X144608518Y-74410006D01*
X144609136Y-74411908D01*
X144607798Y-74413394D01*
X144606509Y-74413376D01*
X144482545Y-74369235D01*
X144303059Y-74347833D01*
X144260464Y-74352310D01*
X144258637Y-74351497D01*
X144258428Y-74349508D01*
X144259571Y-74348442D01*
X144314877Y-74328312D01*
X144344554Y-74276909D01*
X144334206Y-74218221D01*
X144320405Y-74200252D01*
X144319561Y-74199409D01*
X144319042Y-74197477D01*
X144320454Y-74196062D01*
X144322085Y-74196330D01*
G37*
G36*
X146765204Y-74197740D02*
G01*
X146764623Y-74199284D01*
X146763711Y-74200198D01*
X146738515Y-74254354D01*
X146753927Y-74311672D01*
X146802773Y-74345812D01*
X146812457Y-74347082D01*
X146814044Y-74348299D01*
X146813784Y-74350282D01*
X146812406Y-74351054D01*
X146663295Y-74366727D01*
X146529204Y-74412375D01*
X146527242Y-74411987D01*
X146526597Y-74410094D01*
X146527170Y-74409043D01*
X146567874Y-74369737D01*
X146574078Y-74310708D01*
X146540866Y-74261467D01*
X146489267Y-74244702D01*
X146487929Y-74243216D01*
X146488547Y-74241314D01*
X146489885Y-74240800D01*
X146641801Y-74240800D01*
X146718064Y-74225630D01*
X146762097Y-74196208D01*
X146764093Y-74196077D01*
X146765204Y-74197740D01*
G37*
M02*
