  0
SECTION
  2
HEADER
  9
$ANGBASE
  50
0.0
  9
$ANGDIR
  70
1
  9
$MEASUREMENT
  70
0
  0
ENDSEC
  0
SECTION
  2
TABLES
  0
TABLE
  2
LTYPE
  70
4
  0
LTYPE
  5
40F
  2
CONTINUOUS
  70
0
  3
Solid line
  72
65
  73
0
  40
0.0
  0
LTYPE
  5
410
  2
DASHDOT
 70
0
  3
Dash Dot ____ _ ____ _
 72
65
 73
4
 40
2.0
 49
1.25
 49
-0.25
 49
0.25
 49
-0.25
  0
LTYPE
  5
411
  2
DASHED
 70
0
  3
Dashed __ __ __ __ __
 72
65
 73
2
 40
0.75
 49
0.5
 49
-0.25
  0
LTYPE
  5
43B
  2
DOTTED
 70
0
  3
Dotted .  .  .  .
 72
65
 73
2
 40
0.2
 49
0.0
 49
-0.2
  0
ENDTAB
  0
TABLE
  2
STYLE
  70
4
  0
STYLE
  2
KICAD
  70
0
  40
0
  41
1
  42
1
  50
0
  71
0
  3
isocp.shx
  0
STYLE
  2
KICADB
  70
0
  40
0
  41
1
  42
1
  50
0
  71
0
  3
isocp.shx
  0
STYLE
  2
KICADI
  70
0
  40
0
  41
1
  42
1
  50
15
  71
0
  3
isocp.shx
  0
STYLE
  2
KICADBI
  70
0
  40
0
  41
1
  42
1
  50
15
  71
0
  3
isocp.shx
  0
ENDTAB
  0
TABLE
  2
LAYER
  70
1
  0
LAYER
  2
BLACK
  70
0
  62
7
  6
CONTINUOUS
  0
ENDTAB
  0
ENDSEC
  0
SECTION
  2
ENTITIES
0
LINE
8
BLACK
6
CONTINUOUS
10
3.1496062992125982
20
-2.7559055118110236
11
7.0866141732283463
21
-2.7559055118110236
0
LINE
8
BLACK
6
CONTINUOUS
10
3.1496062992125982
20
-5.1181102362204722
11
7.0866141732283463
21
-5.1181102362204722
0
ARC
8
BLACK
10
3.1496062992125982
20
-3.9370078740157481
40
1.1811023622047243
50
-270.00000000
51
-90.00000000
0
CIRCLE
8
BLACK
10
7.0866141732283463
20
-2.8543307086614171
40
0.0590551181102362
0
CIRCLE
8
BLACK
10
3.1496062992125982
20
-2.8543307086614171
40
0.0590551181102362
0
CIRCLE
8
BLACK
10
3.1496062992125982
20
-5.0196850393700787
40
0.0590551181102362
0
CIRCLE
8
BLACK
10
7.0866141732283463
20
-5.0196850393700787
40
0.0590551181102362
0
ARC
8
BLACK
10
7.0866141732283463
20
-3.9370078740157481
40
1.1811023622047243
50
-90.00000000
51
90.00000000
0
LINE
8
BLACK
6
CONTINUOUS
10
6.1034251968503934
20
-2.9525199212598423
11
6.1290157480314962
21
-2.9781104724409446
0
LINE
8
BLACK
6
CONTINUOUS
10
6.1290157480314962
20
-2.9525199212598423
11
6.1034251968503934
21
-2.9781104724409446
0
LINE
8
BLACK
6
CONTINUOUS
10
6.3309842519685038
20
-2.9525199212598423
11
6.3565748031496065
21
-2.9781104724409446
0
LINE
8
BLACK
6
CONTINUOUS
10
6.3565748031496065
20
-2.9525199212598423
11
6.3309842519685038
21
-2.9781104724409446
0
CIRCLE
8
BLACK
10
7.4069499212598426
20
-2.895593346456693
40
0.0177165354330709
0
CIRCLE
8
BLACK
10
7.5179372834645664
20
-2.9359894488188978
40
0.0177165354330709
0
LINE
8
BLACK
6
CONTINUOUS
10
3.1496062992125982
20
-3.862007874015748
11
3.1496062992125982
21
-4.0120078740157483
0
LINE
8
BLACK
6
CONTINUOUS
10
3.0746062992125984
20
-3.9370078740157481
11
3.2246062992125983
21
-3.9370078740157481
0
LINE
8
BLACK
6
CONTINUOUS
10
2.0692034645669293
20
-5.2427101574803148
11
2.0692034645669293
21
-5.1639699999999999
0
LINE
8
BLACK
6
CONTINUOUS
10
2.0692034645669293
20
-5.1639699999999999
11
2.0879511023622048
21
-5.1639699999999999
0
LINE
8
BLACK
6
CONTINUOUS
10
2.0879511023622048
20
-5.1639699999999999
11
2.0991997244094489
21
-5.1677195275590551
0
LINE
8
BLACK
6
CONTINUOUS
10
2.0991997244094489
20
-5.1677195275590551
11
2.1066987795275591
21
-5.1752185826771653
0
LINE
8
BLACK
6
CONTINUOUS
10
2.1066987795275591
20
-5.1752185826771653
11
2.1104483070866142
21
-5.1827176377952755
0
LINE
8
BLACK
6
CONTINUOUS
10
2.1104483070866142
20
-5.1827176377952755
11
2.1141978346456693
21
-5.1977157480314959
0
LINE
8
BLACK
6
CONTINUOUS
10
2.1141978346456693
20
-5.1977157480314959
11
2.1141978346456693
21
-5.20896437007874
0
LINE
8
BLACK
6
CONTINUOUS
10
2.1141978346456693
20
-5.20896437007874
11
2.1104483070866142
21
-5.2239624803149605
0
LINE
8
BLACK
6
CONTINUOUS
10
2.1104483070866142
20
-5.2239624803149605
11
2.1066987795275591
21
-5.2314615354330707
0
LINE
8
BLACK
6
CONTINUOUS
10
2.1066987795275591
20
-5.2314615354330707
11
2.0991997244094489
21
-5.2389606299212597
0
LINE
8
BLACK
6
CONTINUOUS
10
2.0991997244094489
20
-5.2389606299212597
11
2.0879511023622048
21
-5.2427101574803148
0
LINE
8
BLACK
6
CONTINUOUS
10
2.0879511023622048
20
-5.2427101574803148
11
2.0692034645669293
21
-5.2427101574803148
0
LINE
8
BLACK
6
CONTINUOUS
10
2.1479436220472441
20
-5.2427101574803148
11
2.1479436220472441
21
-5.1902166929133857
0
LINE
8
BLACK
6
CONTINUOUS
10
2.1479436220472441
20
-5.2052148425196849
11
2.1516931496062992
21
-5.1977157480314959
0
LINE
8
BLACK
6
CONTINUOUS
10
2.1516931496062992
20
-5.1977157480314959
11
2.1554426771653543
21
-5.1939662204724408
0
LINE
8
BLACK
6
CONTINUOUS
10
2.1554426771653543
20
-5.1939662204724408
11
2.1629417322834645
21
-5.1902166929133857
0
LINE
8
BLACK
6
CONTINUOUS
10
2.1629417322834645
20
-5.1902166929133857
11
2.1704408267716535
21
-5.1902166929133857
0
LINE
8
BLACK
6
CONTINUOUS
10
2.1966875196850393
20
-5.2427101574803148
11
2.1966875196850393
21
-5.1902166929133857
0
LINE
8
BLACK
6
CONTINUOUS
10
2.1966875196850393
20
-5.1639699999999999
11
2.1929379921259842
21
-5.1677195275590551
0
LINE
8
BLACK
6
CONTINUOUS
10
2.1929379921259842
20
-5.1677195275590551
11
2.1966875196850393
21
-5.1714690551181102
0
LINE
8
BLACK
6
CONTINUOUS
10
2.1966875196850393
20
-5.1714690551181102
11
2.2004370472440944
21
-5.1677195275590551
0
LINE
8
BLACK
6
CONTINUOUS
10
2.2004370472440944
20
-5.1677195275590551
11
2.1966875196850393
21
-5.1639699999999999
0
LINE
8
BLACK
6
CONTINUOUS
10
2.1966875196850393
20
-5.1639699999999999
11
2.1966875196850393
21
-5.1714690551181102
0
LINE
8
BLACK
6
CONTINUOUS
10
2.2454314173228345
20
-5.2427101574803148
11
2.2379323622047242
21
-5.2389606299212597
0
LINE
8
BLACK
6
CONTINUOUS
10
2.2379323622047242
20
-5.2389606299212597
11
2.2341828346456691
21
-5.2314615354330707
0
LINE
8
BLACK
6
CONTINUOUS
10
2.2341828346456691
20
-5.2314615354330707
11
2.2341828346456691
21
-5.1639699999999999
0
LINE
8
BLACK
6
CONTINUOUS
10
2.2866762598425194
20
-5.2427101574803148
11
2.2791772047244092
21
-5.2389606299212597
0
LINE
8
BLACK
6
CONTINUOUS
10
2.2791772047244092
20
-5.2389606299212597
11
2.2754276771653541
21
-5.2314615354330707
0
LINE
8
BLACK
6
CONTINUOUS
10
2.2754276771653541
20
-5.2314615354330707
11
2.2754276771653541
21
-5.1639699999999999
0
LINE
8
BLACK
6
CONTINUOUS
10
2.3766650393700788
20
-5.2427101574803148
11
2.3766650393700788
21
-5.1639699999999999
0
LINE
8
BLACK
6
CONTINUOUS
10
2.3766650393700788
20
-5.1639699999999999
11
2.4029117716535433
21
-5.2202129527559054
0
LINE
8
BLACK
6
CONTINUOUS
10
2.4029117716535433
20
-5.2202129527559054
11
2.4291584645669291
21
-5.1639699999999999
0
LINE
8
BLACK
6
CONTINUOUS
10
2.4291584645669291
20
-5.1639699999999999
11
2.4291584645669291
21
-5.2427101574803148
0
LINE
8
BLACK
6
CONTINUOUS
10
2.5003995669291337
20
-5.2427101574803148
11
2.5003995669291337
21
-5.2014653149606298
0
LINE
8
BLACK
6
CONTINUOUS
10
2.5003995669291337
20
-5.2014653149606298
11
2.4966500393700786
21
-5.1939662204724408
0
LINE
8
BLACK
6
CONTINUOUS
10
2.4966500393700786
20
-5.1939662204724408
11
2.4891509842519683
21
-5.1902166929133857
0
LINE
8
BLACK
6
CONTINUOUS
10
2.4891509842519683
20
-5.1902166929133857
11
2.4741528346456692
21
-5.1902166929133857
0
LINE
8
BLACK
6
CONTINUOUS
10
2.4741528346456692
20
-5.1902166929133857
11
2.4666537795275589
21
-5.1939662204724408
0
LINE
8
BLACK
6
CONTINUOUS
10
2.5003995669291337
20
-5.2389606299212597
11
2.4929005118110235
21
-5.2427101574803148
0
LINE
8
BLACK
6
CONTINUOUS
10
2.4929005118110235
20
-5.2427101574803148
11
2.4741528346456692
21
-5.2427101574803148
0
LINE
8
BLACK
6
CONTINUOUS
10
2.4741528346456692
20
-5.2427101574803148
11
2.4666537795275589
21
-5.2389606299212597
0
LINE
8
BLACK
6
CONTINUOUS
10
2.4666537795275589
20
-5.2389606299212597
11
2.4629042519685038
21
-5.2314615354330707
0
LINE
8
BLACK
6
CONTINUOUS
10
2.4629042519685038
20
-5.2314615354330707
11
2.4629042519685038
21
-5.2239624803149605
0
LINE
8
BLACK
6
CONTINUOUS
10
2.4629042519685038
20
-5.2239624803149605
11
2.4666537795275589
21
-5.2164634251968502
0
LINE
8
BLACK
6
CONTINUOUS
10
2.4666537795275589
20
-5.2164634251968502
11
2.4741528346456692
21
-5.2127138976377951
0
LINE
8
BLACK
6
CONTINUOUS
10
2.4741528346456692
20
-5.2127138976377951
11
2.4929005118110235
21
-5.2127138976377951
0
LINE
8
BLACK
6
CONTINUOUS
10
2.4929005118110235
20
-5.2127138976377951
11
2.5003995669291337
21
-5.20896437007874
0
LINE
8
BLACK
6
CONTINUOUS
10
2.5378948818897635
20
-5.1902166929133857
11
2.5378948818897635
21
-5.2689568503937005
0
LINE
8
BLACK
6
CONTINUOUS
10
2.5378948818897635
20
-5.1939662204724408
11
2.5453939370078738
21
-5.1902166929133857
0
LINE
8
BLACK
6
CONTINUOUS
10
2.5453939370078738
20
-5.1902166929133857
11
2.5603920866141734
21
-5.1902166929133857
0
LINE
8
BLACK
6
CONTINUOUS
10
2.5603920866141734
20
-5.1902166929133857
11
2.5678911417322836
21
-5.1939662204724408
0
LINE
8
BLACK
6
CONTINUOUS
10
2.5678911417322836
20
-5.1939662204724408
11
2.5716406692913387
21
-5.1977157480314959
0
LINE
8
BLACK
6
CONTINUOUS
10
2.5716406692913387
20
-5.1977157480314959
11
2.5753901968503938
21
-5.2052148425196849
0
LINE
8
BLACK
6
CONTINUOUS
10
2.5753901968503938
20
-5.2052148425196849
11
2.5753901968503938
21
-5.2277120078740156
0
LINE
8
BLACK
6
CONTINUOUS
10
2.5753901968503938
20
-5.2277120078740156
11
2.5716406692913387
21
-5.2352110629921258
0
LINE
8
BLACK
6
CONTINUOUS
10
2.5716406692913387
20
-5.2352110629921258
11
2.5678911417322836
21
-5.2389606299212597
0
LINE
8
BLACK
6
CONTINUOUS
10
2.5678911417322836
20
-5.2389606299212597
11
2.5603920866141734
21
-5.2427101574803148
0
LINE
8
BLACK
6
CONTINUOUS
10
2.5603920866141734
20
-5.2427101574803148
11
2.5453939370078738
21
-5.2427101574803148
0
LINE
8
BLACK
6
CONTINUOUS
10
2.5453939370078738
20
-5.2427101574803148
11
2.5378948818897635
21
-5.2389606299212597
0
LINE
8
BLACK
6
CONTINUOUS
10
2.6091359842519686
20
-5.2352110629921258
11
2.6128855118110237
21
-5.2389606299212597
0
LINE
8
BLACK
6
CONTINUOUS
10
2.6128855118110237
20
-5.2389606299212597
11
2.6091359842519686
21
-5.2427101574803148
0
LINE
8
BLACK
6
CONTINUOUS
10
2.6091359842519686
20
-5.2427101574803148
11
2.6053864566929135
21
-5.2389606299212597
0
LINE
8
BLACK
6
CONTINUOUS
10
2.6053864566929135
20
-5.2389606299212597
11
2.6091359842519686
21
-5.2352110629921258
0
LINE
8
BLACK
6
CONTINUOUS
10
2.6091359842519686
20
-5.2352110629921258
11
2.6091359842519686
21
-5.2427101574803148
0
LINE
8
BLACK
6
CONTINUOUS
10
2.6091359842519686
20
-5.1939662204724408
11
2.6128855118110237
21
-5.1977157480314959
0
LINE
8
BLACK
6
CONTINUOUS
10
2.6128855118110237
20
-5.1977157480314959
11
2.6091359842519686
21
-5.2014653149606298
0
LINE
8
BLACK
6
CONTINUOUS
10
2.6091359842519686
20
-5.2014653149606298
11
2.6053864566929135
21
-5.1977157480314959
0
LINE
8
BLACK
6
CONTINUOUS
10
2.6053864566929135
20
-5.1977157480314959
11
2.6091359842519686
21
-5.1939662204724408
0
LINE
8
BLACK
6
CONTINUOUS
10
2.6091359842519686
20
-5.1939662204724408
11
2.6091359842519686
21
-5.2014653149606298
0
LINE
8
BLACK
6
CONTINUOUS
10
1.9409448818897637
20
-5.359251968503937
11
1.9665354330708662
21
-5.3848425196850389
0
LINE
8
BLACK
6
CONTINUOUS
10
1.9665354330708662
20
-5.359251968503937
11
1.9409448818897637
21
-5.3848425196850389
0
LINE
8
BLACK
6
CONTINUOUS
10
2.0842015748031497
20
-5.3293243307086611
11
2.0917006692913387
21
-5.3293243307086611
0
LINE
8
BLACK
6
CONTINUOUS
10
2.0917006692913387
20
-5.3293243307086611
11
2.0991997244094489
21
-5.3330738582677162
0
LINE
8
BLACK
6
CONTINUOUS
10
2.0991997244094489
20
-5.3330738582677162
11
2.102949251968504
21
-5.3368233858267713
0
LINE
8
BLACK
6
CONTINUOUS
10
2.102949251968504
20
-5.3368233858267713
11
2.1066987795275591
21
-5.3443224409448815
0
LINE
8
BLACK
6
CONTINUOUS
10
2.1066987795275591
20
-5.3443224409448815
11
2.1104483070866142
21
-5.359320551181102
0
LINE
8
BLACK
6
CONTINUOUS
10
2.1104483070866142
20
-5.359320551181102
11
2.1104483070866142
21
-5.3780682283464563
0
LINE
8
BLACK
6
CONTINUOUS
10
2.1104483070866142
20
-5.3780682283464563
11
2.1066987795275591
21
-5.3930663385826767
0
LINE
8
BLACK
6
CONTINUOUS
10
2.1066987795275591
20
-5.3930663385826767
11
2.102949251968504
21
-5.4005653937007869
0
LINE
8
BLACK
6
CONTINUOUS
10
2.102949251968504
20
-5.4005653937007869
11
2.0991997244094489
21
-5.4043149606299208
0
LINE
8
BLACK
6
CONTINUOUS
10
2.0991997244094489
20
-5.4043149606299208
11
2.0917006692913387
21
-5.4080644881889759
0
LINE
8
BLACK
6
CONTINUOUS
10
2.0917006692913387
20
-5.4080644881889759
11
2.0842015748031497
21
-5.4080644881889759
0
LINE
8
BLACK
6
CONTINUOUS
10
2.0842015748031497
20
-5.4080644881889759
11
2.0767025196850395
21
-5.4043149606299208
0
LINE
8
BLACK
6
CONTINUOUS
10
2.0767025196850395
20
-5.4043149606299208
11
2.0729529921259844
21
-5.4005653937007869
0
LINE
8
BLACK
6
CONTINUOUS
10
2.0729529921259844
20
-5.4005653937007869
11
2.0692034645669293
21
-5.3930663385826767
0
LINE
8
BLACK
6
CONTINUOUS
10
2.0692034645669293
20
-5.3930663385826767
11
2.0654539370078742
21
-5.3780682283464563
0
LINE
8
BLACK
6
CONTINUOUS
10
2.0654539370078742
20
-5.3780682283464563
11
2.0654539370078742
21
-5.359320551181102
0
LINE
8
BLACK
6
CONTINUOUS
10
2.0654539370078742
20
-5.359320551181102
11
2.0692034645669293
21
-5.3443224409448815
0
LINE
8
BLACK
6
CONTINUOUS
10
2.0692034645669293
20
-5.3443224409448815
11
2.0729529921259844
21
-5.3368233858267713
0
LINE
8
BLACK
6
CONTINUOUS
10
2.0729529921259844
20
-5.3368233858267713
11
2.0767025196850395
21
-5.3330738582677162
0
LINE
8
BLACK
6
CONTINUOUS
10
2.0767025196850395
20
-5.3330738582677162
11
2.0842015748031497
21
-5.3293243307086611
0
LINE
8
BLACK
6
CONTINUOUS
10
2.144194094488189
20
-5.4005653937007869
11
2.1479436220472441
21
-5.4043149606299208
0
LINE
8
BLACK
6
CONTINUOUS
10
2.1479436220472441
20
-5.4043149606299208
11
2.144194094488189
21
-5.4080644881889759
0
LINE
8
BLACK
6
CONTINUOUS
10
2.144194094488189
20
-5.4080644881889759
11
2.1404445669291339
21
-5.4043149606299208
0
LINE
8
BLACK
6
CONTINUOUS
10
2.1404445669291339
20
-5.4043149606299208
11
2.144194094488189
21
-5.4005653937007869
0
LINE
8
BLACK
6
CONTINUOUS
10
2.144194094488189
20
-5.4005653937007869
11
2.144194094488189
21
-5.4080644881889759
0
LINE
8
BLACK
6
CONTINUOUS
10
2.2154351968503936
20
-5.3293243307086611
11
2.2004370472440944
21
-5.3293243307086611
0
LINE
8
BLACK
6
CONTINUOUS
10
2.2004370472440944
20
-5.3293243307086611
11
2.1929379921259842
21
-5.3330738582677162
0
LINE
8
BLACK
6
CONTINUOUS
10
2.1929379921259842
20
-5.3330738582677162
11
2.1891884645669291
21
-5.3368233858267713
0
LINE
8
BLACK
6
CONTINUOUS
10
2.1891884645669291
20
-5.3368233858267713
11
2.1816894094488188
21
-5.3480719685039366
0
LINE
8
BLACK
6
CONTINUOUS
10
2.1816894094488188
20
-5.3480719685039366
11
2.1779398818897637
21
-5.3630700787401571
0
LINE
8
BLACK
6
CONTINUOUS
10
2.1779398818897637
20
-5.3630700787401571
11
2.1779398818897637
21
-5.3930663385826767
0
LINE
8
BLACK
6
CONTINUOUS
10
2.1779398818897637
20
-5.3930663385826767
11
2.1816894094488188
21
-5.4005653937007869
0
LINE
8
BLACK
6
CONTINUOUS
10
2.1816894094488188
20
-5.4005653937007869
11
2.1854389370078739
21
-5.4043149606299208
0
LINE
8
BLACK
6
CONTINUOUS
10
2.1854389370078739
20
-5.4043149606299208
11
2.1929379921259842
21
-5.4080644881889759
0
LINE
8
BLACK
6
CONTINUOUS
10
2.1929379921259842
20
-5.4080644881889759
11
2.2079361417322834
21
-5.4080644881889759
0
LINE
8
BLACK
6
CONTINUOUS
10
2.2079361417322834
20
-5.4080644881889759
11
2.2154351968503936
21
-5.4043149606299208
0
LINE
8
BLACK
6
CONTINUOUS
10
2.2154351968503936
20
-5.4043149606299208
11
2.2191847244094487
21
-5.4005653937007869
0
LINE
8
BLACK
6
CONTINUOUS
10
2.2191847244094487
20
-5.4005653937007869
11
2.2229342519685038
21
-5.3930663385826767
0
LINE
8
BLACK
6
CONTINUOUS
10
2.2229342519685038
20
-5.3930663385826767
11
2.2229342519685038
21
-5.3743187007874011
0
LINE
8
BLACK
6
CONTINUOUS
10
2.2229342519685038
20
-5.3743187007874011
11
2.2191847244094487
21
-5.3668196456692909
0
LINE
8
BLACK
6
CONTINUOUS
10
2.2191847244094487
20
-5.3668196456692909
11
2.2154351968503936
21
-5.3630700787401571
0
LINE
8
BLACK
6
CONTINUOUS
10
2.2154351968503936
20
-5.3630700787401571
11
2.2079361417322834
21
-5.359320551181102
0
LINE
8
BLACK
6
CONTINUOUS
10
2.2079361417322834
20
-5.359320551181102
11
2.1929379921259842
21
-5.359320551181102
0
LINE
8
BLACK
6
CONTINUOUS
10
2.1929379921259842
20
-5.359320551181102
11
2.1854389370078739
21
-5.3630700787401571
0
LINE
8
BLACK
6
CONTINUOUS
10
2.1854389370078739
20
-5.3630700787401571
11
2.1816894094488188
21
-5.3668196456692909
0
LINE
8
BLACK
6
CONTINUOUS
10
2.1816894094488188
20
-5.3668196456692909
11
2.1779398818897637
21
-5.3743187007874011
0
LINE
8
BLACK
6
CONTINUOUS
10
2.2941753543307084
20
-5.3293243307086611
11
2.2566800393700785
21
-5.3293243307086611
0
LINE
8
BLACK
6
CONTINUOUS
10
2.2566800393700785
20
-5.3293243307086611
11
2.2529305118110234
21
-5.3668196456692909
0
LINE
8
BLACK
6
CONTINUOUS
10
2.2529305118110234
20
-5.3668196456692909
11
2.2566800393700785
21
-5.3630700787401571
0
LINE
8
BLACK
6
CONTINUOUS
10
2.2566800393700785
20
-5.3630700787401571
11
2.2641790944881888
21
-5.359320551181102
0
LINE
8
BLACK
6
CONTINUOUS
10
2.2641790944881888
20
-5.359320551181102
11
2.2829267716535431
21
-5.359320551181102
0
LINE
8
BLACK
6
CONTINUOUS
10
2.2829267716535431
20
-5.359320551181102
11
2.2904258267716533
21
-5.3630700787401571
0
LINE
8
BLACK
6
CONTINUOUS
10
2.2904258267716533
20
-5.3630700787401571
11
2.2941753543307084
21
-5.3668196456692909
0
LINE
8
BLACK
6
CONTINUOUS
10
2.2941753543307084
20
-5.3668196456692909
11
2.2979248818897635
21
-5.3743187007874011
0
LINE
8
BLACK
6
CONTINUOUS
10
2.2979248818897635
20
-5.3743187007874011
11
2.2979248818897635
21
-5.3930663385826767
0
LINE
8
BLACK
6
CONTINUOUS
10
2.2979248818897635
20
-5.3930663385826767
11
2.2941753543307084
21
-5.4005653937007869
0
LINE
8
BLACK
6
CONTINUOUS
10
2.2941753543307084
20
-5.4005653937007869
11
2.2904258267716533
21
-5.4043149606299208
0
LINE
8
BLACK
6
CONTINUOUS
10
2.2904258267716533
20
-5.4043149606299208
11
2.2829267716535431
21
-5.4080644881889759
0
LINE
8
BLACK
6
CONTINUOUS
10
2.2829267716535431
20
-5.4080644881889759
11
2.2641790944881888
21
-5.4080644881889759
0
LINE
8
BLACK
6
CONTINUOUS
10
2.2641790944881888
20
-5.4080644881889759
11
2.2566800393700785
21
-5.4043149606299208
0
LINE
8
BLACK
6
CONTINUOUS
10
2.2566800393700785
20
-5.4043149606299208
11
2.2529305118110234
21
-5.4005653937007869
0
LINE
8
BLACK
6
CONTINUOUS
10
2.3466687795275591
20
-5.3293243307086611
11
2.3541678740157481
21
-5.3293243307086611
0
LINE
8
BLACK
6
CONTINUOUS
10
2.3541678740157481
20
-5.3293243307086611
11
2.3616669291338583
21
-5.3330738582677162
0
LINE
8
BLACK
6
CONTINUOUS
10
2.3616669291338583
20
-5.3330738582677162
11
2.3654164566929134
21
-5.3368233858267713
0
LINE
8
BLACK
6
CONTINUOUS
10
2.3654164566929134
20
-5.3368233858267713
11
2.3691659842519686
21
-5.3443224409448815
0
LINE
8
BLACK
6
CONTINUOUS
10
2.3691659842519686
20
-5.3443224409448815
11
2.3729155118110237
21
-5.359320551181102
0
LINE
8
BLACK
6
CONTINUOUS
10
2.3729155118110237
20
-5.359320551181102
11
2.3729155118110237
21
-5.3780682283464563
0
LINE
8
BLACK
6
CONTINUOUS
10
2.3729155118110237
20
-5.3780682283464563
11
2.3691659842519686
21
-5.3930663385826767
0
LINE
8
BLACK
6
CONTINUOUS
10
2.3691659842519686
20
-5.3930663385826767
11
2.3654164566929134
21
-5.4005653937007869
0
LINE
8
BLACK
6
CONTINUOUS
10
2.3654164566929134
20
-5.4005653937007869
11
2.3616669291338583
21
-5.4043149606299208
0
LINE
8
BLACK
6
CONTINUOUS
10
2.3616669291338583
20
-5.4043149606299208
11
2.3541678740157481
21
-5.4080644881889759
0
LINE
8
BLACK
6
CONTINUOUS
10
2.3541678740157481
20
-5.4080644881889759
11
2.3466687795275591
21
-5.4080644881889759
0
LINE
8
BLACK
6
CONTINUOUS
10
2.3466687795275591
20
-5.4080644881889759
11
2.3391697244094489
21
-5.4043149606299208
0
LINE
8
BLACK
6
CONTINUOUS
10
2.3391697244094489
20
-5.4043149606299208
11
2.3354201968503938
21
-5.4005653937007869
0
LINE
8
BLACK
6
CONTINUOUS
10
2.3354201968503938
20
-5.4005653937007869
11
2.3316706692913387
21
-5.3930663385826767
0
LINE
8
BLACK
6
CONTINUOUS
10
2.3316706692913387
20
-5.3930663385826767
11
2.3279211417322836
21
-5.3780682283464563
0
LINE
8
BLACK
6
CONTINUOUS
10
2.3279211417322836
20
-5.3780682283464563
11
2.3279211417322836
21
-5.359320551181102
0
LINE
8
BLACK
6
CONTINUOUS
10
2.3279211417322836
20
-5.359320551181102
11
2.3316706692913387
21
-5.3443224409448815
0
LINE
8
BLACK
6
CONTINUOUS
10
2.3316706692913387
20
-5.3443224409448815
11
2.3354201968503938
21
-5.3368233858267713
0
LINE
8
BLACK
6
CONTINUOUS
10
2.3354201968503938
20
-5.3368233858267713
11
2.3391697244094489
21
-5.3330738582677162
0
LINE
8
BLACK
6
CONTINUOUS
10
2.3391697244094489
20
-5.3330738582677162
11
2.3466687795275591
21
-5.3293243307086611
0
LINE
8
BLACK
6
CONTINUOUS
10
2.4066612992125984
20
-5.4080644881889759
11
2.4066612992125984
21
-5.3555710236220468
0
LINE
8
BLACK
6
CONTINUOUS
10
2.4066612992125984
20
-5.3630700787401571
11
2.4104108267716535
21
-5.359320551181102
0
LINE
8
BLACK
6
CONTINUOUS
10
2.4104108267716535
20
-5.359320551181102
11
2.4179098818897637
21
-5.3555710236220468
0
LINE
8
BLACK
6
CONTINUOUS
10
2.4179098818897637
20
-5.3555710236220468
11
2.4291585039370078
21
-5.3555710236220468
0
LINE
8
BLACK
6
CONTINUOUS
10
2.4291585039370078
20
-5.3555710236220468
11
2.436657559055118
21
-5.359320551181102
0
LINE
8
BLACK
6
CONTINUOUS
10
2.436657559055118
20
-5.359320551181102
11
2.4404070866141732
21
-5.3668196456692909
0
LINE
8
BLACK
6
CONTINUOUS
10
2.4404070866141732
20
-5.3668196456692909
11
2.4404070866141732
21
-5.4080644881889759
0
LINE
8
BLACK
6
CONTINUOUS
10
2.4404070866141732
20
-5.3668196456692909
11
2.4441566141732283
21
-5.359320551181102
0
LINE
8
BLACK
6
CONTINUOUS
10
2.4441566141732283
20
-5.359320551181102
11
2.4516556692913385
21
-5.3555710236220468
0
LINE
8
BLACK
6
CONTINUOUS
10
2.4516556692913385
20
-5.3555710236220468
11
2.4629042519685038
21
-5.3555710236220468
0
LINE
8
BLACK
6
CONTINUOUS
10
2.4629042519685038
20
-5.3555710236220468
11
2.4704033464566928
21
-5.359320551181102
0
LINE
8
BLACK
6
CONTINUOUS
10
2.4704033464566928
20
-5.359320551181102
11
2.4741528740157479
21
-5.3668196456692909
0
LINE
8
BLACK
6
CONTINUOUS
10
2.4741528740157479
20
-5.3668196456692909
11
2.4741528740157479
21
-5.4080644881889759
0
LINE
8
BLACK
6
CONTINUOUS
10
2.5116481889763778
20
-5.4080644881889759
11
2.5116481889763778
21
-5.3555710236220468
0
LINE
8
BLACK
6
CONTINUOUS
10
2.5116481889763778
20
-5.3630700787401571
11
2.5153977165354329
21
-5.359320551181102
0
LINE
8
BLACK
6
CONTINUOUS
10
2.5153977165354329
20
-5.359320551181102
11
2.5228967716535431
21
-5.3555710236220468
0
LINE
8
BLACK
6
CONTINUOUS
10
2.5228967716535431
20
-5.3555710236220468
11
2.5341453937007872
21
-5.3555710236220468
0
LINE
8
BLACK
6
CONTINUOUS
10
2.5341453937007872
20
-5.3555710236220468
11
2.5416444488188974
21
-5.359320551181102
0
LINE
8
BLACK
6
CONTINUOUS
10
2.5416444488188974
20
-5.359320551181102
11
2.5453939763779525
21
-5.3668196456692909
0
LINE
8
BLACK
6
CONTINUOUS
10
2.5453939763779525
20
-5.3668196456692909
11
2.5453939763779525
21
-5.4080644881889759
0
LINE
8
BLACK
6
CONTINUOUS
10
2.5453939763779525
20
-5.3668196456692909
11
2.5491435039370076
21
-5.359320551181102
0
LINE
8
BLACK
6
CONTINUOUS
10
2.5491435039370076
20
-5.359320551181102
11
2.5566425590551178
21
-5.3555710236220468
0
LINE
8
BLACK
6
CONTINUOUS
10
2.5566425590551178
20
-5.3555710236220468
11
2.5678911417322836
21
-5.3555710236220468
0
LINE
8
BLACK
6
CONTINUOUS
10
2.5678911417322836
20
-5.3555710236220468
11
2.5753902362204726
21
-5.359320551181102
0
LINE
8
BLACK
6
CONTINUOUS
10
2.5753902362204726
20
-5.359320551181102
11
2.5791397637795277
21
-5.3668196456692909
0
LINE
8
BLACK
6
CONTINUOUS
10
2.5791397637795277
20
-5.3668196456692909
11
2.5791397637795277
21
-5.4080644881889759
0
LINE
8
BLACK
6
CONTINUOUS
10
2.7328705511811022
20
-5.325574803149606
11
2.6653790157480315
21
-5.4268121259842514
0
LINE
8
BLACK
6
CONTINUOUS
10
2.8341079133858269
20
-5.3293243307086611
11
2.8416070078740159
21
-5.3293243307086611
0
LINE
8
BLACK
6
CONTINUOUS
10
2.8416070078740159
20
-5.3293243307086611
11
2.8491060629921261
21
-5.3330738582677162
0
LINE
8
BLACK
6
CONTINUOUS
10
2.8491060629921261
20
-5.3330738582677162
11
2.8528555905511812
21
-5.3368233858267713
0
LINE
8
BLACK
6
CONTINUOUS
10
2.8528555905511812
20
-5.3368233858267713
11
2.8566051181102363
21
-5.3443224409448815
0
LINE
8
BLACK
6
CONTINUOUS
10
2.8566051181102363
20
-5.3443224409448815
11
2.8603546456692914
21
-5.359320551181102
0
LINE
8
BLACK
6
CONTINUOUS
10
2.8603546456692914
20
-5.359320551181102
11
2.8603546456692914
21
-5.3780682283464563
0
LINE
8
BLACK
6
CONTINUOUS
10
2.8603546456692914
20
-5.3780682283464563
11
2.8566051181102363
21
-5.3930663385826767
0
LINE
8
BLACK
6
CONTINUOUS
10
2.8566051181102363
20
-5.3930663385826767
11
2.8528555905511812
21
-5.4005653937007869
0
LINE
8
BLACK
6
CONTINUOUS
10
2.8528555905511812
20
-5.4005653937007869
11
2.8491060629921261
21
-5.4043149606299208
0
LINE
8
BLACK
6
CONTINUOUS
10
2.8491060629921261
20
-5.4043149606299208
11
2.8416070078740159
21
-5.4080644881889759
0
LINE
8
BLACK
6
CONTINUOUS
10
2.8416070078740159
20
-5.4080644881889759
11
2.8341079133858269
21
-5.4080644881889759
0
LINE
8
BLACK
6
CONTINUOUS
10
2.8341079133858269
20
-5.4080644881889759
11
2.8266088582677167
21
-5.4043149606299208
0
LINE
8
BLACK
6
CONTINUOUS
10
2.8266088582677167
20
-5.4043149606299208
11
2.8228593307086616
21
-5.4005653937007869
0
LINE
8
BLACK
6
CONTINUOUS
10
2.8228593307086616
20
-5.4005653937007869
11
2.819109803149606
21
-5.3930663385826767
0
LINE
8
BLACK
6
CONTINUOUS
10
2.819109803149606
20
-5.3930663385826767
11
2.8153602755905509
21
-5.3780682283464563
0
LINE
8
BLACK
6
CONTINUOUS
10
2.8153602755905509
20
-5.3780682283464563
11
2.8153602755905509
21
-5.359320551181102
0
LINE
8
BLACK
6
CONTINUOUS
10
2.8153602755905509
20
-5.359320551181102
11
2.819109803149606
21
-5.3443224409448815
0
LINE
8
BLACK
6
CONTINUOUS
10
2.819109803149606
20
-5.3443224409448815
11
2.8228593307086616
21
-5.3368233858267713
0
LINE
8
BLACK
6
CONTINUOUS
10
2.8228593307086616
20
-5.3368233858267713
11
2.8266088582677167
21
-5.3330738582677162
0
LINE
8
BLACK
6
CONTINUOUS
10
2.8266088582677167
20
-5.3330738582677162
11
2.8341079133858269
21
-5.3293243307086611
0
LINE
8
BLACK
6
CONTINUOUS
10
2.8941004330708662
20
-5.4005653937007869
11
2.8978499606299213
21
-5.4043149606299208
0
LINE
8
BLACK
6
CONTINUOUS
10
2.8978499606299213
20
-5.4043149606299208
11
2.8941004330708662
21
-5.4080644881889759
0
LINE
8
BLACK
6
CONTINUOUS
10
2.8941004330708662
20
-5.4080644881889759
11
2.8903509055118111
21
-5.4043149606299208
0
LINE
8
BLACK
6
CONTINUOUS
10
2.8903509055118111
20
-5.4043149606299208
11
2.8941004330708662
21
-5.4005653937007869
0
LINE
8
BLACK
6
CONTINUOUS
10
2.8941004330708662
20
-5.4005653937007869
11
2.8941004330708662
21
-5.4080644881889759
0
LINE
8
BLACK
6
CONTINUOUS
10
2.9465938582677165
20
-5.3293243307086611
11
2.9540929527559054
21
-5.3293243307086611
0
LINE
8
BLACK
6
CONTINUOUS
10
2.9540929527559054
20
-5.3293243307086611
11
2.9615920078740157
21
-5.3330738582677162
0
LINE
8
BLACK
6
CONTINUOUS
10
2.9615920078740157
20
-5.3330738582677162
11
2.9653415354330708
21
-5.3368233858267713
0
LINE
8
BLACK
6
CONTINUOUS
10
2.9653415354330708
20
-5.3368233858267713
11
2.9690910629921259
21
-5.3443224409448815
0
LINE
8
BLACK
6
CONTINUOUS
10
2.9690910629921259
20
-5.3443224409448815
11
2.972840590551181
21
-5.359320551181102
0
LINE
8
BLACK
6
CONTINUOUS
10
2.972840590551181
20
-5.359320551181102
11
2.972840590551181
21
-5.3780682283464563
0
LINE
8
BLACK
6
CONTINUOUS
10
2.972840590551181
20
-5.3780682283464563
11
2.9690910629921259
21
-5.3930663385826767
0
LINE
8
BLACK
6
CONTINUOUS
10
2.9690910629921259
20
-5.3930663385826767
11
2.9653415354330708
21
-5.4005653937007869
0
LINE
8
BLACK
6
CONTINUOUS
10
2.9653415354330708
20
-5.4005653937007869
11
2.9615920078740157
21
-5.4043149606299208
0
LINE
8
BLACK
6
CONTINUOUS
10
2.9615920078740157
20
-5.4043149606299208
11
2.9540929527559054
21
-5.4080644881889759
0
LINE
8
BLACK
6
CONTINUOUS
10
2.9540929527559054
20
-5.4080644881889759
11
2.9465938582677165
21
-5.4080644881889759
0
LINE
8
BLACK
6
CONTINUOUS
10
2.9465938582677165
20
-5.4080644881889759
11
2.9390948031496062
21
-5.4043149606299208
0
LINE
8
BLACK
6
CONTINUOUS
10
2.9390948031496062
20
-5.4043149606299208
11
2.9353452755905511
21
-5.4005653937007869
0
LINE
8
BLACK
6
CONTINUOUS
10
2.9353452755905511
20
-5.4005653937007869
11
2.931595748031496
21
-5.3930663385826767
0
LINE
8
BLACK
6
CONTINUOUS
10
2.931595748031496
20
-5.3930663385826767
11
2.9278462204724409
21
-5.3780682283464563
0
LINE
8
BLACK
6
CONTINUOUS
10
2.9278462204724409
20
-5.3780682283464563
11
2.9278462204724409
21
-5.359320551181102
0
LINE
8
BLACK
6
CONTINUOUS
10
2.9278462204724409
20
-5.359320551181102
11
2.931595748031496
21
-5.3443224409448815
0
LINE
8
BLACK
6
CONTINUOUS
10
2.931595748031496
20
-5.3443224409448815
11
2.9353452755905511
21
-5.3368233858267713
0
LINE
8
BLACK
6
CONTINUOUS
10
2.9353452755905511
20
-5.3368233858267713
11
2.9390948031496062
21
-5.3330738582677162
0
LINE
8
BLACK
6
CONTINUOUS
10
2.9390948031496062
20
-5.3330738582677162
11
2.9465938582677165
21
-5.3293243307086611
0
LINE
8
BLACK
6
CONTINUOUS
10
3.0028368503937006
20
-5.3368233858267713
11
3.0065863779527557
21
-5.3330738582677162
0
LINE
8
BLACK
6
CONTINUOUS
10
3.0065863779527557
20
-5.3330738582677162
11
3.014085433070866
21
-5.3293243307086611
0
LINE
8
BLACK
6
CONTINUOUS
10
3.014085433070866
20
-5.3293243307086611
11
3.0328331102362203
21
-5.3293243307086611
0
LINE
8
BLACK
6
CONTINUOUS
10
3.0328331102362203
20
-5.3293243307086611
11
3.0403321653543305
21
-5.3330738582677162
0
LINE
8
BLACK
6
CONTINUOUS
10
3.0403321653543305
20
-5.3330738582677162
11
3.0440816929133856
21
-5.3368233858267713
0
LINE
8
BLACK
6
CONTINUOUS
10
3.0440816929133856
20
-5.3368233858267713
11
3.0478312204724407
21
-5.3443224409448815
0
LINE
8
BLACK
6
CONTINUOUS
10
3.0478312204724407
20
-5.3443224409448815
11
3.0478312204724407
21
-5.3518214960629917
0
LINE
8
BLACK
6
CONTINUOUS
10
3.0478312204724407
20
-5.3518214960629917
11
3.0440816929133856
21
-5.3630700787401571
0
LINE
8
BLACK
6
CONTINUOUS
10
3.0440816929133856
20
-5.3630700787401571
11
2.9990873228346455
21
-5.4080644881889759
0
LINE
8
BLACK
6
CONTINUOUS
10
2.9990873228346455
20
-5.4080644881889759
11
3.0478312204724407
21
-5.4080644881889759
0
LINE
8
BLACK
6
CONTINUOUS
10
3.1190723228346457
20
-5.3293243307086611
11
3.0815770078740159
21
-5.3293243307086611
0
LINE
8
BLACK
6
CONTINUOUS
10
3.0815770078740159
20
-5.3293243307086611
11
3.0778274803149603
21
-5.3668196456692909
0
LINE
8
BLACK
6
CONTINUOUS
10
3.0778274803149603
20
-5.3668196456692909
11
3.0815770078740159
21
-5.3630700787401571
0
LINE
8
BLACK
6
CONTINUOUS
10
3.0815770078740159
20
-5.3630700787401571
11
3.0890760629921261
21
-5.359320551181102
0
LINE
8
BLACK
6
CONTINUOUS
10
3.0890760629921261
20
-5.359320551181102
11
3.1078237401574804
21
-5.359320551181102
0
LINE
8
BLACK
6
CONTINUOUS
10
3.1078237401574804
20
-5.359320551181102
11
3.1153227952755906
21
-5.3630700787401571
0
LINE
8
BLACK
6
CONTINUOUS
10
3.1153227952755906
20
-5.3630700787401571
11
3.1190723228346457
21
-5.3668196456692909
0
LINE
8
BLACK
6
CONTINUOUS
10
3.1190723228346457
20
-5.3668196456692909
11
3.1228218503937009
21
-5.3743187007874011
0
LINE
8
BLACK
6
CONTINUOUS
10
3.1228218503937009
20
-5.3743187007874011
11
3.1228218503937009
21
-5.3930663385826767
0
LINE
8
BLACK
6
CONTINUOUS
10
3.1228218503937009
20
-5.3930663385826767
11
3.1190723228346457
21
-5.4005653937007869
0
LINE
8
BLACK
6
CONTINUOUS
10
3.1190723228346457
20
-5.4005653937007869
11
3.1153227952755906
21
-5.4043149606299208
0
LINE
8
BLACK
6
CONTINUOUS
10
3.1153227952755906
20
-5.4043149606299208
11
3.1078237401574804
21
-5.4080644881889759
0
LINE
8
BLACK
6
CONTINUOUS
10
3.1078237401574804
20
-5.4080644881889759
11
3.0890760629921261
21
-5.4080644881889759
0
LINE
8
BLACK
6
CONTINUOUS
10
3.0890760629921261
20
-5.4080644881889759
11
3.0815770078740159
21
-5.4043149606299208
0
LINE
8
BLACK
6
CONTINUOUS
10
3.0815770078740159
20
-5.4043149606299208
11
3.0778274803149603
21
-5.4005653937007869
0
LINE
8
BLACK
6
CONTINUOUS
10
3.1903134251968503
20
-5.3293243307086611
11
3.1753152755905512
21
-5.3293243307086611
0
LINE
8
BLACK
6
CONTINUOUS
10
3.1753152755905512
20
-5.3293243307086611
11
3.1678162204724409
21
-5.3330738582677162
0
LINE
8
BLACK
6
CONTINUOUS
10
3.1678162204724409
20
-5.3330738582677162
11
3.1640666929133858
21
-5.3368233858267713
0
LINE
8
BLACK
6
CONTINUOUS
10
3.1640666929133858
20
-5.3368233858267713
11
3.1565676377952756
21
-5.3480719685039366
0
LINE
8
BLACK
6
CONTINUOUS
10
3.1565676377952756
20
-5.3480719685039366
11
3.1528181102362205
21
-5.3630700787401571
0
LINE
8
BLACK
6
CONTINUOUS
10
3.1528181102362205
20
-5.3630700787401571
11
3.1528181102362205
21
-5.3930663385826767
0
LINE
8
BLACK
6
CONTINUOUS
10
3.1528181102362205
20
-5.3930663385826767
11
3.1565676377952756
21
-5.4005653937007869
0
LINE
8
BLACK
6
CONTINUOUS
10
3.1565676377952756
20
-5.4005653937007869
11
3.1603171653543307
21
-5.4043149606299208
0
LINE
8
BLACK
6
CONTINUOUS
10
3.1603171653543307
20
-5.4043149606299208
11
3.1678162204724409
21
-5.4080644881889759
0
LINE
8
BLACK
6
CONTINUOUS
10
3.1678162204724409
20
-5.4080644881889759
11
3.1828143700787401
21
-5.4080644881889759
0
LINE
8
BLACK
6
CONTINUOUS
10
3.1828143700787401
20
-5.4080644881889759
11
3.1903134251968503
21
-5.4043149606299208
0
LINE
8
BLACK
6
CONTINUOUS
10
3.1903134251968503
20
-5.4043149606299208
11
3.1940629527559055
21
-5.4005653937007869
0
LINE
8
BLACK
6
CONTINUOUS
10
3.1940629527559055
20
-5.4005653937007869
11
3.1978124803149606
21
-5.3930663385826767
0
LINE
8
BLACK
6
CONTINUOUS
10
3.1978124803149606
20
-5.3930663385826767
11
3.1978124803149606
21
-5.3743187007874011
0
LINE
8
BLACK
6
CONTINUOUS
10
3.1978124803149606
20
-5.3743187007874011
11
3.1940629527559055
21
-5.3668196456692909
0
LINE
8
BLACK
6
CONTINUOUS
10
3.1940629527559055
20
-5.3668196456692909
11
3.1903134251968503
21
-5.3630700787401571
0
LINE
8
BLACK
6
CONTINUOUS
10
3.1903134251968503
20
-5.3630700787401571
11
3.1828143700787401
21
-5.359320551181102
0
LINE
8
BLACK
6
CONTINUOUS
10
3.1828143700787401
20
-5.359320551181102
11
3.1678162204724409
21
-5.359320551181102
0
LINE
8
BLACK
6
CONTINUOUS
10
3.1678162204724409
20
-5.359320551181102
11
3.1603171653543307
21
-5.3630700787401571
0
LINE
8
BLACK
6
CONTINUOUS
10
3.1603171653543307
20
-5.3630700787401571
11
3.1565676377952756
21
-5.3668196456692909
0
LINE
8
BLACK
6
CONTINUOUS
10
3.1565676377952756
20
-5.3668196456692909
11
3.1528181102362205
21
-5.3743187007874011
0
LINE
8
BLACK
6
CONTINUOUS
10
3.2278087401574802
20
-5.3293243307086611
11
3.2278087401574802
21
-5.3443224409448815
0
LINE
8
BLACK
6
CONTINUOUS
10
3.2578049999999998
20
-5.3293243307086611
11
3.2578049999999998
21
-5.3443224409448815
0
LINE
8
BLACK
6
CONTINUOUS
10
3.3740405118110237
20
-5.4380607086614168
11
3.3702909448818898
21
-5.4343111811023617
0
LINE
8
BLACK
6
CONTINUOUS
10
3.3702909448818898
20
-5.4343111811023617
11
3.3627918897637796
21
-5.4230625984251963
0
LINE
8
BLACK
6
CONTINUOUS
10
3.3627918897637796
20
-5.4230625984251963
11
3.3590423622047245
21
-5.4155635433070861
0
LINE
8
BLACK
6
CONTINUOUS
10
3.3590423622047245
20
-5.4155635433070861
11
3.3552928346456694
21
-5.4043149606299208
0
LINE
8
BLACK
6
CONTINUOUS
10
3.3552928346456694
20
-5.4043149606299208
11
3.3515433070866143
21
-5.3855672834645665
0
LINE
8
BLACK
6
CONTINUOUS
10
3.3515433070866143
20
-5.3855672834645665
11
3.3515433070866143
21
-5.370569173228346
0
LINE
8
BLACK
6
CONTINUOUS
10
3.3515433070866143
20
-5.370569173228346
11
3.3552928346456694
21
-5.3518214960629917
0
LINE
8
BLACK
6
CONTINUOUS
10
3.3552928346456694
20
-5.3518214960629917
11
3.3590423622047245
21
-5.3405729133858264
0
LINE
8
BLACK
6
CONTINUOUS
10
3.3590423622047245
20
-5.3405729133858264
11
3.3627918897637796
21
-5.3330738582677162
0
LINE
8
BLACK
6
CONTINUOUS
10
3.3627918897637796
20
-5.3330738582677162
11
3.3702909448818898
21
-5.3218252362204721
0
LINE
8
BLACK
6
CONTINUOUS
10
3.3702909448818898
20
-5.3218252362204721
11
3.3740405118110237
21
-5.318075708661417
0
LINE
8
BLACK
6
CONTINUOUS
10
3.4002872047244095
20
-5.3368233858267713
11
3.4040367322834646
21
-5.3330738582677162
0
LINE
8
BLACK
6
CONTINUOUS
10
3.4040367322834646
20
-5.3330738582677162
11
3.4115357874015748
21
-5.3293243307086611
0
LINE
8
BLACK
6
CONTINUOUS
10
3.4115357874015748
20
-5.3293243307086611
11
3.4302834645669291
21
-5.3293243307086611
0
LINE
8
BLACK
6
CONTINUOUS
10
3.4302834645669291
20
-5.3293243307086611
11
3.4377825196850393
21
-5.3330738582677162
0
LINE
8
BLACK
6
CONTINUOUS
10
3.4377825196850393
20
-5.3330738582677162
11
3.4415320472440944
21
-5.3368233858267713
0
LINE
8
BLACK
6
CONTINUOUS
10
3.4415320472440944
20
-5.3368233858267713
11
3.4452815748031496
21
-5.3443224409448815
0
LINE
8
BLACK
6
CONTINUOUS
10
3.4452815748031496
20
-5.3443224409448815
11
3.4452815748031496
21
-5.3518214960629917
0
LINE
8
BLACK
6
CONTINUOUS
10
3.4452815748031496
20
-5.3518214960629917
11
3.4415320472440944
21
-5.3630700787401571
0
LINE
8
BLACK
6
CONTINUOUS
10
3.4415320472440944
20
-5.3630700787401571
11
3.3965376771653544
21
-5.4080644881889759
0
LINE
8
BLACK
6
CONTINUOUS
10
3.3965376771653544
20
-5.4080644881889759
11
3.4452815748031496
21
-5.4080644881889759
0
LINE
8
BLACK
6
CONTINUOUS
10
3.5390198818897636
20
-5.4080644881889759
11
3.5390198818897636
21
-5.3293243307086611
0
LINE
8
BLACK
6
CONTINUOUS
10
3.5727656692913383
20
-5.4080644881889759
11
3.5727656692913383
21
-5.3668196456692909
0
LINE
8
BLACK
6
CONTINUOUS
10
3.5727656692913383
20
-5.3668196456692909
11
3.5690161417322832
21
-5.359320551181102
0
LINE
8
BLACK
6
CONTINUOUS
10
3.5690161417322832
20
-5.359320551181102
11
3.561517086614173
21
-5.3555710236220468
0
LINE
8
BLACK
6
CONTINUOUS
10
3.561517086614173
20
-5.3555710236220468
11
3.5502684645669289
21
-5.3555710236220468
0
LINE
8
BLACK
6
CONTINUOUS
10
3.5502684645669289
20
-5.3555710236220468
11
3.5427694094488187
21
-5.359320551181102
0
LINE
8
BLACK
6
CONTINUOUS
10
3.5427694094488187
20
-5.359320551181102
11
3.5390198818897636
21
-5.3630700787401571
0
LINE
8
BLACK
6
CONTINUOUS
10
3.6215095669291339
20
-5.4080644881889759
11
3.6140105118110237
21
-5.4043149606299208
0
LINE
8
BLACK
6
CONTINUOUS
10
3.6140105118110237
20
-5.4043149606299208
11
3.6102609842519686
21
-5.4005653937007869
0
LINE
8
BLACK
6
CONTINUOUS
10
3.6102609842519686
20
-5.4005653937007869
11
3.6065114566929135
21
-5.3930663385826767
0
LINE
8
BLACK
6
CONTINUOUS
10
3.6065114566929135
20
-5.3930663385826767
11
3.6065114566929135
21
-5.370569173228346
0
LINE
8
BLACK
6
CONTINUOUS
10
3.6065114566929135
20
-5.370569173228346
11
3.6102609842519686
21
-5.3630700787401571
0
LINE
8
BLACK
6
CONTINUOUS
10
3.6102609842519686
20
-5.3630700787401571
11
3.6140105118110237
21
-5.359320551181102
0
LINE
8
BLACK
6
CONTINUOUS
10
3.6140105118110237
20
-5.359320551181102
11
3.6215095669291339
21
-5.3555710236220468
0
LINE
8
BLACK
6
CONTINUOUS
10
3.6215095669291339
20
-5.3555710236220468
11
3.632758188976378
21
-5.3555710236220468
0
LINE
8
BLACK
6
CONTINUOUS
10
3.632758188976378
20
-5.3555710236220468
11
3.6402572440944883
21
-5.359320551181102
0
LINE
8
BLACK
6
CONTINUOUS
10
3.6402572440944883
20
-5.359320551181102
11
3.6440067716535434
21
-5.3630700787401571
0
LINE
8
BLACK
6
CONTINUOUS
10
3.6440067716535434
20
-5.3630700787401571
11
3.6477562992125985
21
-5.370569173228346
0
LINE
8
BLACK
6
CONTINUOUS
10
3.6477562992125985
20
-5.370569173228346
11
3.6477562992125985
21
-5.3930663385826767
0
LINE
8
BLACK
6
CONTINUOUS
10
3.6477562992125985
20
-5.3930663385826767
11
3.6440067716535434
21
-5.4005653937007869
0
LINE
8
BLACK
6
CONTINUOUS
10
3.6440067716535434
20
-5.4005653937007869
11
3.6402572440944883
21
-5.4043149606299208
0
LINE
8
BLACK
6
CONTINUOUS
10
3.6402572440944883
20
-5.4043149606299208
11
3.632758188976378
21
-5.4080644881889759
0
LINE
8
BLACK
6
CONTINUOUS
10
3.632758188976378
20
-5.4080644881889759
11
3.6215095669291339
21
-5.4080644881889759
0
LINE
8
BLACK
6
CONTINUOUS
10
3.6927506692913385
20
-5.4080644881889759
11
3.6852516141732283
21
-5.4043149606299208
0
LINE
8
BLACK
6
CONTINUOUS
10
3.6852516141732283
20
-5.4043149606299208
11
3.6815020866141732
21
-5.3968158661417318
0
LINE
8
BLACK
6
CONTINUOUS
10
3.6815020866141732
20
-5.3968158661417318
11
3.6815020866141732
21
-5.3293243307086611
0
LINE
8
BLACK
6
CONTINUOUS
10
3.7527431889763778
20
-5.4043149606299208
11
3.7452441338582676
21
-5.4080644881889759
0
LINE
8
BLACK
6
CONTINUOUS
10
3.7452441338582676
20
-5.4080644881889759
11
3.7302459842519684
21
-5.4080644881889759
0
LINE
8
BLACK
6
CONTINUOUS
10
3.7302459842519684
20
-5.4080644881889759
11
3.7227469291338582
21
-5.4043149606299208
0
LINE
8
BLACK
6
CONTINUOUS
10
3.7227469291338582
20
-5.4043149606299208
11
3.7189974015748031
21
-5.3968158661417318
0
LINE
8
BLACK
6
CONTINUOUS
10
3.7189974015748031
20
-5.3968158661417318
11
3.7189974015748031
21
-5.3668196456692909
0
LINE
8
BLACK
6
CONTINUOUS
10
3.7189974015748031
20
-5.3668196456692909
11
3.7227469291338582
21
-5.359320551181102
0
LINE
8
BLACK
6
CONTINUOUS
10
3.7227469291338582
20
-5.359320551181102
11
3.7302459842519684
21
-5.3555710236220468
0
LINE
8
BLACK
6
CONTINUOUS
10
3.7302459842519684
20
-5.3555710236220468
11
3.7452441338582676
21
-5.3555710236220468
0
LINE
8
BLACK
6
CONTINUOUS
10
3.7452441338582676
20
-5.3555710236220468
11
3.7527431889763778
21
-5.359320551181102
0
LINE
8
BLACK
6
CONTINUOUS
10
3.7527431889763778
20
-5.359320551181102
11
3.7564927165354329
21
-5.3668196456692909
0
LINE
8
BLACK
6
CONTINUOUS
10
3.7564927165354329
20
-5.3668196456692909
11
3.7564927165354329
21
-5.3743187007874011
0
LINE
8
BLACK
6
CONTINUOUS
10
3.7564927165354329
20
-5.3743187007874011
11
3.7189974015748031
21
-5.3818177559055114
0
LINE
8
BLACK
6
CONTINUOUS
10
3.7864889763779526
20
-5.4043149606299208
11
3.7939880314960628
21
-5.4080644881889759
0
LINE
8
BLACK
6
CONTINUOUS
10
3.7939880314960628
20
-5.4080644881889759
11
3.8089861417322832
21
-5.4080644881889759
0
LINE
8
BLACK
6
CONTINUOUS
10
3.8089861417322832
20
-5.4080644881889759
11
3.8164852362204722
21
-5.4043149606299208
0
LINE
8
BLACK
6
CONTINUOUS
10
3.8164852362204722
20
-5.4043149606299208
11
3.8202347637795273
21
-5.3968158661417318
0
LINE
8
BLACK
6
CONTINUOUS
10
3.8202347637795273
20
-5.3968158661417318
11
3.8202347637795273
21
-5.3930663385826767
0
LINE
8
BLACK
6
CONTINUOUS
10
3.8202347637795273
20
-5.3930663385826767
11
3.8164852362204722
21
-5.3855672834645665
0
LINE
8
BLACK
6
CONTINUOUS
10
3.8164852362204722
20
-5.3855672834645665
11
3.8089861417322832
21
-5.3818177559055114
0
LINE
8
BLACK
6
CONTINUOUS
10
3.8089861417322832
20
-5.3818177559055114
11
3.7977375590551179
21
-5.3818177559055114
0
LINE
8
BLACK
6
CONTINUOUS
10
3.7977375590551179
20
-5.3818177559055114
11
3.7902385039370077
21
-5.3780682283464563
0
LINE
8
BLACK
6
CONTINUOUS
10
3.7902385039370077
20
-5.3780682283464563
11
3.7864889763779526
21
-5.370569173228346
0
LINE
8
BLACK
6
CONTINUOUS
10
3.7864889763779526
20
-5.370569173228346
11
3.7864889763779526
21
-5.3668196456692909
0
LINE
8
BLACK
6
CONTINUOUS
10
3.7864889763779526
20
-5.3668196456692909
11
3.7902385039370077
21
-5.359320551181102
0
LINE
8
BLACK
6
CONTINUOUS
10
3.7902385039370077
20
-5.359320551181102
11
3.7977375590551179
21
-5.3555710236220468
0
LINE
8
BLACK
6
CONTINUOUS
10
3.7977375590551179
20
-5.3555710236220468
11
3.8089861417322832
21
-5.3555710236220468
0
LINE
8
BLACK
6
CONTINUOUS
10
3.8089861417322832
20
-5.3555710236220468
11
3.8164852362204722
21
-5.359320551181102
0
LINE
8
BLACK
6
CONTINUOUS
10
3.8464814960629918
20
-5.4380607086614168
11
3.8502310236220469
21
-5.4343111811023617
0
LINE
8
BLACK
6
CONTINUOUS
10
3.8502310236220469
20
-5.4343111811023617
11
3.8577300787401576
21
-5.4230625984251963
0
LINE
8
BLACK
6
CONTINUOUS
10
3.8577300787401576
20
-5.4230625984251963
11
3.8614796062992127
21
-5.4155635433070861
0
LINE
8
BLACK
6
CONTINUOUS
10
3.8614796062992127
20
-5.4155635433070861
11
3.8652291338582678
21
-5.4043149606299208
0
LINE
8
BLACK
6
CONTINUOUS
10
3.8652291338582678
20
-5.4043149606299208
11
3.8689786614173229
21
-5.3855672834645665
0
LINE
8
BLACK
6
CONTINUOUS
10
3.8689786614173229
20
-5.3855672834645665
11
3.8689786614173229
21
-5.370569173228346
0
LINE
8
BLACK
6
CONTINUOUS
10
3.8689786614173229
20
-5.370569173228346
11
3.8652291338582678
21
-5.3518214960629917
0
LINE
8
BLACK
6
CONTINUOUS
10
3.8652291338582678
20
-5.3518214960629917
11
3.8614796062992127
21
-5.3405729133858264
0
LINE
8
BLACK
6
CONTINUOUS
10
3.8614796062992127
20
-5.3405729133858264
11
3.8577300787401576
21
-5.3330738582677162
0
LINE
8
BLACK
6
CONTINUOUS
10
3.8577300787401576
20
-5.3330738582677162
11
3.8502310236220469
21
-5.3218252362204721
0
LINE
8
BLACK
6
CONTINUOUS
10
3.8502310236220469
20
-5.3218252362204721
11
3.8464814960629918
21
-5.318075708661417
0
LINE
8
BLACK
6
CONTINUOUS
10
3.9889637007874015
20
-5.4380607086614168
11
3.9852141338582676
21
-5.4343111811023617
0
LINE
8
BLACK
6
CONTINUOUS
10
3.9852141338582676
20
-5.4343111811023617
11
3.9777150787401574
21
-5.4230625984251963
0
LINE
8
BLACK
6
CONTINUOUS
10
3.9777150787401574
20
-5.4230625984251963
11
3.9739655511811023
21
-5.4155635433070861
0
LINE
8
BLACK
6
CONTINUOUS
10
3.9739655511811023
20
-5.4155635433070861
11
3.9702160236220472
21
-5.4043149606299208
0
LINE
8
BLACK
6
CONTINUOUS
10
3.9702160236220472
20
-5.4043149606299208
11
3.9664664960629921
21
-5.3855672834645665
0
LINE
8
BLACK
6
CONTINUOUS
10
3.9664664960629921
20
-5.3855672834645665
11
3.9664664960629921
21
-5.370569173228346
0
LINE
8
BLACK
6
CONTINUOUS
10
3.9664664960629921
20
-5.370569173228346
11
3.9702160236220472
21
-5.3518214960629917
0
LINE
8
BLACK
6
CONTINUOUS
10
3.9702160236220472
20
-5.3518214960629917
11
3.9739655511811023
21
-5.3405729133858264
0
LINE
8
BLACK
6
CONTINUOUS
10
3.9739655511811023
20
-5.3405729133858264
11
3.9777150787401574
21
-5.3330738582677162
0
LINE
8
BLACK
6
CONTINUOUS
10
3.9777150787401574
20
-5.3330738582677162
11
3.9852141338582676
21
-5.3218252362204721
0
LINE
8
BLACK
6
CONTINUOUS
10
3.9852141338582676
20
-5.3218252362204721
11
3.9889637007874015
21
-5.318075708661417
0
LINE
8
BLACK
6
CONTINUOUS
10
4.0189599212598424
20
-5.3555710236220468
11
4.0189599212598424
21
-5.4080644881889759
0
LINE
8
BLACK
6
CONTINUOUS
10
4.0189599212598424
20
-5.3630700787401571
11
4.0227094488188975
21
-5.359320551181102
0
LINE
8
BLACK
6
CONTINUOUS
10
4.0227094488188975
20
-5.359320551181102
11
4.0302085039370077
21
-5.3555710236220468
0
LINE
8
BLACK
6
CONTINUOUS
10
4.0302085039370077
20
-5.3555710236220468
11
4.0414571259842518
21
-5.3555710236220468
0
LINE
8
BLACK
6
CONTINUOUS
10
4.0414571259842518
20
-5.3555710236220468
11
4.048956181102362
21
-5.359320551181102
0
LINE
8
BLACK
6
CONTINUOUS
10
4.048956181102362
20
-5.359320551181102
11
4.0527057086614171
21
-5.3668196456692909
0
LINE
8
BLACK
6
CONTINUOUS
10
4.0527057086614171
20
-5.3668196456692909
11
4.0527057086614171
21
-5.4080644881889759
0
LINE
8
BLACK
6
CONTINUOUS
10
4.1014496062992123
20
-5.4080644881889759
11
4.0939505511811021
21
-5.4043149606299208
0
LINE
8
BLACK
6
CONTINUOUS
10
4.0939505511811021
20
-5.4043149606299208
11
4.090201023622047
21
-5.4005653937007869
0
LINE
8
BLACK
6
CONTINUOUS
10
4.090201023622047
20
-5.4005653937007869
11
4.0864514960629919
21
-5.3930663385826767
0
LINE
8
BLACK
6
CONTINUOUS
10
4.0864514960629919
20
-5.3930663385826767
11
4.0864514960629919
21
-5.370569173228346
0
LINE
8
BLACK
6
CONTINUOUS
10
4.0864514960629919
20
-5.370569173228346
11
4.090201023622047
21
-5.3630700787401571
0
LINE
8
BLACK
6
CONTINUOUS
10
4.090201023622047
20
-5.3630700787401571
11
4.0939505511811021
21
-5.359320551181102
0
LINE
8
BLACK
6
CONTINUOUS
10
4.0939505511811021
20
-5.359320551181102
11
4.1014496062992123
21
-5.3555710236220468
0
LINE
8
BLACK
6
CONTINUOUS
10
4.1014496062992123
20
-5.3555710236220468
11
4.1126982283464564
21
-5.3555710236220468
0
LINE
8
BLACK
6
CONTINUOUS
10
4.1126982283464564
20
-5.3555710236220468
11
4.1201972834645666
21
-5.359320551181102
0
LINE
8
BLACK
6
CONTINUOUS
10
4.1201972834645666
20
-5.359320551181102
11
4.1239468110236217
21
-5.3630700787401571
0
LINE
8
BLACK
6
CONTINUOUS
10
4.1239468110236217
20
-5.3630700787401571
11
4.1276963385826768
21
-5.370569173228346
0
LINE
8
BLACK
6
CONTINUOUS
10
4.1276963385826768
20
-5.370569173228346
11
4.1276963385826768
21
-5.3930663385826767
0
LINE
8
BLACK
6
CONTINUOUS
10
4.1276963385826768
20
-5.3930663385826767
11
4.1239468110236217
21
-5.4005653937007869
0
LINE
8
BLACK
6
CONTINUOUS
10
4.1239468110236217
20
-5.4005653937007869
11
4.1201972834645666
21
-5.4043149606299208
0
LINE
8
BLACK
6
CONTINUOUS
10
4.1201972834645666
20
-5.4043149606299208
11
4.1126982283464564
21
-5.4080644881889759
0
LINE
8
BLACK
6
CONTINUOUS
10
4.1126982283464564
20
-5.4080644881889759
11
4.1014496062992123
21
-5.4080644881889759
0
LINE
8
BLACK
6
CONTINUOUS
10
4.1501935433070862
20
-5.3555710236220468
11
4.1801897637795271
21
-5.3555710236220468
0
LINE
8
BLACK
6
CONTINUOUS
10
4.1614421259842516
20
-5.3293243307086611
11
4.1614421259842516
21
-5.3968158661417318
0
LINE
8
BLACK
6
CONTINUOUS
10
4.1614421259842516
20
-5.3968158661417318
11
4.1651916535433067
21
-5.4043149606299208
0
LINE
8
BLACK
6
CONTINUOUS
10
4.1651916535433067
20
-5.4043149606299208
11
4.1726907086614169
21
-5.4080644881889759
0
LINE
8
BLACK
6
CONTINUOUS
10
4.1726907086614169
20
-5.4080644881889759
11
4.1801897637795271
21
-5.4080644881889759
0
LINE
8
BLACK
6
CONTINUOUS
10
4.2664290157480318
20
-5.3555710236220468
11
4.2664290157480318
21
-5.4343111811023617
0
LINE
8
BLACK
6
CONTINUOUS
10
4.2664290157480318
20
-5.359320551181102
11
4.273928070866142
21
-5.3555710236220468
0
LINE
8
BLACK
6
CONTINUOUS
10
4.273928070866142
20
-5.3555710236220468
11
4.2889262204724412
21
-5.3555710236220468
0
LINE
8
BLACK
6
CONTINUOUS
10
4.2889262204724412
20
-5.3555710236220468
11
4.2964252755905514
21
-5.359320551181102
0
LINE
8
BLACK
6
CONTINUOUS
10
4.2964252755905514
20
-5.359320551181102
11
4.3001748031496065
21
-5.3630700787401571
0
LINE
8
BLACK
6
CONTINUOUS
10
4.3001748031496065
20
-5.3630700787401571
11
4.3039243307086616
21
-5.370569173228346
0
LINE
8
BLACK
6
CONTINUOUS
10
4.3039243307086616
20
-5.370569173228346
11
4.3039243307086616
21
-5.3930663385826767
0
LINE
8
BLACK
6
CONTINUOUS
10
4.3039243307086616
20
-5.3930663385826767
11
4.3001748031496065
21
-5.4005653937007869
0
LINE
8
BLACK
6
CONTINUOUS
10
4.3001748031496065
20
-5.4005653937007869
11
4.2964252755905514
21
-5.4043149606299208
0
LINE
8
BLACK
6
CONTINUOUS
10
4.2964252755905514
20
-5.4043149606299208
11
4.2889262204724412
21
-5.4080644881889759
0
LINE
8
BLACK
6
CONTINUOUS
10
4.2889262204724412
20
-5.4080644881889759
11
4.273928070866142
21
-5.4080644881889759
0
LINE
8
BLACK
6
CONTINUOUS
10
4.273928070866142
20
-5.4080644881889759
11
4.2664290157480318
21
-5.4043149606299208
0
LINE
8
BLACK
6
CONTINUOUS
10
4.3489187007874017
20
-5.4080644881889759
11
4.3414196456692915
21
-5.4043149606299208
0
LINE
8
BLACK
6
CONTINUOUS
10
4.3414196456692915
20
-5.4043149606299208
11
4.3376701181102364
21
-5.3968158661417318
0
LINE
8
BLACK
6
CONTINUOUS
10
4.3376701181102364
20
-5.3968158661417318
11
4.3376701181102364
21
-5.3293243307086611
0
LINE
8
BLACK
6
CONTINUOUS
10
4.4126607480314961
20
-5.4080644881889759
11
4.4126607480314961
21
-5.3668196456692909
0
LINE
8
BLACK
6
CONTINUOUS
10
4.4126607480314961
20
-5.3668196456692909
11
4.408911220472441
21
-5.359320551181102
0
LINE
8
BLACK
6
CONTINUOUS
10
4.408911220472441
20
-5.359320551181102
11
4.4014121653543308
21
-5.3555710236220468
0
LINE
8
BLACK
6
CONTINUOUS
10
4.4014121653543308
20
-5.3555710236220468
11
4.3864140157480316
21
-5.3555710236220468
0
LINE
8
BLACK
6
CONTINUOUS
10
4.3864140157480316
20
-5.3555710236220468
11
4.3789149606299214
21
-5.359320551181102
0
LINE
8
BLACK
6
CONTINUOUS
10
4.4126607480314961
20
-5.4043149606299208
11
4.4051616929133859
21
-5.4080644881889759
0
LINE
8
BLACK
6
CONTINUOUS
10
4.4051616929133859
20
-5.4080644881889759
11
4.3864140157480316
21
-5.4080644881889759
0
LINE
8
BLACK
6
CONTINUOUS
10
4.3864140157480316
20
-5.4080644881889759
11
4.3789149606299214
21
-5.4043149606299208
0
LINE
8
BLACK
6
CONTINUOUS
10
4.3789149606299214
20
-5.4043149606299208
11
4.3751654330708662
21
-5.3968158661417318
0
LINE
8
BLACK
6
CONTINUOUS
10
4.3751654330708662
20
-5.3968158661417318
11
4.3751654330708662
21
-5.3893168110236216
0
LINE
8
BLACK
6
CONTINUOUS
10
4.3751654330708662
20
-5.3893168110236216
11
4.3789149606299214
21
-5.3818177559055114
0
LINE
8
BLACK
6
CONTINUOUS
10
4.3789149606299214
20
-5.3818177559055114
11
4.3864140157480316
21
-5.3780682283464563
0
LINE
8
BLACK
6
CONTINUOUS
10
4.3864140157480316
20
-5.3780682283464563
11
4.4051616929133859
21
-5.3780682283464563
0
LINE
8
BLACK
6
CONTINUOUS
10
4.4051616929133859
20
-5.3780682283464563
11
4.4126607480314961
21
-5.3743187007874011
0
LINE
8
BLACK
6
CONTINUOUS
10
4.4389074803149606
20
-5.3555710236220468
11
4.4689037007874015
21
-5.3555710236220468
0
LINE
8
BLACK
6
CONTINUOUS
10
4.450156062992126
20
-5.3293243307086611
11
4.450156062992126
21
-5.3968158661417318
0
LINE
8
BLACK
6
CONTINUOUS
10
4.450156062992126
20
-5.3968158661417318
11
4.4539055905511811
21
-5.4043149606299208
0
LINE
8
BLACK
6
CONTINUOUS
10
4.4539055905511811
20
-5.4043149606299208
11
4.4614046456692913
21
-5.4080644881889759
0
LINE
8
BLACK
6
CONTINUOUS
10
4.4614046456692913
20
-5.4080644881889759
11
4.4689037007874015
21
-5.4080644881889759
0
LINE
8
BLACK
6
CONTINUOUS
10
4.5251466929133857
20
-5.4043149606299208
11
4.5176476377952755
21
-5.4080644881889759
0
LINE
8
BLACK
6
CONTINUOUS
10
4.5176476377952755
20
-5.4080644881889759
11
4.5026494881889763
21
-5.4080644881889759
0
LINE
8
BLACK
6
CONTINUOUS
10
4.5026494881889763
20
-5.4080644881889759
11
4.495150433070866
21
-5.4043149606299208
0
LINE
8
BLACK
6
CONTINUOUS
10
4.495150433070866
20
-5.4043149606299208
11
4.4914009055118109
21
-5.3968158661417318
0
LINE
8
BLACK
6
CONTINUOUS
10
4.4914009055118109
20
-5.3968158661417318
11
4.4914009055118109
21
-5.3668196456692909
0
LINE
8
BLACK
6
CONTINUOUS
10
4.4914009055118109
20
-5.3668196456692909
11
4.495150433070866
21
-5.359320551181102
0
LINE
8
BLACK
6
CONTINUOUS
10
4.495150433070866
20
-5.359320551181102
11
4.5026494881889763
21
-5.3555710236220468
0
LINE
8
BLACK
6
CONTINUOUS
10
4.5026494881889763
20
-5.3555710236220468
11
4.5176476377952755
21
-5.3555710236220468
0
LINE
8
BLACK
6
CONTINUOUS
10
4.5176476377952755
20
-5.3555710236220468
11
4.5251466929133857
21
-5.359320551181102
0
LINE
8
BLACK
6
CONTINUOUS
10
4.5251466929133857
20
-5.359320551181102
11
4.5288962204724408
21
-5.3668196456692909
0
LINE
8
BLACK
6
CONTINUOUS
10
4.5288962204724408
20
-5.3668196456692909
11
4.5288962204724408
21
-5.3743187007874011
0
LINE
8
BLACK
6
CONTINUOUS
10
4.5288962204724408
20
-5.3743187007874011
11
4.4914009055118109
21
-5.3818177559055114
0
LINE
8
BLACK
6
CONTINUOUS
10
4.5963877952755903
20
-5.4080644881889759
11
4.5963877952755903
21
-5.3293243307086611
0
LINE
8
BLACK
6
CONTINUOUS
10
4.5963877952755903
20
-5.4043149606299208
11
4.5888887401574801
21
-5.4080644881889759
0
LINE
8
BLACK
6
CONTINUOUS
10
4.5888887401574801
20
-5.4080644881889759
11
4.5738905905511809
21
-5.4080644881889759
0
LINE
8
BLACK
6
CONTINUOUS
10
4.5738905905511809
20
-5.4080644881889759
11
4.5663915354330706
21
-5.4043149606299208
0
LINE
8
BLACK
6
CONTINUOUS
10
4.5663915354330706
20
-5.4043149606299208
11
4.5626420078740155
21
-5.4005653937007869
0
LINE
8
BLACK
6
CONTINUOUS
10
4.5626420078740155
20
-5.4005653937007869
11
4.5588924803149604
21
-5.3930663385826767
0
LINE
8
BLACK
6
CONTINUOUS
10
4.5588924803149604
20
-5.3930663385826767
11
4.5588924803149604
21
-5.370569173228346
0
LINE
8
BLACK
6
CONTINUOUS
10
4.5588924803149604
20
-5.370569173228346
11
4.5626420078740155
21
-5.3630700787401571
0
LINE
8
BLACK
6
CONTINUOUS
10
4.5626420078740155
20
-5.3630700787401571
11
4.5663915354330706
21
-5.359320551181102
0
LINE
8
BLACK
6
CONTINUOUS
10
4.5663915354330706
20
-5.359320551181102
11
4.5738905905511809
21
-5.3555710236220468
0
LINE
8
BLACK
6
CONTINUOUS
10
4.5738905905511809
20
-5.3555710236220468
11
4.5888887401574801
21
-5.3555710236220468
0
LINE
8
BLACK
6
CONTINUOUS
10
4.5888887401574801
20
-5.3555710236220468
11
4.5963877952755903
21
-5.359320551181102
0
LINE
8
BLACK
6
CONTINUOUS
10
4.6263840551181099
20
-5.4380607086614168
11
4.630133582677165
21
-5.4343111811023617
0
LINE
8
BLACK
6
CONTINUOUS
10
4.630133582677165
20
-5.4343111811023617
11
4.6376326377952752
21
-5.4230625984251963
0
LINE
8
BLACK
6
CONTINUOUS
10
4.6376326377952752
20
-5.4230625984251963
11
4.6413821653543303
21
-5.4155635433070861
0
LINE
8
BLACK
6
CONTINUOUS
10
4.6413821653543303
20
-5.4155635433070861
11
4.6451316929133855
21
-5.4043149606299208
0
LINE
8
BLACK
6
CONTINUOUS
10
4.6451316929133855
20
-5.4043149606299208
11
4.6488812204724406
21
-5.3855672834645665
0
LINE
8
BLACK
6
CONTINUOUS
10
4.6488812204724406
20
-5.3855672834645665
11
4.6488812204724406
21
-5.370569173228346
0
LINE
8
BLACK
6
CONTINUOUS
10
4.6488812204724406
20
-5.370569173228346
11
4.6451316929133855
21
-5.3518214960629917
0
LINE
8
BLACK
6
CONTINUOUS
10
4.6451316929133855
20
-5.3518214960629917
11
4.6413821653543303
21
-5.3405729133858264
0
LINE
8
BLACK
6
CONTINUOUS
10
4.6413821653543303
20
-5.3405729133858264
11
4.6376326377952752
21
-5.3330738582677162
0
LINE
8
BLACK
6
CONTINUOUS
10
4.6376326377952752
20
-5.3330738582677162
11
4.630133582677165
21
-5.3218252362204721
0
LINE
8
BLACK
6
CONTINUOUS
10
4.630133582677165
20
-5.3218252362204721
11
4.6263840551181099
21
-5.318075708661417
0
CIRCLE
8
BLACK
10
1.9488188976377951
20
-5.4759842519685042
40
0.0177165354330709
0
LINE
8
BLACK
6
CONTINUOUS
10
2.0842015748031497
20
-5.4332613385826773
11
2.0917006692913387
21
-5.4332613385826773
0
LINE
8
BLACK
6
CONTINUOUS
10
2.0917006692913387
20
-5.4332613385826773
11
2.0991997244094489
21
-5.4370108661417325
0
LINE
8
BLACK
6
CONTINUOUS
10
2.0991997244094489
20
-5.4370108661417325
11
2.102949251968504
21
-5.4407603937007876
0
LINE
8
BLACK
6
CONTINUOUS
10
2.102949251968504
20
-5.4407603937007876
11
2.1066987795275591
21
-5.4482594488188978
0
LINE
8
BLACK
6
CONTINUOUS
10
2.1066987795275591
20
-5.4482594488188978
11
2.1104483070866142
21
-5.4632575590551182
0
LINE
8
BLACK
6
CONTINUOUS
10
2.1104483070866142
20
-5.4632575590551182
11
2.1104483070866142
21
-5.4820052362204725
0
LINE
8
BLACK
6
CONTINUOUS
10
2.1104483070866142
20
-5.4820052362204725
11
2.1066987795275591
21
-5.497003346456693
0
LINE
8
BLACK
6
CONTINUOUS
10
2.1066987795275591
20
-5.497003346456693
11
2.102949251968504
21
-5.5045024015748032
0
LINE
8
BLACK
6
CONTINUOUS
10
2.102949251968504
20
-5.5045024015748032
11
2.0991997244094489
21
-5.5082519685039371
0
LINE
8
BLACK
6
CONTINUOUS
10
2.0991997244094489
20
-5.5082519685039371
11
2.0917006692913387
21
-5.5120014960629922
0
LINE
8
BLACK
6
CONTINUOUS
10
2.0917006692913387
20
-5.5120014960629922
11
2.0842015748031497
21
-5.5120014960629922
0
LINE
8
BLACK
6
CONTINUOUS
10
2.0842015748031497
20
-5.5120014960629922
11
2.0767025196850395
21
-5.5082519685039371
0
LINE
8
BLACK
6
CONTINUOUS
10
2.0767025196850395
20
-5.5082519685039371
11
2.0729529921259844
21
-5.5045024015748032
0
LINE
8
BLACK
6
CONTINUOUS
10
2.0729529921259844
20
-5.5045024015748032
11
2.0692034645669293
21
-5.497003346456693
0
LINE
8
BLACK
6
CONTINUOUS
10
2.0692034645669293
20
-5.497003346456693
11
2.0654539370078742
21
-5.4820052362204725
0
LINE
8
BLACK
6
CONTINUOUS
10
2.0654539370078742
20
-5.4820052362204725
11
2.0654539370078742
21
-5.4632575590551182
0
LINE
8
BLACK
6
CONTINUOUS
10
2.0654539370078742
20
-5.4632575590551182
11
2.0692034645669293
21
-5.4482594488188978
0
LINE
8
BLACK
6
CONTINUOUS
10
2.0692034645669293
20
-5.4482594488188978
11
2.0729529921259844
21
-5.4407603937007876
0
LINE
8
BLACK
6
CONTINUOUS
10
2.0729529921259844
20
-5.4407603937007876
11
2.0767025196850395
21
-5.4370108661417325
0
LINE
8
BLACK
6
CONTINUOUS
10
2.0767025196850395
20
-5.4370108661417325
11
2.0842015748031497
21
-5.4332613385826773
0
LINE
8
BLACK
6
CONTINUOUS
10
2.144194094488189
20
-5.5045024015748032
11
2.1479436220472441
21
-5.5082519685039371
0
LINE
8
BLACK
6
CONTINUOUS
10
2.1479436220472441
20
-5.5082519685039371
11
2.144194094488189
21
-5.5120014960629922
0
LINE
8
BLACK
6
CONTINUOUS
10
2.144194094488189
20
-5.5120014960629922
11
2.1404445669291339
21
-5.5082519685039371
0
LINE
8
BLACK
6
CONTINUOUS
10
2.1404445669291339
20
-5.5082519685039371
11
2.144194094488189
21
-5.5045024015748032
0
LINE
8
BLACK
6
CONTINUOUS
10
2.144194094488189
20
-5.5045024015748032
11
2.144194094488189
21
-5.5120014960629922
0
LINE
8
BLACK
6
CONTINUOUS
10
2.1854389370078739
20
-5.5120014960629922
11
2.2004370472440944
21
-5.5120014960629922
0
LINE
8
BLACK
6
CONTINUOUS
10
2.2004370472440944
20
-5.5120014960629922
11
2.2079361417322834
21
-5.5082519685039371
0
LINE
8
BLACK
6
CONTINUOUS
10
2.2079361417322834
20
-5.5082519685039371
11
2.2116856692913385
21
-5.5045024015748032
0
LINE
8
BLACK
6
CONTINUOUS
10
2.2116856692913385
20
-5.5045024015748032
11
2.2191847244094487
21
-5.4932538188976379
0
LINE
8
BLACK
6
CONTINUOUS
10
2.2191847244094487
20
-5.4932538188976379
11
2.2229342519685038
21
-5.4782557086614174
0
LINE
8
BLACK
6
CONTINUOUS
10
2.2229342519685038
20
-5.4782557086614174
11
2.2229342519685038
21
-5.4482594488188978
0
LINE
8
BLACK
6
CONTINUOUS
10
2.2229342519685038
20
-5.4482594488188978
11
2.2191847244094487
21
-5.4407603937007876
0
LINE
8
BLACK
6
CONTINUOUS
10
2.2191847244094487
20
-5.4407603937007876
11
2.2154351968503936
21
-5.4370108661417325
0
LINE
8
BLACK
6
CONTINUOUS
10
2.2154351968503936
20
-5.4370108661417325
11
2.2079361417322834
21
-5.4332613385826773
0
LINE
8
BLACK
6
CONTINUOUS
10
2.2079361417322834
20
-5.4332613385826773
11
2.1929379921259842
21
-5.4332613385826773
0
LINE
8
BLACK
6
CONTINUOUS
10
2.1929379921259842
20
-5.4332613385826773
11
2.1854389370078739
21
-5.4370108661417325
0
LINE
8
BLACK
6
CONTINUOUS
10
2.1854389370078739
20
-5.4370108661417325
11
2.1816894094488188
21
-5.4407603937007876
0
LINE
8
BLACK
6
CONTINUOUS
10
2.1816894094488188
20
-5.4407603937007876
11
2.1779398818897637
21
-5.4482594488188978
0
LINE
8
BLACK
6
CONTINUOUS
10
2.1779398818897637
20
-5.4482594488188978
11
2.1779398818897637
21
-5.4670070866141733
0
LINE
8
BLACK
6
CONTINUOUS
10
2.1779398818897637
20
-5.4670070866141733
11
2.1816894094488188
21
-5.4745061811023623
0
LINE
8
BLACK
6
CONTINUOUS
10
2.1816894094488188
20
-5.4745061811023623
11
2.1854389370078739
21
-5.4782557086614174
0
LINE
8
BLACK
6
CONTINUOUS
10
2.1854389370078739
20
-5.4782557086614174
11
2.1929379921259842
21
-5.4820052362204725
0
LINE
8
BLACK
6
CONTINUOUS
10
2.1929379921259842
20
-5.4820052362204725
11
2.2079361417322834
21
-5.4820052362204725
0
LINE
8
BLACK
6
CONTINUOUS
10
2.2079361417322834
20
-5.4820052362204725
11
2.2154351968503936
21
-5.4782557086614174
0
LINE
8
BLACK
6
CONTINUOUS
10
2.2154351968503936
20
-5.4782557086614174
11
2.2191847244094487
21
-5.4745061811023623
0
LINE
8
BLACK
6
CONTINUOUS
10
2.2191847244094487
20
-5.4745061811023623
11
2.2229342519685038
21
-5.4670070866141733
0
LINE
8
BLACK
6
CONTINUOUS
10
2.271678149606299
20
-5.4332613385826773
11
2.279177244094488
21
-5.4332613385826773
0
LINE
8
BLACK
6
CONTINUOUS
10
2.279177244094488
20
-5.4332613385826773
11
2.2866762992125982
21
-5.4370108661417325
0
LINE
8
BLACK
6
CONTINUOUS
10
2.2866762992125982
20
-5.4370108661417325
11
2.2904258267716533
21
-5.4407603937007876
0
LINE
8
BLACK
6
CONTINUOUS
10
2.2904258267716533
20
-5.4407603937007876
11
2.2941753543307084
21
-5.4482594488188978
0
LINE
8
BLACK
6
CONTINUOUS
10
2.2941753543307084
20
-5.4482594488188978
11
2.2979248818897635
21
-5.4632575590551182
0
LINE
8
BLACK
6
CONTINUOUS
10
2.2979248818897635
20
-5.4632575590551182
11
2.2979248818897635
21
-5.4820052362204725
0
LINE
8
BLACK
6
CONTINUOUS
10
2.2979248818897635
20
-5.4820052362204725
11
2.2941753543307084
21
-5.497003346456693
0
LINE
8
BLACK
6
CONTINUOUS
10
2.2941753543307084
20
-5.497003346456693
11
2.2904258267716533
21
-5.5045024015748032
0
LINE
8
BLACK
6
CONTINUOUS
10
2.2904258267716533
20
-5.5045024015748032
11
2.2866762992125982
21
-5.5082519685039371
0
LINE
8
BLACK
6
CONTINUOUS
10
2.2866762992125982
20
-5.5082519685039371
11
2.279177244094488
21
-5.5120014960629922
0
LINE
8
BLACK
6
CONTINUOUS
10
2.279177244094488
20
-5.5120014960629922
11
2.271678149606299
21
-5.5120014960629922
0
LINE
8
BLACK
6
CONTINUOUS
10
2.271678149606299
20
-5.5120014960629922
11
2.2641790944881888
21
-5.5082519685039371
0
LINE
8
BLACK
6
CONTINUOUS
10
2.2641790944881888
20
-5.5082519685039371
11
2.2604295669291337
21
-5.5045024015748032
0
LINE
8
BLACK
6
CONTINUOUS
10
2.2604295669291337
20
-5.5045024015748032
11
2.2566800393700785
21
-5.497003346456693
0
LINE
8
BLACK
6
CONTINUOUS
10
2.2566800393700785
20
-5.497003346456693
11
2.2529305118110234
21
-5.4820052362204725
0
LINE
8
BLACK
6
CONTINUOUS
10
2.2529305118110234
20
-5.4820052362204725
11
2.2529305118110234
21
-5.4632575590551182
0
LINE
8
BLACK
6
CONTINUOUS
10
2.2529305118110234
20
-5.4632575590551182
11
2.2566800393700785
21
-5.4482594488188978
0
LINE
8
BLACK
6
CONTINUOUS
10
2.2566800393700785
20
-5.4482594488188978
11
2.2604295669291337
21
-5.4407603937007876
0
LINE
8
BLACK
6
CONTINUOUS
10
2.2604295669291337
20
-5.4407603937007876
11
2.2641790944881888
21
-5.4370108661417325
0
LINE
8
BLACK
6
CONTINUOUS
10
2.2641790944881888
20
-5.4370108661417325
11
2.271678149606299
21
-5.4332613385826773
0
LINE
8
BLACK
6
CONTINUOUS
10
2.3466687795275591
20
-5.4332613385826773
11
2.3541678740157481
21
-5.4332613385826773
0
LINE
8
BLACK
6
CONTINUOUS
10
2.3541678740157481
20
-5.4332613385826773
11
2.3616669291338583
21
-5.4370108661417325
0
LINE
8
BLACK
6
CONTINUOUS
10
2.3616669291338583
20
-5.4370108661417325
11
2.3654164566929134
21
-5.4407603937007876
0
LINE
8
BLACK
6
CONTINUOUS
10
2.3654164566929134
20
-5.4407603937007876
11
2.3691659842519686
21
-5.4482594488188978
0
LINE
8
BLACK
6
CONTINUOUS
10
2.3691659842519686
20
-5.4482594488188978
11
2.3729155118110237
21
-5.4632575590551182
0
LINE
8
BLACK
6
CONTINUOUS
10
2.3729155118110237
20
-5.4632575590551182
11
2.3729155118110237
21
-5.4820052362204725
0
LINE
8
BLACK
6
CONTINUOUS
10
2.3729155118110237
20
-5.4820052362204725
11
2.3691659842519686
21
-5.497003346456693
0
LINE
8
BLACK
6
CONTINUOUS
10
2.3691659842519686
20
-5.497003346456693
11
2.3654164566929134
21
-5.5045024015748032
0
LINE
8
BLACK
6
CONTINUOUS
10
2.3654164566929134
20
-5.5045024015748032
11
2.3616669291338583
21
-5.5082519685039371
0
LINE
8
BLACK
6
CONTINUOUS
10
2.3616669291338583
20
-5.5082519685039371
11
2.3541678740157481
21
-5.5120014960629922
0
LINE
8
BLACK
6
CONTINUOUS
10
2.3541678740157481
20
-5.5120014960629922
11
2.3466687795275591
21
-5.5120014960629922
0
LINE
8
BLACK
6
CONTINUOUS
10
2.3466687795275591
20
-5.5120014960629922
11
2.3391697244094489
21
-5.5082519685039371
0
LINE
8
BLACK
6
CONTINUOUS
10
2.3391697244094489
20
-5.5082519685039371
11
2.3354201968503938
21
-5.5045024015748032
0
LINE
8
BLACK
6
CONTINUOUS
10
2.3354201968503938
20
-5.5045024015748032
11
2.3316706692913387
21
-5.497003346456693
0
LINE
8
BLACK
6
CONTINUOUS
10
2.3316706692913387
20
-5.497003346456693
11
2.3279211417322836
21
-5.4820052362204725
0
LINE
8
BLACK
6
CONTINUOUS
10
2.3279211417322836
20
-5.4820052362204725
11
2.3279211417322836
21
-5.4632575590551182
0
LINE
8
BLACK
6
CONTINUOUS
10
2.3279211417322836
20
-5.4632575590551182
11
2.3316706692913387
21
-5.4482594488188978
0
LINE
8
BLACK
6
CONTINUOUS
10
2.3316706692913387
20
-5.4482594488188978
11
2.3354201968503938
21
-5.4407603937007876
0
LINE
8
BLACK
6
CONTINUOUS
10
2.3354201968503938
20
-5.4407603937007876
11
2.3391697244094489
21
-5.4370108661417325
0
LINE
8
BLACK
6
CONTINUOUS
10
2.3391697244094489
20
-5.4370108661417325
11
2.3466687795275591
21
-5.4332613385826773
0
LINE
8
BLACK
6
CONTINUOUS
10
2.4066612992125984
20
-5.5120014960629922
11
2.4066612992125984
21
-5.4595080314960631
0
LINE
8
BLACK
6
CONTINUOUS
10
2.4066612992125984
20
-5.4670070866141733
11
2.4104108267716535
21
-5.4632575590551182
0
LINE
8
BLACK
6
CONTINUOUS
10
2.4104108267716535
20
-5.4632575590551182
11
2.4179098818897637
21
-5.4595080314960631
0
LINE
8
BLACK
6
CONTINUOUS
10
2.4179098818897637
20
-5.4595080314960631
11
2.4291585039370078
21
-5.4595080314960631
0
LINE
8
BLACK
6
CONTINUOUS
10
2.4291585039370078
20
-5.4595080314960631
11
2.436657559055118
21
-5.4632575590551182
0
LINE
8
BLACK
6
CONTINUOUS
10
2.436657559055118
20
-5.4632575590551182
11
2.4404070866141732
21
-5.4707566535433072
0
LINE
8
BLACK
6
CONTINUOUS
10
2.4404070866141732
20
-5.4707566535433072
11
2.4404070866141732
21
-5.5120014960629922
0
LINE
8
BLACK
6
CONTINUOUS
10
2.4404070866141732
20
-5.4707566535433072
11
2.4441566141732283
21
-5.4632575590551182
0
LINE
8
BLACK
6
CONTINUOUS
10
2.4441566141732283
20
-5.4632575590551182
11
2.4516556692913385
21
-5.4595080314960631
0
LINE
8
BLACK
6
CONTINUOUS
10
2.4516556692913385
20
-5.4595080314960631
11
2.4629042519685038
21
-5.4595080314960631
0
LINE
8
BLACK
6
CONTINUOUS
10
2.4629042519685038
20
-5.4595080314960631
11
2.4704033464566928
21
-5.4632575590551182
0
LINE
8
BLACK
6
CONTINUOUS
10
2.4704033464566928
20
-5.4632575590551182
11
2.4741528740157479
21
-5.4707566535433072
0
LINE
8
BLACK
6
CONTINUOUS
10
2.4741528740157479
20
-5.4707566535433072
11
2.4741528740157479
21
-5.5120014960629922
0
LINE
8
BLACK
6
CONTINUOUS
10
2.5116481889763778
20
-5.5120014960629922
11
2.5116481889763778
21
-5.4595080314960631
0
LINE
8
BLACK
6
CONTINUOUS
10
2.5116481889763778
20
-5.4670070866141733
11
2.5153977165354329
21
-5.4632575590551182
0
LINE
8
BLACK
6
CONTINUOUS
10
2.5153977165354329
20
-5.4632575590551182
11
2.5228967716535431
21
-5.4595080314960631
0
LINE
8
BLACK
6
CONTINUOUS
10
2.5228967716535431
20
-5.4595080314960631
11
2.5341453937007872
21
-5.4595080314960631
0
LINE
8
BLACK
6
CONTINUOUS
10
2.5341453937007872
20
-5.4595080314960631
11
2.5416444488188974
21
-5.4632575590551182
0
LINE
8
BLACK
6
CONTINUOUS
10
2.5416444488188974
20
-5.4632575590551182
11
2.5453939763779525
21
-5.4707566535433072
0
LINE
8
BLACK
6
CONTINUOUS
10
2.5453939763779525
20
-5.4707566535433072
11
2.5453939763779525
21
-5.5120014960629922
0
LINE
8
BLACK
6
CONTINUOUS
10
2.5453939763779525
20
-5.4707566535433072
11
2.5491435039370076
21
-5.4632575590551182
0
LINE
8
BLACK
6
CONTINUOUS
10
2.5491435039370076
20
-5.4632575590551182
11
2.5566425590551178
21
-5.4595080314960631
0
LINE
8
BLACK
6
CONTINUOUS
10
2.5566425590551178
20
-5.4595080314960631
11
2.5678911417322836
21
-5.4595080314960631
0
LINE
8
BLACK
6
CONTINUOUS
10
2.5678911417322836
20
-5.4595080314960631
11
2.5753902362204726
21
-5.4632575590551182
0
LINE
8
BLACK
6
CONTINUOUS
10
2.5753902362204726
20
-5.4632575590551182
11
2.5791397637795277
21
-5.4707566535433072
0
LINE
8
BLACK
6
CONTINUOUS
10
2.5791397637795277
20
-5.4707566535433072
11
2.5791397637795277
21
-5.5120014960629922
0
LINE
8
BLACK
6
CONTINUOUS
10
2.7328705511811022
20
-5.4295118110236222
11
2.6653790157480315
21
-5.5307491338582677
0
LINE
8
BLACK
6
CONTINUOUS
10
2.8341079133858269
20
-5.4332613385826773
11
2.8416070078740159
21
-5.4332613385826773
0
LINE
8
BLACK
6
CONTINUOUS
10
2.8416070078740159
20
-5.4332613385826773
11
2.8491060629921261
21
-5.4370108661417325
0
LINE
8
BLACK
6
CONTINUOUS
10
2.8491060629921261
20
-5.4370108661417325
11
2.8528555905511812
21
-5.4407603937007876
0
LINE
8
BLACK
6
CONTINUOUS
10
2.8528555905511812
20
-5.4407603937007876
11
2.8566051181102363
21
-5.4482594488188978
0
LINE
8
BLACK
6
CONTINUOUS
10
2.8566051181102363
20
-5.4482594488188978
11
2.8603546456692914
21
-5.4632575590551182
0
LINE
8
BLACK
6
CONTINUOUS
10
2.8603546456692914
20
-5.4632575590551182
11
2.8603546456692914
21
-5.4820052362204725
0
LINE
8
BLACK
6
CONTINUOUS
10
2.8603546456692914
20
-5.4820052362204725
11
2.8566051181102363
21
-5.497003346456693
0
LINE
8
BLACK
6
CONTINUOUS
10
2.8566051181102363
20
-5.497003346456693
11
2.8528555905511812
21
-5.5045024015748032
0
LINE
8
BLACK
6
CONTINUOUS
10
2.8528555905511812
20
-5.5045024015748032
11
2.8491060629921261
21
-5.5082519685039371
0
LINE
8
BLACK
6
CONTINUOUS
10
2.8491060629921261
20
-5.5082519685039371
11
2.8416070078740159
21
-5.5120014960629922
0
LINE
8
BLACK
6
CONTINUOUS
10
2.8416070078740159
20
-5.5120014960629922
11
2.8341079133858269
21
-5.5120014960629922
0
LINE
8
BLACK
6
CONTINUOUS
10
2.8341079133858269
20
-5.5120014960629922
11
2.8266088582677167
21
-5.5082519685039371
0
LINE
8
BLACK
6
CONTINUOUS
10
2.8266088582677167
20
-5.5082519685039371
11
2.8228593307086616
21
-5.5045024015748032
0
LINE
8
BLACK
6
CONTINUOUS
10
2.8228593307086616
20
-5.5045024015748032
11
2.819109803149606
21
-5.497003346456693
0
LINE
8
BLACK
6
CONTINUOUS
10
2.819109803149606
20
-5.497003346456693
11
2.8153602755905509
21
-5.4820052362204725
0
LINE
8
BLACK
6
CONTINUOUS
10
2.8153602755905509
20
-5.4820052362204725
11
2.8153602755905509
21
-5.4632575590551182
0
LINE
8
BLACK
6
CONTINUOUS
10
2.8153602755905509
20
-5.4632575590551182
11
2.819109803149606
21
-5.4482594488188978
0
LINE
8
BLACK
6
CONTINUOUS
10
2.819109803149606
20
-5.4482594488188978
11
2.8228593307086616
21
-5.4407603937007876
0
LINE
8
BLACK
6
CONTINUOUS
10
2.8228593307086616
20
-5.4407603937007876
11
2.8266088582677167
21
-5.4370108661417325
0
LINE
8
BLACK
6
CONTINUOUS
10
2.8266088582677167
20
-5.4370108661417325
11
2.8341079133858269
21
-5.4332613385826773
0
LINE
8
BLACK
6
CONTINUOUS
10
2.8941004330708662
20
-5.5045024015748032
11
2.8978499606299213
21
-5.5082519685039371
0
LINE
8
BLACK
6
CONTINUOUS
10
2.8978499606299213
20
-5.5082519685039371
11
2.8941004330708662
21
-5.5120014960629922
0
LINE
8
BLACK
6
CONTINUOUS
10
2.8941004330708662
20
-5.5120014960629922
11
2.8903509055118111
21
-5.5082519685039371
0
LINE
8
BLACK
6
CONTINUOUS
10
2.8903509055118111
20
-5.5082519685039371
11
2.8941004330708662
21
-5.5045024015748032
0
LINE
8
BLACK
6
CONTINUOUS
10
2.8941004330708662
20
-5.5045024015748032
11
2.8941004330708662
21
-5.5120014960629922
0
LINE
8
BLACK
6
CONTINUOUS
10
2.9465938582677165
20
-5.4332613385826773
11
2.9540929527559054
21
-5.4332613385826773
0
LINE
8
BLACK
6
CONTINUOUS
10
2.9540929527559054
20
-5.4332613385826773
11
2.9615920078740157
21
-5.4370108661417325
0
LINE
8
BLACK
6
CONTINUOUS
10
2.9615920078740157
20
-5.4370108661417325
11
2.9653415354330708
21
-5.4407603937007876
0
LINE
8
BLACK
6
CONTINUOUS
10
2.9653415354330708
20
-5.4407603937007876
11
2.9690910629921259
21
-5.4482594488188978
0
LINE
8
BLACK
6
CONTINUOUS
10
2.9690910629921259
20
-5.4482594488188978
11
2.972840590551181
21
-5.4632575590551182
0
LINE
8
BLACK
6
CONTINUOUS
10
2.972840590551181
20
-5.4632575590551182
11
2.972840590551181
21
-5.4820052362204725
0
LINE
8
BLACK
6
CONTINUOUS
10
2.972840590551181
20
-5.4820052362204725
11
2.9690910629921259
21
-5.497003346456693
0
LINE
8
BLACK
6
CONTINUOUS
10
2.9690910629921259
20
-5.497003346456693
11
2.9653415354330708
21
-5.5045024015748032
0
LINE
8
BLACK
6
CONTINUOUS
10
2.9653415354330708
20
-5.5045024015748032
11
2.9615920078740157
21
-5.5082519685039371
0
LINE
8
BLACK
6
CONTINUOUS
10
2.9615920078740157
20
-5.5082519685039371
11
2.9540929527559054
21
-5.5120014960629922
0
LINE
8
BLACK
6
CONTINUOUS
10
2.9540929527559054
20
-5.5120014960629922
11
2.9465938582677165
21
-5.5120014960629922
0
LINE
8
BLACK
6
CONTINUOUS
10
2.9465938582677165
20
-5.5120014960629922
11
2.9390948031496062
21
-5.5082519685039371
0
LINE
8
BLACK
6
CONTINUOUS
10
2.9390948031496062
20
-5.5082519685039371
11
2.9353452755905511
21
-5.5045024015748032
0
LINE
8
BLACK
6
CONTINUOUS
10
2.9353452755905511
20
-5.5045024015748032
11
2.931595748031496
21
-5.497003346456693
0
LINE
8
BLACK
6
CONTINUOUS
10
2.931595748031496
20
-5.497003346456693
11
2.9278462204724409
21
-5.4820052362204725
0
LINE
8
BLACK
6
CONTINUOUS
10
2.9278462204724409
20
-5.4820052362204725
11
2.9278462204724409
21
-5.4632575590551182
0
LINE
8
BLACK
6
CONTINUOUS
10
2.9278462204724409
20
-5.4632575590551182
11
2.931595748031496
21
-5.4482594488188978
0
LINE
8
BLACK
6
CONTINUOUS
10
2.931595748031496
20
-5.4482594488188978
11
2.9353452755905511
21
-5.4407603937007876
0
LINE
8
BLACK
6
CONTINUOUS
10
2.9353452755905511
20
-5.4407603937007876
11
2.9390948031496062
21
-5.4370108661417325
0
LINE
8
BLACK
6
CONTINUOUS
10
2.9390948031496062
20
-5.4370108661417325
11
2.9465938582677165
21
-5.4332613385826773
0
LINE
8
BLACK
6
CONTINUOUS
10
2.9990873228346455
20
-5.4332613385826773
11
3.0478312204724407
21
-5.4332613385826773
0
LINE
8
BLACK
6
CONTINUOUS
10
3.0478312204724407
20
-5.4332613385826773
11
3.0215844881889762
21
-5.4632575590551182
0
LINE
8
BLACK
6
CONTINUOUS
10
3.0215844881889762
20
-5.4632575590551182
11
3.0328331102362203
21
-5.4632575590551182
0
LINE
8
BLACK
6
CONTINUOUS
10
3.0328331102362203
20
-5.4632575590551182
11
3.0403321653543305
21
-5.4670070866141733
0
LINE
8
BLACK
6
CONTINUOUS
10
3.0403321653543305
20
-5.4670070866141733
11
3.0440816929133856
21
-5.4707566535433072
0
LINE
8
BLACK
6
CONTINUOUS
10
3.0440816929133856
20
-5.4707566535433072
11
3.0478312204724407
21
-5.4782557086614174
0
LINE
8
BLACK
6
CONTINUOUS
10
3.0478312204724407
20
-5.4782557086614174
11
3.0478312204724407
21
-5.497003346456693
0
LINE
8
BLACK
6
CONTINUOUS
10
3.0478312204724407
20
-5.497003346456693
11
3.0440816929133856
21
-5.5045024015748032
0
LINE
8
BLACK
6
CONTINUOUS
10
3.0440816929133856
20
-5.5045024015748032
11
3.0403321653543305
21
-5.5082519685039371
0
LINE
8
BLACK
6
CONTINUOUS
10
3.0403321653543305
20
-5.5082519685039371
11
3.0328331102362203
21
-5.5120014960629922
0
LINE
8
BLACK
6
CONTINUOUS
10
3.0328331102362203
20
-5.5120014960629922
11
3.0103359055118109
21
-5.5120014960629922
0
LINE
8
BLACK
6
CONTINUOUS
10
3.0103359055118109
20
-5.5120014960629922
11
3.0028368503937006
21
-5.5082519685039371
0
LINE
8
BLACK
6
CONTINUOUS
10
3.0028368503937006
20
-5.5082519685039371
11
2.9990873228346455
21
-5.5045024015748032
0
LINE
8
BLACK
6
CONTINUOUS
10
3.1190723228346457
20
-5.4332613385826773
11
3.0815770078740159
21
-5.4332613385826773
0
LINE
8
BLACK
6
CONTINUOUS
10
3.0815770078740159
20
-5.4332613385826773
11
3.0778274803149603
21
-5.4707566535433072
0
LINE
8
BLACK
6
CONTINUOUS
10
3.0778274803149603
20
-5.4707566535433072
11
3.0815770078740159
21
-5.4670070866141733
0
LINE
8
BLACK
6
CONTINUOUS
10
3.0815770078740159
20
-5.4670070866141733
11
3.0890760629921261
21
-5.4632575590551182
0
LINE
8
BLACK
6
CONTINUOUS
10
3.0890760629921261
20
-5.4632575590551182
11
3.1078237401574804
21
-5.4632575590551182
0
LINE
8
BLACK
6
CONTINUOUS
10
3.1078237401574804
20
-5.4632575590551182
11
3.1153227952755906
21
-5.4670070866141733
0
LINE
8
BLACK
6
CONTINUOUS
10
3.1153227952755906
20
-5.4670070866141733
11
3.1190723228346457
21
-5.4707566535433072
0
LINE
8
BLACK
6
CONTINUOUS
10
3.1190723228346457
20
-5.4707566535433072
11
3.1228218503937009
21
-5.4782557086614174
0
LINE
8
BLACK
6
CONTINUOUS
10
3.1228218503937009
20
-5.4782557086614174
11
3.1228218503937009
21
-5.497003346456693
0
LINE
8
BLACK
6
CONTINUOUS
10
3.1228218503937009
20
-5.497003346456693
11
3.1190723228346457
21
-5.5045024015748032
0
LINE
8
BLACK
6
CONTINUOUS
10
3.1190723228346457
20
-5.5045024015748032
11
3.1153227952755906
21
-5.5082519685039371
0
LINE
8
BLACK
6
CONTINUOUS
10
3.1153227952755906
20
-5.5082519685039371
11
3.1078237401574804
21
-5.5120014960629922
0
LINE
8
BLACK
6
CONTINUOUS
10
3.1078237401574804
20
-5.5120014960629922
11
3.0890760629921261
21
-5.5120014960629922
0
LINE
8
BLACK
6
CONTINUOUS
10
3.0890760629921261
20
-5.5120014960629922
11
3.0815770078740159
21
-5.5082519685039371
0
LINE
8
BLACK
6
CONTINUOUS
10
3.0815770078740159
20
-5.5082519685039371
11
3.0778274803149603
21
-5.5045024015748032
0
LINE
8
BLACK
6
CONTINUOUS
10
3.1903134251968503
20
-5.4595080314960631
11
3.1903134251968503
21
-5.5120014960629922
0
LINE
8
BLACK
6
CONTINUOUS
10
3.171565748031496
20
-5.4295118110236222
11
3.1528181102362205
21
-5.4857547637795276
0
LINE
8
BLACK
6
CONTINUOUS
10
3.1528181102362205
20
-5.4857547637795276
11
3.2015620078740157
21
-5.4857547637795276
0
LINE
8
BLACK
6
CONTINUOUS
10
3.2278087401574802
20
-5.4332613385826773
11
3.2278087401574802
21
-5.4482594488188978
0
LINE
8
BLACK
6
CONTINUOUS
10
3.2578049999999998
20
-5.4332613385826773
11
3.2578049999999998
21
-5.4482594488188978
0
LINE
8
BLACK
6
CONTINUOUS
10
3.3740405118110237
20
-5.541997716535433
11
3.3702909448818898
21
-5.5382481889763779
0
LINE
8
BLACK
6
CONTINUOUS
10
3.3702909448818898
20
-5.5382481889763779
11
3.3627918897637796
21
-5.5269996062992126
0
LINE
8
BLACK
6
CONTINUOUS
10
3.3627918897637796
20
-5.5269996062992126
11
3.3590423622047245
21
-5.5195005511811024
0
LINE
8
BLACK
6
CONTINUOUS
10
3.3590423622047245
20
-5.5195005511811024
11
3.3552928346456694
21
-5.5082519685039371
0
LINE
8
BLACK
6
CONTINUOUS
10
3.3552928346456694
20
-5.5082519685039371
11
3.3515433070866143
21
-5.4895042913385828
0
LINE
8
BLACK
6
CONTINUOUS
10
3.3515433070866143
20
-5.4895042913385828
11
3.3515433070866143
21
-5.4745061811023623
0
LINE
8
BLACK
6
CONTINUOUS
10
3.3515433070866143
20
-5.4745061811023623
11
3.3552928346456694
21
-5.455758503937008
0
LINE
8
BLACK
6
CONTINUOUS
10
3.3552928346456694
20
-5.455758503937008
11
3.3590423622047245
21
-5.4445099212598427
0
LINE
8
BLACK
6
CONTINUOUS
10
3.3590423622047245
20
-5.4445099212598427
11
3.3627918897637796
21
-5.4370108661417325
0
LINE
8
BLACK
6
CONTINUOUS
10
3.3627918897637796
20
-5.4370108661417325
11
3.3702909448818898
21
-5.4257622440944884
0
LINE
8
BLACK
6
CONTINUOUS
10
3.3702909448818898
20
-5.4257622440944884
11
3.3740405118110237
21
-5.4220127165354333
0
LINE
8
BLACK
6
CONTINUOUS
10
3.4002872047244095
20
-5.4407603937007876
11
3.4040367322834646
21
-5.4370108661417325
0
LINE
8
BLACK
6
CONTINUOUS
10
3.4040367322834646
20
-5.4370108661417325
11
3.4115357874015748
21
-5.4332613385826773
0
LINE
8
BLACK
6
CONTINUOUS
10
3.4115357874015748
20
-5.4332613385826773
11
3.4302834645669291
21
-5.4332613385826773
0
LINE
8
BLACK
6
CONTINUOUS
10
3.4302834645669291
20
-5.4332613385826773
11
3.4377825196850393
21
-5.4370108661417325
0
LINE
8
BLACK
6
CONTINUOUS
10
3.4377825196850393
20
-5.4370108661417325
11
3.4415320472440944
21
-5.4407603937007876
0
LINE
8
BLACK
6
CONTINUOUS
10
3.4415320472440944
20
-5.4407603937007876
11
3.4452815748031496
21
-5.4482594488188978
0
LINE
8
BLACK
6
CONTINUOUS
10
3.4452815748031496
20
-5.4482594488188978
11
3.4452815748031496
21
-5.455758503937008
0
LINE
8
BLACK
6
CONTINUOUS
10
3.4452815748031496
20
-5.455758503937008
11
3.4415320472440944
21
-5.4670070866141733
0
LINE
8
BLACK
6
CONTINUOUS
10
3.4415320472440944
20
-5.4670070866141733
11
3.3965376771653544
21
-5.5120014960629922
0
LINE
8
BLACK
6
CONTINUOUS
10
3.3965376771653544
20
-5.5120014960629922
11
3.4452815748031496
21
-5.5120014960629922
0
LINE
8
BLACK
6
CONTINUOUS
10
3.5390198818897636
20
-5.5120014960629922
11
3.5390198818897636
21
-5.4332613385826773
0
LINE
8
BLACK
6
CONTINUOUS
10
3.5727656692913383
20
-5.5120014960629922
11
3.5727656692913383
21
-5.4707566535433072
0
LINE
8
BLACK
6
CONTINUOUS
10
3.5727656692913383
20
-5.4707566535433072
11
3.5690161417322832
21
-5.4632575590551182
0
LINE
8
BLACK
6
CONTINUOUS
10
3.5690161417322832
20
-5.4632575590551182
11
3.561517086614173
21
-5.4595080314960631
0
LINE
8
BLACK
6
CONTINUOUS
10
3.561517086614173
20
-5.4595080314960631
11
3.5502684645669289
21
-5.4595080314960631
0
LINE
8
BLACK
6
CONTINUOUS
10
3.5502684645669289
20
-5.4595080314960631
11
3.5427694094488187
21
-5.4632575590551182
0
LINE
8
BLACK
6
CONTINUOUS
10
3.5427694094488187
20
-5.4632575590551182
11
3.5390198818897636
21
-5.4670070866141733
0
LINE
8
BLACK
6
CONTINUOUS
10
3.6215095669291339
20
-5.5120014960629922
11
3.6140105118110237
21
-5.5082519685039371
0
LINE
8
BLACK
6
CONTINUOUS
10
3.6140105118110237
20
-5.5082519685039371
11
3.6102609842519686
21
-5.5045024015748032
0
LINE
8
BLACK
6
CONTINUOUS
10
3.6102609842519686
20
-5.5045024015748032
11
3.6065114566929135
21
-5.497003346456693
0
LINE
8
BLACK
6
CONTINUOUS
10
3.6065114566929135
20
-5.497003346456693
11
3.6065114566929135
21
-5.4745061811023623
0
LINE
8
BLACK
6
CONTINUOUS
10
3.6065114566929135
20
-5.4745061811023623
11
3.6102609842519686
21
-5.4670070866141733
0
LINE
8
BLACK
6
CONTINUOUS
10
3.6102609842519686
20
-5.4670070866141733
11
3.6140105118110237
21
-5.4632575590551182
0
LINE
8
BLACK
6
CONTINUOUS
10
3.6140105118110237
20
-5.4632575590551182
11
3.6215095669291339
21
-5.4595080314960631
0
LINE
8
BLACK
6
CONTINUOUS
10
3.6215095669291339
20
-5.4595080314960631
11
3.632758188976378
21
-5.4595080314960631
0
LINE
8
BLACK
6
CONTINUOUS
10
3.632758188976378
20
-5.4595080314960631
11
3.6402572440944883
21
-5.4632575590551182
0
LINE
8
BLACK
6
CONTINUOUS
10
3.6402572440944883
20
-5.4632575590551182
11
3.6440067716535434
21
-5.4670070866141733
0
LINE
8
BLACK
6
CONTINUOUS
10
3.6440067716535434
20
-5.4670070866141733
11
3.6477562992125985
21
-5.4745061811023623
0
LINE
8
BLACK
6
CONTINUOUS
10
3.6477562992125985
20
-5.4745061811023623
11
3.6477562992125985
21
-5.497003346456693
0
LINE
8
BLACK
6
CONTINUOUS
10
3.6477562992125985
20
-5.497003346456693
11
3.6440067716535434
21
-5.5045024015748032
0
LINE
8
BLACK
6
CONTINUOUS
10
3.6440067716535434
20
-5.5045024015748032
11
3.6402572440944883
21
-5.5082519685039371
0
LINE
8
BLACK
6
CONTINUOUS
10
3.6402572440944883
20
-5.5082519685039371
11
3.632758188976378
21
-5.5120014960629922
0
LINE
8
BLACK
6
CONTINUOUS
10
3.632758188976378
20
-5.5120014960629922
11
3.6215095669291339
21
-5.5120014960629922
0
LINE
8
BLACK
6
CONTINUOUS
10
3.6927506692913385
20
-5.5120014960629922
11
3.6852516141732283
21
-5.5082519685039371
0
LINE
8
BLACK
6
CONTINUOUS
10
3.6852516141732283
20
-5.5082519685039371
11
3.6815020866141732
21
-5.5007528740157481
0
LINE
8
BLACK
6
CONTINUOUS
10
3.6815020866141732
20
-5.5007528740157481
11
3.6815020866141732
21
-5.4332613385826773
0
LINE
8
BLACK
6
CONTINUOUS
10
3.7527431889763778
20
-5.5082519685039371
11
3.7452441338582676
21
-5.5120014960629922
0
LINE
8
BLACK
6
CONTINUOUS
10
3.7452441338582676
20
-5.5120014960629922
11
3.7302459842519684
21
-5.5120014960629922
0
LINE
8
BLACK
6
CONTINUOUS
10
3.7302459842519684
20
-5.5120014960629922
11
3.7227469291338582
21
-5.5082519685039371
0
LINE
8
BLACK
6
CONTINUOUS
10
3.7227469291338582
20
-5.5082519685039371
11
3.7189974015748031
21
-5.5007528740157481
0
LINE
8
BLACK
6
CONTINUOUS
10
3.7189974015748031
20
-5.5007528740157481
11
3.7189974015748031
21
-5.4707566535433072
0
LINE
8
BLACK
6
CONTINUOUS
10
3.7189974015748031
20
-5.4707566535433072
11
3.7227469291338582
21
-5.4632575590551182
0
LINE
8
BLACK
6
CONTINUOUS
10
3.7227469291338582
20
-5.4632575590551182
11
3.7302459842519684
21
-5.4595080314960631
0
LINE
8
BLACK
6
CONTINUOUS
10
3.7302459842519684
20
-5.4595080314960631
11
3.7452441338582676
21
-5.4595080314960631
0
LINE
8
BLACK
6
CONTINUOUS
10
3.7452441338582676
20
-5.4595080314960631
11
3.7527431889763778
21
-5.4632575590551182
0
LINE
8
BLACK
6
CONTINUOUS
10
3.7527431889763778
20
-5.4632575590551182
11
3.7564927165354329
21
-5.4707566535433072
0
LINE
8
BLACK
6
CONTINUOUS
10
3.7564927165354329
20
-5.4707566535433072
11
3.7564927165354329
21
-5.4782557086614174
0
LINE
8
BLACK
6
CONTINUOUS
10
3.7564927165354329
20
-5.4782557086614174
11
3.7189974015748031
21
-5.4857547637795276
0
LINE
8
BLACK
6
CONTINUOUS
10
3.7864889763779526
20
-5.5082519685039371
11
3.7939880314960628
21
-5.5120014960629922
0
LINE
8
BLACK
6
CONTINUOUS
10
3.7939880314960628
20
-5.5120014960629922
11
3.8089861417322832
21
-5.5120014960629922
0
LINE
8
BLACK
6
CONTINUOUS
10
3.8089861417322832
20
-5.5120014960629922
11
3.8164852362204722
21
-5.5082519685039371
0
LINE
8
BLACK
6
CONTINUOUS
10
3.8164852362204722
20
-5.5082519685039371
11
3.8202347637795273
21
-5.5007528740157481
0
LINE
8
BLACK
6
CONTINUOUS
10
3.8202347637795273
20
-5.5007528740157481
11
3.8202347637795273
21
-5.497003346456693
0
LINE
8
BLACK
6
CONTINUOUS
10
3.8202347637795273
20
-5.497003346456693
11
3.8164852362204722
21
-5.4895042913385828
0
LINE
8
BLACK
6
CONTINUOUS
10
3.8164852362204722
20
-5.4895042913385828
11
3.8089861417322832
21
-5.4857547637795276
0
LINE
8
BLACK
6
CONTINUOUS
10
3.8089861417322832
20
-5.4857547637795276
11
3.7977375590551179
21
-5.4857547637795276
0
LINE
8
BLACK
6
CONTINUOUS
10
3.7977375590551179
20
-5.4857547637795276
11
3.7902385039370077
21
-5.4820052362204725
0
LINE
8
BLACK
6
CONTINUOUS
10
3.7902385039370077
20
-5.4820052362204725
11
3.7864889763779526
21
-5.4745061811023623
0
LINE
8
BLACK
6
CONTINUOUS
10
3.7864889763779526
20
-5.4745061811023623
11
3.7864889763779526
21
-5.4707566535433072
0
LINE
8
BLACK
6
CONTINUOUS
10
3.7864889763779526
20
-5.4707566535433072
11
3.7902385039370077
21
-5.4632575590551182
0
LINE
8
BLACK
6
CONTINUOUS
10
3.7902385039370077
20
-5.4632575590551182
11
3.7977375590551179
21
-5.4595080314960631
0
LINE
8
BLACK
6
CONTINUOUS
10
3.7977375590551179
20
-5.4595080314960631
11
3.8089861417322832
21
-5.4595080314960631
0
LINE
8
BLACK
6
CONTINUOUS
10
3.8089861417322832
20
-5.4595080314960631
11
3.8164852362204722
21
-5.4632575590551182
0
LINE
8
BLACK
6
CONTINUOUS
10
3.8464814960629918
20
-5.541997716535433
11
3.8502310236220469
21
-5.5382481889763779
0
LINE
8
BLACK
6
CONTINUOUS
10
3.8502310236220469
20
-5.5382481889763779
11
3.8577300787401576
21
-5.5269996062992126
0
LINE
8
BLACK
6
CONTINUOUS
10
3.8577300787401576
20
-5.5269996062992126
11
3.8614796062992127
21
-5.5195005511811024
0
LINE
8
BLACK
6
CONTINUOUS
10
3.8614796062992127
20
-5.5195005511811024
11
3.8652291338582678
21
-5.5082519685039371
0
LINE
8
BLACK
6
CONTINUOUS
10
3.8652291338582678
20
-5.5082519685039371
11
3.8689786614173229
21
-5.4895042913385828
0
LINE
8
BLACK
6
CONTINUOUS
10
3.8689786614173229
20
-5.4895042913385828
11
3.8689786614173229
21
-5.4745061811023623
0
LINE
8
BLACK
6
CONTINUOUS
10
3.8689786614173229
20
-5.4745061811023623
11
3.8652291338582678
21
-5.455758503937008
0
LINE
8
BLACK
6
CONTINUOUS
10
3.8652291338582678
20
-5.455758503937008
11
3.8614796062992127
21
-5.4445099212598427
0
LINE
8
BLACK
6
CONTINUOUS
10
3.8614796062992127
20
-5.4445099212598427
11
3.8577300787401576
21
-5.4370108661417325
0
LINE
8
BLACK
6
CONTINUOUS
10
3.8577300787401576
20
-5.4370108661417325
11
3.8502310236220469
21
-5.4257622440944884
0
LINE
8
BLACK
6
CONTINUOUS
10
3.8502310236220469
20
-5.4257622440944884
11
3.8464814960629918
21
-5.4220127165354333
0
LINE
8
BLACK
6
CONTINUOUS
10
3.9889637007874015
20
-5.541997716535433
11
3.9852141338582676
21
-5.5382481889763779
0
LINE
8
BLACK
6
CONTINUOUS
10
3.9852141338582676
20
-5.5382481889763779
11
3.9777150787401574
21
-5.5269996062992126
0
LINE
8
BLACK
6
CONTINUOUS
10
3.9777150787401574
20
-5.5269996062992126
11
3.9739655511811023
21
-5.5195005511811024
0
LINE
8
BLACK
6
CONTINUOUS
10
3.9739655511811023
20
-5.5195005511811024
11
3.9702160236220472
21
-5.5082519685039371
0
LINE
8
BLACK
6
CONTINUOUS
10
3.9702160236220472
20
-5.5082519685039371
11
3.9664664960629921
21
-5.4895042913385828
0
LINE
8
BLACK
6
CONTINUOUS
10
3.9664664960629921
20
-5.4895042913385828
11
3.9664664960629921
21
-5.4745061811023623
0
LINE
8
BLACK
6
CONTINUOUS
10
3.9664664960629921
20
-5.4745061811023623
11
3.9702160236220472
21
-5.455758503937008
0
LINE
8
BLACK
6
CONTINUOUS
10
3.9702160236220472
20
-5.455758503937008
11
3.9739655511811023
21
-5.4445099212598427
0
LINE
8
BLACK
6
CONTINUOUS
10
3.9739655511811023
20
-5.4445099212598427
11
3.9777150787401574
21
-5.4370108661417325
0
LINE
8
BLACK
6
CONTINUOUS
10
3.9777150787401574
20
-5.4370108661417325
11
3.9852141338582676
21
-5.4257622440944884
0
LINE
8
BLACK
6
CONTINUOUS
10
3.9852141338582676
20
-5.4257622440944884
11
3.9889637007874015
21
-5.4220127165354333
0
LINE
8
BLACK
6
CONTINUOUS
10
4.0189599212598424
20
-5.4595080314960631
11
4.0189599212598424
21
-5.5120014960629922
0
LINE
8
BLACK
6
CONTINUOUS
10
4.0189599212598424
20
-5.4670070866141733
11
4.0227094488188975
21
-5.4632575590551182
0
LINE
8
BLACK
6
CONTINUOUS
10
4.0227094488188975
20
-5.4632575590551182
11
4.0302085039370077
21
-5.4595080314960631
0
LINE
8
BLACK
6
CONTINUOUS
10
4.0302085039370077
20
-5.4595080314960631
11
4.0414571259842518
21
-5.4595080314960631
0
LINE
8
BLACK
6
CONTINUOUS
10
4.0414571259842518
20
-5.4595080314960631
11
4.048956181102362
21
-5.4632575590551182
0
LINE
8
BLACK
6
CONTINUOUS
10
4.048956181102362
20
-5.4632575590551182
11
4.0527057086614171
21
-5.4707566535433072
0
LINE
8
BLACK
6
CONTINUOUS
10
4.0527057086614171
20
-5.4707566535433072
11
4.0527057086614171
21
-5.5120014960629922
0
LINE
8
BLACK
6
CONTINUOUS
10
4.1014496062992123
20
-5.5120014960629922
11
4.0939505511811021
21
-5.5082519685039371
0
LINE
8
BLACK
6
CONTINUOUS
10
4.0939505511811021
20
-5.5082519685039371
11
4.090201023622047
21
-5.5045024015748032
0
LINE
8
BLACK
6
CONTINUOUS
10
4.090201023622047
20
-5.5045024015748032
11
4.0864514960629919
21
-5.497003346456693
0
LINE
8
BLACK
6
CONTINUOUS
10
4.0864514960629919
20
-5.497003346456693
11
4.0864514960629919
21
-5.4745061811023623
0
LINE
8
BLACK
6
CONTINUOUS
10
4.0864514960629919
20
-5.4745061811023623
11
4.090201023622047
21
-5.4670070866141733
0
LINE
8
BLACK
6
CONTINUOUS
10
4.090201023622047
20
-5.4670070866141733
11
4.0939505511811021
21
-5.4632575590551182
0
LINE
8
BLACK
6
CONTINUOUS
10
4.0939505511811021
20
-5.4632575590551182
11
4.1014496062992123
21
-5.4595080314960631
0
LINE
8
BLACK
6
CONTINUOUS
10
4.1014496062992123
20
-5.4595080314960631
11
4.1126982283464564
21
-5.4595080314960631
0
LINE
8
BLACK
6
CONTINUOUS
10
4.1126982283464564
20
-5.4595080314960631
11
4.1201972834645666
21
-5.4632575590551182
0
LINE
8
BLACK
6
CONTINUOUS
10
4.1201972834645666
20
-5.4632575590551182
11
4.1239468110236217
21
-5.4670070866141733
0
LINE
8
BLACK
6
CONTINUOUS
10
4.1239468110236217
20
-5.4670070866141733
11
4.1276963385826768
21
-5.4745061811023623
0
LINE
8
BLACK
6
CONTINUOUS
10
4.1276963385826768
20
-5.4745061811023623
11
4.1276963385826768
21
-5.497003346456693
0
LINE
8
BLACK
6
CONTINUOUS
10
4.1276963385826768
20
-5.497003346456693
11
4.1239468110236217
21
-5.5045024015748032
0
LINE
8
BLACK
6
CONTINUOUS
10
4.1239468110236217
20
-5.5045024015748032
11
4.1201972834645666
21
-5.5082519685039371
0
LINE
8
BLACK
6
CONTINUOUS
10
4.1201972834645666
20
-5.5082519685039371
11
4.1126982283464564
21
-5.5120014960629922
0
LINE
8
BLACK
6
CONTINUOUS
10
4.1126982283464564
20
-5.5120014960629922
11
4.1014496062992123
21
-5.5120014960629922
0
LINE
8
BLACK
6
CONTINUOUS
10
4.1501935433070862
20
-5.4595080314960631
11
4.1801897637795271
21
-5.4595080314960631
0
LINE
8
BLACK
6
CONTINUOUS
10
4.1614421259842516
20
-5.4332613385826773
11
4.1614421259842516
21
-5.5007528740157481
0
LINE
8
BLACK
6
CONTINUOUS
10
4.1614421259842516
20
-5.5007528740157481
11
4.1651916535433067
21
-5.5082519685039371
0
LINE
8
BLACK
6
CONTINUOUS
10
4.1651916535433067
20
-5.5082519685039371
11
4.1726907086614169
21
-5.5120014960629922
0
LINE
8
BLACK
6
CONTINUOUS
10
4.1726907086614169
20
-5.5120014960629922
11
4.1801897637795271
21
-5.5120014960629922
0
LINE
8
BLACK
6
CONTINUOUS
10
4.2664290157480318
20
-5.4595080314960631
11
4.2664290157480318
21
-5.5382481889763779
0
LINE
8
BLACK
6
CONTINUOUS
10
4.2664290157480318
20
-5.4632575590551182
11
4.273928070866142
21
-5.4595080314960631
0
LINE
8
BLACK
6
CONTINUOUS
10
4.273928070866142
20
-5.4595080314960631
11
4.2889262204724412
21
-5.4595080314960631
0
LINE
8
BLACK
6
CONTINUOUS
10
4.2889262204724412
20
-5.4595080314960631
11
4.2964252755905514
21
-5.4632575590551182
0
LINE
8
BLACK
6
CONTINUOUS
10
4.2964252755905514
20
-5.4632575590551182
11
4.3001748031496065
21
-5.4670070866141733
0
LINE
8
BLACK
6
CONTINUOUS
10
4.3001748031496065
20
-5.4670070866141733
11
4.3039243307086616
21
-5.4745061811023623
0
LINE
8
BLACK
6
CONTINUOUS
10
4.3039243307086616
20
-5.4745061811023623
11
4.3039243307086616
21
-5.497003346456693
0
LINE
8
BLACK
6
CONTINUOUS
10
4.3039243307086616
20
-5.497003346456693
11
4.3001748031496065
21
-5.5045024015748032
0
LINE
8
BLACK
6
CONTINUOUS
10
4.3001748031496065
20
-5.5045024015748032
11
4.2964252755905514
21
-5.5082519685039371
0
LINE
8
BLACK
6
CONTINUOUS
10
4.2964252755905514
20
-5.5082519685039371
11
4.2889262204724412
21
-5.5120014960629922
0
LINE
8
BLACK
6
CONTINUOUS
10
4.2889262204724412
20
-5.5120014960629922
11
4.273928070866142
21
-5.5120014960629922
0
LINE
8
BLACK
6
CONTINUOUS
10
4.273928070866142
20
-5.5120014960629922
11
4.2664290157480318
21
-5.5082519685039371
0
LINE
8
BLACK
6
CONTINUOUS
10
4.3489187007874017
20
-5.5120014960629922
11
4.3414196456692915
21
-5.5082519685039371
0
LINE
8
BLACK
6
CONTINUOUS
10
4.3414196456692915
20
-5.5082519685039371
11
4.3376701181102364
21
-5.5007528740157481
0
LINE
8
BLACK
6
CONTINUOUS
10
4.3376701181102364
20
-5.5007528740157481
11
4.3376701181102364
21
-5.4332613385826773
0
LINE
8
BLACK
6
CONTINUOUS
10
4.4126607480314961
20
-5.5120014960629922
11
4.4126607480314961
21
-5.4707566535433072
0
LINE
8
BLACK
6
CONTINUOUS
10
4.4126607480314961
20
-5.4707566535433072
11
4.408911220472441
21
-5.4632575590551182
0
LINE
8
BLACK
6
CONTINUOUS
10
4.408911220472441
20
-5.4632575590551182
11
4.4014121653543308
21
-5.4595080314960631
0
LINE
8
BLACK
6
CONTINUOUS
10
4.4014121653543308
20
-5.4595080314960631
11
4.3864140157480316
21
-5.4595080314960631
0
LINE
8
BLACK
6
CONTINUOUS
10
4.3864140157480316
20
-5.4595080314960631
11
4.3789149606299214
21
-5.4632575590551182
0
LINE
8
BLACK
6
CONTINUOUS
10
4.4126607480314961
20
-5.5082519685039371
11
4.4051616929133859
21
-5.5120014960629922
0
LINE
8
BLACK
6
CONTINUOUS
10
4.4051616929133859
20
-5.5120014960629922
11
4.3864140157480316
21
-5.5120014960629922
0
LINE
8
BLACK
6
CONTINUOUS
10
4.3864140157480316
20
-5.5120014960629922
11
4.3789149606299214
21
-5.5082519685039371
0
LINE
8
BLACK
6
CONTINUOUS
10
4.3789149606299214
20
-5.5082519685039371
11
4.3751654330708662
21
-5.5007528740157481
0
LINE
8
BLACK
6
CONTINUOUS
10
4.3751654330708662
20
-5.5007528740157481
11
4.3751654330708662
21
-5.4932538188976379
0
LINE
8
BLACK
6
CONTINUOUS
10
4.3751654330708662
20
-5.4932538188976379
11
4.3789149606299214
21
-5.4857547637795276
0
LINE
8
BLACK
6
CONTINUOUS
10
4.3789149606299214
20
-5.4857547637795276
11
4.3864140157480316
21
-5.4820052362204725
0
LINE
8
BLACK
6
CONTINUOUS
10
4.3864140157480316
20
-5.4820052362204725
11
4.4051616929133859
21
-5.4820052362204725
0
LINE
8
BLACK
6
CONTINUOUS
10
4.4051616929133859
20
-5.4820052362204725
11
4.4126607480314961
21
-5.4782557086614174
0
LINE
8
BLACK
6
CONTINUOUS
10
4.4389074803149606
20
-5.4595080314960631
11
4.4689037007874015
21
-5.4595080314960631
0
LINE
8
BLACK
6
CONTINUOUS
10
4.450156062992126
20
-5.4332613385826773
11
4.450156062992126
21
-5.5007528740157481
0
LINE
8
BLACK
6
CONTINUOUS
10
4.450156062992126
20
-5.5007528740157481
11
4.4539055905511811
21
-5.5082519685039371
0
LINE
8
BLACK
6
CONTINUOUS
10
4.4539055905511811
20
-5.5082519685039371
11
4.4614046456692913
21
-5.5120014960629922
0
LINE
8
BLACK
6
CONTINUOUS
10
4.4614046456692913
20
-5.5120014960629922
11
4.4689037007874015
21
-5.5120014960629922
0
LINE
8
BLACK
6
CONTINUOUS
10
4.5251466929133857
20
-5.5082519685039371
11
4.5176476377952755
21
-5.5120014960629922
0
LINE
8
BLACK
6
CONTINUOUS
10
4.5176476377952755
20
-5.5120014960629922
11
4.5026494881889763
21
-5.5120014960629922
0
LINE
8
BLACK
6
CONTINUOUS
10
4.5026494881889763
20
-5.5120014960629922
11
4.495150433070866
21
-5.5082519685039371
0
LINE
8
BLACK
6
CONTINUOUS
10
4.495150433070866
20
-5.5082519685039371
11
4.4914009055118109
21
-5.5007528740157481
0
LINE
8
BLACK
6
CONTINUOUS
10
4.4914009055118109
20
-5.5007528740157481
11
4.4914009055118109
21
-5.4707566535433072
0
LINE
8
BLACK
6
CONTINUOUS
10
4.4914009055118109
20
-5.4707566535433072
11
4.495150433070866
21
-5.4632575590551182
0
LINE
8
BLACK
6
CONTINUOUS
10
4.495150433070866
20
-5.4632575590551182
11
4.5026494881889763
21
-5.4595080314960631
0
LINE
8
BLACK
6
CONTINUOUS
10
4.5026494881889763
20
-5.4595080314960631
11
4.5176476377952755
21
-5.4595080314960631
0
LINE
8
BLACK
6
CONTINUOUS
10
4.5176476377952755
20
-5.4595080314960631
11
4.5251466929133857
21
-5.4632575590551182
0
LINE
8
BLACK
6
CONTINUOUS
10
4.5251466929133857
20
-5.4632575590551182
11
4.5288962204724408
21
-5.4707566535433072
0
LINE
8
BLACK
6
CONTINUOUS
10
4.5288962204724408
20
-5.4707566535433072
11
4.5288962204724408
21
-5.4782557086614174
0
LINE
8
BLACK
6
CONTINUOUS
10
4.5288962204724408
20
-5.4782557086614174
11
4.4914009055118109
21
-5.4857547637795276
0
LINE
8
BLACK
6
CONTINUOUS
10
4.5963877952755903
20
-5.5120014960629922
11
4.5963877952755903
21
-5.4332613385826773
0
LINE
8
BLACK
6
CONTINUOUS
10
4.5963877952755903
20
-5.5082519685039371
11
4.5888887401574801
21
-5.5120014960629922
0
LINE
8
BLACK
6
CONTINUOUS
10
4.5888887401574801
20
-5.5120014960629922
11
4.5738905905511809
21
-5.5120014960629922
0
LINE
8
BLACK
6
CONTINUOUS
10
4.5738905905511809
20
-5.5120014960629922
11
4.5663915354330706
21
-5.5082519685039371
0
LINE
8
BLACK
6
CONTINUOUS
10
4.5663915354330706
20
-5.5082519685039371
11
4.5626420078740155
21
-5.5045024015748032
0
LINE
8
BLACK
6
CONTINUOUS
10
4.5626420078740155
20
-5.5045024015748032
11
4.5588924803149604
21
-5.497003346456693
0
LINE
8
BLACK
6
CONTINUOUS
10
4.5588924803149604
20
-5.497003346456693
11
4.5588924803149604
21
-5.4745061811023623
0
LINE
8
BLACK
6
CONTINUOUS
10
4.5588924803149604
20
-5.4745061811023623
11
4.5626420078740155
21
-5.4670070866141733
0
LINE
8
BLACK
6
CONTINUOUS
10
4.5626420078740155
20
-5.4670070866141733
11
4.5663915354330706
21
-5.4632575590551182
0
LINE
8
BLACK
6
CONTINUOUS
10
4.5663915354330706
20
-5.4632575590551182
11
4.5738905905511809
21
-5.4595080314960631
0
LINE
8
BLACK
6
CONTINUOUS
10
4.5738905905511809
20
-5.4595080314960631
11
4.5888887401574801
21
-5.4595080314960631
0
LINE
8
BLACK
6
CONTINUOUS
10
4.5888887401574801
20
-5.4595080314960631
11
4.5963877952755903
21
-5.4632575590551182
0
LINE
8
BLACK
6
CONTINUOUS
10
4.6263840551181099
20
-5.541997716535433
11
4.630133582677165
21
-5.5382481889763779
0
LINE
8
BLACK
6
CONTINUOUS
10
4.630133582677165
20
-5.5382481889763779
11
4.6376326377952752
21
-5.5269996062992126
0
LINE
8
BLACK
6
CONTINUOUS
10
4.6376326377952752
20
-5.5269996062992126
11
4.6413821653543303
21
-5.5195005511811024
0
LINE
8
BLACK
6
CONTINUOUS
10
4.6413821653543303
20
-5.5195005511811024
11
4.6451316929133855
21
-5.5082519685039371
0
LINE
8
BLACK
6
CONTINUOUS
10
4.6451316929133855
20
-5.5082519685039371
11
4.6488812204724406
21
-5.4895042913385828
0
LINE
8
BLACK
6
CONTINUOUS
10
4.6488812204724406
20
-5.4895042913385828
11
4.6488812204724406
21
-5.4745061811023623
0
LINE
8
BLACK
6
CONTINUOUS
10
4.6488812204724406
20
-5.4745061811023623
11
4.6451316929133855
21
-5.455758503937008
0
LINE
8
BLACK
6
CONTINUOUS
10
4.6451316929133855
20
-5.455758503937008
11
4.6413821653543303
21
-5.4445099212598427
0
LINE
8
BLACK
6
CONTINUOUS
10
4.6413821653543303
20
-5.4445099212598427
11
4.6376326377952752
21
-5.4370108661417325
0
LINE
8
BLACK
6
CONTINUOUS
10
4.6376326377952752
20
-5.4370108661417325
11
4.630133582677165
21
-5.4257622440944884
0
LINE
8
BLACK
6
CONTINUOUS
10
4.630133582677165
20
-5.4257622440944884
11
4.6263840551181099
21
-5.4220127165354333
0
LINE
8
BLACK
6
CONTINUOUS
10
1.9271653543307086
20
-5.5405511811023622
11
1.9271653543307086
21
-5.619291338582677
0
LINE
8
BLACK
6
CONTINUOUS
10
1.8877952755905512
20
-5.5799212598425196
11
1.9665354330708662
21
-5.5799212598425196
0
LINE
8
BLACK
6
CONTINUOUS
10
2.0617044094488191
20
-5.5371983464566927
11
2.1104483070866142
21
-5.5371983464566927
0
LINE
8
BLACK
6
CONTINUOUS
10
2.1104483070866142
20
-5.5371983464566927
11
2.0842015748031497
21
-5.5671945669291336
0
LINE
8
BLACK
6
CONTINUOUS
10
2.0842015748031497
20
-5.5671945669291336
11
2.0954501968503938
21
-5.5671945669291336
0
LINE
8
BLACK
6
CONTINUOUS
10
2.0954501968503938
20
-5.5671945669291336
11
2.102949251968504
21
-5.5709440944881887
0
LINE
8
BLACK
6
CONTINUOUS
10
2.102949251968504
20
-5.5709440944881887
11
2.1066987795275591
21
-5.5746936614173226
0
LINE
8
BLACK
6
CONTINUOUS
10
2.1066987795275591
20
-5.5746936614173226
11
2.1104483070866142
21
-5.5821927165354328
0
LINE
8
BLACK
6
CONTINUOUS
10
2.1104483070866142
20
-5.5821927165354328
11
2.1104483070866142
21
-5.6009403543307084
0
LINE
8
BLACK
6
CONTINUOUS
10
2.1104483070866142
20
-5.6009403543307084
11
2.1066987795275591
21
-5.6084394094488186
0
LINE
8
BLACK
6
CONTINUOUS
10
2.1066987795275591
20
-5.6084394094488186
11
2.102949251968504
21
-5.6121889763779524
0
LINE
8
BLACK
6
CONTINUOUS
10
2.102949251968504
20
-5.6121889763779524
11
2.0954501968503938
21
-5.6159385039370076
0
LINE
8
BLACK
6
CONTINUOUS
10
2.0954501968503938
20
-5.6159385039370076
11
2.0729529921259844
21
-5.6159385039370076
0
LINE
8
BLACK
6
CONTINUOUS
10
2.0729529921259844
20
-5.6159385039370076
11
2.0654539370078742
21
-5.6121889763779524
0
LINE
8
BLACK
6
CONTINUOUS
10
2.0654539370078742
20
-5.6121889763779524
11
2.0617044094488191
21
-5.6084394094488186
0
LINE
8
BLACK
6
CONTINUOUS
10
2.144194094488189
20
-5.6084394094488186
11
2.1479436220472441
21
-5.6121889763779524
0
LINE
8
BLACK
6
CONTINUOUS
10
2.1479436220472441
20
-5.6121889763779524
11
2.144194094488189
21
-5.6159385039370076
0
LINE
8
BLACK
6
CONTINUOUS
10
2.144194094488189
20
-5.6159385039370076
11
2.1404445669291339
21
-5.6121889763779524
0
LINE
8
BLACK
6
CONTINUOUS
10
2.1404445669291339
20
-5.6121889763779524
11
2.144194094488189
21
-5.6084394094488186
0
LINE
8
BLACK
6
CONTINUOUS
10
2.144194094488189
20
-5.6084394094488186
11
2.144194094488189
21
-5.6159385039370076
0
LINE
8
BLACK
6
CONTINUOUS
10
2.1929379921259842
20
-5.5709440944881887
11
2.1854389370078739
21
-5.5671945669291336
0
LINE
8
BLACK
6
CONTINUOUS
10
2.1854389370078739
20
-5.5671945669291336
11
2.1816894094488188
21
-5.5634450393700785
0
LINE
8
BLACK
6
CONTINUOUS
10
2.1816894094488188
20
-5.5634450393700785
11
2.1779398818897637
21
-5.5559459842519683
0
LINE
8
BLACK
6
CONTINUOUS
10
2.1779398818897637
20
-5.5559459842519683
11
2.1779398818897637
21
-5.5521964566929132
0
LINE
8
BLACK
6
CONTINUOUS
10
2.1779398818897637
20
-5.5521964566929132
11
2.1816894094488188
21
-5.544697401574803
0
LINE
8
BLACK
6
CONTINUOUS
10
2.1816894094488188
20
-5.544697401574803
11
2.1854389370078739
21
-5.5409478740157478
0
LINE
8
BLACK
6
CONTINUOUS
10
2.1854389370078739
20
-5.5409478740157478
11
2.1929379921259842
21
-5.5371983464566927
0
LINE
8
BLACK
6
CONTINUOUS
10
2.1929379921259842
20
-5.5371983464566927
11
2.2079361417322834
21
-5.5371983464566927
0
LINE
8
BLACK
6
CONTINUOUS
10
2.2079361417322834
20
-5.5371983464566927
11
2.2154351968503936
21
-5.5409478740157478
0
LINE
8
BLACK
6
CONTINUOUS
10
2.2154351968503936
20
-5.5409478740157478
11
2.2191847244094487
21
-5.544697401574803
0
LINE
8
BLACK
6
CONTINUOUS
10
2.2191847244094487
20
-5.544697401574803
11
2.2229342519685038
21
-5.5521964566929132
0
LINE
8
BLACK
6
CONTINUOUS
10
2.2229342519685038
20
-5.5521964566929132
11
2.2229342519685038
21
-5.5559459842519683
0
LINE
8
BLACK
6
CONTINUOUS
10
2.2229342519685038
20
-5.5559459842519683
11
2.2191847244094487
21
-5.5634450393700785
0
LINE
8
BLACK
6
CONTINUOUS
10
2.2191847244094487
20
-5.5634450393700785
11
2.2154351968503936
21
-5.5671945669291336
0
LINE
8
BLACK
6
CONTINUOUS
10
2.2154351968503936
20
-5.5671945669291336
11
2.2079361417322834
21
-5.5709440944881887
0
LINE
8
BLACK
6
CONTINUOUS
10
2.2079361417322834
20
-5.5709440944881887
11
2.1929379921259842
21
-5.5709440944881887
0
LINE
8
BLACK
6
CONTINUOUS
10
2.1929379921259842
20
-5.5709440944881887
11
2.1854389370078739
21
-5.5746936614173226
0
LINE
8
BLACK
6
CONTINUOUS
10
2.1854389370078739
20
-5.5746936614173226
11
2.1816894094488188
21
-5.5784431889763777
0
LINE
8
BLACK
6
CONTINUOUS
10
2.1816894094488188
20
-5.5784431889763777
11
2.1779398818897637
21
-5.5859422440944879
0
LINE
8
BLACK
6
CONTINUOUS
10
2.1779398818897637
20
-5.5859422440944879
11
2.1779398818897637
21
-5.6009403543307084
0
LINE
8
BLACK
6
CONTINUOUS
10
2.1779398818897637
20
-5.6009403543307084
11
2.1816894094488188
21
-5.6084394094488186
0
LINE
8
BLACK
6
CONTINUOUS
10
2.1816894094488188
20
-5.6084394094488186
11
2.1854389370078739
21
-5.6121889763779524
0
LINE
8
BLACK
6
CONTINUOUS
10
2.1854389370078739
20
-5.6121889763779524
11
2.1929379921259842
21
-5.6159385039370076
0
LINE
8
BLACK
6
CONTINUOUS
10
2.1929379921259842
20
-5.6159385039370076
11
2.2079361417322834
21
-5.6159385039370076
0
LINE
8
BLACK
6
CONTINUOUS
10
2.2079361417322834
20
-5.6159385039370076
11
2.2154351968503936
21
-5.6121889763779524
0
LINE
8
BLACK
6
CONTINUOUS
10
2.2154351968503936
20
-5.6121889763779524
11
2.2191847244094487
21
-5.6084394094488186
0
LINE
8
BLACK
6
CONTINUOUS
10
2.2191847244094487
20
-5.6084394094488186
11
2.2229342519685038
21
-5.6009403543307084
0
LINE
8
BLACK
6
CONTINUOUS
10
2.2229342519685038
20
-5.6009403543307084
11
2.2229342519685038
21
-5.5859422440944879
0
LINE
8
BLACK
6
CONTINUOUS
10
2.2229342519685038
20
-5.5859422440944879
11
2.2191847244094487
21
-5.5784431889763777
0
LINE
8
BLACK
6
CONTINUOUS
10
2.2191847244094487
20
-5.5784431889763777
11
2.2154351968503936
21
-5.5746936614173226
0
LINE
8
BLACK
6
CONTINUOUS
10
2.2154351968503936
20
-5.5746936614173226
11
2.2079361417322834
21
-5.5709440944881887
0
LINE
8
BLACK
6
CONTINUOUS
10
2.2979248818897635
20
-5.6159385039370076
11
2.2529305118110234
21
-5.6159385039370076
0
LINE
8
BLACK
6
CONTINUOUS
10
2.2754276771653541
20
-5.6159385039370076
11
2.2754276771653541
21
-5.5371983464566927
0
LINE
8
BLACK
6
CONTINUOUS
10
2.2754276771653541
20
-5.5371983464566927
11
2.2679286220472439
21
-5.5484469291338581
0
LINE
8
BLACK
6
CONTINUOUS
10
2.2679286220472439
20
-5.5484469291338581
11
2.2604295669291337
21
-5.5559459842519683
0
LINE
8
BLACK
6
CONTINUOUS
10
2.2604295669291337
20
-5.5559459842519683
11
2.2529305118110234
21
-5.5596955118110234
0
LINE
8
BLACK
6
CONTINUOUS
10
2.3466687795275591
20
-5.5371983464566927
11
2.3541678740157481
21
-5.5371983464566927
0
LINE
8
BLACK
6
CONTINUOUS
10
2.3541678740157481
20
-5.5371983464566927
11
2.3616669291338583
21
-5.5409478740157478
0
LINE
8
BLACK
6
CONTINUOUS
10
2.3616669291338583
20
-5.5409478740157478
11
2.3654164566929134
21
-5.544697401574803
0
LINE
8
BLACK
6
CONTINUOUS
10
2.3654164566929134
20
-5.544697401574803
11
2.3691659842519686
21
-5.5521964566929132
0
LINE
8
BLACK
6
CONTINUOUS
10
2.3691659842519686
20
-5.5521964566929132
11
2.3729155118110237
21
-5.5671945669291336
0
LINE
8
BLACK
6
CONTINUOUS
10
2.3729155118110237
20
-5.5671945669291336
11
2.3729155118110237
21
-5.5859422440944879
0
LINE
8
BLACK
6
CONTINUOUS
10
2.3729155118110237
20
-5.5859422440944879
11
2.3691659842519686
21
-5.6009403543307084
0
LINE
8
BLACK
6
CONTINUOUS
10
2.3691659842519686
20
-5.6009403543307084
11
2.3654164566929134
21
-5.6084394094488186
0
LINE
8
BLACK
6
CONTINUOUS
10
2.3654164566929134
20
-5.6084394094488186
11
2.3616669291338583
21
-5.6121889763779524
0
LINE
8
BLACK
6
CONTINUOUS
10
2.3616669291338583
20
-5.6121889763779524
11
2.3541678740157481
21
-5.6159385039370076
0
LINE
8
BLACK
6
CONTINUOUS
10
2.3541678740157481
20
-5.6159385039370076
11
2.3466687795275591
21
-5.6159385039370076
0
LINE
8
BLACK
6
CONTINUOUS
10
2.3466687795275591
20
-5.6159385039370076
11
2.3391697244094489
21
-5.6121889763779524
0
LINE
8
BLACK
6
CONTINUOUS
10
2.3391697244094489
20
-5.6121889763779524
11
2.3354201968503938
21
-5.6084394094488186
0
LINE
8
BLACK
6
CONTINUOUS
10
2.3354201968503938
20
-5.6084394094488186
11
2.3316706692913387
21
-5.6009403543307084
0
LINE
8
BLACK
6
CONTINUOUS
10
2.3316706692913387
20
-5.6009403543307084
11
2.3279211417322836
21
-5.5859422440944879
0
LINE
8
BLACK
6
CONTINUOUS
10
2.3279211417322836
20
-5.5859422440944879
11
2.3279211417322836
21
-5.5671945669291336
0
LINE
8
BLACK
6
CONTINUOUS
10
2.3279211417322836
20
-5.5671945669291336
11
2.3316706692913387
21
-5.5521964566929132
0
LINE
8
BLACK
6
CONTINUOUS
10
2.3316706692913387
20
-5.5521964566929132
11
2.3354201968503938
21
-5.544697401574803
0
LINE
8
BLACK
6
CONTINUOUS
10
2.3354201968503938
20
-5.544697401574803
11
2.3391697244094489
21
-5.5409478740157478
0
LINE
8
BLACK
6
CONTINUOUS
10
2.3391697244094489
20
-5.5409478740157478
11
2.3466687795275591
21
-5.5371983464566927
0
LINE
8
BLACK
6
CONTINUOUS
10
2.4066612992125984
20
-5.6159385039370076
11
2.4066612992125984
21
-5.5634450393700785
0
LINE
8
BLACK
6
CONTINUOUS
10
2.4066612992125984
20
-5.5709440944881887
11
2.4104108267716535
21
-5.5671945669291336
0
LINE
8
BLACK
6
CONTINUOUS
10
2.4104108267716535
20
-5.5671945669291336
11
2.4179098818897637
21
-5.5634450393700785
0
LINE
8
BLACK
6
CONTINUOUS
10
2.4179098818897637
20
-5.5634450393700785
11
2.4291585039370078
21
-5.5634450393700785
0
LINE
8
BLACK
6
CONTINUOUS
10
2.4291585039370078
20
-5.5634450393700785
11
2.436657559055118
21
-5.5671945669291336
0
LINE
8
BLACK
6
CONTINUOUS
10
2.436657559055118
20
-5.5671945669291336
11
2.4404070866141732
21
-5.5746936614173226
0
LINE
8
BLACK
6
CONTINUOUS
10
2.4404070866141732
20
-5.5746936614173226
11
2.4404070866141732
21
-5.6159385039370076
0
LINE
8
BLACK
6
CONTINUOUS
10
2.4404070866141732
20
-5.5746936614173226
11
2.4441566141732283
21
-5.5671945669291336
0
LINE
8
BLACK
6
CONTINUOUS
10
2.4441566141732283
20
-5.5671945669291336
11
2.4516556692913385
21
-5.5634450393700785
0
LINE
8
BLACK
6
CONTINUOUS
10
2.4516556692913385
20
-5.5634450393700785
11
2.4629042519685038
21
-5.5634450393700785
0
LINE
8
BLACK
6
CONTINUOUS
10
2.4629042519685038
20
-5.5634450393700785
11
2.4704033464566928
21
-5.5671945669291336
0
LINE
8
BLACK
6
CONTINUOUS
10
2.4704033464566928
20
-5.5671945669291336
11
2.4741528740157479
21
-5.5746936614173226
0
LINE
8
BLACK
6
CONTINUOUS
10
2.4741528740157479
20
-5.5746936614173226
11
2.4741528740157479
21
-5.6159385039370076
0
LINE
8
BLACK
6
CONTINUOUS
10
2.5116481889763778
20
-5.6159385039370076
11
2.5116481889763778
21
-5.5634450393700785
0
LINE
8
BLACK
6
CONTINUOUS
10
2.5116481889763778
20
-5.5709440944881887
11
2.5153977165354329
21
-5.5671945669291336
0
LINE
8
BLACK
6
CONTINUOUS
10
2.5153977165354329
20
-5.5671945669291336
11
2.5228967716535431
21
-5.5634450393700785
0
LINE
8
BLACK
6
CONTINUOUS
10
2.5228967716535431
20
-5.5634450393700785
11
2.5341453937007872
21
-5.5634450393700785
0
LINE
8
BLACK
6
CONTINUOUS
10
2.5341453937007872
20
-5.5634450393700785
11
2.5416444488188974
21
-5.5671945669291336
0
LINE
8
BLACK
6
CONTINUOUS
10
2.5416444488188974
20
-5.5671945669291336
11
2.5453939763779525
21
-5.5746936614173226
0
LINE
8
BLACK
6
CONTINUOUS
10
2.5453939763779525
20
-5.5746936614173226
11
2.5453939763779525
21
-5.6159385039370076
0
LINE
8
BLACK
6
CONTINUOUS
10
2.5453939763779525
20
-5.5746936614173226
11
2.5491435039370076
21
-5.5671945669291336
0
LINE
8
BLACK
6
CONTINUOUS
10
2.5491435039370076
20
-5.5671945669291336
11
2.5566425590551178
21
-5.5634450393700785
0
LINE
8
BLACK
6
CONTINUOUS
10
2.5566425590551178
20
-5.5634450393700785
11
2.5678911417322836
21
-5.5634450393700785
0
LINE
8
BLACK
6
CONTINUOUS
10
2.5678911417322836
20
-5.5634450393700785
11
2.5753902362204726
21
-5.5671945669291336
0
LINE
8
BLACK
6
CONTINUOUS
10
2.5753902362204726
20
-5.5671945669291336
11
2.5791397637795277
21
-5.5746936614173226
0
LINE
8
BLACK
6
CONTINUOUS
10
2.5791397637795277
20
-5.5746936614173226
11
2.5791397637795277
21
-5.6159385039370076
0
LINE
8
BLACK
6
CONTINUOUS
10
2.7328705511811022
20
-5.5334488188976376
11
2.6653790157480315
21
-5.6346861417322831
0
LINE
8
BLACK
6
CONTINUOUS
10
2.8341079133858269
20
-5.5371983464566927
11
2.8416070078740159
21
-5.5371983464566927
0
LINE
8
BLACK
6
CONTINUOUS
10
2.8416070078740159
20
-5.5371983464566927
11
2.8491060629921261
21
-5.5409478740157478
0
LINE
8
BLACK
6
CONTINUOUS
10
2.8491060629921261
20
-5.5409478740157478
11
2.8528555905511812
21
-5.544697401574803
0
LINE
8
BLACK
6
CONTINUOUS
10
2.8528555905511812
20
-5.544697401574803
11
2.8566051181102363
21
-5.5521964566929132
0
LINE
8
BLACK
6
CONTINUOUS
10
2.8566051181102363
20
-5.5521964566929132
11
2.8603546456692914
21
-5.5671945669291336
0
LINE
8
BLACK
6
CONTINUOUS
10
2.8603546456692914
20
-5.5671945669291336
11
2.8603546456692914
21
-5.5859422440944879
0
LINE
8
BLACK
6
CONTINUOUS
10
2.8603546456692914
20
-5.5859422440944879
11
2.8566051181102363
21
-5.6009403543307084
0
LINE
8
BLACK
6
CONTINUOUS
10
2.8566051181102363
20
-5.6009403543307084
11
2.8528555905511812
21
-5.6084394094488186
0
LINE
8
BLACK
6
CONTINUOUS
10
2.8528555905511812
20
-5.6084394094488186
11
2.8491060629921261
21
-5.6121889763779524
0
LINE
8
BLACK
6
CONTINUOUS
10
2.8491060629921261
20
-5.6121889763779524
11
2.8416070078740159
21
-5.6159385039370076
0
LINE
8
BLACK
6
CONTINUOUS
10
2.8416070078740159
20
-5.6159385039370076
11
2.8341079133858269
21
-5.6159385039370076
0
LINE
8
BLACK
6
CONTINUOUS
10
2.8341079133858269
20
-5.6159385039370076
11
2.8266088582677167
21
-5.6121889763779524
0
LINE
8
BLACK
6
CONTINUOUS
10
2.8266088582677167
20
-5.6121889763779524
11
2.8228593307086616
21
-5.6084394094488186
0
LINE
8
BLACK
6
CONTINUOUS
10
2.8228593307086616
20
-5.6084394094488186
11
2.819109803149606
21
-5.6009403543307084
0
LINE
8
BLACK
6
CONTINUOUS
10
2.819109803149606
20
-5.6009403543307084
11
2.8153602755905509
21
-5.5859422440944879
0
LINE
8
BLACK
6
CONTINUOUS
10
2.8153602755905509
20
-5.5859422440944879
11
2.8153602755905509
21
-5.5671945669291336
0
LINE
8
BLACK
6
CONTINUOUS
10
2.8153602755905509
20
-5.5671945669291336
11
2.819109803149606
21
-5.5521964566929132
0
LINE
8
BLACK
6
CONTINUOUS
10
2.819109803149606
20
-5.5521964566929132
11
2.8228593307086616
21
-5.544697401574803
0
LINE
8
BLACK
6
CONTINUOUS
10
2.8228593307086616
20
-5.544697401574803
11
2.8266088582677167
21
-5.5409478740157478
0
LINE
8
BLACK
6
CONTINUOUS
10
2.8266088582677167
20
-5.5409478740157478
11
2.8341079133858269
21
-5.5371983464566927
0
LINE
8
BLACK
6
CONTINUOUS
10
2.8941004330708662
20
-5.6084394094488186
11
2.8978499606299213
21
-5.6121889763779524
0
LINE
8
BLACK
6
CONTINUOUS
10
2.8978499606299213
20
-5.6121889763779524
11
2.8941004330708662
21
-5.6159385039370076
0
LINE
8
BLACK
6
CONTINUOUS
10
2.8941004330708662
20
-5.6159385039370076
11
2.8903509055118111
21
-5.6121889763779524
0
LINE
8
BLACK
6
CONTINUOUS
10
2.8903509055118111
20
-5.6121889763779524
11
2.8941004330708662
21
-5.6084394094488186
0
LINE
8
BLACK
6
CONTINUOUS
10
2.8941004330708662
20
-5.6084394094488186
11
2.8941004330708662
21
-5.6159385039370076
0
LINE
8
BLACK
6
CONTINUOUS
10
2.972840590551181
20
-5.6159385039370076
11
2.9278462204724409
21
-5.6159385039370076
0
LINE
8
BLACK
6
CONTINUOUS
10
2.9503433858267716
20
-5.6159385039370076
11
2.9503433858267716
21
-5.5371983464566927
0
LINE
8
BLACK
6
CONTINUOUS
10
2.9503433858267716
20
-5.5371983464566927
11
2.9428443307086614
21
-5.5484469291338581
0
LINE
8
BLACK
6
CONTINUOUS
10
2.9428443307086614
20
-5.5484469291338581
11
2.9353452755905511
21
-5.5559459842519683
0
LINE
8
BLACK
6
CONTINUOUS
10
2.9353452755905511
20
-5.5559459842519683
11
2.9278462204724409
21
-5.5596955118110234
0
LINE
8
BLACK
6
CONTINUOUS
10
3.0440816929133856
20
-5.5371983464566927
11
3.0065863779527557
21
-5.5371983464566927
0
LINE
8
BLACK
6
CONTINUOUS
10
3.0065863779527557
20
-5.5371983464566927
11
3.0028368503937006
21
-5.5746936614173226
0
LINE
8
BLACK
6
CONTINUOUS
10
3.0028368503937006
20
-5.5746936614173226
11
3.0065863779527557
21
-5.5709440944881887
0
LINE
8
BLACK
6
CONTINUOUS
10
3.0065863779527557
20
-5.5709440944881887
11
3.014085433070866
21
-5.5671945669291336
0
LINE
8
BLACK
6
CONTINUOUS
10
3.014085433070866
20
-5.5671945669291336
11
3.0328331102362203
21
-5.5671945669291336
0
LINE
8
BLACK
6
CONTINUOUS
10
3.0328331102362203
20
-5.5671945669291336
11
3.0403321653543305
21
-5.5709440944881887
0
LINE
8
BLACK
6
CONTINUOUS
10
3.0403321653543305
20
-5.5709440944881887
11
3.0440816929133856
21
-5.5746936614173226
0
LINE
8
BLACK
6
CONTINUOUS
10
3.0440816929133856
20
-5.5746936614173226
11
3.0478312204724407
21
-5.5821927165354328
0
LINE
8
BLACK
6
CONTINUOUS
10
3.0478312204724407
20
-5.5821927165354328
11
3.0478312204724407
21
-5.6009403543307084
0
LINE
8
BLACK
6
CONTINUOUS
10
3.0478312204724407
20
-5.6009403543307084
11
3.0440816929133856
21
-5.6084394094488186
0
LINE
8
BLACK
6
CONTINUOUS
10
3.0440816929133856
20
-5.6084394094488186
11
3.0403321653543305
21
-5.6121889763779524
0
LINE
8
BLACK
6
CONTINUOUS
10
3.0403321653543305
20
-5.6121889763779524
11
3.0328331102362203
21
-5.6159385039370076
0
LINE
8
BLACK
6
CONTINUOUS
10
3.0328331102362203
20
-5.6159385039370076
11
3.014085433070866
21
-5.6159385039370076
0
LINE
8
BLACK
6
CONTINUOUS
10
3.014085433070866
20
-5.6159385039370076
11
3.0065863779527557
21
-5.6121889763779524
0
LINE
8
BLACK
6
CONTINUOUS
10
3.0065863779527557
20
-5.6121889763779524
11
3.0028368503937006
21
-5.6084394094488186
0
LINE
8
BLACK
6
CONTINUOUS
10
3.0965751181102363
20
-5.5371983464566927
11
3.1040742125984253
21
-5.5371983464566927
0
LINE
8
BLACK
6
CONTINUOUS
10
3.1040742125984253
20
-5.5371983464566927
11
3.1115732677165355
21
-5.5409478740157478
0
LINE
8
BLACK
6
CONTINUOUS
10
3.1115732677165355
20
-5.5409478740157478
11
3.1153227952755906
21
-5.544697401574803
0
LINE
8
BLACK
6
CONTINUOUS
10
3.1153227952755906
20
-5.544697401574803
11
3.1190723228346457
21
-5.5521964566929132
0
LINE
8
BLACK
6
CONTINUOUS
10
3.1190723228346457
20
-5.5521964566929132
11
3.1228218503937009
21
-5.5671945669291336
0
LINE
8
BLACK
6
CONTINUOUS
10
3.1228218503937009
20
-5.5671945669291336
11
3.1228218503937009
21
-5.5859422440944879
0
LINE
8
BLACK
6
CONTINUOUS
10
3.1228218503937009
20
-5.5859422440944879
11
3.1190723228346457
21
-5.6009403543307084
0
LINE
8
BLACK
6
CONTINUOUS
10
3.1190723228346457
20
-5.6009403543307084
11
3.1153227952755906
21
-5.6084394094488186
0
LINE
8
BLACK
6
CONTINUOUS
10
3.1153227952755906
20
-5.6084394094488186
11
3.1115732677165355
21
-5.6121889763779524
0
LINE
8
BLACK
6
CONTINUOUS
10
3.1115732677165355
20
-5.6121889763779524
11
3.1040742125984253
21
-5.6159385039370076
0
LINE
8
BLACK
6
CONTINUOUS
10
3.1040742125984253
20
-5.6159385039370076
11
3.0965751181102363
21
-5.6159385039370076
0
LINE
8
BLACK
6
CONTINUOUS
10
3.0965751181102363
20
-5.6159385039370076
11
3.0890760629921261
21
-5.6121889763779524
0
LINE
8
BLACK
6
CONTINUOUS
10
3.0890760629921261
20
-5.6121889763779524
11
3.085326535433071
21
-5.6084394094488186
0
LINE
8
BLACK
6
CONTINUOUS
10
3.085326535433071
20
-5.6084394094488186
11
3.0815770078740159
21
-5.6009403543307084
0
LINE
8
BLACK
6
CONTINUOUS
10
3.0815770078740159
20
-5.6009403543307084
11
3.0778274803149603
21
-5.5859422440944879
0
LINE
8
BLACK
6
CONTINUOUS
10
3.0778274803149603
20
-5.5859422440944879
11
3.0778274803149603
21
-5.5671945669291336
0
LINE
8
BLACK
6
CONTINUOUS
10
3.0778274803149603
20
-5.5671945669291336
11
3.0815770078740159
21
-5.5521964566929132
0
LINE
8
BLACK
6
CONTINUOUS
10
3.0815770078740159
20
-5.5521964566929132
11
3.085326535433071
21
-5.544697401574803
0
LINE
8
BLACK
6
CONTINUOUS
10
3.085326535433071
20
-5.544697401574803
11
3.0890760629921261
21
-5.5409478740157478
0
LINE
8
BLACK
6
CONTINUOUS
10
3.0890760629921261
20
-5.5409478740157478
11
3.0965751181102363
21
-5.5371983464566927
0
LINE
8
BLACK
6
CONTINUOUS
10
3.171565748031496
20
-5.5371983464566927
11
3.179064842519685
21
-5.5371983464566927
0
LINE
8
BLACK
6
CONTINUOUS
10
3.179064842519685
20
-5.5371983464566927
11
3.1865638976377952
21
-5.5409478740157478
0
LINE
8
BLACK
6
CONTINUOUS
10
3.1865638976377952
20
-5.5409478740157478
11
3.1903134251968503
21
-5.544697401574803
0
LINE
8
BLACK
6
CONTINUOUS
10
3.1903134251968503
20
-5.544697401574803
11
3.1940629527559055
21
-5.5521964566929132
0
LINE
8
BLACK
6
CONTINUOUS
10
3.1940629527559055
20
-5.5521964566929132
11
3.1978124803149606
21
-5.5671945669291336
0
LINE
8
BLACK
6
CONTINUOUS
10
3.1978124803149606
20
-5.5671945669291336
11
3.1978124803149606
21
-5.5859422440944879
0
LINE
8
BLACK
6
CONTINUOUS
10
3.1978124803149606
20
-5.5859422440944879
11
3.1940629527559055
21
-5.6009403543307084
0
LINE
8
BLACK
6
CONTINUOUS
10
3.1940629527559055
20
-5.6009403543307084
11
3.1903134251968503
21
-5.6084394094488186
0
LINE
8
BLACK
6
CONTINUOUS
10
3.1903134251968503
20
-5.6084394094488186
11
3.1865638976377952
21
-5.6121889763779524
0
LINE
8
BLACK
6
CONTINUOUS
10
3.1865638976377952
20
-5.6121889763779524
11
3.179064842519685
21
-5.6159385039370076
0
LINE
8
BLACK
6
CONTINUOUS
10
3.179064842519685
20
-5.6159385039370076
11
3.171565748031496
21
-5.6159385039370076
0
LINE
8
BLACK
6
CONTINUOUS
10
3.171565748031496
20
-5.6159385039370076
11
3.1640666929133858
21
-5.6121889763779524
0
LINE
8
BLACK
6
CONTINUOUS
10
3.1640666929133858
20
-5.6121889763779524
11
3.1603171653543307
21
-5.6084394094488186
0
LINE
8
BLACK
6
CONTINUOUS
10
3.1603171653543307
20
-5.6084394094488186
11
3.1565676377952756
21
-5.6009403543307084
0
LINE
8
BLACK
6
CONTINUOUS
10
3.1565676377952756
20
-5.6009403543307084
11
3.1528181102362205
21
-5.5859422440944879
0
LINE
8
BLACK
6
CONTINUOUS
10
3.1528181102362205
20
-5.5859422440944879
11
3.1528181102362205
21
-5.5671945669291336
0
LINE
8
BLACK
6
CONTINUOUS
10
3.1528181102362205
20
-5.5671945669291336
11
3.1565676377952756
21
-5.5521964566929132
0
LINE
8
BLACK
6
CONTINUOUS
10
3.1565676377952756
20
-5.5521964566929132
11
3.1603171653543307
21
-5.544697401574803
0
LINE
8
BLACK
6
CONTINUOUS
10
3.1603171653543307
20
-5.544697401574803
11
3.1640666929133858
21
-5.5409478740157478
0
LINE
8
BLACK
6
CONTINUOUS
10
3.1640666929133858
20
-5.5409478740157478
11
3.171565748031496
21
-5.5371983464566927
0
LINE
8
BLACK
6
CONTINUOUS
10
3.2278087401574802
20
-5.5371983464566927
11
3.2278087401574802
21
-5.5521964566929132
0
LINE
8
BLACK
6
CONTINUOUS
10
3.2578049999999998
20
-5.5371983464566927
11
3.2578049999999998
21
-5.5521964566929132
0
LINE
8
BLACK
6
CONTINUOUS
10
3.3740405118110237
20
-5.6459347244094484
11
3.3702909448818898
21
-5.6421851968503933
0
LINE
8
BLACK
6
CONTINUOUS
10
3.3702909448818898
20
-5.6421851968503933
11
3.3627918897637796
21
-5.630936614173228
0
LINE
8
BLACK
6
CONTINUOUS
10
3.3627918897637796
20
-5.630936614173228
11
3.3590423622047245
21
-5.6234375590551178
0
LINE
8
BLACK
6
CONTINUOUS
10
3.3590423622047245
20
-5.6234375590551178
11
3.3552928346456694
21
-5.6121889763779524
0
LINE
8
BLACK
6
CONTINUOUS
10
3.3552928346456694
20
-5.6121889763779524
11
3.3515433070866143
21
-5.5934412992125981
0
LINE
8
BLACK
6
CONTINUOUS
10
3.3515433070866143
20
-5.5934412992125981
11
3.3515433070866143
21
-5.5784431889763777
0
LINE
8
BLACK
6
CONTINUOUS
10
3.3515433070866143
20
-5.5784431889763777
11
3.3552928346456694
21
-5.5596955118110234
0
LINE
8
BLACK
6
CONTINUOUS
10
3.3552928346456694
20
-5.5596955118110234
11
3.3590423622047245
21
-5.5484469291338581
0
LINE
8
BLACK
6
CONTINUOUS
10
3.3590423622047245
20
-5.5484469291338581
11
3.3627918897637796
21
-5.5409478740157478
0
LINE
8
BLACK
6
CONTINUOUS
10
3.3627918897637796
20
-5.5409478740157478
11
3.3702909448818898
21
-5.5296992519685038
0
LINE
8
BLACK
6
CONTINUOUS
10
3.3702909448818898
20
-5.5296992519685038
11
3.3740405118110237
21
-5.5259497244094486
0
LINE
8
BLACK
6
CONTINUOUS
10
3.4452815748031496
20
-5.6159385039370076
11
3.4002872047244095
21
-5.6159385039370076
0
LINE
8
BLACK
6
CONTINUOUS
10
3.4227843700787401
20
-5.6159385039370076
11
3.4227843700787401
21
-5.5371983464566927
0
LINE
8
BLACK
6
CONTINUOUS
10
3.4227843700787401
20
-5.5371983464566927
11
3.4152853149606299
21
-5.5484469291338581
0
LINE
8
BLACK
6
CONTINUOUS
10
3.4152853149606299
20
-5.5484469291338581
11
3.4077862598425197
21
-5.5559459842519683
0
LINE
8
BLACK
6
CONTINUOUS
10
3.4077862598425197
20
-5.5559459842519683
11
3.4002872047244095
21
-5.5596955118110234
0
LINE
8
BLACK
6
CONTINUOUS
10
3.5390198818897636
20
-5.6159385039370076
11
3.5390198818897636
21
-5.5371983464566927
0
LINE
8
BLACK
6
CONTINUOUS
10
3.5727656692913383
20
-5.6159385039370076
11
3.5727656692913383
21
-5.5746936614173226
0
LINE
8
BLACK
6
CONTINUOUS
10
3.5727656692913383
20
-5.5746936614173226
11
3.5690161417322832
21
-5.5671945669291336
0
LINE
8
BLACK
6
CONTINUOUS
10
3.5690161417322832
20
-5.5671945669291336
11
3.561517086614173
21
-5.5634450393700785
0
LINE
8
BLACK
6
CONTINUOUS
10
3.561517086614173
20
-5.5634450393700785
11
3.5502684645669289
21
-5.5634450393700785
0
LINE
8
BLACK
6
CONTINUOUS
10
3.5502684645669289
20
-5.5634450393700785
11
3.5427694094488187
21
-5.5671945669291336
0
LINE
8
BLACK
6
CONTINUOUS
10
3.5427694094488187
20
-5.5671945669291336
11
3.5390198818897636
21
-5.5709440944881887
0
LINE
8
BLACK
6
CONTINUOUS
10
3.6215095669291339
20
-5.6159385039370076
11
3.6140105118110237
21
-5.6121889763779524
0
LINE
8
BLACK
6
CONTINUOUS
10
3.6140105118110237
20
-5.6121889763779524
11
3.6102609842519686
21
-5.6084394094488186
0
LINE
8
BLACK
6
CONTINUOUS
10
3.6102609842519686
20
-5.6084394094488186
11
3.6065114566929135
21
-5.6009403543307084
0
LINE
8
BLACK
6
CONTINUOUS
10
3.6065114566929135
20
-5.6009403543307084
11
3.6065114566929135
21
-5.5784431889763777
0
LINE
8
BLACK
6
CONTINUOUS
10
3.6065114566929135
20
-5.5784431889763777
11
3.6102609842519686
21
-5.5709440944881887
0
LINE
8
BLACK
6
CONTINUOUS
10
3.6102609842519686
20
-5.5709440944881887
11
3.6140105118110237
21
-5.5671945669291336
0
LINE
8
BLACK
6
CONTINUOUS
10
3.6140105118110237
20
-5.5671945669291336
11
3.6215095669291339
21
-5.5634450393700785
0
LINE
8
BLACK
6
CONTINUOUS
10
3.6215095669291339
20
-5.5634450393700785
11
3.632758188976378
21
-5.5634450393700785
0
LINE
8
BLACK
6
CONTINUOUS
10
3.632758188976378
20
-5.5634450393700785
11
3.6402572440944883
21
-5.5671945669291336
0
LINE
8
BLACK
6
CONTINUOUS
10
3.6402572440944883
20
-5.5671945669291336
11
3.6440067716535434
21
-5.5709440944881887
0
LINE
8
BLACK
6
CONTINUOUS
10
3.6440067716535434
20
-5.5709440944881887
11
3.6477562992125985
21
-5.5784431889763777
0
LINE
8
BLACK
6
CONTINUOUS
10
3.6477562992125985
20
-5.5784431889763777
11
3.6477562992125985
21
-5.6009403543307084
0
LINE
8
BLACK
6
CONTINUOUS
10
3.6477562992125985
20
-5.6009403543307084
11
3.6440067716535434
21
-5.6084394094488186
0
LINE
8
BLACK
6
CONTINUOUS
10
3.6440067716535434
20
-5.6084394094488186
11
3.6402572440944883
21
-5.6121889763779524
0
LINE
8
BLACK
6
CONTINUOUS
10
3.6402572440944883
20
-5.6121889763779524
11
3.632758188976378
21
-5.6159385039370076
0
LINE
8
BLACK
6
CONTINUOUS
10
3.632758188976378
20
-5.6159385039370076
11
3.6215095669291339
21
-5.6159385039370076
0
LINE
8
BLACK
6
CONTINUOUS
10
3.6927506692913385
20
-5.6159385039370076
11
3.6852516141732283
21
-5.6121889763779524
0
LINE
8
BLACK
6
CONTINUOUS
10
3.6852516141732283
20
-5.6121889763779524
11
3.6815020866141732
21
-5.6046898818897635
0
LINE
8
BLACK
6
CONTINUOUS
10
3.6815020866141732
20
-5.6046898818897635
11
3.6815020866141732
21
-5.5371983464566927
0
LINE
8
BLACK
6
CONTINUOUS
10
3.7527431889763778
20
-5.6121889763779524
11
3.7452441338582676
21
-5.6159385039370076
0
LINE
8
BLACK
6
CONTINUOUS
10
3.7452441338582676
20
-5.6159385039370076
11
3.7302459842519684
21
-5.6159385039370076
0
LINE
8
BLACK
6
CONTINUOUS
10
3.7302459842519684
20
-5.6159385039370076
11
3.7227469291338582
21
-5.6121889763779524
0
LINE
8
BLACK
6
CONTINUOUS
10
3.7227469291338582
20
-5.6121889763779524
11
3.7189974015748031
21
-5.6046898818897635
0
LINE
8
BLACK
6
CONTINUOUS
10
3.7189974015748031
20
-5.6046898818897635
11
3.7189974015748031
21
-5.5746936614173226
0
LINE
8
BLACK
6
CONTINUOUS
10
3.7189974015748031
20
-5.5746936614173226
11
3.7227469291338582
21
-5.5671945669291336
0
LINE
8
BLACK
6
CONTINUOUS
10
3.7227469291338582
20
-5.5671945669291336
11
3.7302459842519684
21
-5.5634450393700785
0
LINE
8
BLACK
6
CONTINUOUS
10
3.7302459842519684
20
-5.5634450393700785
11
3.7452441338582676
21
-5.5634450393700785
0
LINE
8
BLACK
6
CONTINUOUS
10
3.7452441338582676
20
-5.5634450393700785
11
3.7527431889763778
21
-5.5671945669291336
0
LINE
8
BLACK
6
CONTINUOUS
10
3.7527431889763778
20
-5.5671945669291336
11
3.7564927165354329
21
-5.5746936614173226
0
LINE
8
BLACK
6
CONTINUOUS
10
3.7564927165354329
20
-5.5746936614173226
11
3.7564927165354329
21
-5.5821927165354328
0
LINE
8
BLACK
6
CONTINUOUS
10
3.7564927165354329
20
-5.5821927165354328
11
3.7189974015748031
21
-5.589691771653543
0
LINE
8
BLACK
6
CONTINUOUS
10
3.7827394488188975
20
-5.6459347244094484
11
3.7864889763779526
21
-5.6421851968503933
0
LINE
8
BLACK
6
CONTINUOUS
10
3.7864889763779526
20
-5.6421851968503933
11
3.7939880314960628
21
-5.630936614173228
0
LINE
8
BLACK
6
CONTINUOUS
10
3.7939880314960628
20
-5.630936614173228
11
3.7977375590551179
21
-5.6234375590551178
0
LINE
8
BLACK
6
CONTINUOUS
10
3.7977375590551179
20
-5.6234375590551178
11
3.801487086614173
21
-5.6121889763779524
0
LINE
8
BLACK
6
CONTINUOUS
10
3.801487086614173
20
-5.6121889763779524
11
3.8052366141732281
21
-5.5934412992125981
0
LINE
8
BLACK
6
CONTINUOUS
10
3.8052366141732281
20
-5.5934412992125981
11
3.8052366141732281
21
-5.5784431889763777
0
LINE
8
BLACK
6
CONTINUOUS
10
3.8052366141732281
20
-5.5784431889763777
11
3.801487086614173
21
-5.5596955118110234
0
LINE
8
BLACK
6
CONTINUOUS
10
3.801487086614173
20
-5.5596955118110234
11
3.7977375590551179
21
-5.5484469291338581
0
LINE
8
BLACK
6
CONTINUOUS
10
3.7977375590551179
20
-5.5484469291338581
11
3.7939880314960628
21
-5.5409478740157478
0
LINE
8
BLACK
6
CONTINUOUS
10
3.7939880314960628
20
-5.5409478740157478
11
3.7864889763779526
21
-5.5296992519685038
0
LINE
8
BLACK
6
CONTINUOUS
10
3.7864889763779526
20
-5.5296992519685038
11
3.7827394488188975
21
-5.5259497244094486
0
LINE
8
BLACK
6
CONTINUOUS
10
3.9252216535433071
20
-5.6459347244094484
11
3.9214720866141732
21
-5.6421851968503933
0
LINE
8
BLACK
6
CONTINUOUS
10
3.9214720866141732
20
-5.6421851968503933
11
3.913973031496063
21
-5.630936614173228
0
LINE
8
BLACK
6
CONTINUOUS
10
3.913973031496063
20
-5.630936614173228
11
3.9102235039370079
21
-5.6234375590551178
0
LINE
8
BLACK
6
CONTINUOUS
10
3.9102235039370079
20
-5.6234375590551178
11
3.9064739763779528
21
-5.6121889763779524
0
LINE
8
BLACK
6
CONTINUOUS
10
3.9064739763779528
20
-5.6121889763779524
11
3.9027244488188977
21
-5.5934412992125981
0
LINE
8
BLACK
6
CONTINUOUS
10
3.9027244488188977
20
-5.5934412992125981
11
3.9027244488188977
21
-5.5784431889763777
0
LINE
8
BLACK
6
CONTINUOUS
10
3.9027244488188977
20
-5.5784431889763777
11
3.9064739763779528
21
-5.5596955118110234
0
LINE
8
BLACK
6
CONTINUOUS
10
3.9064739763779528
20
-5.5596955118110234
11
3.9102235039370079
21
-5.5484469291338581
0
LINE
8
BLACK
6
CONTINUOUS
10
3.9102235039370079
20
-5.5484469291338581
11
3.913973031496063
21
-5.5409478740157478
0
LINE
8
BLACK
6
CONTINUOUS
10
3.913973031496063
20
-5.5409478740157478
11
3.9214720866141732
21
-5.5296992519685038
0
LINE
8
BLACK
6
CONTINUOUS
10
3.9214720866141732
20
-5.5296992519685038
11
3.9252216535433071
21
-5.5259497244094486
0
LINE
8
BLACK
6
CONTINUOUS
10
3.955217874015748
20
-5.5634450393700785
11
3.955217874015748
21
-5.6159385039370076
0
LINE
8
BLACK
6
CONTINUOUS
10
3.955217874015748
20
-5.5709440944881887
11
3.9589674015748031
21
-5.5671945669291336
0
LINE
8
BLACK
6
CONTINUOUS
10
3.9589674015748031
20
-5.5671945669291336
11
3.9664664566929133
21
-5.5634450393700785
0
LINE
8
BLACK
6
CONTINUOUS
10
3.9664664566929133
20
-5.5634450393700785
11
3.9777150787401574
21
-5.5634450393700785
0
LINE
8
BLACK
6
CONTINUOUS
10
3.9777150787401574
20
-5.5634450393700785
11
3.9852141338582676
21
-5.5671945669291336
0
LINE
8
BLACK
6
CONTINUOUS
10
3.9852141338582676
20
-5.5671945669291336
11
3.9889636614173227
21
-5.5746936614173226
0
LINE
8
BLACK
6
CONTINUOUS
10
3.9889636614173227
20
-5.5746936614173226
11
3.9889636614173227
21
-5.6159385039370076
0
LINE
8
BLACK
6
CONTINUOUS
10
4.0377075590551179
20
-5.6159385039370076
11
4.0302085039370077
21
-5.6121889763779524
0
LINE
8
BLACK
6
CONTINUOUS
10
4.0302085039370077
20
-5.6121889763779524
11
4.0264589763779526
21
-5.6084394094488186
0
LINE
8
BLACK
6
CONTINUOUS
10
4.0264589763779526
20
-5.6084394094488186
11
4.0227094488188975
21
-5.6009403543307084
0
LINE
8
BLACK
6
CONTINUOUS
10
4.0227094488188975
20
-5.6009403543307084
11
4.0227094488188975
21
-5.5784431889763777
0
LINE
8
BLACK
6
CONTINUOUS
10
4.0227094488188975
20
-5.5784431889763777
11
4.0264589763779526
21
-5.5709440944881887
0
LINE
8
BLACK
6
CONTINUOUS
10
4.0264589763779526
20
-5.5709440944881887
11
4.0302085039370077
21
-5.5671945669291336
0
LINE
8
BLACK
6
CONTINUOUS
10
4.0302085039370077
20
-5.5671945669291336
11
4.0377075590551179
21
-5.5634450393700785
0
LINE
8
BLACK
6
CONTINUOUS
10
4.0377075590551179
20
-5.5634450393700785
11
4.048956181102362
21
-5.5634450393700785
0
LINE
8
BLACK
6
CONTINUOUS
10
4.048956181102362
20
-5.5634450393700785
11
4.0564552362204722
21
-5.5671945669291336
0
LINE
8
BLACK
6
CONTINUOUS
10
4.0564552362204722
20
-5.5671945669291336
11
4.0602047637795273
21
-5.5709440944881887
0
LINE
8
BLACK
6
CONTINUOUS
10
4.0602047637795273
20
-5.5709440944881887
11
4.0639542913385824
21
-5.5784431889763777
0
LINE
8
BLACK
6
CONTINUOUS
10
4.0639542913385824
20
-5.5784431889763777
11
4.0639542913385824
21
-5.6009403543307084
0
LINE
8
BLACK
6
CONTINUOUS
10
4.0639542913385824
20
-5.6009403543307084
11
4.0602047637795273
21
-5.6084394094488186
0
LINE
8
BLACK
6
CONTINUOUS
10
4.0602047637795273
20
-5.6084394094488186
11
4.0564552362204722
21
-5.6121889763779524
0
LINE
8
BLACK
6
CONTINUOUS
10
4.0564552362204722
20
-5.6121889763779524
11
4.048956181102362
21
-5.6159385039370076
0
LINE
8
BLACK
6
CONTINUOUS
10
4.048956181102362
20
-5.6159385039370076
11
4.0377075590551179
21
-5.6159385039370076
0
LINE
8
BLACK
6
CONTINUOUS
10
4.0864514960629919
20
-5.5634450393700785
11
4.1164477165354327
21
-5.5634450393700785
0
LINE
8
BLACK
6
CONTINUOUS
10
4.0977000787401572
20
-5.5371983464566927
11
4.0977000787401572
21
-5.6046898818897635
0
LINE
8
BLACK
6
CONTINUOUS
10
4.0977000787401572
20
-5.6046898818897635
11
4.1014496062992123
21
-5.6121889763779524
0
LINE
8
BLACK
6
CONTINUOUS
10
4.1014496062992123
20
-5.6121889763779524
11
4.1089486614173225
21
-5.6159385039370076
0
LINE
8
BLACK
6
CONTINUOUS
10
4.1089486614173225
20
-5.6159385039370076
11
4.1164477165354327
21
-5.6159385039370076
0
LINE
8
BLACK
6
CONTINUOUS
10
4.2026869685039365
20
-5.5634450393700785
11
4.2026869685039365
21
-5.6421851968503933
0
LINE
8
BLACK
6
CONTINUOUS
10
4.2026869685039365
20
-5.5671945669291336
11
4.2101860236220467
21
-5.5634450393700785
0
LINE
8
BLACK
6
CONTINUOUS
10
4.2101860236220467
20
-5.5634450393700785
11
4.2251841732283459
21
-5.5634450393700785
0
LINE
8
BLACK
6
CONTINUOUS
10
4.2251841732283459
20
-5.5634450393700785
11
4.2326832283464562
21
-5.5671945669291336
0
LINE
8
BLACK
6
CONTINUOUS
10
4.2326832283464562
20
-5.5671945669291336
11
4.2364327559055113
21
-5.5709440944881887
0
LINE
8
BLACK
6
CONTINUOUS
10
4.2364327559055113
20
-5.5709440944881887
11
4.2401822834645673
21
-5.5784431889763777
0
LINE
8
BLACK
6
CONTINUOUS
10
4.2401822834645673
20
-5.5784431889763777
11
4.2401822834645673
21
-5.6009403543307084
0
LINE
8
BLACK
6
CONTINUOUS
10
4.2401822834645673
20
-5.6009403543307084
11
4.2364327559055113
21
-5.6084394094488186
0
LINE
8
BLACK
6
CONTINUOUS
10
4.2364327559055113
20
-5.6084394094488186
11
4.2326832283464562
21
-5.6121889763779524
0
LINE
8
BLACK
6
CONTINUOUS
10
4.2326832283464562
20
-5.6121889763779524
11
4.2251841732283459
21
-5.6159385039370076
0
LINE
8
BLACK
6
CONTINUOUS
10
4.2251841732283459
20
-5.6159385039370076
11
4.2101860236220467
21
-5.6159385039370076
0
LINE
8
BLACK
6
CONTINUOUS
10
4.2101860236220467
20
-5.6159385039370076
11
4.2026869685039365
21
-5.6121889763779524
0
LINE
8
BLACK
6
CONTINUOUS
10
4.2851766535433073
20
-5.6159385039370076
11
4.2776775984251971
21
-5.6121889763779524
0
LINE
8
BLACK
6
CONTINUOUS
10
4.2776775984251971
20
-5.6121889763779524
11
4.273928070866142
21
-5.6046898818897635
0
LINE
8
BLACK
6
CONTINUOUS
10
4.273928070866142
20
-5.6046898818897635
11
4.273928070866142
21
-5.5371983464566927
0
LINE
8
BLACK
6
CONTINUOUS
10
4.3489187007874017
20
-5.6159385039370076
11
4.3489187007874017
21
-5.5746936614173226
0
LINE
8
BLACK
6
CONTINUOUS
10
4.3489187007874017
20
-5.5746936614173226
11
4.3451691732283466
21
-5.5671945669291336
0
LINE
8
BLACK
6
CONTINUOUS
10
4.3451691732283466
20
-5.5671945669291336
11
4.3376701181102364
21
-5.5634450393700785
0
LINE
8
BLACK
6
CONTINUOUS
10
4.3376701181102364
20
-5.5634450393700785
11
4.3226719685039372
21
-5.5634450393700785
0
LINE
8
BLACK
6
CONTINUOUS
10
4.3226719685039372
20
-5.5634450393700785
11
4.315172913385827
21
-5.5671945669291336
0
LINE
8
BLACK
6
CONTINUOUS
10
4.3489187007874017
20
-5.6121889763779524
11
4.3414196456692915
21
-5.6159385039370076
0
LINE
8
BLACK
6
CONTINUOUS
10
4.3414196456692915
20
-5.6159385039370076
11
4.3226719685039372
21
-5.6159385039370076
0
LINE
8
BLACK
6
CONTINUOUS
10
4.3226719685039372
20
-5.6159385039370076
11
4.315172913385827
21
-5.6121889763779524
0
LINE
8
BLACK
6
CONTINUOUS
10
4.315172913385827
20
-5.6121889763779524
11
4.3114233858267719
21
-5.6046898818897635
0
LINE
8
BLACK
6
CONTINUOUS
10
4.3114233858267719
20
-5.6046898818897635
11
4.3114233858267719
21
-5.5971908267716532
0
LINE
8
BLACK
6
CONTINUOUS
10
4.3114233858267719
20
-5.5971908267716532
11
4.315172913385827
21
-5.589691771653543
0
LINE
8
BLACK
6
CONTINUOUS
10
4.315172913385827
20
-5.589691771653543
11
4.3226719685039372
21
-5.5859422440944879
0
LINE
8
BLACK
6
CONTINUOUS
10
4.3226719685039372
20
-5.5859422440944879
11
4.3414196456692915
21
-5.5859422440944879
0
LINE
8
BLACK
6
CONTINUOUS
10
4.3414196456692915
20
-5.5859422440944879
11
4.3489187007874017
21
-5.5821927165354328
0
LINE
8
BLACK
6
CONTINUOUS
10
4.3751654330708662
20
-5.5634450393700785
11
4.4051616535433071
21
-5.5634450393700785
0
LINE
8
BLACK
6
CONTINUOUS
10
4.3864140157480316
20
-5.5371983464566927
11
4.3864140157480316
21
-5.6046898818897635
0
LINE
8
BLACK
6
CONTINUOUS
10
4.3864140157480316
20
-5.6046898818897635
11
4.3901635433070867
21
-5.6121889763779524
0
LINE
8
BLACK
6
CONTINUOUS
10
4.3901635433070867
20
-5.6121889763779524
11
4.3976625984251969
21
-5.6159385039370076
0
LINE
8
BLACK
6
CONTINUOUS
10
4.3976625984251969
20
-5.6159385039370076
11
4.4051616535433071
21
-5.6159385039370076
0
LINE
8
BLACK
6
CONTINUOUS
10
4.4614046456692913
20
-5.6121889763779524
11
4.4539055905511811
21
-5.6159385039370076
0
LINE
8
BLACK
6
CONTINUOUS
10
4.4539055905511811
20
-5.6159385039370076
11
4.4389074409448819
21
-5.6159385039370076
0
LINE
8
BLACK
6
CONTINUOUS
10
4.4389074409448819
20
-5.6159385039370076
11
4.4314083858267717
21
-5.6121889763779524
0
LINE
8
BLACK
6
CONTINUOUS
10
4.4314083858267717
20
-5.6121889763779524
11
4.4276588582677165
21
-5.6046898818897635
0
LINE
8
BLACK
6
CONTINUOUS
10
4.4276588582677165
20
-5.6046898818897635
11
4.4276588582677165
21
-5.5746936614173226
0
LINE
8
BLACK
6
CONTINUOUS
10
4.4276588582677165
20
-5.5746936614173226
11
4.4314083858267717
21
-5.5671945669291336
0
LINE
8
BLACK
6
CONTINUOUS
10
4.4314083858267717
20
-5.5671945669291336
11
4.4389074409448819
21
-5.5634450393700785
0
LINE
8
BLACK
6
CONTINUOUS
10
4.4389074409448819
20
-5.5634450393700785
11
4.4539055905511811
21
-5.5634450393700785
0
LINE
8
BLACK
6
CONTINUOUS
10
4.4539055905511811
20
-5.5634450393700785
11
4.4614046456692913
21
-5.5671945669291336
0
LINE
8
BLACK
6
CONTINUOUS
10
4.4614046456692913
20
-5.5671945669291336
11
4.4651541732283464
21
-5.5746936614173226
0
LINE
8
BLACK
6
CONTINUOUS
10
4.4651541732283464
20
-5.5746936614173226
11
4.4651541732283464
21
-5.5821927165354328
0
LINE
8
BLACK
6
CONTINUOUS
10
4.4651541732283464
20
-5.5821927165354328
11
4.4276588582677165
21
-5.589691771653543
0
LINE
8
BLACK
6
CONTINUOUS
10
4.5326457480314959
20
-5.6159385039370076
11
4.5326457480314959
21
-5.5371983464566927
0
LINE
8
BLACK
6
CONTINUOUS
10
4.5326457480314959
20
-5.6121889763779524
11
4.5251466929133857
21
-5.6159385039370076
0
LINE
8
BLACK
6
CONTINUOUS
10
4.5251466929133857
20
-5.6159385039370076
11
4.5101485433070865
21
-5.6159385039370076
0
LINE
8
BLACK
6
CONTINUOUS
10
4.5101485433070865
20
-5.6159385039370076
11
4.5026494881889763
21
-5.6121889763779524
0
LINE
8
BLACK
6
CONTINUOUS
10
4.5026494881889763
20
-5.6121889763779524
11
4.4988999606299211
21
-5.6084394094488186
0
LINE
8
BLACK
6
CONTINUOUS
10
4.4988999606299211
20
-5.6084394094488186
11
4.495150433070866
21
-5.6009403543307084
0
LINE
8
BLACK
6
CONTINUOUS
10
4.495150433070866
20
-5.6009403543307084
11
4.495150433070866
21
-5.5784431889763777
0
LINE
8
BLACK
6
CONTINUOUS
10
4.495150433070866
20
-5.5784431889763777
11
4.4988999606299211
21
-5.5709440944881887
0
LINE
8
BLACK
6
CONTINUOUS
10
4.4988999606299211
20
-5.5709440944881887
11
4.5026494881889763
21
-5.5671945669291336
0
LINE
8
BLACK
6
CONTINUOUS
10
4.5026494881889763
20
-5.5671945669291336
11
4.5101485433070865
21
-5.5634450393700785
0
LINE
8
BLACK
6
CONTINUOUS
10
4.5101485433070865
20
-5.5634450393700785
11
4.5251466929133857
21
-5.5634450393700785
0
LINE
8
BLACK
6
CONTINUOUS
10
4.5251466929133857
20
-5.5634450393700785
11
4.5326457480314959
21
-5.5671945669291336
0
LINE
8
BLACK
6
CONTINUOUS
10
4.5626420078740155
20
-5.6459347244094484
11
4.5663915354330706
21
-5.6421851968503933
0
LINE
8
BLACK
6
CONTINUOUS
10
4.5663915354330706
20
-5.6421851968503933
11
4.5738905905511809
21
-5.630936614173228
0
LINE
8
BLACK
6
CONTINUOUS
10
4.5738905905511809
20
-5.630936614173228
11
4.577640118110236
21
-5.6234375590551178
0
LINE
8
BLACK
6
CONTINUOUS
10
4.577640118110236
20
-5.6234375590551178
11
4.5813896456692911
21
-5.6121889763779524
0
LINE
8
BLACK
6
CONTINUOUS
10
4.5813896456692911
20
-5.6121889763779524
11
4.5851391732283462
21
-5.5934412992125981
0
LINE
8
BLACK
6
CONTINUOUS
10
4.5851391732283462
20
-5.5934412992125981
11
4.5851391732283462
21
-5.5784431889763777
0
LINE
8
BLACK
6
CONTINUOUS
10
4.5851391732283462
20
-5.5784431889763777
11
4.5813896456692911
21
-5.5596955118110234
0
LINE
8
BLACK
6
CONTINUOUS
10
4.5813896456692911
20
-5.5596955118110234
11
4.577640118110236
21
-5.5484469291338581
0
LINE
8
BLACK
6
CONTINUOUS
10
4.577640118110236
20
-5.5484469291338581
11
4.5738905905511809
21
-5.5409478740157478
0
LINE
8
BLACK
6
CONTINUOUS
10
4.5738905905511809
20
-5.5409478740157478
11
4.5663915354330706
21
-5.5296992519685038
0
LINE
8
BLACK
6
CONTINUOUS
10
4.5663915354330706
20
-5.5296992519685038
11
4.5626420078740155
21
-5.5259497244094486
  0
ENDSEC
  0
EOF
