<?xml version="1.0" standalone="no"?>
 <!DOCTYPE svg PUBLIC "-//W3C//DTD SVG 1.1//EN" 
 "http://www.w3.org/Graphics/SVG/1.1/DTD/svg11.dtd"> 
<svg
  xmlns:svg="http://www.w3.org/2000/svg"
  xmlns="http://www.w3.org/2000/svg"
  xmlns:xlink="http://www.w3.org/1999/xlink"
  version="1.1"
  width="297.0022mm" height="210.0072mm" viewBox="0.0000 0.0000 297.0022 210.0072">
<title>SVG Image created as Game_Cat_R4-NPTH-drl_map.svg date 2024/06/08 10:35:02 </title>
  <desc>Image generated by PCBNEW </desc>
<g style="fill:#000000; fill-opacity:1.0000;stroke:#000000; stroke-opacity:1.0000;
stroke-linecap:round; stroke-linejoin:round;"
 transform="translate(0 0) scale(1 1)">
</g>
<g style="fill:none; 
stroke:#000000; stroke-width:0.1730; stroke-opacity:1; 
stroke-linecap:round; stroke-linejoin:round;">
<path d="M61.9920 11.0967
L235.0102 11.0967
" />
<path d="M61.9920 114.9076
L235.0102 114.9076
" />
<path d="M61.9920 11.0967 A51.9055 51.9055 0.0 0 0 61.9920 114.9076" />
<circle cx="235.0102" cy="15.4221" r="2.5953" /> 
<circle cx="61.9920" cy="15.4221" r="2.5953" /> 
<circle cx="61.9920" cy="110.5822" r="2.5953" /> 
<circle cx="235.0102" cy="110.5822" r="2.5953" /> 
<path d="M235.0102 114.9076 A51.9055 51.9055 0.0 0 0 235.0102 11.0967" />
</g>
<g style="fill:none; 
stroke:#000000; stroke-width:0.1730; stroke-opacity:1; 
stroke-linecap:round; stroke-linejoin:round;">
<path d="M191.8024 19.7372
L192.9270 20.8618
" />
<path d="M192.9270 19.7372
L191.8024 20.8618
" />
<path d="M201.8028 19.7372
L202.9274 20.8618
" />
<path d="M202.9274 19.7372
L201.8028 20.8618
" />
<circle cx="249.0879" cy="17.2355" r="0.7786" /> 
<circle cx="253.9654" cy="19.0108" r="0.7786" /> 
</g>
<g style="fill:none; 
stroke:#000000; stroke-width:0.6592; stroke-opacity:1; 
stroke-linecap:round; stroke-linejoin:round;">
<path d="M61.9920 59.7062
L61.9920 66.2982
" />
<path d="M58.6960 63.0022
L65.2880 63.0022
" />
</g>
<g style="fill:none; 
stroke:#000000; stroke-width:0.2000; stroke-opacity:1; 
stroke-linecap:round; stroke-linejoin:round;">
<text x="12.0000" y="118.1941"
textLength="14.8667" font-size="2.6667" lengthAdjust="spacingAndGlyphs"
text-anchor="start" opacity="0">Drill Map:</text>
<g class="stroked-text"><desc>Drill Map:</desc>
<path d="M12.6078 118.1090
L12.6078 116.1090
" />
<path d="M12.6078 116.1090
L13.0840 116.1090
" />
<path d="M13.0840 116.1090
L13.3697 116.2042
" />
<path d="M13.3697 116.2042
L13.5601 116.3947
" />
<path d="M13.5601 116.3947
L13.6554 116.5852
" />
<path d="M13.6554 116.5852
L13.7506 116.9661
" />
<path d="M13.7506 116.9661
L13.7506 117.2518
" />
<path d="M13.7506 117.2518
L13.6554 117.6328
" />
<path d="M13.6554 117.6328
L13.5601 117.8233
" />
<path d="M13.5601 117.8233
L13.3697 118.0137
" />
<path d="M13.3697 118.0137
L13.0840 118.1090
" />
<path d="M13.0840 118.1090
L12.6078 118.1090
" />
<path d="M14.6078 118.1090
L14.6078 116.7756
" />
<path d="M14.6078 117.1566
L14.7030 116.9661
" />
<path d="M14.7030 116.9661
L14.7982 116.8709
" />
<path d="M14.7982 116.8709
L14.9887 116.7756
" />
<path d="M14.9887 116.7756
L15.1792 116.7756
" />
<path d="M15.8459 118.1090
L15.8459 116.7756
" />
<path d="M15.8459 116.1090
L15.7506 116.2042
" />
<path d="M15.7506 116.2042
L15.8459 116.2995
" />
<path d="M15.8459 116.2995
L15.9411 116.2042
" />
<path d="M15.9411 116.2042
L15.8459 116.1090
" />
<path d="M15.8459 116.1090
L15.8459 116.2995
" />
<path d="M17.0840 118.1090
L16.8935 118.0137
" />
<path d="M16.8935 118.0137
L16.7982 117.8233
" />
<path d="M16.7982 117.8233
L16.7982 116.1090
" />
<path d="M18.1316 118.1090
L17.9411 118.0137
" />
<path d="M17.9411 118.0137
L17.8459 117.8233
" />
<path d="M17.8459 117.8233
L17.8459 116.1090
" />
<path d="M20.4173 118.1090
L20.4173 116.1090
" />
<path d="M20.4173 116.1090
L21.0840 117.5376
" />
<path d="M21.0840 117.5376
L21.7506 116.1090
" />
<path d="M21.7506 116.1090
L21.7506 118.1090
" />
<path d="M23.5601 118.1090
L23.5601 117.0614
" />
<path d="M23.5601 117.0614
L23.4649 116.8709
" />
<path d="M23.4649 116.8709
L23.2744 116.7756
" />
<path d="M23.2744 116.7756
L22.8935 116.7756
" />
<path d="M22.8935 116.7756
L22.7030 116.8709
" />
<path d="M23.5601 118.0137
L23.3697 118.1090
" />
<path d="M23.3697 118.1090
L22.8935 118.1090
" />
<path d="M22.8935 118.1090
L22.7030 118.0137
" />
<path d="M22.7030 118.0137
L22.6078 117.8233
" />
<path d="M22.6078 117.8233
L22.6078 117.6328
" />
<path d="M22.6078 117.6328
L22.7030 117.4423
" />
<path d="M22.7030 117.4423
L22.8935 117.3471
" />
<path d="M22.8935 117.3471
L23.3697 117.3471
" />
<path d="M23.3697 117.3471
L23.5601 117.2518
" />
<path d="M24.5125 116.7756
L24.5125 118.7756
" />
<path d="M24.5125 116.8709
L24.7030 116.7756
" />
<path d="M24.7030 116.7756
L25.0840 116.7756
" />
<path d="M25.0840 116.7756
L25.2744 116.8709
" />
<path d="M25.2744 116.8709
L25.3697 116.9661
" />
<path d="M25.3697 116.9661
L25.4649 117.1566
" />
<path d="M25.4649 117.1566
L25.4649 117.7280
" />
<path d="M25.4649 117.7280
L25.3697 117.9185
" />
<path d="M25.3697 117.9185
L25.2744 118.0137
" />
<path d="M25.2744 118.0137
L25.0840 118.1090
" />
<path d="M25.0840 118.1090
L24.7030 118.1090
" />
<path d="M24.7030 118.1090
L24.5125 118.0137
" />
<path d="M26.3220 117.9185
L26.4173 118.0137
" />
<path d="M26.4173 118.0137
L26.3220 118.1090
" />
<path d="M26.3220 118.1090
L26.2268 118.0137
" />
<path d="M26.2268 118.0137
L26.3220 117.9185
" />
<path d="M26.3220 117.9185
L26.3220 118.1090
" />
<path d="M26.3220 116.8709
L26.4173 116.9661
" />
<path d="M26.4173 116.9661
L26.3220 117.0614
" />
<path d="M26.3220 117.0614
L26.2268 116.9661
" />
<path d="M26.2268 116.9661
L26.3220 116.8709
" />
<path d="M26.3220 116.8709
L26.3220 117.0614
" />
</g></g>
<g style="fill:none; 
stroke:#000000; stroke-width:0.1730; stroke-opacity:1; 
stroke-linecap:round; stroke-linejoin:round;">
<path d="M8.8754 120.8318
L10.0000 121.9564
" />
<path d="M10.0000 120.8318
L8.8754 121.9564
" />
</g>
<g style="fill:none; 
stroke:#000000; stroke-width:0.2000; stroke-opacity:1; 
stroke-linecap:round; stroke-linejoin:round;">
<text x="12.0000" y="122.3941"
textLength="66.6762" font-size="2.6667" lengthAdjust="spacingAndGlyphs"
text-anchor="start" opacity="0">0.650mm / 0.0256" (2 holes) (not plated)</text>
<g class="stroked-text"><desc>0.650mm / 0.0256" (2 holes) (not plated)</desc>
<path d="M12.9887 120.3090
L13.1792 120.3090
" />
<path d="M13.1792 120.3090
L13.3697 120.4042
" />
<path d="M13.3697 120.4042
L13.4649 120.4995
" />
<path d="M13.4649 120.4995
L13.5601 120.6899
" />
<path d="M13.5601 120.6899
L13.6554 121.0709
" />
<path d="M13.6554 121.0709
L13.6554 121.5471
" />
<path d="M13.6554 121.5471
L13.5601 121.9280
" />
<path d="M13.5601 121.9280
L13.4649 122.1185
" />
<path d="M13.4649 122.1185
L13.3697 122.2137
" />
<path d="M13.3697 122.2137
L13.1792 122.3090
" />
<path d="M13.1792 122.3090
L12.9887 122.3090
" />
<path d="M12.9887 122.3090
L12.7982 122.2137
" />
<path d="M12.7982 122.2137
L12.7030 122.1185
" />
<path d="M12.7030 122.1185
L12.6078 121.9280
" />
<path d="M12.6078 121.9280
L12.5125 121.5471
" />
<path d="M12.5125 121.5471
L12.5125 121.0709
" />
<path d="M12.5125 121.0709
L12.6078 120.6899
" />
<path d="M12.6078 120.6899
L12.7030 120.4995
" />
<path d="M12.7030 120.4995
L12.7982 120.4042
" />
<path d="M12.7982 120.4042
L12.9887 120.3090
" />
<path d="M14.5125 122.1185
L14.6078 122.2137
" />
<path d="M14.6078 122.2137
L14.5125 122.3090
" />
<path d="M14.5125 122.3090
L14.4173 122.2137
" />
<path d="M14.4173 122.2137
L14.5125 122.1185
" />
<path d="M14.5125 122.1185
L14.5125 122.3090
" />
<path d="M16.3221 120.3090
L15.9411 120.3090
" />
<path d="M15.9411 120.3090
L15.7506 120.4042
" />
<path d="M15.7506 120.4042
L15.6554 120.4995
" />
<path d="M15.6554 120.4995
L15.4649 120.7852
" />
<path d="M15.4649 120.7852
L15.3697 121.1661
" />
<path d="M15.3697 121.1661
L15.3697 121.9280
" />
<path d="M15.3697 121.9280
L15.4649 122.1185
" />
<path d="M15.4649 122.1185
L15.5601 122.2137
" />
<path d="M15.5601 122.2137
L15.7506 122.3090
" />
<path d="M15.7506 122.3090
L16.1316 122.3090
" />
<path d="M16.1316 122.3090
L16.3221 122.2137
" />
<path d="M16.3221 122.2137
L16.4173 122.1185
" />
<path d="M16.4173 122.1185
L16.5125 121.9280
" />
<path d="M16.5125 121.9280
L16.5125 121.4518
" />
<path d="M16.5125 121.4518
L16.4173 121.2614
" />
<path d="M16.4173 121.2614
L16.3221 121.1661
" />
<path d="M16.3221 121.1661
L16.1316 121.0709
" />
<path d="M16.1316 121.0709
L15.7506 121.0709
" />
<path d="M15.7506 121.0709
L15.5601 121.1661
" />
<path d="M15.5601 121.1661
L15.4649 121.2614
" />
<path d="M15.4649 121.2614
L15.3697 121.4518
" />
<path d="M18.3221 120.3090
L17.3697 120.3090
" />
<path d="M17.3697 120.3090
L17.2744 121.2614
" />
<path d="M17.2744 121.2614
L17.3697 121.1661
" />
<path d="M17.3697 121.1661
L17.5601 121.0709
" />
<path d="M17.5601 121.0709
L18.0363 121.0709
" />
<path d="M18.0363 121.0709
L18.2268 121.1661
" />
<path d="M18.2268 121.1661
L18.3221 121.2614
" />
<path d="M18.3221 121.2614
L18.4173 121.4518
" />
<path d="M18.4173 121.4518
L18.4173 121.9280
" />
<path d="M18.4173 121.9280
L18.3221 122.1185
" />
<path d="M18.3221 122.1185
L18.2268 122.2137
" />
<path d="M18.2268 122.2137
L18.0363 122.3090
" />
<path d="M18.0363 122.3090
L17.5601 122.3090
" />
<path d="M17.5601 122.3090
L17.3697 122.2137
" />
<path d="M17.3697 122.2137
L17.2744 122.1185
" />
<path d="M19.6554 120.3090
L19.8459 120.3090
" />
<path d="M19.8459 120.3090
L20.0363 120.4042
" />
<path d="M20.0363 120.4042
L20.1316 120.4995
" />
<path d="M20.1316 120.4995
L20.2268 120.6899
" />
<path d="M20.2268 120.6899
L20.3220 121.0709
" />
<path d="M20.3220 121.0709
L20.3220 121.5471
" />
<path d="M20.3220 121.5471
L20.2268 121.9280
" />
<path d="M20.2268 121.9280
L20.1316 122.1185
" />
<path d="M20.1316 122.1185
L20.0363 122.2137
" />
<path d="M20.0363 122.2137
L19.8459 122.3090
" />
<path d="M19.8459 122.3090
L19.6554 122.3090
" />
<path d="M19.6554 122.3090
L19.4649 122.2137
" />
<path d="M19.4649 122.2137
L19.3697 122.1185
" />
<path d="M19.3697 122.1185
L19.2744 121.9280
" />
<path d="M19.2744 121.9280
L19.1792 121.5471
" />
<path d="M19.1792 121.5471
L19.1792 121.0709
" />
<path d="M19.1792 121.0709
L19.2744 120.6899
" />
<path d="M19.2744 120.6899
L19.3697 120.4995
" />
<path d="M19.3697 120.4995
L19.4649 120.4042
" />
<path d="M19.4649 120.4042
L19.6554 120.3090
" />
<path d="M21.1792 122.3090
L21.1792 120.9756
" />
<path d="M21.1792 121.1661
L21.2744 121.0709
" />
<path d="M21.2744 121.0709
L21.4649 120.9756
" />
<path d="M21.4649 120.9756
L21.7506 120.9756
" />
<path d="M21.7506 120.9756
L21.9411 121.0709
" />
<path d="M21.9411 121.0709
L22.0363 121.2614
" />
<path d="M22.0363 121.2614
L22.0363 122.3090
" />
<path d="M22.0363 121.2614
L22.1316 121.0709
" />
<path d="M22.1316 121.0709
L22.3220 120.9756
" />
<path d="M22.3220 120.9756
L22.6078 120.9756
" />
<path d="M22.6078 120.9756
L22.7982 121.0709
" />
<path d="M22.7982 121.0709
L22.8935 121.2614
" />
<path d="M22.8935 121.2614
L22.8935 122.3090
" />
<path d="M23.8459 122.3090
L23.8459 120.9756
" />
<path d="M23.8459 121.1661
L23.9411 121.0709
" />
<path d="M23.9411 121.0709
L24.1316 120.9756
" />
<path d="M24.1316 120.9756
L24.4173 120.9756
" />
<path d="M24.4173 120.9756
L24.6078 121.0709
" />
<path d="M24.6078 121.0709
L24.7030 121.2614
" />
<path d="M24.7030 121.2614
L24.7030 122.3090
" />
<path d="M24.7030 121.2614
L24.7982 121.0709
" />
<path d="M24.7982 121.0709
L24.9887 120.9756
" />
<path d="M24.9887 120.9756
L25.2744 120.9756
" />
<path d="M25.2744 120.9756
L25.4649 121.0709
" />
<path d="M25.4649 121.0709
L25.5601 121.2614
" />
<path d="M25.5601 121.2614
L25.5601 122.3090
" />
<path d="M29.4649 120.2137
L27.7506 122.7852
" />
<path d="M32.0363 120.3090
L32.2268 120.3090
" />
<path d="M32.2268 120.3090
L32.4173 120.4042
" />
<path d="M32.4173 120.4042
L32.5125 120.4995
" />
<path d="M32.5125 120.4995
L32.6078 120.6899
" />
<path d="M32.6078 120.6899
L32.7030 121.0709
" />
<path d="M32.7030 121.0709
L32.7030 121.5471
" />
<path d="M32.7030 121.5471
L32.6078 121.9280
" />
<path d="M32.6078 121.9280
L32.5125 122.1185
" />
<path d="M32.5125 122.1185
L32.4173 122.2137
" />
<path d="M32.4173 122.2137
L32.2268 122.3090
" />
<path d="M32.2268 122.3090
L32.0363 122.3090
" />
<path d="M32.0363 122.3090
L31.8459 122.2137
" />
<path d="M31.8459 122.2137
L31.7506 122.1185
" />
<path d="M31.7506 122.1185
L31.6554 121.9280
" />
<path d="M31.6554 121.9280
L31.5601 121.5471
" />
<path d="M31.5601 121.5471
L31.5601 121.0709
" />
<path d="M31.5601 121.0709
L31.6554 120.6899
" />
<path d="M31.6554 120.6899
L31.7506 120.4995
" />
<path d="M31.7506 120.4995
L31.8459 120.4042
" />
<path d="M31.8459 120.4042
L32.0363 120.3090
" />
<path d="M33.5601 122.1185
L33.6554 122.2137
" />
<path d="M33.6554 122.2137
L33.5601 122.3090
" />
<path d="M33.5601 122.3090
L33.4649 122.2137
" />
<path d="M33.4649 122.2137
L33.5601 122.1185
" />
<path d="M33.5601 122.1185
L33.5601 122.3090
" />
<path d="M34.8935 120.3090
L35.0840 120.3090
" />
<path d="M35.0840 120.3090
L35.2744 120.4042
" />
<path d="M35.2744 120.4042
L35.3697 120.4995
" />
<path d="M35.3697 120.4995
L35.4649 120.6899
" />
<path d="M35.4649 120.6899
L35.5601 121.0709
" />
<path d="M35.5601 121.0709
L35.5601 121.5471
" />
<path d="M35.5601 121.5471
L35.4649 121.9280
" />
<path d="M35.4649 121.9280
L35.3697 122.1185
" />
<path d="M35.3697 122.1185
L35.2744 122.2137
" />
<path d="M35.2744 122.2137
L35.0840 122.3090
" />
<path d="M35.0840 122.3090
L34.8935 122.3090
" />
<path d="M34.8935 122.3090
L34.7030 122.2137
" />
<path d="M34.7030 122.2137
L34.6078 122.1185
" />
<path d="M34.6078 122.1185
L34.5125 121.9280
" />
<path d="M34.5125 121.9280
L34.4173 121.5471
" />
<path d="M34.4173 121.5471
L34.4173 121.0709
" />
<path d="M34.4173 121.0709
L34.5125 120.6899
" />
<path d="M34.5125 120.6899
L34.6078 120.4995
" />
<path d="M34.6078 120.4995
L34.7030 120.4042
" />
<path d="M34.7030 120.4042
L34.8935 120.3090
" />
<path d="M36.3220 120.4995
L36.4173 120.4042
" />
<path d="M36.4173 120.4042
L36.6078 120.3090
" />
<path d="M36.6078 120.3090
L37.0840 120.3090
" />
<path d="M37.0840 120.3090
L37.2744 120.4042
" />
<path d="M37.2744 120.4042
L37.3697 120.4995
" />
<path d="M37.3697 120.4995
L37.4649 120.6899
" />
<path d="M37.4649 120.6899
L37.4649 120.8804
" />
<path d="M37.4649 120.8804
L37.3697 121.1661
" />
<path d="M37.3697 121.1661
L36.2268 122.3090
" />
<path d="M36.2268 122.3090
L37.4649 122.3090
" />
<path d="M39.2744 120.3090
L38.3220 120.3090
" />
<path d="M38.3220 120.3090
L38.2268 121.2614
" />
<path d="M38.2268 121.2614
L38.3220 121.1661
" />
<path d="M38.3220 121.1661
L38.5125 121.0709
" />
<path d="M38.5125 121.0709
L38.9887 121.0709
" />
<path d="M38.9887 121.0709
L39.1792 121.1661
" />
<path d="M39.1792 121.1661
L39.2744 121.2614
" />
<path d="M39.2744 121.2614
L39.3697 121.4518
" />
<path d="M39.3697 121.4518
L39.3697 121.9280
" />
<path d="M39.3697 121.9280
L39.2744 122.1185
" />
<path d="M39.2744 122.1185
L39.1792 122.2137
" />
<path d="M39.1792 122.2137
L38.9887 122.3090
" />
<path d="M38.9887 122.3090
L38.5125 122.3090
" />
<path d="M38.5125 122.3090
L38.3220 122.2137
" />
<path d="M38.3220 122.2137
L38.2268 122.1185
" />
<path d="M41.0839 120.3090
L40.7030 120.3090
" />
<path d="M40.7030 120.3090
L40.5125 120.4042
" />
<path d="M40.5125 120.4042
L40.4173 120.4995
" />
<path d="M40.4173 120.4995
L40.2268 120.7852
" />
<path d="M40.2268 120.7852
L40.1316 121.1661
" />
<path d="M40.1316 121.1661
L40.1316 121.9280
" />
<path d="M40.1316 121.9280
L40.2268 122.1185
" />
<path d="M40.2268 122.1185
L40.3220 122.2137
" />
<path d="M40.3220 122.2137
L40.5125 122.3090
" />
<path d="M40.5125 122.3090
L40.8935 122.3090
" />
<path d="M40.8935 122.3090
L41.0839 122.2137
" />
<path d="M41.0839 122.2137
L41.1792 122.1185
" />
<path d="M41.1792 122.1185
L41.2744 121.9280
" />
<path d="M41.2744 121.9280
L41.2744 121.4518
" />
<path d="M41.2744 121.4518
L41.1792 121.2614
" />
<path d="M41.1792 121.2614
L41.0839 121.1661
" />
<path d="M41.0839 121.1661
L40.8935 121.0709
" />
<path d="M40.8935 121.0709
L40.5125 121.0709
" />
<path d="M40.5125 121.0709
L40.3220 121.1661
" />
<path d="M40.3220 121.1661
L40.2268 121.2614
" />
<path d="M40.2268 121.2614
L40.1316 121.4518
" />
<path d="M42.0363 120.3090
L42.0363 120.6899
" />
<path d="M42.7982 120.3090
L42.7982 120.6899
" />
<path d="M45.7506 123.0709
L45.6554 122.9756
" />
<path d="M45.6554 122.9756
L45.4649 122.6899
" />
<path d="M45.4649 122.6899
L45.3697 122.4995
" />
<path d="M45.3697 122.4995
L45.2744 122.2137
" />
<path d="M45.2744 122.2137
L45.1792 121.7375
" />
<path d="M45.1792 121.7375
L45.1792 121.3566
" />
<path d="M45.1792 121.3566
L45.2744 120.8804
" />
<path d="M45.2744 120.8804
L45.3697 120.5947
" />
<path d="M45.3697 120.5947
L45.4649 120.4042
" />
<path d="M45.4649 120.4042
L45.6554 120.1185
" />
<path d="M45.6554 120.1185
L45.7506 120.0233
" />
<path d="M46.4173 120.4995
L46.5125 120.4042
" />
<path d="M46.5125 120.4042
L46.7030 120.3090
" />
<path d="M46.7030 120.3090
L47.1792 120.3090
" />
<path d="M47.1792 120.3090
L47.3697 120.4042
" />
<path d="M47.3697 120.4042
L47.4649 120.4995
" />
<path d="M47.4649 120.4995
L47.5601 120.6899
" />
<path d="M47.5601 120.6899
L47.5601 120.8804
" />
<path d="M47.5601 120.8804
L47.4649 121.1661
" />
<path d="M47.4649 121.1661
L46.3220 122.3090
" />
<path d="M46.3220 122.3090
L47.5601 122.3090
" />
<path d="M49.9411 122.3090
L49.9411 120.3090
" />
<path d="M50.7982 122.3090
L50.7982 121.2614
" />
<path d="M50.7982 121.2614
L50.7030 121.0709
" />
<path d="M50.7030 121.0709
L50.5125 120.9756
" />
<path d="M50.5125 120.9756
L50.2268 120.9756
" />
<path d="M50.2268 120.9756
L50.0363 121.0709
" />
<path d="M50.0363 121.0709
L49.9411 121.1661
" />
<path d="M52.0363 122.3090
L51.8459 122.2137
" />
<path d="M51.8459 122.2137
L51.7506 122.1185
" />
<path d="M51.7506 122.1185
L51.6554 121.9280
" />
<path d="M51.6554 121.9280
L51.6554 121.3566
" />
<path d="M51.6554 121.3566
L51.7506 121.1661
" />
<path d="M51.7506 121.1661
L51.8459 121.0709
" />
<path d="M51.8459 121.0709
L52.0363 120.9756
" />
<path d="M52.0363 120.9756
L52.3220 120.9756
" />
<path d="M52.3220 120.9756
L52.5125 121.0709
" />
<path d="M52.5125 121.0709
L52.6078 121.1661
" />
<path d="M52.6078 121.1661
L52.7030 121.3566
" />
<path d="M52.7030 121.3566
L52.7030 121.9280
" />
<path d="M52.7030 121.9280
L52.6078 122.1185
" />
<path d="M52.6078 122.1185
L52.5125 122.2137
" />
<path d="M52.5125 122.2137
L52.3220 122.3090
" />
<path d="M52.3220 122.3090
L52.0363 122.3090
" />
<path d="M53.8459 122.3090
L53.6554 122.2137
" />
<path d="M53.6554 122.2137
L53.5601 122.0233
" />
<path d="M53.5601 122.0233
L53.5601 120.3090
" />
<path d="M55.3697 122.2137
L55.1792 122.3090
" />
<path d="M55.1792 122.3090
L54.7982 122.3090
" />
<path d="M54.7982 122.3090
L54.6078 122.2137
" />
<path d="M54.6078 122.2137
L54.5125 122.0233
" />
<path d="M54.5125 122.0233
L54.5125 121.2614
" />
<path d="M54.5125 121.2614
L54.6078 121.0709
" />
<path d="M54.6078 121.0709
L54.7982 120.9756
" />
<path d="M54.7982 120.9756
L55.1792 120.9756
" />
<path d="M55.1792 120.9756
L55.3697 121.0709
" />
<path d="M55.3697 121.0709
L55.4649 121.2614
" />
<path d="M55.4649 121.2614
L55.4649 121.4518
" />
<path d="M55.4649 121.4518
L54.5125 121.6423
" />
<path d="M56.2268 122.2137
L56.4173 122.3090
" />
<path d="M56.4173 122.3090
L56.7982 122.3090
" />
<path d="M56.7982 122.3090
L56.9887 122.2137
" />
<path d="M56.9887 122.2137
L57.0839 122.0233
" />
<path d="M57.0839 122.0233
L57.0839 121.9280
" />
<path d="M57.0839 121.9280
L56.9887 121.7375
" />
<path d="M56.9887 121.7375
L56.7982 121.6423
" />
<path d="M56.7982 121.6423
L56.5125 121.6423
" />
<path d="M56.5125 121.6423
L56.3220 121.5471
" />
<path d="M56.3220 121.5471
L56.2268 121.3566
" />
<path d="M56.2268 121.3566
L56.2268 121.2614
" />
<path d="M56.2268 121.2614
L56.3220 121.0709
" />
<path d="M56.3220 121.0709
L56.5125 120.9756
" />
<path d="M56.5125 120.9756
L56.7982 120.9756
" />
<path d="M56.7982 120.9756
L56.9887 121.0709
" />
<path d="M57.7506 123.0709
L57.8459 122.9756
" />
<path d="M57.8459 122.9756
L58.0363 122.6899
" />
<path d="M58.0363 122.6899
L58.1316 122.4995
" />
<path d="M58.1316 122.4995
L58.2268 122.2137
" />
<path d="M58.2268 122.2137
L58.3220 121.7375
" />
<path d="M58.3220 121.7375
L58.3220 121.3566
" />
<path d="M58.3220 121.3566
L58.2268 120.8804
" />
<path d="M58.2268 120.8804
L58.1316 120.5947
" />
<path d="M58.1316 120.5947
L58.0363 120.4042
" />
<path d="M58.0363 120.4042
L57.8459 120.1185
" />
<path d="M57.8459 120.1185
L57.7506 120.0233
" />
<path d="M61.3697 123.0709
L61.2744 122.9756
" />
<path d="M61.2744 122.9756
L61.0839 122.6899
" />
<path d="M61.0839 122.6899
L60.9887 122.4995
" />
<path d="M60.9887 122.4995
L60.8935 122.2137
" />
<path d="M60.8935 122.2137
L60.7982 121.7375
" />
<path d="M60.7982 121.7375
L60.7982 121.3566
" />
<path d="M60.7982 121.3566
L60.8935 120.8804
" />
<path d="M60.8935 120.8804
L60.9887 120.5947
" />
<path d="M60.9887 120.5947
L61.0839 120.4042
" />
<path d="M61.0839 120.4042
L61.2744 120.1185
" />
<path d="M61.2744 120.1185
L61.3697 120.0233
" />
<path d="M62.1316 120.9756
L62.1316 122.3090
" />
<path d="M62.1316 121.1661
L62.2268 121.0709
" />
<path d="M62.2268 121.0709
L62.4173 120.9756
" />
<path d="M62.4173 120.9756
L62.7030 120.9756
" />
<path d="M62.7030 120.9756
L62.8935 121.0709
" />
<path d="M62.8935 121.0709
L62.9887 121.2614
" />
<path d="M62.9887 121.2614
L62.9887 122.3090
" />
<path d="M64.2268 122.3090
L64.0363 122.2137
" />
<path d="M64.0363 122.2137
L63.9411 122.1185
" />
<path d="M63.9411 122.1185
L63.8458 121.9280
" />
<path d="M63.8458 121.9280
L63.8458 121.3566
" />
<path d="M63.8458 121.3566
L63.9411 121.1661
" />
<path d="M63.9411 121.1661
L64.0363 121.0709
" />
<path d="M64.0363 121.0709
L64.2268 120.9756
" />
<path d="M64.2268 120.9756
L64.5125 120.9756
" />
<path d="M64.5125 120.9756
L64.7030 121.0709
" />
<path d="M64.7030 121.0709
L64.7982 121.1661
" />
<path d="M64.7982 121.1661
L64.8935 121.3566
" />
<path d="M64.8935 121.3566
L64.8935 121.9280
" />
<path d="M64.8935 121.9280
L64.7982 122.1185
" />
<path d="M64.7982 122.1185
L64.7030 122.2137
" />
<path d="M64.7030 122.2137
L64.5125 122.3090
" />
<path d="M64.5125 122.3090
L64.2268 122.3090
" />
<path d="M65.4649 120.9756
L66.2268 120.9756
" />
<path d="M65.7506 120.3090
L65.7506 122.0233
" />
<path d="M65.7506 122.0233
L65.8458 122.2137
" />
<path d="M65.8458 122.2137
L66.0363 122.3090
" />
<path d="M66.0363 122.3090
L66.2268 122.3090
" />
<path d="M68.4173 120.9756
L68.4173 122.9756
" />
<path d="M68.4173 121.0709
L68.6078 120.9756
" />
<path d="M68.6078 120.9756
L68.9887 120.9756
" />
<path d="M68.9887 120.9756
L69.1792 121.0709
" />
<path d="M69.1792 121.0709
L69.2744 121.1661
" />
<path d="M69.2744 121.1661
L69.3697 121.3566
" />
<path d="M69.3697 121.3566
L69.3697 121.9280
" />
<path d="M69.3697 121.9280
L69.2744 122.1185
" />
<path d="M69.2744 122.1185
L69.1792 122.2137
" />
<path d="M69.1792 122.2137
L68.9887 122.3090
" />
<path d="M68.9887 122.3090
L68.6078 122.3090
" />
<path d="M68.6078 122.3090
L68.4173 122.2137
" />
<path d="M70.5125 122.3090
L70.3220 122.2137
" />
<path d="M70.3220 122.2137
L70.2268 122.0233
" />
<path d="M70.2268 122.0233
L70.2268 120.3090
" />
<path d="M72.1316 122.3090
L72.1316 121.2614
" />
<path d="M72.1316 121.2614
L72.0363 121.0709
" />
<path d="M72.0363 121.0709
L71.8458 120.9756
" />
<path d="M71.8458 120.9756
L71.4649 120.9756
" />
<path d="M71.4649 120.9756
L71.2744 121.0709
" />
<path d="M72.1316 122.2137
L71.9411 122.3090
" />
<path d="M71.9411 122.3090
L71.4649 122.3090
" />
<path d="M71.4649 122.3090
L71.2744 122.2137
" />
<path d="M71.2744 122.2137
L71.1792 122.0233
" />
<path d="M71.1792 122.0233
L71.1792 121.8328
" />
<path d="M71.1792 121.8328
L71.2744 121.6423
" />
<path d="M71.2744 121.6423
L71.4649 121.5471
" />
<path d="M71.4649 121.5471
L71.9411 121.5471
" />
<path d="M71.9411 121.5471
L72.1316 121.4518
" />
<path d="M72.7982 120.9756
L73.5601 120.9756
" />
<path d="M73.0839 120.3090
L73.0839 122.0233
" />
<path d="M73.0839 122.0233
L73.1792 122.2137
" />
<path d="M73.1792 122.2137
L73.3697 122.3090
" />
<path d="M73.3697 122.3090
L73.5601 122.3090
" />
<path d="M74.9887 122.2137
L74.7982 122.3090
" />
<path d="M74.7982 122.3090
L74.4173 122.3090
" />
<path d="M74.4173 122.3090
L74.2268 122.2137
" />
<path d="M74.2268 122.2137
L74.1316 122.0233
" />
<path d="M74.1316 122.0233
L74.1316 121.2614
" />
<path d="M74.1316 121.2614
L74.2268 121.0709
" />
<path d="M74.2268 121.0709
L74.4173 120.9756
" />
<path d="M74.4173 120.9756
L74.7982 120.9756
" />
<path d="M74.7982 120.9756
L74.9887 121.0709
" />
<path d="M74.9887 121.0709
L75.0839 121.2614
" />
<path d="M75.0839 121.2614
L75.0839 121.4518
" />
<path d="M75.0839 121.4518
L74.1316 121.6423
" />
<path d="M76.7982 122.3090
L76.7982 120.3090
" />
<path d="M76.7982 122.2137
L76.6077 122.3090
" />
<path d="M76.6077 122.3090
L76.2268 122.3090
" />
<path d="M76.2268 122.3090
L76.0363 122.2137
" />
<path d="M76.0363 122.2137
L75.9411 122.1185
" />
<path d="M75.9411 122.1185
L75.8458 121.9280
" />
<path d="M75.8458 121.9280
L75.8458 121.3566
" />
<path d="M75.8458 121.3566
L75.9411 121.1661
" />
<path d="M75.9411 121.1661
L76.0363 121.0709
" />
<path d="M76.0363 121.0709
L76.2268 120.9756
" />
<path d="M76.2268 120.9756
L76.6077 120.9756
" />
<path d="M76.6077 120.9756
L76.7982 121.0709
" />
<path d="M77.5601 123.0709
L77.6554 122.9756
" />
<path d="M77.6554 122.9756
L77.8458 122.6899
" />
<path d="M77.8458 122.6899
L77.9411 122.4995
" />
<path d="M77.9411 122.4995
L78.0363 122.2137
" />
<path d="M78.0363 122.2137
L78.1316 121.7375
" />
<path d="M78.1316 121.7375
L78.1316 121.3566
" />
<path d="M78.1316 121.3566
L78.0363 120.8804
" />
<path d="M78.0363 120.8804
L77.9411 120.5947
" />
<path d="M77.9411 120.5947
L77.8458 120.4042
" />
<path d="M77.8458 120.4042
L77.6554 120.1185
" />
<path d="M77.6554 120.1185
L77.5601 120.0233
" />
</g></g>
<g style="fill:none; 
stroke:#000000; stroke-width:0.1730; stroke-opacity:1; 
stroke-linecap:round; stroke-linejoin:round;">
<circle cx="9.2214" cy="124.0341" r="0.7786" /> 
</g>
<g style="fill:none; 
stroke:#000000; stroke-width:0.2000; stroke-opacity:1; 
stroke-linecap:round; stroke-linejoin:round;">
<text x="12.0000" y="125.0341"
textLength="66.6762" font-size="2.6667" lengthAdjust="spacingAndGlyphs"
text-anchor="start" opacity="0">0.900mm / 0.0354" (2 holes) (not plated)</text>
<g class="stroked-text"><desc>0.900mm / 0.0354" (2 holes) (not plated)</desc>
<path d="M12.9887 122.9490
L13.1792 122.9490
" />
<path d="M13.1792 122.9490
L13.3697 123.0442
" />
<path d="M13.3697 123.0442
L13.4649 123.1395
" />
<path d="M13.4649 123.1395
L13.5601 123.3299
" />
<path d="M13.5601 123.3299
L13.6554 123.7109
" />
<path d="M13.6554 123.7109
L13.6554 124.1871
" />
<path d="M13.6554 124.1871
L13.5601 124.5680
" />
<path d="M13.5601 124.5680
L13.4649 124.7585
" />
<path d="M13.4649 124.7585
L13.3697 124.8537
" />
<path d="M13.3697 124.8537
L13.1792 124.9490
" />
<path d="M13.1792 124.9490
L12.9887 124.9490
" />
<path d="M12.9887 124.9490
L12.7982 124.8537
" />
<path d="M12.7982 124.8537
L12.7030 124.7585
" />
<path d="M12.7030 124.7585
L12.6078 124.5680
" />
<path d="M12.6078 124.5680
L12.5125 124.1871
" />
<path d="M12.5125 124.1871
L12.5125 123.7109
" />
<path d="M12.5125 123.7109
L12.6078 123.3299
" />
<path d="M12.6078 123.3299
L12.7030 123.1395
" />
<path d="M12.7030 123.1395
L12.7982 123.0442
" />
<path d="M12.7982 123.0442
L12.9887 122.9490
" />
<path d="M14.5125 124.7585
L14.6078 124.8537
" />
<path d="M14.6078 124.8537
L14.5125 124.9490
" />
<path d="M14.5125 124.9490
L14.4173 124.8537
" />
<path d="M14.4173 124.8537
L14.5125 124.7585
" />
<path d="M14.5125 124.7585
L14.5125 124.9490
" />
<path d="M15.5601 124.9490
L15.9411 124.9490
" />
<path d="M15.9411 124.9490
L16.1316 124.8537
" />
<path d="M16.1316 124.8537
L16.2268 124.7585
" />
<path d="M16.2268 124.7585
L16.4173 124.4728
" />
<path d="M16.4173 124.4728
L16.5125 124.0918
" />
<path d="M16.5125 124.0918
L16.5125 123.3299
" />
<path d="M16.5125 123.3299
L16.4173 123.1395
" />
<path d="M16.4173 123.1395
L16.3221 123.0442
" />
<path d="M16.3221 123.0442
L16.1316 122.9490
" />
<path d="M16.1316 122.9490
L15.7506 122.9490
" />
<path d="M15.7506 122.9490
L15.5601 123.0442
" />
<path d="M15.5601 123.0442
L15.4649 123.1395
" />
<path d="M15.4649 123.1395
L15.3697 123.3299
" />
<path d="M15.3697 123.3299
L15.3697 123.8061
" />
<path d="M15.3697 123.8061
L15.4649 123.9966
" />
<path d="M15.4649 123.9966
L15.5601 124.0918
" />
<path d="M15.5601 124.0918
L15.7506 124.1871
" />
<path d="M15.7506 124.1871
L16.1316 124.1871
" />
<path d="M16.1316 124.1871
L16.3221 124.0918
" />
<path d="M16.3221 124.0918
L16.4173 123.9966
" />
<path d="M16.4173 123.9966
L16.5125 123.8061
" />
<path d="M17.7506 122.9490
L17.9411 122.9490
" />
<path d="M17.9411 122.9490
L18.1316 123.0442
" />
<path d="M18.1316 123.0442
L18.2268 123.1395
" />
<path d="M18.2268 123.1395
L18.3221 123.3299
" />
<path d="M18.3221 123.3299
L18.4173 123.7109
" />
<path d="M18.4173 123.7109
L18.4173 124.1871
" />
<path d="M18.4173 124.1871
L18.3221 124.5680
" />
<path d="M18.3221 124.5680
L18.2268 124.7585
" />
<path d="M18.2268 124.7585
L18.1316 124.8537
" />
<path d="M18.1316 124.8537
L17.9411 124.9490
" />
<path d="M17.9411 124.9490
L17.7506 124.9490
" />
<path d="M17.7506 124.9490
L17.5601 124.8537
" />
<path d="M17.5601 124.8537
L17.4649 124.7585
" />
<path d="M17.4649 124.7585
L17.3697 124.5680
" />
<path d="M17.3697 124.5680
L17.2744 124.1871
" />
<path d="M17.2744 124.1871
L17.2744 123.7109
" />
<path d="M17.2744 123.7109
L17.3697 123.3299
" />
<path d="M17.3697 123.3299
L17.4649 123.1395
" />
<path d="M17.4649 123.1395
L17.5601 123.0442
" />
<path d="M17.5601 123.0442
L17.7506 122.9490
" />
<path d="M19.6554 122.9490
L19.8459 122.9490
" />
<path d="M19.8459 122.9490
L20.0363 123.0442
" />
<path d="M20.0363 123.0442
L20.1316 123.1395
" />
<path d="M20.1316 123.1395
L20.2268 123.3299
" />
<path d="M20.2268 123.3299
L20.3220 123.7109
" />
<path d="M20.3220 123.7109
L20.3220 124.1871
" />
<path d="M20.3220 124.1871
L20.2268 124.5680
" />
<path d="M20.2268 124.5680
L20.1316 124.7585
" />
<path d="M20.1316 124.7585
L20.0363 124.8537
" />
<path d="M20.0363 124.8537
L19.8459 124.9490
" />
<path d="M19.8459 124.9490
L19.6554 124.9490
" />
<path d="M19.6554 124.9490
L19.4649 124.8537
" />
<path d="M19.4649 124.8537
L19.3697 124.7585
" />
<path d="M19.3697 124.7585
L19.2744 124.5680
" />
<path d="M19.2744 124.5680
L19.1792 124.1871
" />
<path d="M19.1792 124.1871
L19.1792 123.7109
" />
<path d="M19.1792 123.7109
L19.2744 123.3299
" />
<path d="M19.2744 123.3299
L19.3697 123.1395
" />
<path d="M19.3697 123.1395
L19.4649 123.0442
" />
<path d="M19.4649 123.0442
L19.6554 122.9490
" />
<path d="M21.1792 124.9490
L21.1792 123.6156
" />
<path d="M21.1792 123.8061
L21.2744 123.7109
" />
<path d="M21.2744 123.7109
L21.4649 123.6156
" />
<path d="M21.4649 123.6156
L21.7506 123.6156
" />
<path d="M21.7506 123.6156
L21.9411 123.7109
" />
<path d="M21.9411 123.7109
L22.0363 123.9014
" />
<path d="M22.0363 123.9014
L22.0363 124.9490
" />
<path d="M22.0363 123.9014
L22.1316 123.7109
" />
<path d="M22.1316 123.7109
L22.3220 123.6156
" />
<path d="M22.3220 123.6156
L22.6078 123.6156
" />
<path d="M22.6078 123.6156
L22.7982 123.7109
" />
<path d="M22.7982 123.7109
L22.8935 123.9014
" />
<path d="M22.8935 123.9014
L22.8935 124.9490
" />
<path d="M23.8459 124.9490
L23.8459 123.6156
" />
<path d="M23.8459 123.8061
L23.9411 123.7109
" />
<path d="M23.9411 123.7109
L24.1316 123.6156
" />
<path d="M24.1316 123.6156
L24.4173 123.6156
" />
<path d="M24.4173 123.6156
L24.6078 123.7109
" />
<path d="M24.6078 123.7109
L24.7030 123.9014
" />
<path d="M24.7030 123.9014
L24.7030 124.9490
" />
<path d="M24.7030 123.9014
L24.7982 123.7109
" />
<path d="M24.7982 123.7109
L24.9887 123.6156
" />
<path d="M24.9887 123.6156
L25.2744 123.6156
" />
<path d="M25.2744 123.6156
L25.4649 123.7109
" />
<path d="M25.4649 123.7109
L25.5601 123.9014
" />
<path d="M25.5601 123.9014
L25.5601 124.9490
" />
<path d="M29.4649 122.8537
L27.7506 125.4252
" />
<path d="M32.0363 122.9490
L32.2268 122.9490
" />
<path d="M32.2268 122.9490
L32.4173 123.0442
" />
<path d="M32.4173 123.0442
L32.5125 123.1395
" />
<path d="M32.5125 123.1395
L32.6078 123.3299
" />
<path d="M32.6078 123.3299
L32.7030 123.7109
" />
<path d="M32.7030 123.7109
L32.7030 124.1871
" />
<path d="M32.7030 124.1871
L32.6078 124.5680
" />
<path d="M32.6078 124.5680
L32.5125 124.7585
" />
<path d="M32.5125 124.7585
L32.4173 124.8537
" />
<path d="M32.4173 124.8537
L32.2268 124.9490
" />
<path d="M32.2268 124.9490
L32.0363 124.9490
" />
<path d="M32.0363 124.9490
L31.8459 124.8537
" />
<path d="M31.8459 124.8537
L31.7506 124.7585
" />
<path d="M31.7506 124.7585
L31.6554 124.5680
" />
<path d="M31.6554 124.5680
L31.5601 124.1871
" />
<path d="M31.5601 124.1871
L31.5601 123.7109
" />
<path d="M31.5601 123.7109
L31.6554 123.3299
" />
<path d="M31.6554 123.3299
L31.7506 123.1395
" />
<path d="M31.7506 123.1395
L31.8459 123.0442
" />
<path d="M31.8459 123.0442
L32.0363 122.9490
" />
<path d="M33.5601 124.7585
L33.6554 124.8537
" />
<path d="M33.6554 124.8537
L33.5601 124.9490
" />
<path d="M33.5601 124.9490
L33.4649 124.8537
" />
<path d="M33.4649 124.8537
L33.5601 124.7585
" />
<path d="M33.5601 124.7585
L33.5601 124.9490
" />
<path d="M34.8935 122.9490
L35.0840 122.9490
" />
<path d="M35.0840 122.9490
L35.2744 123.0442
" />
<path d="M35.2744 123.0442
L35.3697 123.1395
" />
<path d="M35.3697 123.1395
L35.4649 123.3299
" />
<path d="M35.4649 123.3299
L35.5601 123.7109
" />
<path d="M35.5601 123.7109
L35.5601 124.1871
" />
<path d="M35.5601 124.1871
L35.4649 124.5680
" />
<path d="M35.4649 124.5680
L35.3697 124.7585
" />
<path d="M35.3697 124.7585
L35.2744 124.8537
" />
<path d="M35.2744 124.8537
L35.0840 124.9490
" />
<path d="M35.0840 124.9490
L34.8935 124.9490
" />
<path d="M34.8935 124.9490
L34.7030 124.8537
" />
<path d="M34.7030 124.8537
L34.6078 124.7585
" />
<path d="M34.6078 124.7585
L34.5125 124.5680
" />
<path d="M34.5125 124.5680
L34.4173 124.1871
" />
<path d="M34.4173 124.1871
L34.4173 123.7109
" />
<path d="M34.4173 123.7109
L34.5125 123.3299
" />
<path d="M34.5125 123.3299
L34.6078 123.1395
" />
<path d="M34.6078 123.1395
L34.7030 123.0442
" />
<path d="M34.7030 123.0442
L34.8935 122.9490
" />
<path d="M36.2268 122.9490
L37.4649 122.9490
" />
<path d="M37.4649 122.9490
L36.7982 123.7109
" />
<path d="M36.7982 123.7109
L37.0840 123.7109
" />
<path d="M37.0840 123.7109
L37.2744 123.8061
" />
<path d="M37.2744 123.8061
L37.3697 123.9014
" />
<path d="M37.3697 123.9014
L37.4649 124.0918
" />
<path d="M37.4649 124.0918
L37.4649 124.5680
" />
<path d="M37.4649 124.5680
L37.3697 124.7585
" />
<path d="M37.3697 124.7585
L37.2744 124.8537
" />
<path d="M37.2744 124.8537
L37.0840 124.9490
" />
<path d="M37.0840 124.9490
L36.5125 124.9490
" />
<path d="M36.5125 124.9490
L36.3220 124.8537
" />
<path d="M36.3220 124.8537
L36.2268 124.7585
" />
<path d="M39.2744 122.9490
L38.3220 122.9490
" />
<path d="M38.3220 122.9490
L38.2268 123.9014
" />
<path d="M38.2268 123.9014
L38.3220 123.8061
" />
<path d="M38.3220 123.8061
L38.5125 123.7109
" />
<path d="M38.5125 123.7109
L38.9887 123.7109
" />
<path d="M38.9887 123.7109
L39.1792 123.8061
" />
<path d="M39.1792 123.8061
L39.2744 123.9014
" />
<path d="M39.2744 123.9014
L39.3697 124.0918
" />
<path d="M39.3697 124.0918
L39.3697 124.5680
" />
<path d="M39.3697 124.5680
L39.2744 124.7585
" />
<path d="M39.2744 124.7585
L39.1792 124.8537
" />
<path d="M39.1792 124.8537
L38.9887 124.9490
" />
<path d="M38.9887 124.9490
L38.5125 124.9490
" />
<path d="M38.5125 124.9490
L38.3220 124.8537
" />
<path d="M38.3220 124.8537
L38.2268 124.7585
" />
<path d="M41.0839 123.6156
L41.0839 124.9490
" />
<path d="M40.6078 122.8537
L40.1316 124.2823
" />
<path d="M40.1316 124.2823
L41.3697 124.2823
" />
<path d="M42.0363 122.9490
L42.0363 123.3299
" />
<path d="M42.7982 122.9490
L42.7982 123.3299
" />
<path d="M45.7506 125.7109
L45.6554 125.6156
" />
<path d="M45.6554 125.6156
L45.4649 125.3299
" />
<path d="M45.4649 125.3299
L45.3697 125.1395
" />
<path d="M45.3697 125.1395
L45.2744 124.8537
" />
<path d="M45.2744 124.8537
L45.1792 124.3776
" />
<path d="M45.1792 124.3776
L45.1792 123.9966
" />
<path d="M45.1792 123.9966
L45.2744 123.5204
" />
<path d="M45.2744 123.5204
L45.3697 123.2347
" />
<path d="M45.3697 123.2347
L45.4649 123.0442
" />
<path d="M45.4649 123.0442
L45.6554 122.7585
" />
<path d="M45.6554 122.7585
L45.7506 122.6633
" />
<path d="M46.4173 123.1395
L46.5125 123.0442
" />
<path d="M46.5125 123.0442
L46.7030 122.9490
" />
<path d="M46.7030 122.9490
L47.1792 122.9490
" />
<path d="M47.1792 122.9490
L47.3697 123.0442
" />
<path d="M47.3697 123.0442
L47.4649 123.1395
" />
<path d="M47.4649 123.1395
L47.5601 123.3299
" />
<path d="M47.5601 123.3299
L47.5601 123.5204
" />
<path d="M47.5601 123.5204
L47.4649 123.8061
" />
<path d="M47.4649 123.8061
L46.3220 124.9490
" />
<path d="M46.3220 124.9490
L47.5601 124.9490
" />
<path d="M49.9411 124.9490
L49.9411 122.9490
" />
<path d="M50.7982 124.9490
L50.7982 123.9014
" />
<path d="M50.7982 123.9014
L50.7030 123.7109
" />
<path d="M50.7030 123.7109
L50.5125 123.6156
" />
<path d="M50.5125 123.6156
L50.2268 123.6156
" />
<path d="M50.2268 123.6156
L50.0363 123.7109
" />
<path d="M50.0363 123.7109
L49.9411 123.8061
" />
<path d="M52.0363 124.9490
L51.8459 124.8537
" />
<path d="M51.8459 124.8537
L51.7506 124.7585
" />
<path d="M51.7506 124.7585
L51.6554 124.5680
" />
<path d="M51.6554 124.5680
L51.6554 123.9966
" />
<path d="M51.6554 123.9966
L51.7506 123.8061
" />
<path d="M51.7506 123.8061
L51.8459 123.7109
" />
<path d="M51.8459 123.7109
L52.0363 123.6156
" />
<path d="M52.0363 123.6156
L52.3220 123.6156
" />
<path d="M52.3220 123.6156
L52.5125 123.7109
" />
<path d="M52.5125 123.7109
L52.6078 123.8061
" />
<path d="M52.6078 123.8061
L52.7030 123.9966
" />
<path d="M52.7030 123.9966
L52.7030 124.5680
" />
<path d="M52.7030 124.5680
L52.6078 124.7585
" />
<path d="M52.6078 124.7585
L52.5125 124.8537
" />
<path d="M52.5125 124.8537
L52.3220 124.9490
" />
<path d="M52.3220 124.9490
L52.0363 124.9490
" />
<path d="M53.8459 124.9490
L53.6554 124.8537
" />
<path d="M53.6554 124.8537
L53.5601 124.6633
" />
<path d="M53.5601 124.6633
L53.5601 122.9490
" />
<path d="M55.3697 124.8537
L55.1792 124.9490
" />
<path d="M55.1792 124.9490
L54.7982 124.9490
" />
<path d="M54.7982 124.9490
L54.6078 124.8537
" />
<path d="M54.6078 124.8537
L54.5125 124.6633
" />
<path d="M54.5125 124.6633
L54.5125 123.9014
" />
<path d="M54.5125 123.9014
L54.6078 123.7109
" />
<path d="M54.6078 123.7109
L54.7982 123.6156
" />
<path d="M54.7982 123.6156
L55.1792 123.6156
" />
<path d="M55.1792 123.6156
L55.3697 123.7109
" />
<path d="M55.3697 123.7109
L55.4649 123.9014
" />
<path d="M55.4649 123.9014
L55.4649 124.0918
" />
<path d="M55.4649 124.0918
L54.5125 124.2823
" />
<path d="M56.2268 124.8537
L56.4173 124.9490
" />
<path d="M56.4173 124.9490
L56.7982 124.9490
" />
<path d="M56.7982 124.9490
L56.9887 124.8537
" />
<path d="M56.9887 124.8537
L57.0839 124.6633
" />
<path d="M57.0839 124.6633
L57.0839 124.5680
" />
<path d="M57.0839 124.5680
L56.9887 124.3776
" />
<path d="M56.9887 124.3776
L56.7982 124.2823
" />
<path d="M56.7982 124.2823
L56.5125 124.2823
" />
<path d="M56.5125 124.2823
L56.3220 124.1871
" />
<path d="M56.3220 124.1871
L56.2268 123.9966
" />
<path d="M56.2268 123.9966
L56.2268 123.9014
" />
<path d="M56.2268 123.9014
L56.3220 123.7109
" />
<path d="M56.3220 123.7109
L56.5125 123.6156
" />
<path d="M56.5125 123.6156
L56.7982 123.6156
" />
<path d="M56.7982 123.6156
L56.9887 123.7109
" />
<path d="M57.7506 125.7109
L57.8459 125.6156
" />
<path d="M57.8459 125.6156
L58.0363 125.3299
" />
<path d="M58.0363 125.3299
L58.1316 125.1395
" />
<path d="M58.1316 125.1395
L58.2268 124.8537
" />
<path d="M58.2268 124.8537
L58.3220 124.3776
" />
<path d="M58.3220 124.3776
L58.3220 123.9966
" />
<path d="M58.3220 123.9966
L58.2268 123.5204
" />
<path d="M58.2268 123.5204
L58.1316 123.2347
" />
<path d="M58.1316 123.2347
L58.0363 123.0442
" />
<path d="M58.0363 123.0442
L57.8459 122.7585
" />
<path d="M57.8459 122.7585
L57.7506 122.6633
" />
<path d="M61.3697 125.7109
L61.2744 125.6156
" />
<path d="M61.2744 125.6156
L61.0839 125.3299
" />
<path d="M61.0839 125.3299
L60.9887 125.1395
" />
<path d="M60.9887 125.1395
L60.8935 124.8537
" />
<path d="M60.8935 124.8537
L60.7982 124.3776
" />
<path d="M60.7982 124.3776
L60.7982 123.9966
" />
<path d="M60.7982 123.9966
L60.8935 123.5204
" />
<path d="M60.8935 123.5204
L60.9887 123.2347
" />
<path d="M60.9887 123.2347
L61.0839 123.0442
" />
<path d="M61.0839 123.0442
L61.2744 122.7585
" />
<path d="M61.2744 122.7585
L61.3697 122.6633
" />
<path d="M62.1316 123.6156
L62.1316 124.9490
" />
<path d="M62.1316 123.8061
L62.2268 123.7109
" />
<path d="M62.2268 123.7109
L62.4173 123.6156
" />
<path d="M62.4173 123.6156
L62.7030 123.6156
" />
<path d="M62.7030 123.6156
L62.8935 123.7109
" />
<path d="M62.8935 123.7109
L62.9887 123.9014
" />
<path d="M62.9887 123.9014
L62.9887 124.9490
" />
<path d="M64.2268 124.9490
L64.0363 124.8537
" />
<path d="M64.0363 124.8537
L63.9411 124.7585
" />
<path d="M63.9411 124.7585
L63.8458 124.5680
" />
<path d="M63.8458 124.5680
L63.8458 123.9966
" />
<path d="M63.8458 123.9966
L63.9411 123.8061
" />
<path d="M63.9411 123.8061
L64.0363 123.7109
" />
<path d="M64.0363 123.7109
L64.2268 123.6156
" />
<path d="M64.2268 123.6156
L64.5125 123.6156
" />
<path d="M64.5125 123.6156
L64.7030 123.7109
" />
<path d="M64.7030 123.7109
L64.7982 123.8061
" />
<path d="M64.7982 123.8061
L64.8935 123.9966
" />
<path d="M64.8935 123.9966
L64.8935 124.5680
" />
<path d="M64.8935 124.5680
L64.7982 124.7585
" />
<path d="M64.7982 124.7585
L64.7030 124.8537
" />
<path d="M64.7030 124.8537
L64.5125 124.9490
" />
<path d="M64.5125 124.9490
L64.2268 124.9490
" />
<path d="M65.4649 123.6156
L66.2268 123.6156
" />
<path d="M65.7506 122.9490
L65.7506 124.6633
" />
<path d="M65.7506 124.6633
L65.8458 124.8537
" />
<path d="M65.8458 124.8537
L66.0363 124.9490
" />
<path d="M66.0363 124.9490
L66.2268 124.9490
" />
<path d="M68.4173 123.6156
L68.4173 125.6156
" />
<path d="M68.4173 123.7109
L68.6078 123.6156
" />
<path d="M68.6078 123.6156
L68.9887 123.6156
" />
<path d="M68.9887 123.6156
L69.1792 123.7109
" />
<path d="M69.1792 123.7109
L69.2744 123.8061
" />
<path d="M69.2744 123.8061
L69.3697 123.9966
" />
<path d="M69.3697 123.9966
L69.3697 124.5680
" />
<path d="M69.3697 124.5680
L69.2744 124.7585
" />
<path d="M69.2744 124.7585
L69.1792 124.8537
" />
<path d="M69.1792 124.8537
L68.9887 124.9490
" />
<path d="M68.9887 124.9490
L68.6078 124.9490
" />
<path d="M68.6078 124.9490
L68.4173 124.8537
" />
<path d="M70.5125 124.9490
L70.3220 124.8537
" />
<path d="M70.3220 124.8537
L70.2268 124.6633
" />
<path d="M70.2268 124.6633
L70.2268 122.9490
" />
<path d="M72.1316 124.9490
L72.1316 123.9014
" />
<path d="M72.1316 123.9014
L72.0363 123.7109
" />
<path d="M72.0363 123.7109
L71.8458 123.6156
" />
<path d="M71.8458 123.6156
L71.4649 123.6156
" />
<path d="M71.4649 123.6156
L71.2744 123.7109
" />
<path d="M72.1316 124.8537
L71.9411 124.9490
" />
<path d="M71.9411 124.9490
L71.4649 124.9490
" />
<path d="M71.4649 124.9490
L71.2744 124.8537
" />
<path d="M71.2744 124.8537
L71.1792 124.6633
" />
<path d="M71.1792 124.6633
L71.1792 124.4728
" />
<path d="M71.1792 124.4728
L71.2744 124.2823
" />
<path d="M71.2744 124.2823
L71.4649 124.1871
" />
<path d="M71.4649 124.1871
L71.9411 124.1871
" />
<path d="M71.9411 124.1871
L72.1316 124.0918
" />
<path d="M72.7982 123.6156
L73.5601 123.6156
" />
<path d="M73.0839 122.9490
L73.0839 124.6633
" />
<path d="M73.0839 124.6633
L73.1792 124.8537
" />
<path d="M73.1792 124.8537
L73.3697 124.9490
" />
<path d="M73.3697 124.9490
L73.5601 124.9490
" />
<path d="M74.9887 124.8537
L74.7982 124.9490
" />
<path d="M74.7982 124.9490
L74.4173 124.9490
" />
<path d="M74.4173 124.9490
L74.2268 124.8537
" />
<path d="M74.2268 124.8537
L74.1316 124.6633
" />
<path d="M74.1316 124.6633
L74.1316 123.9014
" />
<path d="M74.1316 123.9014
L74.2268 123.7109
" />
<path d="M74.2268 123.7109
L74.4173 123.6156
" />
<path d="M74.4173 123.6156
L74.7982 123.6156
" />
<path d="M74.7982 123.6156
L74.9887 123.7109
" />
<path d="M74.9887 123.7109
L75.0839 123.9014
" />
<path d="M75.0839 123.9014
L75.0839 124.0918
" />
<path d="M75.0839 124.0918
L74.1316 124.2823
" />
<path d="M76.7982 124.9490
L76.7982 122.9490
" />
<path d="M76.7982 124.8537
L76.6077 124.9490
" />
<path d="M76.6077 124.9490
L76.2268 124.9490
" />
<path d="M76.2268 124.9490
L76.0363 124.8537
" />
<path d="M76.0363 124.8537
L75.9411 124.7585
" />
<path d="M75.9411 124.7585
L75.8458 124.5680
" />
<path d="M75.8458 124.5680
L75.8458 123.9966
" />
<path d="M75.8458 123.9966
L75.9411 123.8061
" />
<path d="M75.9411 123.8061
L76.0363 123.7109
" />
<path d="M76.0363 123.7109
L76.2268 123.6156
" />
<path d="M76.2268 123.6156
L76.6077 123.6156
" />
<path d="M76.6077 123.6156
L76.7982 123.7109
" />
<path d="M77.5601 125.7109
L77.6554 125.6156
" />
<path d="M77.6554 125.6156
L77.8458 125.3299
" />
<path d="M77.8458 125.3299
L77.9411 125.1395
" />
<path d="M77.9411 125.1395
L78.0363 124.8537
" />
<path d="M78.0363 124.8537
L78.1316 124.3776
" />
<path d="M78.1316 124.3776
L78.1316 123.9966
" />
<path d="M78.1316 123.9966
L78.0363 123.5204
" />
<path d="M78.0363 123.5204
L77.9411 123.2347
" />
<path d="M77.9411 123.2347
L77.8458 123.0442
" />
<path d="M77.8458 123.0442
L77.6554 122.7585
" />
<path d="M77.6554 122.7585
L77.5601 122.6633
" />
</g></g>
<g style="fill:none; 
stroke:#000000; stroke-width:0.2000; stroke-opacity:1; 
stroke-linecap:round; stroke-linejoin:round;">
<path d="M9.0000 125.7913
L9.0000 127.7913
" />
<path d="M8.0000 126.7913
L10.0000 126.7913
" />
</g>
<g style="fill:none; 
stroke:#000000; stroke-width:0.2000; stroke-opacity:1; 
stroke-linecap:round; stroke-linejoin:round;">
<text x="12.0000" y="127.7913"
textLength="65.0571" font-size="2.6667" lengthAdjust="spacingAndGlyphs"
text-anchor="start" opacity="0">3.810mm / 0.1500" (1 hole) (not plated)</text>
<g class="stroked-text"><desc>3.810mm / 0.1500" (1 hole) (not plated)</desc>
<path d="M12.4173 125.7061
L13.6554 125.7061
" />
<path d="M13.6554 125.7061
L12.9887 126.4680
" />
<path d="M12.9887 126.4680
L13.2744 126.4680
" />
<path d="M13.2744 126.4680
L13.4649 126.5633
" />
<path d="M13.4649 126.5633
L13.5601 126.6585
" />
<path d="M13.5601 126.6585
L13.6554 126.8490
" />
<path d="M13.6554 126.8490
L13.6554 127.3252
" />
<path d="M13.6554 127.3252
L13.5601 127.5157
" />
<path d="M13.5601 127.5157
L13.4649 127.6109
" />
<path d="M13.4649 127.6109
L13.2744 127.7061
" />
<path d="M13.2744 127.7061
L12.7030 127.7061
" />
<path d="M12.7030 127.7061
L12.5125 127.6109
" />
<path d="M12.5125 127.6109
L12.4173 127.5157
" />
<path d="M14.5125 127.5157
L14.6078 127.6109
" />
<path d="M14.6078 127.6109
L14.5125 127.7061
" />
<path d="M14.5125 127.7061
L14.4173 127.6109
" />
<path d="M14.4173 127.6109
L14.5125 127.5157
" />
<path d="M14.5125 127.5157
L14.5125 127.7061
" />
<path d="M15.7506 126.5633
L15.5601 126.4680
" />
<path d="M15.5601 126.4680
L15.4649 126.3728
" />
<path d="M15.4649 126.3728
L15.3697 126.1823
" />
<path d="M15.3697 126.1823
L15.3697 126.0871
" />
<path d="M15.3697 126.0871
L15.4649 125.8966
" />
<path d="M15.4649 125.8966
L15.5601 125.8014
" />
<path d="M15.5601 125.8014
L15.7506 125.7061
" />
<path d="M15.7506 125.7061
L16.1316 125.7061
" />
<path d="M16.1316 125.7061
L16.3221 125.8014
" />
<path d="M16.3221 125.8014
L16.4173 125.8966
" />
<path d="M16.4173 125.8966
L16.5125 126.0871
" />
<path d="M16.5125 126.0871
L16.5125 126.1823
" />
<path d="M16.5125 126.1823
L16.4173 126.3728
" />
<path d="M16.4173 126.3728
L16.3221 126.4680
" />
<path d="M16.3221 126.4680
L16.1316 126.5633
" />
<path d="M16.1316 126.5633
L15.7506 126.5633
" />
<path d="M15.7506 126.5633
L15.5601 126.6585
" />
<path d="M15.5601 126.6585
L15.4649 126.7538
" />
<path d="M15.4649 126.7538
L15.3697 126.9442
" />
<path d="M15.3697 126.9442
L15.3697 127.3252
" />
<path d="M15.3697 127.3252
L15.4649 127.5157
" />
<path d="M15.4649 127.5157
L15.5601 127.6109
" />
<path d="M15.5601 127.6109
L15.7506 127.7061
" />
<path d="M15.7506 127.7061
L16.1316 127.7061
" />
<path d="M16.1316 127.7061
L16.3221 127.6109
" />
<path d="M16.3221 127.6109
L16.4173 127.5157
" />
<path d="M16.4173 127.5157
L16.5125 127.3252
" />
<path d="M16.5125 127.3252
L16.5125 126.9442
" />
<path d="M16.5125 126.9442
L16.4173 126.7538
" />
<path d="M16.4173 126.7538
L16.3221 126.6585
" />
<path d="M16.3221 126.6585
L16.1316 126.5633
" />
<path d="M18.4173 127.7061
L17.2744 127.7061
" />
<path d="M17.8459 127.7061
L17.8459 125.7061
" />
<path d="M17.8459 125.7061
L17.6554 125.9919
" />
<path d="M17.6554 125.9919
L17.4649 126.1823
" />
<path d="M17.4649 126.1823
L17.2744 126.2776
" />
<path d="M19.6554 125.7061
L19.8459 125.7061
" />
<path d="M19.8459 125.7061
L20.0363 125.8014
" />
<path d="M20.0363 125.8014
L20.1316 125.8966
" />
<path d="M20.1316 125.8966
L20.2268 126.0871
" />
<path d="M20.2268 126.0871
L20.3220 126.4680
" />
<path d="M20.3220 126.4680
L20.3220 126.9442
" />
<path d="M20.3220 126.9442
L20.2268 127.3252
" />
<path d="M20.2268 127.3252
L20.1316 127.5157
" />
<path d="M20.1316 127.5157
L20.0363 127.6109
" />
<path d="M20.0363 127.6109
L19.8459 127.7061
" />
<path d="M19.8459 127.7061
L19.6554 127.7061
" />
<path d="M19.6554 127.7061
L19.4649 127.6109
" />
<path d="M19.4649 127.6109
L19.3697 127.5157
" />
<path d="M19.3697 127.5157
L19.2744 127.3252
" />
<path d="M19.2744 127.3252
L19.1792 126.9442
" />
<path d="M19.1792 126.9442
L19.1792 126.4680
" />
<path d="M19.1792 126.4680
L19.2744 126.0871
" />
<path d="M19.2744 126.0871
L19.3697 125.8966
" />
<path d="M19.3697 125.8966
L19.4649 125.8014
" />
<path d="M19.4649 125.8014
L19.6554 125.7061
" />
<path d="M21.1792 127.7061
L21.1792 126.3728
" />
<path d="M21.1792 126.5633
L21.2744 126.4680
" />
<path d="M21.2744 126.4680
L21.4649 126.3728
" />
<path d="M21.4649 126.3728
L21.7506 126.3728
" />
<path d="M21.7506 126.3728
L21.9411 126.4680
" />
<path d="M21.9411 126.4680
L22.0363 126.6585
" />
<path d="M22.0363 126.6585
L22.0363 127.7061
" />
<path d="M22.0363 126.6585
L22.1316 126.4680
" />
<path d="M22.1316 126.4680
L22.3220 126.3728
" />
<path d="M22.3220 126.3728
L22.6078 126.3728
" />
<path d="M22.6078 126.3728
L22.7982 126.4680
" />
<path d="M22.7982 126.4680
L22.8935 126.6585
" />
<path d="M22.8935 126.6585
L22.8935 127.7061
" />
<path d="M23.8459 127.7061
L23.8459 126.3728
" />
<path d="M23.8459 126.5633
L23.9411 126.4680
" />
<path d="M23.9411 126.4680
L24.1316 126.3728
" />
<path d="M24.1316 126.3728
L24.4173 126.3728
" />
<path d="M24.4173 126.3728
L24.6078 126.4680
" />
<path d="M24.6078 126.4680
L24.7030 126.6585
" />
<path d="M24.7030 126.6585
L24.7030 127.7061
" />
<path d="M24.7030 126.6585
L24.7982 126.4680
" />
<path d="M24.7982 126.4680
L24.9887 126.3728
" />
<path d="M24.9887 126.3728
L25.2744 126.3728
" />
<path d="M25.2744 126.3728
L25.4649 126.4680
" />
<path d="M25.4649 126.4680
L25.5601 126.6585
" />
<path d="M25.5601 126.6585
L25.5601 127.7061
" />
<path d="M29.4649 125.6109
L27.7506 128.1823
" />
<path d="M32.0363 125.7061
L32.2268 125.7061
" />
<path d="M32.2268 125.7061
L32.4173 125.8014
" />
<path d="M32.4173 125.8014
L32.5125 125.8966
" />
<path d="M32.5125 125.8966
L32.6078 126.0871
" />
<path d="M32.6078 126.0871
L32.7030 126.4680
" />
<path d="M32.7030 126.4680
L32.7030 126.9442
" />
<path d="M32.7030 126.9442
L32.6078 127.3252
" />
<path d="M32.6078 127.3252
L32.5125 127.5157
" />
<path d="M32.5125 127.5157
L32.4173 127.6109
" />
<path d="M32.4173 127.6109
L32.2268 127.7061
" />
<path d="M32.2268 127.7061
L32.0363 127.7061
" />
<path d="M32.0363 127.7061
L31.8459 127.6109
" />
<path d="M31.8459 127.6109
L31.7506 127.5157
" />
<path d="M31.7506 127.5157
L31.6554 127.3252
" />
<path d="M31.6554 127.3252
L31.5601 126.9442
" />
<path d="M31.5601 126.9442
L31.5601 126.4680
" />
<path d="M31.5601 126.4680
L31.6554 126.0871
" />
<path d="M31.6554 126.0871
L31.7506 125.8966
" />
<path d="M31.7506 125.8966
L31.8459 125.8014
" />
<path d="M31.8459 125.8014
L32.0363 125.7061
" />
<path d="M33.5601 127.5157
L33.6554 127.6109
" />
<path d="M33.6554 127.6109
L33.5601 127.7061
" />
<path d="M33.5601 127.7061
L33.4649 127.6109
" />
<path d="M33.4649 127.6109
L33.5601 127.5157
" />
<path d="M33.5601 127.5157
L33.5601 127.7061
" />
<path d="M35.5601 127.7061
L34.4173 127.7061
" />
<path d="M34.9887 127.7061
L34.9887 125.7061
" />
<path d="M34.9887 125.7061
L34.7982 125.9919
" />
<path d="M34.7982 125.9919
L34.6078 126.1823
" />
<path d="M34.6078 126.1823
L34.4173 126.2776
" />
<path d="M37.3697 125.7061
L36.4173 125.7061
" />
<path d="M36.4173 125.7061
L36.3220 126.6585
" />
<path d="M36.3220 126.6585
L36.4173 126.5633
" />
<path d="M36.4173 126.5633
L36.6078 126.4680
" />
<path d="M36.6078 126.4680
L37.0840 126.4680
" />
<path d="M37.0840 126.4680
L37.2744 126.5633
" />
<path d="M37.2744 126.5633
L37.3697 126.6585
" />
<path d="M37.3697 126.6585
L37.4649 126.8490
" />
<path d="M37.4649 126.8490
L37.4649 127.3252
" />
<path d="M37.4649 127.3252
L37.3697 127.5157
" />
<path d="M37.3697 127.5157
L37.2744 127.6109
" />
<path d="M37.2744 127.6109
L37.0840 127.7061
" />
<path d="M37.0840 127.7061
L36.6078 127.7061
" />
<path d="M36.6078 127.7061
L36.4173 127.6109
" />
<path d="M36.4173 127.6109
L36.3220 127.5157
" />
<path d="M38.7030 125.7061
L38.8935 125.7061
" />
<path d="M38.8935 125.7061
L39.0839 125.8014
" />
<path d="M39.0839 125.8014
L39.1792 125.8966
" />
<path d="M39.1792 125.8966
L39.2744 126.0871
" />
<path d="M39.2744 126.0871
L39.3697 126.4680
" />
<path d="M39.3697 126.4680
L39.3697 126.9442
" />
<path d="M39.3697 126.9442
L39.2744 127.3252
" />
<path d="M39.2744 127.3252
L39.1792 127.5157
" />
<path d="M39.1792 127.5157
L39.0839 127.6109
" />
<path d="M39.0839 127.6109
L38.8935 127.7061
" />
<path d="M38.8935 127.7061
L38.7030 127.7061
" />
<path d="M38.7030 127.7061
L38.5125 127.6109
" />
<path d="M38.5125 127.6109
L38.4173 127.5157
" />
<path d="M38.4173 127.5157
L38.3220 127.3252
" />
<path d="M38.3220 127.3252
L38.2268 126.9442
" />
<path d="M38.2268 126.9442
L38.2268 126.4680
" />
<path d="M38.2268 126.4680
L38.3220 126.0871
" />
<path d="M38.3220 126.0871
L38.4173 125.8966
" />
<path d="M38.4173 125.8966
L38.5125 125.8014
" />
<path d="M38.5125 125.8014
L38.7030 125.7061
" />
<path d="M40.6078 125.7061
L40.7982 125.7061
" />
<path d="M40.7982 125.7061
L40.9887 125.8014
" />
<path d="M40.9887 125.8014
L41.0839 125.8966
" />
<path d="M41.0839 125.8966
L41.1792 126.0871
" />
<path d="M41.1792 126.0871
L41.2744 126.4680
" />
<path d="M41.2744 126.4680
L41.2744 126.9442
" />
<path d="M41.2744 126.9442
L41.1792 127.3252
" />
<path d="M41.1792 127.3252
L41.0839 127.5157
" />
<path d="M41.0839 127.5157
L40.9887 127.6109
" />
<path d="M40.9887 127.6109
L40.7982 127.7061
" />
<path d="M40.7982 127.7061
L40.6078 127.7061
" />
<path d="M40.6078 127.7061
L40.4173 127.6109
" />
<path d="M40.4173 127.6109
L40.3220 127.5157
" />
<path d="M40.3220 127.5157
L40.2268 127.3252
" />
<path d="M40.2268 127.3252
L40.1316 126.9442
" />
<path d="M40.1316 126.9442
L40.1316 126.4680
" />
<path d="M40.1316 126.4680
L40.2268 126.0871
" />
<path d="M40.2268 126.0871
L40.3220 125.8966
" />
<path d="M40.3220 125.8966
L40.4173 125.8014
" />
<path d="M40.4173 125.8014
L40.6078 125.7061
" />
<path d="M42.0363 125.7061
L42.0363 126.0871
" />
<path d="M42.7982 125.7061
L42.7982 126.0871
" />
<path d="M45.7506 128.4680
L45.6554 128.3728
" />
<path d="M45.6554 128.3728
L45.4649 128.0871
" />
<path d="M45.4649 128.0871
L45.3697 127.8966
" />
<path d="M45.3697 127.8966
L45.2744 127.6109
" />
<path d="M45.2744 127.6109
L45.1792 127.1347
" />
<path d="M45.1792 127.1347
L45.1792 126.7538
" />
<path d="M45.1792 126.7538
L45.2744 126.2776
" />
<path d="M45.2744 126.2776
L45.3697 125.9919
" />
<path d="M45.3697 125.9919
L45.4649 125.8014
" />
<path d="M45.4649 125.8014
L45.6554 125.5157
" />
<path d="M45.6554 125.5157
L45.7506 125.4204
" />
<path d="M47.5601 127.7061
L46.4173 127.7061
" />
<path d="M46.9887 127.7061
L46.9887 125.7061
" />
<path d="M46.9887 125.7061
L46.7982 125.9919
" />
<path d="M46.7982 125.9919
L46.6078 126.1823
" />
<path d="M46.6078 126.1823
L46.4173 126.2776
" />
<path d="M49.9411 127.7061
L49.9411 125.7061
" />
<path d="M50.7982 127.7061
L50.7982 126.6585
" />
<path d="M50.7982 126.6585
L50.7030 126.4680
" />
<path d="M50.7030 126.4680
L50.5125 126.3728
" />
<path d="M50.5125 126.3728
L50.2268 126.3728
" />
<path d="M50.2268 126.3728
L50.0363 126.4680
" />
<path d="M50.0363 126.4680
L49.9411 126.5633
" />
<path d="M52.0363 127.7061
L51.8459 127.6109
" />
<path d="M51.8459 127.6109
L51.7506 127.5157
" />
<path d="M51.7506 127.5157
L51.6554 127.3252
" />
<path d="M51.6554 127.3252
L51.6554 126.7538
" />
<path d="M51.6554 126.7538
L51.7506 126.5633
" />
<path d="M51.7506 126.5633
L51.8459 126.4680
" />
<path d="M51.8459 126.4680
L52.0363 126.3728
" />
<path d="M52.0363 126.3728
L52.3220 126.3728
" />
<path d="M52.3220 126.3728
L52.5125 126.4680
" />
<path d="M52.5125 126.4680
L52.6078 126.5633
" />
<path d="M52.6078 126.5633
L52.7030 126.7538
" />
<path d="M52.7030 126.7538
L52.7030 127.3252
" />
<path d="M52.7030 127.3252
L52.6078 127.5157
" />
<path d="M52.6078 127.5157
L52.5125 127.6109
" />
<path d="M52.5125 127.6109
L52.3220 127.7061
" />
<path d="M52.3220 127.7061
L52.0363 127.7061
" />
<path d="M53.8459 127.7061
L53.6554 127.6109
" />
<path d="M53.6554 127.6109
L53.5601 127.4204
" />
<path d="M53.5601 127.4204
L53.5601 125.7061
" />
<path d="M55.3697 127.6109
L55.1792 127.7061
" />
<path d="M55.1792 127.7061
L54.7982 127.7061
" />
<path d="M54.7982 127.7061
L54.6078 127.6109
" />
<path d="M54.6078 127.6109
L54.5125 127.4204
" />
<path d="M54.5125 127.4204
L54.5125 126.6585
" />
<path d="M54.5125 126.6585
L54.6078 126.4680
" />
<path d="M54.6078 126.4680
L54.7982 126.3728
" />
<path d="M54.7982 126.3728
L55.1792 126.3728
" />
<path d="M55.1792 126.3728
L55.3697 126.4680
" />
<path d="M55.3697 126.4680
L55.4649 126.6585
" />
<path d="M55.4649 126.6585
L55.4649 126.8490
" />
<path d="M55.4649 126.8490
L54.5125 127.0395
" />
<path d="M56.1316 128.4680
L56.2268 128.3728
" />
<path d="M56.2268 128.3728
L56.4173 128.0871
" />
<path d="M56.4173 128.0871
L56.5125 127.8966
" />
<path d="M56.5125 127.8966
L56.6078 127.6109
" />
<path d="M56.6078 127.6109
L56.7030 127.1347
" />
<path d="M56.7030 127.1347
L56.7030 126.7538
" />
<path d="M56.7030 126.7538
L56.6078 126.2776
" />
<path d="M56.6078 126.2776
L56.5125 125.9919
" />
<path d="M56.5125 125.9919
L56.4173 125.8014
" />
<path d="M56.4173 125.8014
L56.2268 125.5157
" />
<path d="M56.2268 125.5157
L56.1316 125.4204
" />
<path d="M59.7506 128.4680
L59.6554 128.3728
" />
<path d="M59.6554 128.3728
L59.4649 128.0871
" />
<path d="M59.4649 128.0871
L59.3697 127.8966
" />
<path d="M59.3697 127.8966
L59.2744 127.6109
" />
<path d="M59.2744 127.6109
L59.1792 127.1347
" />
<path d="M59.1792 127.1347
L59.1792 126.7538
" />
<path d="M59.1792 126.7538
L59.2744 126.2776
" />
<path d="M59.2744 126.2776
L59.3697 125.9919
" />
<path d="M59.3697 125.9919
L59.4649 125.8014
" />
<path d="M59.4649 125.8014
L59.6554 125.5157
" />
<path d="M59.6554 125.5157
L59.7506 125.4204
" />
<path d="M60.5125 126.3728
L60.5125 127.7061
" />
<path d="M60.5125 126.5633
L60.6078 126.4680
" />
<path d="M60.6078 126.4680
L60.7982 126.3728
" />
<path d="M60.7982 126.3728
L61.0839 126.3728
" />
<path d="M61.0839 126.3728
L61.2744 126.4680
" />
<path d="M61.2744 126.4680
L61.3697 126.6585
" />
<path d="M61.3697 126.6585
L61.3697 127.7061
" />
<path d="M62.6078 127.7061
L62.4173 127.6109
" />
<path d="M62.4173 127.6109
L62.3220 127.5157
" />
<path d="M62.3220 127.5157
L62.2268 127.3252
" />
<path d="M62.2268 127.3252
L62.2268 126.7538
" />
<path d="M62.2268 126.7538
L62.3220 126.5633
" />
<path d="M62.3220 126.5633
L62.4173 126.4680
" />
<path d="M62.4173 126.4680
L62.6078 126.3728
" />
<path d="M62.6078 126.3728
L62.8935 126.3728
" />
<path d="M62.8935 126.3728
L63.0839 126.4680
" />
<path d="M63.0839 126.4680
L63.1792 126.5633
" />
<path d="M63.1792 126.5633
L63.2744 126.7538
" />
<path d="M63.2744 126.7538
L63.2744 127.3252
" />
<path d="M63.2744 127.3252
L63.1792 127.5157
" />
<path d="M63.1792 127.5157
L63.0839 127.6109
" />
<path d="M63.0839 127.6109
L62.8935 127.7061
" />
<path d="M62.8935 127.7061
L62.6078 127.7061
" />
<path d="M63.8458 126.3728
L64.6078 126.3728
" />
<path d="M64.1316 125.7061
L64.1316 127.4204
" />
<path d="M64.1316 127.4204
L64.2268 127.6109
" />
<path d="M64.2268 127.6109
L64.4173 127.7061
" />
<path d="M64.4173 127.7061
L64.6078 127.7061
" />
<path d="M66.7982 126.3728
L66.7982 128.3728
" />
<path d="M66.7982 126.4680
L66.9887 126.3728
" />
<path d="M66.9887 126.3728
L67.3697 126.3728
" />
<path d="M67.3697 126.3728
L67.5601 126.4680
" />
<path d="M67.5601 126.4680
L67.6554 126.5633
" />
<path d="M67.6554 126.5633
L67.7506 126.7538
" />
<path d="M67.7506 126.7538
L67.7506 127.3252
" />
<path d="M67.7506 127.3252
L67.6554 127.5157
" />
<path d="M67.6554 127.5157
L67.5601 127.6109
" />
<path d="M67.5601 127.6109
L67.3697 127.7061
" />
<path d="M67.3697 127.7061
L66.9887 127.7061
" />
<path d="M66.9887 127.7061
L66.7982 127.6109
" />
<path d="M68.8935 127.7061
L68.7030 127.6109
" />
<path d="M68.7030 127.6109
L68.6078 127.4204
" />
<path d="M68.6078 127.4204
L68.6078 125.7061
" />
<path d="M70.5125 127.7061
L70.5125 126.6585
" />
<path d="M70.5125 126.6585
L70.4173 126.4680
" />
<path d="M70.4173 126.4680
L70.2268 126.3728
" />
<path d="M70.2268 126.3728
L69.8458 126.3728
" />
<path d="M69.8458 126.3728
L69.6554 126.4680
" />
<path d="M70.5125 127.6109
L70.3220 127.7061
" />
<path d="M70.3220 127.7061
L69.8458 127.7061
" />
<path d="M69.8458 127.7061
L69.6554 127.6109
" />
<path d="M69.6554 127.6109
L69.5601 127.4204
" />
<path d="M69.5601 127.4204
L69.5601 127.2300
" />
<path d="M69.5601 127.2300
L69.6554 127.0395
" />
<path d="M69.6554 127.0395
L69.8458 126.9442
" />
<path d="M69.8458 126.9442
L70.3220 126.9442
" />
<path d="M70.3220 126.9442
L70.5125 126.8490
" />
<path d="M71.1792 126.3728
L71.9411 126.3728
" />
<path d="M71.4649 125.7061
L71.4649 127.4204
" />
<path d="M71.4649 127.4204
L71.5601 127.6109
" />
<path d="M71.5601 127.6109
L71.7506 127.7061
" />
<path d="M71.7506 127.7061
L71.9411 127.7061
" />
<path d="M73.3697 127.6109
L73.1792 127.7061
" />
<path d="M73.1792 127.7061
L72.7982 127.7061
" />
<path d="M72.7982 127.7061
L72.6077 127.6109
" />
<path d="M72.6077 127.6109
L72.5125 127.4204
" />
<path d="M72.5125 127.4204
L72.5125 126.6585
" />
<path d="M72.5125 126.6585
L72.6077 126.4680
" />
<path d="M72.6077 126.4680
L72.7982 126.3728
" />
<path d="M72.7982 126.3728
L73.1792 126.3728
" />
<path d="M73.1792 126.3728
L73.3697 126.4680
" />
<path d="M73.3697 126.4680
L73.4649 126.6585
" />
<path d="M73.4649 126.6585
L73.4649 126.8490
" />
<path d="M73.4649 126.8490
L72.5125 127.0395
" />
<path d="M75.1792 127.7061
L75.1792 125.7061
" />
<path d="M75.1792 127.6109
L74.9887 127.7061
" />
<path d="M74.9887 127.7061
L74.6077 127.7061
" />
<path d="M74.6077 127.7061
L74.4173 127.6109
" />
<path d="M74.4173 127.6109
L74.3220 127.5157
" />
<path d="M74.3220 127.5157
L74.2268 127.3252
" />
<path d="M74.2268 127.3252
L74.2268 126.7538
" />
<path d="M74.2268 126.7538
L74.3220 126.5633
" />
<path d="M74.3220 126.5633
L74.4173 126.4680
" />
<path d="M74.4173 126.4680
L74.6077 126.3728
" />
<path d="M74.6077 126.3728
L74.9887 126.3728
" />
<path d="M74.9887 126.3728
L75.1792 126.4680
" />
<path d="M75.9411 128.4680
L76.0363 128.3728
" />
<path d="M76.0363 128.3728
L76.2268 128.0871
" />
<path d="M76.2268 128.0871
L76.3220 127.8966
" />
<path d="M76.3220 127.8966
L76.4173 127.6109
" />
<path d="M76.4173 127.6109
L76.5125 127.1347
" />
<path d="M76.5125 127.1347
L76.5125 126.7538
" />
<path d="M76.5125 126.7538
L76.4173 126.2776
" />
<path d="M76.4173 126.2776
L76.3220 125.9919
" />
<path d="M76.3220 125.9919
L76.2268 125.8014
" />
<path d="M76.2268 125.8014
L76.0363 125.5157
" />
<path d="M76.0363 125.5157
L75.9411 125.4204
" />
</g></g> 
</svg>
