%TF.GenerationSoftware,KiCad,Pcbnew,(6.0.7)*%
%TF.CreationDate,2022-08-21T12:48:38-05:00*%
%TF.ProjectId,Game_Cat_R4,47616d65-5f43-4617-945f-52342e6b6963,4.1.4*%
%TF.SameCoordinates,Original*%
%TF.FileFunction,Drillmap*%
%TF.FilePolarity,Positive*%
%FSLAX45Y45*%
G04 Gerber Fmt 4.5, Leading zero omitted, Abs format (unit mm)*
G04 Created by KiCad (PCBNEW (6.0.7)) date 2022-08-21 12:48:38*
%MOMM*%
%LPD*%
G01*
G04 APERTURE LIST*
%ADD10C,0.100000*%
%ADD11C,0.200000*%
%ADD12C,0.020300*%
%ADD13C,0.025000*%
%ADD14C,0.029972*%
%ADD15C,0.035000*%
%ADD16C,0.060000*%
%ADD17C,0.076200*%
%ADD18C,0.078740*%
%ADD19C,0.080010*%
%ADD20C,0.088900*%
%ADD21C,0.089916*%
%ADD22C,0.099000*%
%ADD23C,0.101600*%
%ADD24C,0.110000*%
%ADD25C,0.130000*%
%ADD26C,0.139700*%
%ADD27C,0.228600*%
G04 APERTURE END LIST*
D10*
X8000000Y-7000000D02*
X18000000Y-7000000D01*
X8000000Y-13000000D02*
X18000000Y-13000000D01*
X8000000Y-7000000D02*
G75*
G03*
X8000000Y-13000000I0J-3000000D01*
G01*
X18150000Y-7250000D02*
G75*
G03*
X18150000Y-7250000I-150000J0D01*
G01*
X8150000Y-7250000D02*
G75*
G03*
X8150000Y-7250000I-150000J0D01*
G01*
X8150000Y-12750000D02*
G75*
G03*
X8150000Y-12750000I-150000J0D01*
G01*
X18150000Y-12750000D02*
G75*
G03*
X18150000Y-12750000I-150000J0D01*
G01*
X18000000Y-13000000D02*
G75*
G03*
X18000000Y-7000000I0J3000000D01*
G01*
D11*
D12*
X12161530Y-9974520D02*
X12181830Y-9994820D01*
X12181830Y-9974520D02*
X12161530Y-9994820D01*
X12212838Y-9974520D02*
X12233138Y-9994820D01*
X12233138Y-9974520D02*
X12212838Y-9994820D01*
X12212838Y-10075250D02*
X12233138Y-10095550D01*
X12233138Y-10075250D02*
X12212838Y-10095550D01*
X12263130Y-10075250D02*
X12283430Y-10095550D01*
X12283430Y-10075250D02*
X12263130Y-10095550D01*
X12893050Y-9526534D02*
X12913350Y-9546834D01*
X12913350Y-9526534D02*
X12893050Y-9546834D01*
X12893050Y-9591050D02*
X12913350Y-9611350D01*
X12913350Y-9591050D02*
X12893050Y-9611350D01*
X14137650Y-8676650D02*
X14157950Y-8696950D01*
X14157950Y-8676650D02*
X14137650Y-8696950D01*
D13*
X12687100Y-9550400D02*
G75*
G03*
X12687100Y-9550400I-12500J0D01*
G01*
X12763300Y-9550400D02*
G75*
G03*
X12763300Y-9550400I-12500J0D01*
G01*
X13017300Y-9550400D02*
G75*
G03*
X13017300Y-9550400I-12500J0D01*
G01*
X13093500Y-9471660D02*
G75*
G03*
X13093500Y-9471660I-12500J0D01*
G01*
X13093500Y-9550400D02*
G75*
G03*
X13093500Y-9550400I-12500J0D01*
G01*
D14*
X8255000Y-12748514D02*
X8255000Y-12778486D01*
X8240014Y-12763500D02*
X8269986Y-12763500D01*
X8445500Y-12748514D02*
X8445500Y-12778486D01*
X8430514Y-12763500D02*
X8460486Y-12763500D01*
X8636000Y-12746454D02*
X8636000Y-12776426D01*
X8621014Y-12761440D02*
X8650986Y-12761440D01*
X8826500Y-12742083D02*
X8826500Y-12772055D01*
X8811514Y-12757069D02*
X8841486Y-12757069D01*
X9103360Y-8455279D02*
X9103360Y-8485251D01*
X9088374Y-8470265D02*
X9118346Y-8470265D01*
X9232900Y-7219923D02*
X9232900Y-7249895D01*
X9217914Y-7234909D02*
X9247886Y-7234909D01*
X9296400Y-8263054D02*
X9296400Y-8293026D01*
X9281414Y-8278040D02*
X9311386Y-8278040D01*
X9423400Y-7219923D02*
X9423400Y-7249895D01*
X9408414Y-7234909D02*
X9438386Y-7234909D01*
X9423515Y-10208321D02*
X9423515Y-10238293D01*
X9408529Y-10223307D02*
X9438501Y-10223307D01*
X9423901Y-10269281D02*
X9423901Y-10299253D01*
X9408915Y-10284267D02*
X9438887Y-10284267D01*
X9575800Y-9586214D02*
X9575800Y-9616186D01*
X9560814Y-9601200D02*
X9590786Y-9601200D01*
X9618980Y-11585194D02*
X9618980Y-11615166D01*
X9603994Y-11600180D02*
X9633966Y-11600180D01*
X9618980Y-11661394D02*
X9618980Y-11691366D01*
X9603994Y-11676380D02*
X9633966Y-11676380D01*
X9639300Y-12748072D02*
X9639300Y-12778044D01*
X9624314Y-12763058D02*
X9654286Y-12763058D01*
X9677400Y-9586214D02*
X9677400Y-9616186D01*
X9662414Y-9601200D02*
X9692386Y-9601200D01*
X9753600Y-12100814D02*
X9753600Y-12130786D01*
X9738614Y-12115800D02*
X9768586Y-12115800D01*
X9753600Y-12177014D02*
X9753600Y-12206986D01*
X9738614Y-12192000D02*
X9768586Y-12192000D01*
X9829414Y-10208321D02*
X9829414Y-10238293D01*
X9814428Y-10223307D02*
X9844400Y-10223307D01*
X9829800Y-10269281D02*
X9829800Y-10299253D01*
X9814814Y-10284267D02*
X9844786Y-10284267D01*
X9829800Y-12748072D02*
X9829800Y-12778044D01*
X9814814Y-12763058D02*
X9844786Y-12763058D01*
X9931400Y-12100814D02*
X9931400Y-12130786D01*
X9916414Y-12115800D02*
X9946386Y-12115800D01*
X9994900Y-10932414D02*
X9994900Y-10962386D01*
X9979914Y-10947400D02*
X10009886Y-10947400D01*
X9994900Y-11008614D02*
X9994900Y-11038586D01*
X9979914Y-11023600D02*
X10009886Y-11023600D01*
X9994900Y-11084814D02*
X9994900Y-11114786D01*
X9979914Y-11099800D02*
X10009886Y-11099800D01*
X9994900Y-12177014D02*
X9994900Y-12206986D01*
X9979914Y-12192000D02*
X10009886Y-12192000D01*
X10020300Y-12746012D02*
X10020300Y-12775984D01*
X10005314Y-12760998D02*
X10035286Y-12760998D01*
X10210800Y-12741641D02*
X10210800Y-12771613D01*
X10195814Y-12756627D02*
X10225786Y-12756627D01*
X10248900Y-8290814D02*
X10248900Y-8320786D01*
X10233914Y-8305800D02*
X10263886Y-8305800D01*
X10501630Y-9002014D02*
X10501630Y-9031986D01*
X10486644Y-9017000D02*
X10516616Y-9017000D01*
X10501630Y-9078214D02*
X10501630Y-9108186D01*
X10486644Y-9093200D02*
X10516616Y-9093200D01*
X10501630Y-9154414D02*
X10501630Y-9184386D01*
X10486644Y-9169400D02*
X10516616Y-9169400D01*
X10668000Y-11186414D02*
X10668000Y-11216386D01*
X10653014Y-11201400D02*
X10682986Y-11201400D01*
X10668000Y-11288014D02*
X10668000Y-11317986D01*
X10653014Y-11303000D02*
X10682986Y-11303000D01*
X10668000Y-11389614D02*
X10668000Y-11419586D01*
X10653014Y-11404600D02*
X10682986Y-11404600D01*
X10867390Y-10952191D02*
X10867390Y-10982163D01*
X10852404Y-10967177D02*
X10882376Y-10967177D01*
X10867390Y-11028391D02*
X10867390Y-11058363D01*
X10852404Y-11043377D02*
X10882376Y-11043377D01*
X10881144Y-10761331D02*
X10881144Y-10791303D01*
X10866158Y-10776317D02*
X10896130Y-10776317D01*
X10881406Y-10823561D02*
X10881406Y-10853533D01*
X10866420Y-10838547D02*
X10896392Y-10838547D01*
X10937240Y-10952734D02*
X10937240Y-10982706D01*
X10922254Y-10967720D02*
X10952226Y-10967720D01*
X10937240Y-11028934D02*
X10937240Y-11058906D01*
X10922254Y-11043920D02*
X10952226Y-11043920D01*
X11150600Y-11719814D02*
X11150600Y-11749786D01*
X11135614Y-11734800D02*
X11165586Y-11734800D01*
X11176000Y-7220129D02*
X11176000Y-7250101D01*
X11161014Y-7235115D02*
X11190986Y-7235115D01*
X11226800Y-11719814D02*
X11226800Y-11749786D01*
X11211814Y-11734800D02*
X11241786Y-11734800D01*
X11303000Y-11719814D02*
X11303000Y-11749786D01*
X11288014Y-11734800D02*
X11317986Y-11734800D01*
X11303000Y-12744143D02*
X11303000Y-12774115D01*
X11288014Y-12759129D02*
X11317986Y-12759129D01*
X11366500Y-7220129D02*
X11366500Y-7250101D01*
X11351514Y-7235115D02*
X11381486Y-7235115D01*
X11424920Y-8316214D02*
X11424920Y-8346186D01*
X11409934Y-8331200D02*
X11439906Y-8331200D01*
X11487269Y-12215114D02*
X11487269Y-12245086D01*
X11472283Y-12230100D02*
X11502255Y-12230100D01*
X11493500Y-12744143D02*
X11493500Y-12774115D01*
X11478514Y-12759129D02*
X11508486Y-12759129D01*
X11550769Y-12214875D02*
X11550769Y-12244847D01*
X11535783Y-12229861D02*
X11565755Y-12229861D01*
X11577020Y-8763254D02*
X11577020Y-8793226D01*
X11562034Y-8778240D02*
X11592006Y-8778240D01*
X11684000Y-12742083D02*
X11684000Y-12772055D01*
X11669014Y-12757069D02*
X11698986Y-12757069D01*
X11836400Y-10197787D02*
X11836400Y-10227759D01*
X11821414Y-10212773D02*
X11851386Y-10212773D01*
X11836400Y-10294971D02*
X11836400Y-10324943D01*
X11821414Y-10309957D02*
X11851386Y-10309957D01*
X11874500Y-12737713D02*
X11874500Y-12767685D01*
X11859514Y-12752699D02*
X11889486Y-12752699D01*
X11963400Y-8316214D02*
X11963400Y-8346186D01*
X11948414Y-8331200D02*
X11978386Y-8331200D01*
X12033250Y-10187959D02*
X12033250Y-10217931D01*
X12018264Y-10202945D02*
X12048236Y-10202945D01*
X12062160Y-8763254D02*
X12062160Y-8793226D01*
X12047174Y-8778240D02*
X12077146Y-8778240D01*
X12262827Y-11120283D02*
X12262827Y-11150255D01*
X12247841Y-11135269D02*
X12277813Y-11135269D01*
X12263120Y-11195232D02*
X12263120Y-11225204D01*
X12248134Y-11210218D02*
X12278106Y-11210218D01*
X12344107Y-11120374D02*
X12344107Y-11150346D01*
X12329121Y-11135360D02*
X12359093Y-11135360D01*
X12344400Y-11195323D02*
X12344400Y-11225295D01*
X12329414Y-11210309D02*
X12359386Y-11210309D01*
X12379667Y-10561574D02*
X12379667Y-10591546D01*
X12364681Y-10576560D02*
X12394653Y-10576560D01*
X12379960Y-10636523D02*
X12379960Y-10666495D01*
X12364974Y-10651509D02*
X12394946Y-10651509D01*
X12425680Y-11120374D02*
X12425680Y-11150346D01*
X12410694Y-11135360D02*
X12440666Y-11135360D01*
X12425680Y-11196574D02*
X12425680Y-11226546D01*
X12410694Y-11211560D02*
X12440666Y-11211560D01*
X12446000Y-8316214D02*
X12446000Y-8346186D01*
X12431014Y-8331200D02*
X12460986Y-8331200D01*
X12461240Y-10561574D02*
X12461240Y-10591546D01*
X12446254Y-10576560D02*
X12476226Y-10576560D01*
X12461240Y-10637774D02*
X12461240Y-10667746D01*
X12446254Y-10652760D02*
X12476226Y-10652760D01*
X12512040Y-7222071D02*
X12512040Y-7252043D01*
X12497054Y-7237057D02*
X12527026Y-7237057D01*
X12599370Y-8763254D02*
X12599370Y-8793226D01*
X12584384Y-8778240D02*
X12614356Y-8778240D01*
X12616180Y-9903714D02*
X12616180Y-9933686D01*
X12601194Y-9918700D02*
X12631166Y-9918700D01*
X12616180Y-10005314D02*
X12616180Y-10035286D01*
X12601194Y-10020300D02*
X12631166Y-10020300D01*
X12616180Y-10208514D02*
X12616180Y-10238486D01*
X12601194Y-10223500D02*
X12631166Y-10223500D01*
X12616180Y-10310114D02*
X12616180Y-10340086D01*
X12601194Y-10325100D02*
X12631166Y-10325100D01*
X12616180Y-10411714D02*
X12616180Y-10441686D01*
X12601194Y-10426700D02*
X12631166Y-10426700D01*
X12702540Y-7222071D02*
X12702540Y-7252043D01*
X12687554Y-7237057D02*
X12717526Y-7237057D01*
X12717780Y-9903714D02*
X12717780Y-9933686D01*
X12702794Y-9918700D02*
X12732766Y-9918700D01*
X12717780Y-10005314D02*
X12717780Y-10035286D01*
X12702794Y-10020300D02*
X12732766Y-10020300D01*
X12717780Y-10208514D02*
X12717780Y-10238486D01*
X12702794Y-10223500D02*
X12732766Y-10223500D01*
X12717780Y-10310114D02*
X12717780Y-10340086D01*
X12702794Y-10325100D02*
X12732766Y-10325100D01*
X12717780Y-10411714D02*
X12717780Y-10441686D01*
X12702794Y-10426700D02*
X12732766Y-10426700D01*
X12903200Y-9903714D02*
X12903200Y-9933686D01*
X12888214Y-9918700D02*
X12918186Y-9918700D01*
X12903200Y-10005314D02*
X12903200Y-10035286D01*
X12888214Y-10020300D02*
X12918186Y-10020300D01*
X12910820Y-10208514D02*
X12910820Y-10238486D01*
X12895834Y-10223500D02*
X12925806Y-10223500D01*
X12910820Y-10310114D02*
X12910820Y-10340086D01*
X12895834Y-10325100D02*
X12925806Y-10325100D01*
X12910820Y-10411714D02*
X12910820Y-10441686D01*
X12895834Y-10426700D02*
X12925806Y-10426700D01*
X12985750Y-8316214D02*
X12985750Y-8346186D01*
X12970764Y-8331200D02*
X13000736Y-8331200D01*
X13012420Y-10208514D02*
X13012420Y-10238486D01*
X12997434Y-10223500D02*
X13027406Y-10223500D01*
X13012420Y-10310114D02*
X13012420Y-10340086D01*
X12997434Y-10325100D02*
X13027406Y-10325100D01*
X13012420Y-10411714D02*
X13012420Y-10441686D01*
X12997434Y-10426700D02*
X13027406Y-10426700D01*
X13087050Y-8763254D02*
X13087050Y-8793226D01*
X13072064Y-8778240D02*
X13102036Y-8778240D01*
X13114020Y-10005314D02*
X13114020Y-10035286D01*
X13099034Y-10020300D02*
X13129006Y-10020300D01*
X13114020Y-10106914D02*
X13114020Y-10136886D01*
X13099034Y-10121900D02*
X13129006Y-10121900D01*
X13114020Y-10208514D02*
X13114020Y-10238486D01*
X13099034Y-10223500D02*
X13129006Y-10223500D01*
X13114020Y-10310114D02*
X13114020Y-10340086D01*
X13099034Y-10325100D02*
X13129006Y-10325100D01*
X13114020Y-10411714D02*
X13114020Y-10441686D01*
X13099034Y-10426700D02*
X13129006Y-10426700D01*
X13314680Y-11418674D02*
X13314680Y-11448646D01*
X13299694Y-11433660D02*
X13329666Y-11433660D01*
X13411200Y-9033914D02*
X13411200Y-9063886D01*
X13396214Y-9048900D02*
X13426186Y-9048900D01*
X13456920Y-8316214D02*
X13456920Y-8346186D01*
X13441934Y-8331200D02*
X13471906Y-8331200D01*
X13487400Y-8763254D02*
X13487400Y-8793226D01*
X13472414Y-8778240D02*
X13502386Y-8778240D01*
X13766800Y-9852914D02*
X13766800Y-9882886D01*
X13751814Y-9867900D02*
X13781786Y-9867900D01*
X13774420Y-10170414D02*
X13774420Y-10200386D01*
X13759434Y-10185400D02*
X13789406Y-10185400D01*
X13809980Y-7222071D02*
X13809980Y-7252043D01*
X13794994Y-7237057D02*
X13824966Y-7237057D01*
X13825220Y-10094214D02*
X13825220Y-10124186D01*
X13810234Y-10109200D02*
X13840206Y-10109200D01*
X13825220Y-10246614D02*
X13825220Y-10276586D01*
X13810234Y-10261600D02*
X13840206Y-10261600D01*
X13830300Y-9271254D02*
X13830300Y-9301226D01*
X13815314Y-9286240D02*
X13845286Y-9286240D01*
X13893800Y-9184894D02*
X13893800Y-9214866D01*
X13878814Y-9199880D02*
X13908786Y-9199880D01*
X14000480Y-7222071D02*
X14000480Y-7252043D01*
X13985494Y-7237057D02*
X14015466Y-7237057D01*
X14020800Y-9184894D02*
X14020800Y-9214866D01*
X14005814Y-9199880D02*
X14035786Y-9199880D01*
X14020800Y-9271254D02*
X14020800Y-9301226D01*
X14005814Y-9286240D02*
X14035786Y-9286240D01*
X14160500Y-12739773D02*
X14160500Y-12769745D01*
X14145514Y-12754759D02*
X14175486Y-12754759D01*
X14284136Y-12214670D02*
X14284136Y-12244642D01*
X14269150Y-12229656D02*
X14299122Y-12229656D01*
X14350176Y-12215114D02*
X14350176Y-12245086D01*
X14335190Y-12230100D02*
X14365162Y-12230100D01*
X14351000Y-12739773D02*
X14351000Y-12769745D01*
X14336014Y-12754759D02*
X14365986Y-12754759D01*
X14523720Y-8654034D02*
X14523720Y-8684006D01*
X14508734Y-8669020D02*
X14538706Y-8669020D01*
X14526260Y-11145774D02*
X14526260Y-11175746D01*
X14511274Y-11160760D02*
X14541246Y-11160760D01*
X14541500Y-12737712D02*
X14541500Y-12767684D01*
X14526514Y-12752698D02*
X14556486Y-12752698D01*
X14732000Y-12733342D02*
X14732000Y-12763314D01*
X14717014Y-12748328D02*
X14746986Y-12748328D01*
X14762480Y-11145774D02*
X14762480Y-11175746D01*
X14747494Y-11160760D02*
X14777466Y-11160760D01*
X14935200Y-7665974D02*
X14935200Y-7695946D01*
X14920214Y-7680960D02*
X14950186Y-7680960D01*
X14935200Y-8255254D02*
X14935200Y-8285226D01*
X14920214Y-8270240D02*
X14950186Y-8270240D01*
X14986000Y-7224014D02*
X14986000Y-7253986D01*
X14971014Y-7239000D02*
X15000986Y-7239000D01*
X15173960Y-7665974D02*
X15173960Y-7695946D01*
X15158974Y-7680960D02*
X15188946Y-7680960D01*
X15176500Y-7224014D02*
X15176500Y-7253986D01*
X15161514Y-7239000D02*
X15191486Y-7239000D01*
X15367000Y-10377424D02*
X15367000Y-10407396D01*
X15352014Y-10392410D02*
X15381986Y-10392410D01*
X15430500Y-12735402D02*
X15430500Y-12765374D01*
X15415514Y-12750388D02*
X15445486Y-12750388D01*
X15442400Y-11867934D02*
X15442400Y-11897906D01*
X15427414Y-11882920D02*
X15457386Y-11882920D01*
X15487650Y-10377424D02*
X15487650Y-10407396D01*
X15472664Y-10392410D02*
X15502636Y-10392410D01*
X15529560Y-11285474D02*
X15529560Y-11315446D01*
X15514574Y-11300460D02*
X15544546Y-11300460D01*
X15543530Y-11872214D02*
X15543530Y-11902186D01*
X15528544Y-11887200D02*
X15558516Y-11887200D01*
X15548610Y-7935214D02*
X15548610Y-7965186D01*
X15533624Y-7950200D02*
X15563596Y-7950200D01*
X15548610Y-7996174D02*
X15548610Y-8026146D01*
X15533624Y-8011160D02*
X15563596Y-8011160D01*
X15612110Y-7935214D02*
X15612110Y-7965186D01*
X15597124Y-7950200D02*
X15627096Y-7950200D01*
X15612110Y-7996174D02*
X15612110Y-8026146D01*
X15597124Y-8011160D02*
X15627096Y-8011160D01*
X15616936Y-10377424D02*
X15616936Y-10407396D01*
X15601950Y-10392410D02*
X15631922Y-10392410D01*
X15619730Y-11796014D02*
X15619730Y-11825986D01*
X15604744Y-11811000D02*
X15634716Y-11811000D01*
X15619730Y-11872214D02*
X15619730Y-11902186D01*
X15604744Y-11887200D02*
X15634716Y-11887200D01*
X15621000Y-12735402D02*
X15621000Y-12765374D01*
X15606014Y-12750388D02*
X15635986Y-12750388D01*
X15697200Y-11707114D02*
X15697200Y-11737086D01*
X15682214Y-11722100D02*
X15712186Y-11722100D01*
X15743936Y-10377424D02*
X15743936Y-10407396D01*
X15728950Y-10392410D02*
X15758922Y-10392410D01*
X15811500Y-12733342D02*
X15811500Y-12763314D01*
X15796514Y-12748328D02*
X15826486Y-12748328D01*
X15976600Y-12250674D02*
X15976600Y-12280646D01*
X15961614Y-12265660D02*
X15991586Y-12265660D01*
X16037733Y-7935507D02*
X16037733Y-7965479D01*
X16022747Y-7950493D02*
X16052719Y-7950493D01*
X16037733Y-7996467D02*
X16037733Y-8026439D01*
X16022747Y-8011453D02*
X16052719Y-8011453D01*
X16101233Y-7935507D02*
X16101233Y-7965479D01*
X16086247Y-7950493D02*
X16116219Y-7950493D01*
X16101233Y-7996467D02*
X16101233Y-8026439D01*
X16086247Y-8011453D02*
X16116219Y-8011453D01*
X16179787Y-11056874D02*
X16179787Y-11086846D01*
X16164801Y-11071860D02*
X16194773Y-11071860D01*
X16179787Y-11112754D02*
X16179787Y-11142726D01*
X16164801Y-11127740D02*
X16194773Y-11127740D01*
X16474440Y-7933686D02*
X16474440Y-7963658D01*
X16459454Y-7948672D02*
X16489426Y-7948672D01*
X16474440Y-7994646D02*
X16474440Y-8024618D01*
X16459454Y-8009632D02*
X16489426Y-8009632D01*
X16482060Y-7222519D02*
X16482060Y-7252491D01*
X16467074Y-7237505D02*
X16497046Y-7237505D01*
X16492941Y-8786114D02*
X16492941Y-8816086D01*
X16477955Y-8801100D02*
X16507927Y-8801100D01*
X16493490Y-8849614D02*
X16493490Y-8879586D01*
X16478504Y-8864600D02*
X16508476Y-8864600D01*
X16537940Y-7933686D02*
X16537940Y-7963658D01*
X16522954Y-7948672D02*
X16552926Y-7948672D01*
X16537940Y-7994646D02*
X16537940Y-8024618D01*
X16522954Y-8009632D02*
X16552926Y-8009632D01*
X16672560Y-7222519D02*
X16672560Y-7252491D01*
X16657574Y-7237505D02*
X16687546Y-7237505D01*
X16997980Y-12400234D02*
X16997980Y-12430206D01*
X16982994Y-12415220D02*
X17012966Y-12415220D01*
X17056100Y-12400056D02*
X17056100Y-12430028D01*
X17041114Y-12415042D02*
X17071086Y-12415042D01*
X17145000Y-12735402D02*
X17145000Y-12765374D01*
X17130014Y-12750388D02*
X17159986Y-12750388D01*
X17260378Y-8786114D02*
X17260378Y-8816086D01*
X17245392Y-8801100D02*
X17275364Y-8801100D01*
X17260570Y-8849614D02*
X17260570Y-8879586D01*
X17245584Y-8864600D02*
X17275556Y-8864600D01*
X17335500Y-12735402D02*
X17335500Y-12765374D01*
X17320514Y-12750388D02*
X17350486Y-12750388D01*
X17526000Y-12733342D02*
X17526000Y-12763314D01*
X17511014Y-12748328D02*
X17540986Y-12748328D01*
X17716500Y-12728971D02*
X17716500Y-12758943D01*
X17701514Y-12743957D02*
X17731486Y-12743957D01*
X18542000Y-9840214D02*
X18542000Y-9870186D01*
X18527014Y-9855200D02*
X18556986Y-9855200D01*
X18592800Y-9789414D02*
X18592800Y-9819386D01*
X18577814Y-9804400D02*
X18607786Y-9804400D01*
X18770600Y-7655814D02*
X18770600Y-7685786D01*
X18755614Y-7670800D02*
X18785586Y-7670800D01*
X19253200Y-9095994D02*
X19253200Y-9125966D01*
X19238214Y-9110980D02*
X19268186Y-9110980D01*
X19293840Y-9139174D02*
X19293840Y-9169146D01*
X19278854Y-9154160D02*
X19308826Y-9154160D01*
D15*
X19557675Y-8734735D02*
X19557675Y-8709986D01*
X19532926Y-8709986D01*
X19532926Y-8734735D01*
X19557675Y-8734735D01*
X19603395Y-8777915D02*
X19603395Y-8753166D01*
X19578646Y-8753166D01*
X19578646Y-8777915D01*
X19603395Y-8777915D01*
D16*
X15392200Y-7196901D02*
X15422200Y-7166901D01*
X15392200Y-7136901D01*
X15362200Y-7166901D01*
X15392200Y-7196901D01*
D11*
X15422200Y-7196901D02*
X15422200Y-7136901D01*
X15362200Y-7196901D02*
X15362200Y-7136901D01*
X15422200Y-7136901D02*
G75*
G03*
X15362200Y-7136901I-30000J0D01*
G01*
X15362200Y-7196901D02*
G75*
G03*
X15422200Y-7196901I30000J0D01*
G01*
D16*
X15392200Y-7614901D02*
X15422200Y-7584901D01*
X15392200Y-7554901D01*
X15362200Y-7584901D01*
X15392200Y-7614901D01*
D11*
X15422200Y-7639901D02*
X15422200Y-7529901D01*
X15362200Y-7639901D02*
X15362200Y-7529901D01*
X15422200Y-7529901D02*
G75*
G03*
X15362200Y-7529901I-30000J0D01*
G01*
X15362200Y-7639901D02*
G75*
G03*
X15422200Y-7639901I30000J0D01*
G01*
D16*
X16256200Y-7196901D02*
X16286200Y-7166901D01*
X16256200Y-7136901D01*
X16226200Y-7166901D01*
X16256200Y-7196901D01*
D11*
X16286200Y-7196901D02*
X16286200Y-7136901D01*
X16226200Y-7196901D02*
X16226200Y-7136901D01*
X16286200Y-7136901D02*
G75*
G03*
X16226200Y-7136901I-30000J0D01*
G01*
X16226200Y-7196901D02*
G75*
G03*
X16286200Y-7196901I30000J0D01*
G01*
D16*
X16256200Y-7614901D02*
X16286200Y-7584901D01*
X16256200Y-7554901D01*
X16226200Y-7584901D01*
X16256200Y-7614901D01*
D11*
X16286200Y-7639901D02*
X16286200Y-7529901D01*
X16226200Y-7639901D02*
X16226200Y-7529901D01*
X16286200Y-7529901D02*
G75*
G03*
X16226200Y-7529901I-30000J0D01*
G01*
X16226200Y-7639901D02*
G75*
G03*
X16286200Y-7639901I30000J0D01*
G01*
D17*
X16173450Y-11594800D02*
X16249650Y-11671000D01*
X16249650Y-11594800D02*
X16173450Y-11671000D01*
X16249650Y-11632900D02*
G75*
G03*
X16249650Y-11632900I-38100J0D01*
G01*
D18*
X16172180Y-11847530D02*
X16250920Y-11926270D01*
X16250920Y-11847530D02*
X16172180Y-11926270D01*
X16211550Y-11847530D02*
X16211550Y-11926270D01*
X16172180Y-11886900D02*
X16250920Y-11886900D01*
D19*
X12071994Y-12634595D02*
X12152004Y-12714605D01*
X12152004Y-12634595D02*
X12071994Y-12714605D01*
X12140287Y-12702888D02*
X12140287Y-12646312D01*
X12083711Y-12646312D01*
X12083711Y-12702888D01*
X12140287Y-12702888D01*
X12325994Y-12634595D02*
X12406004Y-12714605D01*
X12406004Y-12634595D02*
X12325994Y-12714605D01*
X12394287Y-12702888D02*
X12394287Y-12646312D01*
X12337711Y-12646312D01*
X12337711Y-12702888D01*
X12394287Y-12702888D01*
X12579994Y-12634595D02*
X12660004Y-12714605D01*
X12660004Y-12634595D02*
X12579994Y-12714605D01*
X12648287Y-12702888D02*
X12648287Y-12646312D01*
X12591711Y-12646312D01*
X12591711Y-12702888D01*
X12648287Y-12702888D01*
X12833994Y-12634595D02*
X12914004Y-12714605D01*
X12914004Y-12634595D02*
X12833994Y-12714605D01*
X12902287Y-12702888D02*
X12902287Y-12646312D01*
X12845711Y-12646312D01*
X12845711Y-12702888D01*
X12902287Y-12702888D01*
X13087994Y-12634595D02*
X13168004Y-12714605D01*
X13168004Y-12634595D02*
X13087994Y-12714605D01*
X13156287Y-12702888D02*
X13156287Y-12646312D01*
X13099711Y-12646312D01*
X13099711Y-12702888D01*
X13156287Y-12702888D01*
X13341994Y-12634595D02*
X13422004Y-12714605D01*
X13422004Y-12634595D02*
X13341994Y-12714605D01*
X13410287Y-12702888D02*
X13410287Y-12646312D01*
X13353711Y-12646312D01*
X13353711Y-12702888D01*
X13410287Y-12702888D01*
X13595994Y-12634595D02*
X13676004Y-12714605D01*
X13676004Y-12634595D02*
X13595994Y-12714605D01*
X13664287Y-12702888D02*
X13664287Y-12646312D01*
X13607711Y-12646312D01*
X13607711Y-12702888D01*
X13664287Y-12702888D01*
X13849994Y-12634595D02*
X13930004Y-12714605D01*
X13930004Y-12634595D02*
X13849994Y-12714605D01*
X13918287Y-12702888D02*
X13918287Y-12646312D01*
X13861711Y-12646312D01*
X13861711Y-12702888D01*
X13918287Y-12702888D01*
D20*
X7701550Y-10958850D02*
X7790450Y-11047750D01*
X7790450Y-10958850D02*
X7701550Y-11047750D01*
X7746000Y-11047750D02*
X7790450Y-11003300D01*
X7746000Y-10958850D01*
X7701550Y-11003300D01*
X7746000Y-11047750D01*
X7955550Y-10958850D02*
X8044450Y-11047750D01*
X8044450Y-10958850D02*
X7955550Y-11047750D01*
X8000000Y-11047750D02*
X8044450Y-11003300D01*
X8000000Y-10958850D01*
X7955550Y-11003300D01*
X8000000Y-11047750D01*
X8209550Y-10958850D02*
X8298450Y-11047750D01*
X8298450Y-10958850D02*
X8209550Y-11047750D01*
X8254000Y-11047750D02*
X8298450Y-11003300D01*
X8254000Y-10958850D01*
X8209550Y-11003300D01*
X8254000Y-11047750D01*
X8958850Y-9701550D02*
X9047750Y-9790450D01*
X9047750Y-9701550D02*
X8958850Y-9790450D01*
X9003300Y-9790450D02*
X9047750Y-9746000D01*
X9003300Y-9701550D01*
X8958850Y-9746000D01*
X9003300Y-9790450D01*
X8958850Y-9955550D02*
X9047750Y-10044450D01*
X9047750Y-9955550D02*
X8958850Y-10044450D01*
X9003300Y-10044450D02*
X9047750Y-10000000D01*
X9003300Y-9955550D01*
X8958850Y-10000000D01*
X9003300Y-10044450D01*
X8958850Y-10209550D02*
X9047750Y-10298450D01*
X9047750Y-10209550D02*
X8958850Y-10298450D01*
X9003300Y-10298450D02*
X9047750Y-10254000D01*
X9003300Y-10209550D01*
X8958850Y-10254000D01*
X9003300Y-10298450D01*
D21*
X6775000Y-9630042D02*
X6775000Y-9719958D01*
X6730042Y-9675000D02*
X6819958Y-9675000D01*
X6819958Y-9675000D02*
G75*
G03*
X6819958Y-9675000I-44958J0D01*
G01*
X6775000Y-10280042D02*
X6775000Y-10369958D01*
X6730042Y-10325000D02*
X6819958Y-10325000D01*
X6819958Y-10325000D02*
G75*
G03*
X6819958Y-10325000I-44958J0D01*
G01*
X7225000Y-9630042D02*
X7225000Y-9719958D01*
X7180042Y-9675000D02*
X7269958Y-9675000D01*
X7269958Y-9675000D02*
G75*
G03*
X7269958Y-9675000I-44958J0D01*
G01*
X7225000Y-10280042D02*
X7225000Y-10369958D01*
X7180042Y-10325000D02*
X7269958Y-10325000D01*
X7269958Y-10325000D02*
G75*
G03*
X7269958Y-10325000I-44958J0D01*
G01*
D22*
X8544002Y-7312102D02*
X8544002Y-7242098D01*
X8473998Y-7242098D01*
X8473998Y-7312102D01*
X8544002Y-7312102D01*
X8558500Y-7277100D02*
G75*
G03*
X8558500Y-7277100I-49500J0D01*
G01*
X8994002Y-7312102D02*
X8994002Y-7242098D01*
X8923998Y-7242098D01*
X8923998Y-7312102D01*
X8994002Y-7312102D01*
X9008500Y-7277100D02*
G75*
G03*
X9008500Y-7277100I-49500J0D01*
G01*
X17053002Y-7312102D02*
X17053002Y-7242098D01*
X16982998Y-7242098D01*
X16982998Y-7312102D01*
X17053002Y-7312102D01*
X17067500Y-7277100D02*
G75*
G03*
X17067500Y-7277100I-49500J0D01*
G01*
X17503002Y-7312102D02*
X17503002Y-7242098D01*
X17432998Y-7242098D01*
X17432998Y-7312102D01*
X17503002Y-7312102D01*
X17517500Y-7277100D02*
G75*
G03*
X17517500Y-7277100I-49500J0D01*
G01*
D10*
X6775000Y-7720800D02*
X6825000Y-7670800D01*
X6775000Y-7620800D01*
X6725000Y-7670800D01*
X6775000Y-7720800D01*
X6825000Y-7670800D02*
G75*
G03*
X6825000Y-7670800I-50000J0D01*
G01*
X6775000Y-8480800D02*
X6825000Y-8430800D01*
X6775000Y-8380800D01*
X6725000Y-8430800D01*
X6775000Y-8480800D01*
X6825000Y-8430800D02*
G75*
G03*
X6825000Y-8430800I-50000J0D01*
G01*
X10083300Y-7692860D02*
X10133300Y-7642860D01*
X10083300Y-7592860D01*
X10033300Y-7642860D01*
X10083300Y-7692860D01*
X10133300Y-7642860D02*
G75*
G03*
X10133300Y-7642860I-50000J0D01*
G01*
X10083300Y-7946860D02*
X10133300Y-7896860D01*
X10083300Y-7846860D01*
X10033300Y-7896860D01*
X10083300Y-7946860D01*
X10133300Y-7896860D02*
G75*
G03*
X10133300Y-7896860I-50000J0D01*
G01*
X10337300Y-7692860D02*
X10387300Y-7642860D01*
X10337300Y-7592860D01*
X10287300Y-7642860D01*
X10337300Y-7692860D01*
X10387300Y-7642860D02*
G75*
G03*
X10387300Y-7642860I-50000J0D01*
G01*
X10337300Y-7946860D02*
X10387300Y-7896860D01*
X10337300Y-7846860D01*
X10287300Y-7896860D01*
X10337300Y-7946860D01*
X10387300Y-7896860D02*
G75*
G03*
X10387300Y-7896860I-50000J0D01*
G01*
X10591300Y-7692860D02*
X10641300Y-7642860D01*
X10591300Y-7592860D01*
X10541300Y-7642860D01*
X10591300Y-7692860D01*
X10641300Y-7642860D02*
G75*
G03*
X10641300Y-7642860I-50000J0D01*
G01*
X10591300Y-7946860D02*
X10641300Y-7896860D01*
X10591300Y-7846860D01*
X10541300Y-7896860D01*
X10591300Y-7946860D01*
X10641300Y-7896860D02*
G75*
G03*
X10641300Y-7896860I-50000J0D01*
G01*
D23*
X11576200Y-7541260D02*
X11576200Y-7642860D01*
X11525400Y-7592060D02*
X11627000Y-7592060D01*
X11612121Y-7627981D02*
X11612121Y-7556139D01*
X11540279Y-7556139D01*
X11540279Y-7627981D01*
X11612121Y-7627981D01*
X11830200Y-7541260D02*
X11830200Y-7642860D01*
X11779400Y-7592060D02*
X11881000Y-7592060D01*
X11866121Y-7627981D02*
X11866121Y-7556139D01*
X11794279Y-7556139D01*
X11794279Y-7627981D01*
X11866121Y-7627981D01*
X12084200Y-7541260D02*
X12084200Y-7642860D01*
X12033400Y-7592060D02*
X12135000Y-7592060D01*
X12120121Y-7627981D02*
X12120121Y-7556139D01*
X12048279Y-7556139D01*
X12048279Y-7627981D01*
X12120121Y-7627981D01*
X12338200Y-7541260D02*
X12338200Y-7642860D01*
X12287400Y-7592060D02*
X12389000Y-7592060D01*
X12374121Y-7627981D02*
X12374121Y-7556139D01*
X12302279Y-7556139D01*
X12302279Y-7627981D01*
X12374121Y-7627981D01*
X12876200Y-7541260D02*
X12876200Y-7642860D01*
X12825400Y-7592060D02*
X12927000Y-7592060D01*
X12912121Y-7627981D02*
X12912121Y-7556139D01*
X12840279Y-7556139D01*
X12840279Y-7627981D01*
X12912121Y-7627981D01*
X13130200Y-7541260D02*
X13130200Y-7642860D01*
X13079400Y-7592060D02*
X13181000Y-7592060D01*
X13166121Y-7627981D02*
X13166121Y-7556139D01*
X13094279Y-7556139D01*
X13094279Y-7627981D01*
X13166121Y-7627981D01*
X13384200Y-7541260D02*
X13384200Y-7642860D01*
X13333400Y-7592060D02*
X13435000Y-7592060D01*
X13420121Y-7627981D02*
X13420121Y-7556139D01*
X13348279Y-7556139D01*
X13348279Y-7627981D01*
X13420121Y-7627981D01*
X13638200Y-7541260D02*
X13638200Y-7642860D01*
X13587400Y-7592060D02*
X13689000Y-7592060D01*
X13674121Y-7627981D02*
X13674121Y-7556139D01*
X13602279Y-7556139D01*
X13602279Y-7627981D01*
X13674121Y-7627981D01*
X14175740Y-7541260D02*
X14175740Y-7642860D01*
X14124940Y-7592060D02*
X14226540Y-7592060D01*
X14211661Y-7627981D02*
X14211661Y-7556139D01*
X14139819Y-7556139D01*
X14139819Y-7627981D01*
X14211661Y-7627981D01*
X14429740Y-7541260D02*
X14429740Y-7642860D01*
X14378940Y-7592060D02*
X14480540Y-7592060D01*
X14465661Y-7627981D02*
X14465661Y-7556139D01*
X14393819Y-7556139D01*
X14393819Y-7627981D01*
X14465661Y-7627981D01*
X14683740Y-7541260D02*
X14683740Y-7642860D01*
X14632940Y-7592060D02*
X14734540Y-7592060D01*
X14719661Y-7627981D02*
X14719661Y-7556139D01*
X14647819Y-7556139D01*
X14647819Y-7627981D01*
X14719661Y-7627981D01*
D24*
X5410200Y-9190600D02*
X5410200Y-9300600D01*
X5355200Y-9245600D02*
X5465200Y-9245600D01*
X5410200Y-9300600D02*
X5465200Y-9245600D01*
X5410200Y-9190600D01*
X5355200Y-9245600D01*
X5410200Y-9300600D01*
X5728398Y-9508798D02*
X5728398Y-9618798D01*
X5673398Y-9563798D02*
X5783398Y-9563798D01*
X5728398Y-9618798D02*
X5783398Y-9563798D01*
X5728398Y-9508798D01*
X5673398Y-9563798D01*
X5728398Y-9618798D01*
X5869819Y-8730981D02*
X5869819Y-8840981D01*
X5814819Y-8785981D02*
X5924819Y-8785981D01*
X5869819Y-8840981D02*
X5924819Y-8785981D01*
X5869819Y-8730981D01*
X5814819Y-8785981D01*
X5869819Y-8840981D01*
X6188017Y-9049179D02*
X6188017Y-9159179D01*
X6133017Y-9104179D02*
X6243017Y-9104179D01*
X6188017Y-9159179D02*
X6243017Y-9104179D01*
X6188017Y-9049179D01*
X6133017Y-9104179D01*
X6188017Y-9159179D01*
D25*
X8384000Y-7591100D02*
X8449000Y-7526100D01*
X8384000Y-7461100D01*
X8319000Y-7526100D01*
X8384000Y-7591100D01*
X8429962Y-7572062D02*
X8429962Y-7480138D01*
X8338038Y-7480138D01*
X8338038Y-7572062D01*
X8429962Y-7572062D01*
X9085000Y-7591100D02*
X9150000Y-7526100D01*
X9085000Y-7461100D01*
X9020000Y-7526100D01*
X9085000Y-7591100D01*
X9130962Y-7572062D02*
X9130962Y-7480138D01*
X9039038Y-7480138D01*
X9039038Y-7572062D01*
X9130962Y-7572062D01*
X16893000Y-7591100D02*
X16958000Y-7526100D01*
X16893000Y-7461100D01*
X16828000Y-7526100D01*
X16893000Y-7591100D01*
X16938962Y-7572062D02*
X16938962Y-7480138D01*
X16847038Y-7480138D01*
X16847038Y-7572062D01*
X16938962Y-7572062D01*
X17594000Y-7591100D02*
X17659000Y-7526100D01*
X17594000Y-7461100D01*
X17529000Y-7526100D01*
X17594000Y-7591100D01*
X17639962Y-7572062D02*
X17639962Y-7480138D01*
X17548038Y-7480138D01*
X17548038Y-7572062D01*
X17639962Y-7572062D01*
D26*
X7250700Y-9180850D02*
X7390400Y-9320550D01*
X7390400Y-9180850D02*
X7250700Y-9320550D01*
X7320550Y-9180850D02*
X7320550Y-9320550D01*
X7250700Y-9250700D02*
X7390400Y-9250700D01*
X7390400Y-9250700D02*
G75*
G03*
X7390400Y-9250700I-69850J0D01*
G01*
X7250700Y-10679450D02*
X7390400Y-10819150D01*
X7390400Y-10679450D02*
X7250700Y-10819150D01*
X7320550Y-10679450D02*
X7320550Y-10819150D01*
X7250700Y-10749300D02*
X7390400Y-10749300D01*
X7390400Y-10749300D02*
G75*
G03*
X7390400Y-10749300I-69850J0D01*
G01*
X8609600Y-9180850D02*
X8749300Y-9320550D01*
X8749300Y-9180850D02*
X8609600Y-9320550D01*
X8679450Y-9180850D02*
X8679450Y-9320550D01*
X8609600Y-9250700D02*
X8749300Y-9250700D01*
X8749300Y-9250700D02*
G75*
G03*
X8749300Y-9250700I-69850J0D01*
G01*
X8609600Y-10679450D02*
X8749300Y-10819150D01*
X8749300Y-10679450D02*
X8609600Y-10819150D01*
X8679450Y-10679450D02*
X8679450Y-10819150D01*
X8609600Y-10749300D02*
X8749300Y-10749300D01*
X8749300Y-10749300D02*
G75*
G03*
X8749300Y-10749300I-69850J0D01*
G01*
D27*
X10828299Y-8520900D02*
X11056899Y-8749500D01*
X11056899Y-8520900D02*
X10828299Y-8749500D01*
X11023423Y-8716023D02*
X11023423Y-8554377D01*
X10861776Y-8554377D01*
X10861776Y-8716023D01*
X11023423Y-8716023D01*
X11056899Y-8635200D02*
G75*
G03*
X11056899Y-8635200I-114300J0D01*
G01*
X10828299Y-12635700D02*
X11056899Y-12864300D01*
X11056899Y-12635700D02*
X10828299Y-12864300D01*
X11023423Y-12830823D02*
X11023423Y-12669177D01*
X10861776Y-12669177D01*
X10861776Y-12830823D01*
X11023423Y-12830823D01*
X11056899Y-12750000D02*
G75*
G03*
X11056899Y-12750000I-114300J0D01*
G01*
X14943099Y-8520900D02*
X15171699Y-8749500D01*
X15171699Y-8520900D02*
X14943099Y-8749500D01*
X15138222Y-8716023D02*
X15138222Y-8554377D01*
X14976576Y-8554377D01*
X14976576Y-8716023D01*
X15138222Y-8716023D01*
X15171699Y-8635200D02*
G75*
G03*
X15171699Y-8635200I-114300J0D01*
G01*
X14943099Y-12635700D02*
X15171699Y-12864300D01*
X15171699Y-12635700D02*
X14943099Y-12864300D01*
X15138222Y-12830823D02*
X15138222Y-12669177D01*
X14976576Y-12669177D01*
X14976576Y-12830823D01*
X15138222Y-12830823D01*
X15171699Y-12750000D02*
G75*
G03*
X15171699Y-12750000I-114300J0D01*
G01*
D11*
X5252619Y-13315476D02*
X5252619Y-13115476D01*
X5300238Y-13115476D01*
X5328810Y-13125000D01*
X5347857Y-13144048D01*
X5357381Y-13163095D01*
X5366905Y-13201190D01*
X5366905Y-13229762D01*
X5357381Y-13267857D01*
X5347857Y-13286905D01*
X5328810Y-13305952D01*
X5300238Y-13315476D01*
X5252619Y-13315476D01*
X5452619Y-13315476D02*
X5452619Y-13182143D01*
X5452619Y-13220238D02*
X5462143Y-13201190D01*
X5471667Y-13191667D01*
X5490714Y-13182143D01*
X5509762Y-13182143D01*
X5576429Y-13315476D02*
X5576429Y-13182143D01*
X5576429Y-13115476D02*
X5566905Y-13125000D01*
X5576429Y-13134524D01*
X5585952Y-13125000D01*
X5576429Y-13115476D01*
X5576429Y-13134524D01*
X5700238Y-13315476D02*
X5681190Y-13305952D01*
X5671667Y-13286905D01*
X5671667Y-13115476D01*
X5805000Y-13315476D02*
X5785952Y-13305952D01*
X5776428Y-13286905D01*
X5776428Y-13115476D01*
X6033571Y-13315476D02*
X6033571Y-13115476D01*
X6100238Y-13258333D01*
X6166905Y-13115476D01*
X6166905Y-13315476D01*
X6347857Y-13315476D02*
X6347857Y-13210714D01*
X6338333Y-13191667D01*
X6319286Y-13182143D01*
X6281190Y-13182143D01*
X6262143Y-13191667D01*
X6347857Y-13305952D02*
X6328809Y-13315476D01*
X6281190Y-13315476D01*
X6262143Y-13305952D01*
X6252619Y-13286905D01*
X6252619Y-13267857D01*
X6262143Y-13248809D01*
X6281190Y-13239286D01*
X6328809Y-13239286D01*
X6347857Y-13229762D01*
X6443095Y-13182143D02*
X6443095Y-13382143D01*
X6443095Y-13191667D02*
X6462143Y-13182143D01*
X6500238Y-13182143D01*
X6519286Y-13191667D01*
X6528809Y-13201190D01*
X6538333Y-13220238D01*
X6538333Y-13277381D01*
X6528809Y-13296428D01*
X6519286Y-13305952D01*
X6500238Y-13315476D01*
X6462143Y-13315476D01*
X6443095Y-13305952D01*
X6624048Y-13296428D02*
X6633571Y-13305952D01*
X6624048Y-13315476D01*
X6614524Y-13305952D01*
X6624048Y-13296428D01*
X6624048Y-13315476D01*
X6624048Y-13191667D02*
X6633571Y-13201190D01*
X6624048Y-13210714D01*
X6614524Y-13201190D01*
X6624048Y-13191667D01*
X6624048Y-13210714D01*
D12*
X4974700Y-13634850D02*
X4995000Y-13655150D01*
X4995000Y-13634850D02*
X4974700Y-13655150D01*
D11*
X5290714Y-13535476D02*
X5309762Y-13535476D01*
X5328810Y-13545000D01*
X5338333Y-13554524D01*
X5347857Y-13573571D01*
X5357381Y-13611667D01*
X5357381Y-13659286D01*
X5347857Y-13697381D01*
X5338333Y-13716428D01*
X5328810Y-13725952D01*
X5309762Y-13735476D01*
X5290714Y-13735476D01*
X5271667Y-13725952D01*
X5262143Y-13716428D01*
X5252619Y-13697381D01*
X5243095Y-13659286D01*
X5243095Y-13611667D01*
X5252619Y-13573571D01*
X5262143Y-13554524D01*
X5271667Y-13545000D01*
X5290714Y-13535476D01*
X5443095Y-13716428D02*
X5452619Y-13725952D01*
X5443095Y-13735476D01*
X5433571Y-13725952D01*
X5443095Y-13716428D01*
X5443095Y-13735476D01*
X5528810Y-13554524D02*
X5538333Y-13545000D01*
X5557381Y-13535476D01*
X5605000Y-13535476D01*
X5624048Y-13545000D01*
X5633571Y-13554524D01*
X5643095Y-13573571D01*
X5643095Y-13592619D01*
X5633571Y-13621190D01*
X5519286Y-13735476D01*
X5643095Y-13735476D01*
X5766905Y-13535476D02*
X5785952Y-13535476D01*
X5805000Y-13545000D01*
X5814524Y-13554524D01*
X5824048Y-13573571D01*
X5833571Y-13611667D01*
X5833571Y-13659286D01*
X5824048Y-13697381D01*
X5814524Y-13716428D01*
X5805000Y-13725952D01*
X5785952Y-13735476D01*
X5766905Y-13735476D01*
X5747857Y-13725952D01*
X5738333Y-13716428D01*
X5728809Y-13697381D01*
X5719286Y-13659286D01*
X5719286Y-13611667D01*
X5728809Y-13573571D01*
X5738333Y-13554524D01*
X5747857Y-13545000D01*
X5766905Y-13535476D01*
X5900238Y-13535476D02*
X6024048Y-13535476D01*
X5957381Y-13611667D01*
X5985952Y-13611667D01*
X6005000Y-13621190D01*
X6014524Y-13630714D01*
X6024048Y-13649762D01*
X6024048Y-13697381D01*
X6014524Y-13716428D01*
X6005000Y-13725952D01*
X5985952Y-13735476D01*
X5928809Y-13735476D01*
X5909762Y-13725952D01*
X5900238Y-13716428D01*
X6109762Y-13735476D02*
X6109762Y-13602143D01*
X6109762Y-13621190D02*
X6119286Y-13611667D01*
X6138333Y-13602143D01*
X6166905Y-13602143D01*
X6185952Y-13611667D01*
X6195476Y-13630714D01*
X6195476Y-13735476D01*
X6195476Y-13630714D02*
X6205000Y-13611667D01*
X6224048Y-13602143D01*
X6252619Y-13602143D01*
X6271667Y-13611667D01*
X6281190Y-13630714D01*
X6281190Y-13735476D01*
X6376428Y-13735476D02*
X6376428Y-13602143D01*
X6376428Y-13621190D02*
X6385952Y-13611667D01*
X6405000Y-13602143D01*
X6433571Y-13602143D01*
X6452619Y-13611667D01*
X6462143Y-13630714D01*
X6462143Y-13735476D01*
X6462143Y-13630714D02*
X6471667Y-13611667D01*
X6490714Y-13602143D01*
X6519286Y-13602143D01*
X6538333Y-13611667D01*
X6547857Y-13630714D01*
X6547857Y-13735476D01*
X6938333Y-13525952D02*
X6766905Y-13783095D01*
X7195476Y-13535476D02*
X7214524Y-13535476D01*
X7233571Y-13545000D01*
X7243095Y-13554524D01*
X7252619Y-13573571D01*
X7262143Y-13611667D01*
X7262143Y-13659286D01*
X7252619Y-13697381D01*
X7243095Y-13716428D01*
X7233571Y-13725952D01*
X7214524Y-13735476D01*
X7195476Y-13735476D01*
X7176428Y-13725952D01*
X7166905Y-13716428D01*
X7157381Y-13697381D01*
X7147857Y-13659286D01*
X7147857Y-13611667D01*
X7157381Y-13573571D01*
X7166905Y-13554524D01*
X7176428Y-13545000D01*
X7195476Y-13535476D01*
X7347857Y-13716428D02*
X7357381Y-13725952D01*
X7347857Y-13735476D01*
X7338333Y-13725952D01*
X7347857Y-13716428D01*
X7347857Y-13735476D01*
X7481190Y-13535476D02*
X7500238Y-13535476D01*
X7519286Y-13545000D01*
X7528809Y-13554524D01*
X7538333Y-13573571D01*
X7547857Y-13611667D01*
X7547857Y-13659286D01*
X7538333Y-13697381D01*
X7528809Y-13716428D01*
X7519286Y-13725952D01*
X7500238Y-13735476D01*
X7481190Y-13735476D01*
X7462143Y-13725952D01*
X7452619Y-13716428D01*
X7443095Y-13697381D01*
X7433571Y-13659286D01*
X7433571Y-13611667D01*
X7443095Y-13573571D01*
X7452619Y-13554524D01*
X7462143Y-13545000D01*
X7481190Y-13535476D01*
X7671667Y-13535476D02*
X7690714Y-13535476D01*
X7709762Y-13545000D01*
X7719286Y-13554524D01*
X7728809Y-13573571D01*
X7738333Y-13611667D01*
X7738333Y-13659286D01*
X7728809Y-13697381D01*
X7719286Y-13716428D01*
X7709762Y-13725952D01*
X7690714Y-13735476D01*
X7671667Y-13735476D01*
X7652619Y-13725952D01*
X7643095Y-13716428D01*
X7633571Y-13697381D01*
X7624048Y-13659286D01*
X7624048Y-13611667D01*
X7633571Y-13573571D01*
X7643095Y-13554524D01*
X7652619Y-13545000D01*
X7671667Y-13535476D01*
X7852619Y-13621190D02*
X7833571Y-13611667D01*
X7824048Y-13602143D01*
X7814524Y-13583095D01*
X7814524Y-13573571D01*
X7824048Y-13554524D01*
X7833571Y-13545000D01*
X7852619Y-13535476D01*
X7890714Y-13535476D01*
X7909762Y-13545000D01*
X7919286Y-13554524D01*
X7928809Y-13573571D01*
X7928809Y-13583095D01*
X7919286Y-13602143D01*
X7909762Y-13611667D01*
X7890714Y-13621190D01*
X7852619Y-13621190D01*
X7833571Y-13630714D01*
X7824048Y-13640238D01*
X7814524Y-13659286D01*
X7814524Y-13697381D01*
X7824048Y-13716428D01*
X7833571Y-13725952D01*
X7852619Y-13735476D01*
X7890714Y-13735476D01*
X7909762Y-13725952D01*
X7919286Y-13716428D01*
X7928809Y-13697381D01*
X7928809Y-13659286D01*
X7919286Y-13640238D01*
X7909762Y-13630714D01*
X7890714Y-13621190D01*
X8052619Y-13535476D02*
X8071667Y-13535476D01*
X8090714Y-13545000D01*
X8100238Y-13554524D01*
X8109762Y-13573571D01*
X8119286Y-13611667D01*
X8119286Y-13659286D01*
X8109762Y-13697381D01*
X8100238Y-13716428D01*
X8090714Y-13725952D01*
X8071667Y-13735476D01*
X8052619Y-13735476D01*
X8033571Y-13725952D01*
X8024048Y-13716428D01*
X8014524Y-13697381D01*
X8005000Y-13659286D01*
X8005000Y-13611667D01*
X8014524Y-13573571D01*
X8024048Y-13554524D01*
X8033571Y-13545000D01*
X8052619Y-13535476D01*
X8195476Y-13535476D02*
X8195476Y-13573571D01*
X8271667Y-13535476D02*
X8271667Y-13573571D01*
X8566905Y-13811667D02*
X8557381Y-13802143D01*
X8538333Y-13773571D01*
X8528810Y-13754524D01*
X8519286Y-13725952D01*
X8509762Y-13678333D01*
X8509762Y-13640238D01*
X8519286Y-13592619D01*
X8528810Y-13564048D01*
X8538333Y-13545000D01*
X8557381Y-13516428D01*
X8566905Y-13506905D01*
X8624048Y-13535476D02*
X8757381Y-13535476D01*
X8671667Y-13735476D01*
X8985952Y-13735476D02*
X8985952Y-13535476D01*
X9071667Y-13735476D02*
X9071667Y-13630714D01*
X9062143Y-13611667D01*
X9043095Y-13602143D01*
X9014524Y-13602143D01*
X8995476Y-13611667D01*
X8985952Y-13621190D01*
X9195476Y-13735476D02*
X9176429Y-13725952D01*
X9166905Y-13716428D01*
X9157381Y-13697381D01*
X9157381Y-13640238D01*
X9166905Y-13621190D01*
X9176429Y-13611667D01*
X9195476Y-13602143D01*
X9224048Y-13602143D01*
X9243095Y-13611667D01*
X9252619Y-13621190D01*
X9262143Y-13640238D01*
X9262143Y-13697381D01*
X9252619Y-13716428D01*
X9243095Y-13725952D01*
X9224048Y-13735476D01*
X9195476Y-13735476D01*
X9376429Y-13735476D02*
X9357381Y-13725952D01*
X9347857Y-13706905D01*
X9347857Y-13535476D01*
X9528810Y-13725952D02*
X9509762Y-13735476D01*
X9471667Y-13735476D01*
X9452619Y-13725952D01*
X9443095Y-13706905D01*
X9443095Y-13630714D01*
X9452619Y-13611667D01*
X9471667Y-13602143D01*
X9509762Y-13602143D01*
X9528810Y-13611667D01*
X9538333Y-13630714D01*
X9538333Y-13649762D01*
X9443095Y-13668809D01*
X9614524Y-13725952D02*
X9633571Y-13735476D01*
X9671667Y-13735476D01*
X9690714Y-13725952D01*
X9700238Y-13706905D01*
X9700238Y-13697381D01*
X9690714Y-13678333D01*
X9671667Y-13668809D01*
X9643095Y-13668809D01*
X9624048Y-13659286D01*
X9614524Y-13640238D01*
X9614524Y-13630714D01*
X9624048Y-13611667D01*
X9643095Y-13602143D01*
X9671667Y-13602143D01*
X9690714Y-13611667D01*
X9766905Y-13811667D02*
X9776429Y-13802143D01*
X9795476Y-13773571D01*
X9805000Y-13754524D01*
X9814524Y-13725952D01*
X9824048Y-13678333D01*
X9824048Y-13640238D01*
X9814524Y-13592619D01*
X9805000Y-13564048D01*
X9795476Y-13545000D01*
X9776429Y-13516428D01*
X9766905Y-13506905D01*
D13*
X4995000Y-13909000D02*
G75*
G03*
X4995000Y-13909000I-12500J0D01*
G01*
D11*
X5290714Y-13799476D02*
X5309762Y-13799476D01*
X5328810Y-13809000D01*
X5338333Y-13818524D01*
X5347857Y-13837571D01*
X5357381Y-13875667D01*
X5357381Y-13923286D01*
X5347857Y-13961381D01*
X5338333Y-13980428D01*
X5328810Y-13989952D01*
X5309762Y-13999476D01*
X5290714Y-13999476D01*
X5271667Y-13989952D01*
X5262143Y-13980428D01*
X5252619Y-13961381D01*
X5243095Y-13923286D01*
X5243095Y-13875667D01*
X5252619Y-13837571D01*
X5262143Y-13818524D01*
X5271667Y-13809000D01*
X5290714Y-13799476D01*
X5443095Y-13980428D02*
X5452619Y-13989952D01*
X5443095Y-13999476D01*
X5433571Y-13989952D01*
X5443095Y-13980428D01*
X5443095Y-13999476D01*
X5528810Y-13818524D02*
X5538333Y-13809000D01*
X5557381Y-13799476D01*
X5605000Y-13799476D01*
X5624048Y-13809000D01*
X5633571Y-13818524D01*
X5643095Y-13837571D01*
X5643095Y-13856619D01*
X5633571Y-13885190D01*
X5519286Y-13999476D01*
X5643095Y-13999476D01*
X5824048Y-13799476D02*
X5728809Y-13799476D01*
X5719286Y-13894714D01*
X5728809Y-13885190D01*
X5747857Y-13875667D01*
X5795476Y-13875667D01*
X5814524Y-13885190D01*
X5824048Y-13894714D01*
X5833571Y-13913762D01*
X5833571Y-13961381D01*
X5824048Y-13980428D01*
X5814524Y-13989952D01*
X5795476Y-13999476D01*
X5747857Y-13999476D01*
X5728809Y-13989952D01*
X5719286Y-13980428D01*
X5957381Y-13799476D02*
X5976428Y-13799476D01*
X5995476Y-13809000D01*
X6005000Y-13818524D01*
X6014524Y-13837571D01*
X6024048Y-13875667D01*
X6024048Y-13923286D01*
X6014524Y-13961381D01*
X6005000Y-13980428D01*
X5995476Y-13989952D01*
X5976428Y-13999476D01*
X5957381Y-13999476D01*
X5938333Y-13989952D01*
X5928809Y-13980428D01*
X5919286Y-13961381D01*
X5909762Y-13923286D01*
X5909762Y-13875667D01*
X5919286Y-13837571D01*
X5928809Y-13818524D01*
X5938333Y-13809000D01*
X5957381Y-13799476D01*
X6109762Y-13999476D02*
X6109762Y-13866143D01*
X6109762Y-13885190D02*
X6119286Y-13875667D01*
X6138333Y-13866143D01*
X6166905Y-13866143D01*
X6185952Y-13875667D01*
X6195476Y-13894714D01*
X6195476Y-13999476D01*
X6195476Y-13894714D02*
X6205000Y-13875667D01*
X6224048Y-13866143D01*
X6252619Y-13866143D01*
X6271667Y-13875667D01*
X6281190Y-13894714D01*
X6281190Y-13999476D01*
X6376428Y-13999476D02*
X6376428Y-13866143D01*
X6376428Y-13885190D02*
X6385952Y-13875667D01*
X6405000Y-13866143D01*
X6433571Y-13866143D01*
X6452619Y-13875667D01*
X6462143Y-13894714D01*
X6462143Y-13999476D01*
X6462143Y-13894714D02*
X6471667Y-13875667D01*
X6490714Y-13866143D01*
X6519286Y-13866143D01*
X6538333Y-13875667D01*
X6547857Y-13894714D01*
X6547857Y-13999476D01*
X6938333Y-13789952D02*
X6766905Y-14047095D01*
X7195476Y-13799476D02*
X7214524Y-13799476D01*
X7233571Y-13809000D01*
X7243095Y-13818524D01*
X7252619Y-13837571D01*
X7262143Y-13875667D01*
X7262143Y-13923286D01*
X7252619Y-13961381D01*
X7243095Y-13980428D01*
X7233571Y-13989952D01*
X7214524Y-13999476D01*
X7195476Y-13999476D01*
X7176428Y-13989952D01*
X7166905Y-13980428D01*
X7157381Y-13961381D01*
X7147857Y-13923286D01*
X7147857Y-13875667D01*
X7157381Y-13837571D01*
X7166905Y-13818524D01*
X7176428Y-13809000D01*
X7195476Y-13799476D01*
X7347857Y-13980428D02*
X7357381Y-13989952D01*
X7347857Y-13999476D01*
X7338333Y-13989952D01*
X7347857Y-13980428D01*
X7347857Y-13999476D01*
X7481190Y-13799476D02*
X7500238Y-13799476D01*
X7519286Y-13809000D01*
X7528809Y-13818524D01*
X7538333Y-13837571D01*
X7547857Y-13875667D01*
X7547857Y-13923286D01*
X7538333Y-13961381D01*
X7528809Y-13980428D01*
X7519286Y-13989952D01*
X7500238Y-13999476D01*
X7481190Y-13999476D01*
X7462143Y-13989952D01*
X7452619Y-13980428D01*
X7443095Y-13961381D01*
X7433571Y-13923286D01*
X7433571Y-13875667D01*
X7443095Y-13837571D01*
X7452619Y-13818524D01*
X7462143Y-13809000D01*
X7481190Y-13799476D01*
X7671667Y-13799476D02*
X7690714Y-13799476D01*
X7709762Y-13809000D01*
X7719286Y-13818524D01*
X7728809Y-13837571D01*
X7738333Y-13875667D01*
X7738333Y-13923286D01*
X7728809Y-13961381D01*
X7719286Y-13980428D01*
X7709762Y-13989952D01*
X7690714Y-13999476D01*
X7671667Y-13999476D01*
X7652619Y-13989952D01*
X7643095Y-13980428D01*
X7633571Y-13961381D01*
X7624048Y-13923286D01*
X7624048Y-13875667D01*
X7633571Y-13837571D01*
X7643095Y-13818524D01*
X7652619Y-13809000D01*
X7671667Y-13799476D01*
X7833571Y-13999476D02*
X7871667Y-13999476D01*
X7890714Y-13989952D01*
X7900238Y-13980428D01*
X7919286Y-13951857D01*
X7928809Y-13913762D01*
X7928809Y-13837571D01*
X7919286Y-13818524D01*
X7909762Y-13809000D01*
X7890714Y-13799476D01*
X7852619Y-13799476D01*
X7833571Y-13809000D01*
X7824048Y-13818524D01*
X7814524Y-13837571D01*
X7814524Y-13885190D01*
X7824048Y-13904238D01*
X7833571Y-13913762D01*
X7852619Y-13923286D01*
X7890714Y-13923286D01*
X7909762Y-13913762D01*
X7919286Y-13904238D01*
X7928809Y-13885190D01*
X8043095Y-13885190D02*
X8024048Y-13875667D01*
X8014524Y-13866143D01*
X8005000Y-13847095D01*
X8005000Y-13837571D01*
X8014524Y-13818524D01*
X8024048Y-13809000D01*
X8043095Y-13799476D01*
X8081190Y-13799476D01*
X8100238Y-13809000D01*
X8109762Y-13818524D01*
X8119286Y-13837571D01*
X8119286Y-13847095D01*
X8109762Y-13866143D01*
X8100238Y-13875667D01*
X8081190Y-13885190D01*
X8043095Y-13885190D01*
X8024048Y-13894714D01*
X8014524Y-13904238D01*
X8005000Y-13923286D01*
X8005000Y-13961381D01*
X8014524Y-13980428D01*
X8024048Y-13989952D01*
X8043095Y-13999476D01*
X8081190Y-13999476D01*
X8100238Y-13989952D01*
X8109762Y-13980428D01*
X8119286Y-13961381D01*
X8119286Y-13923286D01*
X8109762Y-13904238D01*
X8100238Y-13894714D01*
X8081190Y-13885190D01*
X8195476Y-13799476D02*
X8195476Y-13837571D01*
X8271667Y-13799476D02*
X8271667Y-13837571D01*
X8566905Y-14075667D02*
X8557381Y-14066143D01*
X8538333Y-14037571D01*
X8528810Y-14018524D01*
X8519286Y-13989952D01*
X8509762Y-13942333D01*
X8509762Y-13904238D01*
X8519286Y-13856619D01*
X8528810Y-13828048D01*
X8538333Y-13809000D01*
X8557381Y-13780428D01*
X8566905Y-13770905D01*
X8738333Y-13799476D02*
X8643095Y-13799476D01*
X8633571Y-13894714D01*
X8643095Y-13885190D01*
X8662143Y-13875667D01*
X8709762Y-13875667D01*
X8728810Y-13885190D01*
X8738333Y-13894714D01*
X8747857Y-13913762D01*
X8747857Y-13961381D01*
X8738333Y-13980428D01*
X8728810Y-13989952D01*
X8709762Y-13999476D01*
X8662143Y-13999476D01*
X8643095Y-13989952D01*
X8633571Y-13980428D01*
X8985952Y-13999476D02*
X8985952Y-13799476D01*
X9071667Y-13999476D02*
X9071667Y-13894714D01*
X9062143Y-13875667D01*
X9043095Y-13866143D01*
X9014524Y-13866143D01*
X8995476Y-13875667D01*
X8985952Y-13885190D01*
X9195476Y-13999476D02*
X9176429Y-13989952D01*
X9166905Y-13980428D01*
X9157381Y-13961381D01*
X9157381Y-13904238D01*
X9166905Y-13885190D01*
X9176429Y-13875667D01*
X9195476Y-13866143D01*
X9224048Y-13866143D01*
X9243095Y-13875667D01*
X9252619Y-13885190D01*
X9262143Y-13904238D01*
X9262143Y-13961381D01*
X9252619Y-13980428D01*
X9243095Y-13989952D01*
X9224048Y-13999476D01*
X9195476Y-13999476D01*
X9376429Y-13999476D02*
X9357381Y-13989952D01*
X9347857Y-13970905D01*
X9347857Y-13799476D01*
X9528810Y-13989952D02*
X9509762Y-13999476D01*
X9471667Y-13999476D01*
X9452619Y-13989952D01*
X9443095Y-13970905D01*
X9443095Y-13894714D01*
X9452619Y-13875667D01*
X9471667Y-13866143D01*
X9509762Y-13866143D01*
X9528810Y-13875667D01*
X9538333Y-13894714D01*
X9538333Y-13913762D01*
X9443095Y-13932809D01*
X9614524Y-13989952D02*
X9633571Y-13999476D01*
X9671667Y-13999476D01*
X9690714Y-13989952D01*
X9700238Y-13970905D01*
X9700238Y-13961381D01*
X9690714Y-13942333D01*
X9671667Y-13932809D01*
X9643095Y-13932809D01*
X9624048Y-13923286D01*
X9614524Y-13904238D01*
X9614524Y-13894714D01*
X9624048Y-13875667D01*
X9643095Y-13866143D01*
X9671667Y-13866143D01*
X9690714Y-13875667D01*
X9766905Y-14075667D02*
X9776429Y-14066143D01*
X9795476Y-14037571D01*
X9805000Y-14018524D01*
X9814524Y-13989952D01*
X9824048Y-13942333D01*
X9824048Y-13904238D01*
X9814524Y-13856619D01*
X9805000Y-13828048D01*
X9795476Y-13809000D01*
X9776429Y-13780428D01*
X9766905Y-13770905D01*
D14*
X4980014Y-14158014D02*
X4980014Y-14187986D01*
X4965028Y-14173000D02*
X4995000Y-14173000D01*
D11*
X5290714Y-14063476D02*
X5309762Y-14063476D01*
X5328810Y-14073000D01*
X5338333Y-14082524D01*
X5347857Y-14101571D01*
X5357381Y-14139667D01*
X5357381Y-14187286D01*
X5347857Y-14225381D01*
X5338333Y-14244428D01*
X5328810Y-14253952D01*
X5309762Y-14263476D01*
X5290714Y-14263476D01*
X5271667Y-14253952D01*
X5262143Y-14244428D01*
X5252619Y-14225381D01*
X5243095Y-14187286D01*
X5243095Y-14139667D01*
X5252619Y-14101571D01*
X5262143Y-14082524D01*
X5271667Y-14073000D01*
X5290714Y-14063476D01*
X5443095Y-14244428D02*
X5452619Y-14253952D01*
X5443095Y-14263476D01*
X5433571Y-14253952D01*
X5443095Y-14244428D01*
X5443095Y-14263476D01*
X5519286Y-14063476D02*
X5643095Y-14063476D01*
X5576429Y-14139667D01*
X5605000Y-14139667D01*
X5624048Y-14149190D01*
X5633571Y-14158714D01*
X5643095Y-14177762D01*
X5643095Y-14225381D01*
X5633571Y-14244428D01*
X5624048Y-14253952D01*
X5605000Y-14263476D01*
X5547857Y-14263476D01*
X5528810Y-14253952D01*
X5519286Y-14244428D01*
X5766905Y-14063476D02*
X5785952Y-14063476D01*
X5805000Y-14073000D01*
X5814524Y-14082524D01*
X5824048Y-14101571D01*
X5833571Y-14139667D01*
X5833571Y-14187286D01*
X5824048Y-14225381D01*
X5814524Y-14244428D01*
X5805000Y-14253952D01*
X5785952Y-14263476D01*
X5766905Y-14263476D01*
X5747857Y-14253952D01*
X5738333Y-14244428D01*
X5728809Y-14225381D01*
X5719286Y-14187286D01*
X5719286Y-14139667D01*
X5728809Y-14101571D01*
X5738333Y-14082524D01*
X5747857Y-14073000D01*
X5766905Y-14063476D01*
X5957381Y-14063476D02*
X5976428Y-14063476D01*
X5995476Y-14073000D01*
X6005000Y-14082524D01*
X6014524Y-14101571D01*
X6024048Y-14139667D01*
X6024048Y-14187286D01*
X6014524Y-14225381D01*
X6005000Y-14244428D01*
X5995476Y-14253952D01*
X5976428Y-14263476D01*
X5957381Y-14263476D01*
X5938333Y-14253952D01*
X5928809Y-14244428D01*
X5919286Y-14225381D01*
X5909762Y-14187286D01*
X5909762Y-14139667D01*
X5919286Y-14101571D01*
X5928809Y-14082524D01*
X5938333Y-14073000D01*
X5957381Y-14063476D01*
X6109762Y-14263476D02*
X6109762Y-14130143D01*
X6109762Y-14149190D02*
X6119286Y-14139667D01*
X6138333Y-14130143D01*
X6166905Y-14130143D01*
X6185952Y-14139667D01*
X6195476Y-14158714D01*
X6195476Y-14263476D01*
X6195476Y-14158714D02*
X6205000Y-14139667D01*
X6224048Y-14130143D01*
X6252619Y-14130143D01*
X6271667Y-14139667D01*
X6281190Y-14158714D01*
X6281190Y-14263476D01*
X6376428Y-14263476D02*
X6376428Y-14130143D01*
X6376428Y-14149190D02*
X6385952Y-14139667D01*
X6405000Y-14130143D01*
X6433571Y-14130143D01*
X6452619Y-14139667D01*
X6462143Y-14158714D01*
X6462143Y-14263476D01*
X6462143Y-14158714D02*
X6471667Y-14139667D01*
X6490714Y-14130143D01*
X6519286Y-14130143D01*
X6538333Y-14139667D01*
X6547857Y-14158714D01*
X6547857Y-14263476D01*
X6938333Y-14053952D02*
X6766905Y-14311095D01*
X7195476Y-14063476D02*
X7214524Y-14063476D01*
X7233571Y-14073000D01*
X7243095Y-14082524D01*
X7252619Y-14101571D01*
X7262143Y-14139667D01*
X7262143Y-14187286D01*
X7252619Y-14225381D01*
X7243095Y-14244428D01*
X7233571Y-14253952D01*
X7214524Y-14263476D01*
X7195476Y-14263476D01*
X7176428Y-14253952D01*
X7166905Y-14244428D01*
X7157381Y-14225381D01*
X7147857Y-14187286D01*
X7147857Y-14139667D01*
X7157381Y-14101571D01*
X7166905Y-14082524D01*
X7176428Y-14073000D01*
X7195476Y-14063476D01*
X7347857Y-14244428D02*
X7357381Y-14253952D01*
X7347857Y-14263476D01*
X7338333Y-14253952D01*
X7347857Y-14244428D01*
X7347857Y-14263476D01*
X7481190Y-14063476D02*
X7500238Y-14063476D01*
X7519286Y-14073000D01*
X7528809Y-14082524D01*
X7538333Y-14101571D01*
X7547857Y-14139667D01*
X7547857Y-14187286D01*
X7538333Y-14225381D01*
X7528809Y-14244428D01*
X7519286Y-14253952D01*
X7500238Y-14263476D01*
X7481190Y-14263476D01*
X7462143Y-14253952D01*
X7452619Y-14244428D01*
X7443095Y-14225381D01*
X7433571Y-14187286D01*
X7433571Y-14139667D01*
X7443095Y-14101571D01*
X7452619Y-14082524D01*
X7462143Y-14073000D01*
X7481190Y-14063476D01*
X7738333Y-14263476D02*
X7624048Y-14263476D01*
X7681190Y-14263476D02*
X7681190Y-14063476D01*
X7662143Y-14092048D01*
X7643095Y-14111095D01*
X7624048Y-14120619D01*
X7928809Y-14263476D02*
X7814524Y-14263476D01*
X7871667Y-14263476D02*
X7871667Y-14063476D01*
X7852619Y-14092048D01*
X7833571Y-14111095D01*
X7814524Y-14120619D01*
X8043095Y-14149190D02*
X8024048Y-14139667D01*
X8014524Y-14130143D01*
X8005000Y-14111095D01*
X8005000Y-14101571D01*
X8014524Y-14082524D01*
X8024048Y-14073000D01*
X8043095Y-14063476D01*
X8081190Y-14063476D01*
X8100238Y-14073000D01*
X8109762Y-14082524D01*
X8119286Y-14101571D01*
X8119286Y-14111095D01*
X8109762Y-14130143D01*
X8100238Y-14139667D01*
X8081190Y-14149190D01*
X8043095Y-14149190D01*
X8024048Y-14158714D01*
X8014524Y-14168238D01*
X8005000Y-14187286D01*
X8005000Y-14225381D01*
X8014524Y-14244428D01*
X8024048Y-14253952D01*
X8043095Y-14263476D01*
X8081190Y-14263476D01*
X8100238Y-14253952D01*
X8109762Y-14244428D01*
X8119286Y-14225381D01*
X8119286Y-14187286D01*
X8109762Y-14168238D01*
X8100238Y-14158714D01*
X8081190Y-14149190D01*
X8195476Y-14063476D02*
X8195476Y-14101571D01*
X8271667Y-14063476D02*
X8271667Y-14101571D01*
X8566905Y-14339667D02*
X8557381Y-14330143D01*
X8538333Y-14301571D01*
X8528810Y-14282524D01*
X8519286Y-14253952D01*
X8509762Y-14206333D01*
X8509762Y-14168238D01*
X8519286Y-14120619D01*
X8528810Y-14092048D01*
X8538333Y-14073000D01*
X8557381Y-14044428D01*
X8566905Y-14034905D01*
X8747857Y-14263476D02*
X8633571Y-14263476D01*
X8690714Y-14263476D02*
X8690714Y-14063476D01*
X8671667Y-14092048D01*
X8652619Y-14111095D01*
X8633571Y-14120619D01*
X8814524Y-14063476D02*
X8947857Y-14063476D01*
X8862143Y-14263476D01*
X9062143Y-14063476D02*
X9081190Y-14063476D01*
X9100238Y-14073000D01*
X9109762Y-14082524D01*
X9119286Y-14101571D01*
X9128810Y-14139667D01*
X9128810Y-14187286D01*
X9119286Y-14225381D01*
X9109762Y-14244428D01*
X9100238Y-14253952D01*
X9081190Y-14263476D01*
X9062143Y-14263476D01*
X9043095Y-14253952D01*
X9033571Y-14244428D01*
X9024048Y-14225381D01*
X9014524Y-14187286D01*
X9014524Y-14139667D01*
X9024048Y-14101571D01*
X9033571Y-14082524D01*
X9043095Y-14073000D01*
X9062143Y-14063476D01*
X9366905Y-14263476D02*
X9366905Y-14063476D01*
X9452619Y-14263476D02*
X9452619Y-14158714D01*
X9443095Y-14139667D01*
X9424048Y-14130143D01*
X9395476Y-14130143D01*
X9376429Y-14139667D01*
X9366905Y-14149190D01*
X9576429Y-14263476D02*
X9557381Y-14253952D01*
X9547857Y-14244428D01*
X9538333Y-14225381D01*
X9538333Y-14168238D01*
X9547857Y-14149190D01*
X9557381Y-14139667D01*
X9576429Y-14130143D01*
X9605000Y-14130143D01*
X9624048Y-14139667D01*
X9633571Y-14149190D01*
X9643095Y-14168238D01*
X9643095Y-14225381D01*
X9633571Y-14244428D01*
X9624048Y-14253952D01*
X9605000Y-14263476D01*
X9576429Y-14263476D01*
X9757381Y-14263476D02*
X9738333Y-14253952D01*
X9728810Y-14234905D01*
X9728810Y-14063476D01*
X9909762Y-14253952D02*
X9890714Y-14263476D01*
X9852619Y-14263476D01*
X9833571Y-14253952D01*
X9824048Y-14234905D01*
X9824048Y-14158714D01*
X9833571Y-14139667D01*
X9852619Y-14130143D01*
X9890714Y-14130143D01*
X9909762Y-14139667D01*
X9919286Y-14158714D01*
X9919286Y-14177762D01*
X9824048Y-14196809D01*
X9995476Y-14253952D02*
X10014524Y-14263476D01*
X10052619Y-14263476D01*
X10071667Y-14253952D01*
X10081190Y-14234905D01*
X10081190Y-14225381D01*
X10071667Y-14206333D01*
X10052619Y-14196809D01*
X10024048Y-14196809D01*
X10005000Y-14187286D01*
X9995476Y-14168238D01*
X9995476Y-14158714D01*
X10005000Y-14139667D01*
X10024048Y-14130143D01*
X10052619Y-14130143D01*
X10071667Y-14139667D01*
X10147857Y-14339667D02*
X10157381Y-14330143D01*
X10176429Y-14301571D01*
X10185952Y-14282524D01*
X10195476Y-14253952D01*
X10205000Y-14206333D01*
X10205000Y-14168238D01*
X10195476Y-14120619D01*
X10185952Y-14092048D01*
X10176429Y-14073000D01*
X10157381Y-14044428D01*
X10147857Y-14034905D01*
D15*
X4989875Y-14449374D02*
X4989875Y-14424625D01*
X4965126Y-14424625D01*
X4965126Y-14449374D01*
X4989875Y-14449374D01*
D11*
X5290714Y-14327476D02*
X5309762Y-14327476D01*
X5328810Y-14337000D01*
X5338333Y-14346524D01*
X5347857Y-14365571D01*
X5357381Y-14403667D01*
X5357381Y-14451286D01*
X5347857Y-14489381D01*
X5338333Y-14508428D01*
X5328810Y-14517952D01*
X5309762Y-14527476D01*
X5290714Y-14527476D01*
X5271667Y-14517952D01*
X5262143Y-14508428D01*
X5252619Y-14489381D01*
X5243095Y-14451286D01*
X5243095Y-14403667D01*
X5252619Y-14365571D01*
X5262143Y-14346524D01*
X5271667Y-14337000D01*
X5290714Y-14327476D01*
X5443095Y-14508428D02*
X5452619Y-14517952D01*
X5443095Y-14527476D01*
X5433571Y-14517952D01*
X5443095Y-14508428D01*
X5443095Y-14527476D01*
X5519286Y-14327476D02*
X5643095Y-14327476D01*
X5576429Y-14403667D01*
X5605000Y-14403667D01*
X5624048Y-14413190D01*
X5633571Y-14422714D01*
X5643095Y-14441762D01*
X5643095Y-14489381D01*
X5633571Y-14508428D01*
X5624048Y-14517952D01*
X5605000Y-14527476D01*
X5547857Y-14527476D01*
X5528810Y-14517952D01*
X5519286Y-14508428D01*
X5824048Y-14327476D02*
X5728809Y-14327476D01*
X5719286Y-14422714D01*
X5728809Y-14413190D01*
X5747857Y-14403667D01*
X5795476Y-14403667D01*
X5814524Y-14413190D01*
X5824048Y-14422714D01*
X5833571Y-14441762D01*
X5833571Y-14489381D01*
X5824048Y-14508428D01*
X5814524Y-14517952D01*
X5795476Y-14527476D01*
X5747857Y-14527476D01*
X5728809Y-14517952D01*
X5719286Y-14508428D01*
X5957381Y-14327476D02*
X5976428Y-14327476D01*
X5995476Y-14337000D01*
X6005000Y-14346524D01*
X6014524Y-14365571D01*
X6024048Y-14403667D01*
X6024048Y-14451286D01*
X6014524Y-14489381D01*
X6005000Y-14508428D01*
X5995476Y-14517952D01*
X5976428Y-14527476D01*
X5957381Y-14527476D01*
X5938333Y-14517952D01*
X5928809Y-14508428D01*
X5919286Y-14489381D01*
X5909762Y-14451286D01*
X5909762Y-14403667D01*
X5919286Y-14365571D01*
X5928809Y-14346524D01*
X5938333Y-14337000D01*
X5957381Y-14327476D01*
X6109762Y-14527476D02*
X6109762Y-14394143D01*
X6109762Y-14413190D02*
X6119286Y-14403667D01*
X6138333Y-14394143D01*
X6166905Y-14394143D01*
X6185952Y-14403667D01*
X6195476Y-14422714D01*
X6195476Y-14527476D01*
X6195476Y-14422714D02*
X6205000Y-14403667D01*
X6224048Y-14394143D01*
X6252619Y-14394143D01*
X6271667Y-14403667D01*
X6281190Y-14422714D01*
X6281190Y-14527476D01*
X6376428Y-14527476D02*
X6376428Y-14394143D01*
X6376428Y-14413190D02*
X6385952Y-14403667D01*
X6405000Y-14394143D01*
X6433571Y-14394143D01*
X6452619Y-14403667D01*
X6462143Y-14422714D01*
X6462143Y-14527476D01*
X6462143Y-14422714D02*
X6471667Y-14403667D01*
X6490714Y-14394143D01*
X6519286Y-14394143D01*
X6538333Y-14403667D01*
X6547857Y-14422714D01*
X6547857Y-14527476D01*
X6938333Y-14317952D02*
X6766905Y-14575095D01*
X7195476Y-14327476D02*
X7214524Y-14327476D01*
X7233571Y-14337000D01*
X7243095Y-14346524D01*
X7252619Y-14365571D01*
X7262143Y-14403667D01*
X7262143Y-14451286D01*
X7252619Y-14489381D01*
X7243095Y-14508428D01*
X7233571Y-14517952D01*
X7214524Y-14527476D01*
X7195476Y-14527476D01*
X7176428Y-14517952D01*
X7166905Y-14508428D01*
X7157381Y-14489381D01*
X7147857Y-14451286D01*
X7147857Y-14403667D01*
X7157381Y-14365571D01*
X7166905Y-14346524D01*
X7176428Y-14337000D01*
X7195476Y-14327476D01*
X7347857Y-14508428D02*
X7357381Y-14517952D01*
X7347857Y-14527476D01*
X7338333Y-14517952D01*
X7347857Y-14508428D01*
X7347857Y-14527476D01*
X7481190Y-14327476D02*
X7500238Y-14327476D01*
X7519286Y-14337000D01*
X7528809Y-14346524D01*
X7538333Y-14365571D01*
X7547857Y-14403667D01*
X7547857Y-14451286D01*
X7538333Y-14489381D01*
X7528809Y-14508428D01*
X7519286Y-14517952D01*
X7500238Y-14527476D01*
X7481190Y-14527476D01*
X7462143Y-14517952D01*
X7452619Y-14508428D01*
X7443095Y-14489381D01*
X7433571Y-14451286D01*
X7433571Y-14403667D01*
X7443095Y-14365571D01*
X7452619Y-14346524D01*
X7462143Y-14337000D01*
X7481190Y-14327476D01*
X7738333Y-14527476D02*
X7624048Y-14527476D01*
X7681190Y-14527476D02*
X7681190Y-14327476D01*
X7662143Y-14356048D01*
X7643095Y-14375095D01*
X7624048Y-14384619D01*
X7805000Y-14327476D02*
X7928809Y-14327476D01*
X7862143Y-14403667D01*
X7890714Y-14403667D01*
X7909762Y-14413190D01*
X7919286Y-14422714D01*
X7928809Y-14441762D01*
X7928809Y-14489381D01*
X7919286Y-14508428D01*
X7909762Y-14517952D01*
X7890714Y-14527476D01*
X7833571Y-14527476D01*
X7814524Y-14517952D01*
X7805000Y-14508428D01*
X8043095Y-14413190D02*
X8024048Y-14403667D01*
X8014524Y-14394143D01*
X8005000Y-14375095D01*
X8005000Y-14365571D01*
X8014524Y-14346524D01*
X8024048Y-14337000D01*
X8043095Y-14327476D01*
X8081190Y-14327476D01*
X8100238Y-14337000D01*
X8109762Y-14346524D01*
X8119286Y-14365571D01*
X8119286Y-14375095D01*
X8109762Y-14394143D01*
X8100238Y-14403667D01*
X8081190Y-14413190D01*
X8043095Y-14413190D01*
X8024048Y-14422714D01*
X8014524Y-14432238D01*
X8005000Y-14451286D01*
X8005000Y-14489381D01*
X8014524Y-14508428D01*
X8024048Y-14517952D01*
X8043095Y-14527476D01*
X8081190Y-14527476D01*
X8100238Y-14517952D01*
X8109762Y-14508428D01*
X8119286Y-14489381D01*
X8119286Y-14451286D01*
X8109762Y-14432238D01*
X8100238Y-14422714D01*
X8081190Y-14413190D01*
X8195476Y-14327476D02*
X8195476Y-14365571D01*
X8271667Y-14327476D02*
X8271667Y-14365571D01*
X8566905Y-14603667D02*
X8557381Y-14594143D01*
X8538333Y-14565571D01*
X8528810Y-14546524D01*
X8519286Y-14517952D01*
X8509762Y-14470333D01*
X8509762Y-14432238D01*
X8519286Y-14384619D01*
X8528810Y-14356048D01*
X8538333Y-14337000D01*
X8557381Y-14308428D01*
X8566905Y-14298905D01*
X8633571Y-14346524D02*
X8643095Y-14337000D01*
X8662143Y-14327476D01*
X8709762Y-14327476D01*
X8728810Y-14337000D01*
X8738333Y-14346524D01*
X8747857Y-14365571D01*
X8747857Y-14384619D01*
X8738333Y-14413190D01*
X8624048Y-14527476D01*
X8747857Y-14527476D01*
X8985952Y-14527476D02*
X8985952Y-14327476D01*
X9071667Y-14527476D02*
X9071667Y-14422714D01*
X9062143Y-14403667D01*
X9043095Y-14394143D01*
X9014524Y-14394143D01*
X8995476Y-14403667D01*
X8985952Y-14413190D01*
X9195476Y-14527476D02*
X9176429Y-14517952D01*
X9166905Y-14508428D01*
X9157381Y-14489381D01*
X9157381Y-14432238D01*
X9166905Y-14413190D01*
X9176429Y-14403667D01*
X9195476Y-14394143D01*
X9224048Y-14394143D01*
X9243095Y-14403667D01*
X9252619Y-14413190D01*
X9262143Y-14432238D01*
X9262143Y-14489381D01*
X9252619Y-14508428D01*
X9243095Y-14517952D01*
X9224048Y-14527476D01*
X9195476Y-14527476D01*
X9376429Y-14527476D02*
X9357381Y-14517952D01*
X9347857Y-14498905D01*
X9347857Y-14327476D01*
X9528810Y-14517952D02*
X9509762Y-14527476D01*
X9471667Y-14527476D01*
X9452619Y-14517952D01*
X9443095Y-14498905D01*
X9443095Y-14422714D01*
X9452619Y-14403667D01*
X9471667Y-14394143D01*
X9509762Y-14394143D01*
X9528810Y-14403667D01*
X9538333Y-14422714D01*
X9538333Y-14441762D01*
X9443095Y-14460809D01*
X9614524Y-14517952D02*
X9633571Y-14527476D01*
X9671667Y-14527476D01*
X9690714Y-14517952D01*
X9700238Y-14498905D01*
X9700238Y-14489381D01*
X9690714Y-14470333D01*
X9671667Y-14460809D01*
X9643095Y-14460809D01*
X9624048Y-14451286D01*
X9614524Y-14432238D01*
X9614524Y-14422714D01*
X9624048Y-14403667D01*
X9643095Y-14394143D01*
X9671667Y-14394143D01*
X9690714Y-14403667D01*
X9766905Y-14603667D02*
X9776429Y-14594143D01*
X9795476Y-14565571D01*
X9805000Y-14546524D01*
X9814524Y-14517952D01*
X9824048Y-14470333D01*
X9824048Y-14432238D01*
X9814524Y-14384619D01*
X9805000Y-14356048D01*
X9795476Y-14337000D01*
X9776429Y-14308428D01*
X9766905Y-14298905D01*
D16*
X4965000Y-14731000D02*
X4995000Y-14701000D01*
X4965000Y-14671000D01*
X4935000Y-14701000D01*
X4965000Y-14731000D01*
D11*
X5290714Y-14591476D02*
X5309762Y-14591476D01*
X5328810Y-14601000D01*
X5338333Y-14610524D01*
X5347857Y-14629571D01*
X5357381Y-14667667D01*
X5357381Y-14715286D01*
X5347857Y-14753381D01*
X5338333Y-14772428D01*
X5328810Y-14781952D01*
X5309762Y-14791476D01*
X5290714Y-14791476D01*
X5271667Y-14781952D01*
X5262143Y-14772428D01*
X5252619Y-14753381D01*
X5243095Y-14715286D01*
X5243095Y-14667667D01*
X5252619Y-14629571D01*
X5262143Y-14610524D01*
X5271667Y-14601000D01*
X5290714Y-14591476D01*
X5443095Y-14772428D02*
X5452619Y-14781952D01*
X5443095Y-14791476D01*
X5433571Y-14781952D01*
X5443095Y-14772428D01*
X5443095Y-14791476D01*
X5624048Y-14591476D02*
X5585952Y-14591476D01*
X5566905Y-14601000D01*
X5557381Y-14610524D01*
X5538333Y-14639095D01*
X5528810Y-14677190D01*
X5528810Y-14753381D01*
X5538333Y-14772428D01*
X5547857Y-14781952D01*
X5566905Y-14791476D01*
X5605000Y-14791476D01*
X5624048Y-14781952D01*
X5633571Y-14772428D01*
X5643095Y-14753381D01*
X5643095Y-14705762D01*
X5633571Y-14686714D01*
X5624048Y-14677190D01*
X5605000Y-14667667D01*
X5566905Y-14667667D01*
X5547857Y-14677190D01*
X5538333Y-14686714D01*
X5528810Y-14705762D01*
X5766905Y-14591476D02*
X5785952Y-14591476D01*
X5805000Y-14601000D01*
X5814524Y-14610524D01*
X5824048Y-14629571D01*
X5833571Y-14667667D01*
X5833571Y-14715286D01*
X5824048Y-14753381D01*
X5814524Y-14772428D01*
X5805000Y-14781952D01*
X5785952Y-14791476D01*
X5766905Y-14791476D01*
X5747857Y-14781952D01*
X5738333Y-14772428D01*
X5728809Y-14753381D01*
X5719286Y-14715286D01*
X5719286Y-14667667D01*
X5728809Y-14629571D01*
X5738333Y-14610524D01*
X5747857Y-14601000D01*
X5766905Y-14591476D01*
X5957381Y-14591476D02*
X5976428Y-14591476D01*
X5995476Y-14601000D01*
X6005000Y-14610524D01*
X6014524Y-14629571D01*
X6024048Y-14667667D01*
X6024048Y-14715286D01*
X6014524Y-14753381D01*
X6005000Y-14772428D01*
X5995476Y-14781952D01*
X5976428Y-14791476D01*
X5957381Y-14791476D01*
X5938333Y-14781952D01*
X5928809Y-14772428D01*
X5919286Y-14753381D01*
X5909762Y-14715286D01*
X5909762Y-14667667D01*
X5919286Y-14629571D01*
X5928809Y-14610524D01*
X5938333Y-14601000D01*
X5957381Y-14591476D01*
X6109762Y-14791476D02*
X6109762Y-14658143D01*
X6109762Y-14677190D02*
X6119286Y-14667667D01*
X6138333Y-14658143D01*
X6166905Y-14658143D01*
X6185952Y-14667667D01*
X6195476Y-14686714D01*
X6195476Y-14791476D01*
X6195476Y-14686714D02*
X6205000Y-14667667D01*
X6224048Y-14658143D01*
X6252619Y-14658143D01*
X6271667Y-14667667D01*
X6281190Y-14686714D01*
X6281190Y-14791476D01*
X6376428Y-14791476D02*
X6376428Y-14658143D01*
X6376428Y-14677190D02*
X6385952Y-14667667D01*
X6405000Y-14658143D01*
X6433571Y-14658143D01*
X6452619Y-14667667D01*
X6462143Y-14686714D01*
X6462143Y-14791476D01*
X6462143Y-14686714D02*
X6471667Y-14667667D01*
X6490714Y-14658143D01*
X6519286Y-14658143D01*
X6538333Y-14667667D01*
X6547857Y-14686714D01*
X6547857Y-14791476D01*
X6938333Y-14581952D02*
X6766905Y-14839095D01*
X7195476Y-14591476D02*
X7214524Y-14591476D01*
X7233571Y-14601000D01*
X7243095Y-14610524D01*
X7252619Y-14629571D01*
X7262143Y-14667667D01*
X7262143Y-14715286D01*
X7252619Y-14753381D01*
X7243095Y-14772428D01*
X7233571Y-14781952D01*
X7214524Y-14791476D01*
X7195476Y-14791476D01*
X7176428Y-14781952D01*
X7166905Y-14772428D01*
X7157381Y-14753381D01*
X7147857Y-14715286D01*
X7147857Y-14667667D01*
X7157381Y-14629571D01*
X7166905Y-14610524D01*
X7176428Y-14601000D01*
X7195476Y-14591476D01*
X7347857Y-14772428D02*
X7357381Y-14781952D01*
X7347857Y-14791476D01*
X7338333Y-14781952D01*
X7347857Y-14772428D01*
X7347857Y-14791476D01*
X7481190Y-14591476D02*
X7500238Y-14591476D01*
X7519286Y-14601000D01*
X7528809Y-14610524D01*
X7538333Y-14629571D01*
X7547857Y-14667667D01*
X7547857Y-14715286D01*
X7538333Y-14753381D01*
X7528809Y-14772428D01*
X7519286Y-14781952D01*
X7500238Y-14791476D01*
X7481190Y-14791476D01*
X7462143Y-14781952D01*
X7452619Y-14772428D01*
X7443095Y-14753381D01*
X7433571Y-14715286D01*
X7433571Y-14667667D01*
X7443095Y-14629571D01*
X7452619Y-14610524D01*
X7462143Y-14601000D01*
X7481190Y-14591476D01*
X7624048Y-14610524D02*
X7633571Y-14601000D01*
X7652619Y-14591476D01*
X7700238Y-14591476D01*
X7719286Y-14601000D01*
X7728809Y-14610524D01*
X7738333Y-14629571D01*
X7738333Y-14648619D01*
X7728809Y-14677190D01*
X7614524Y-14791476D01*
X7738333Y-14791476D01*
X7805000Y-14591476D02*
X7928809Y-14591476D01*
X7862143Y-14667667D01*
X7890714Y-14667667D01*
X7909762Y-14677190D01*
X7919286Y-14686714D01*
X7928809Y-14705762D01*
X7928809Y-14753381D01*
X7919286Y-14772428D01*
X7909762Y-14781952D01*
X7890714Y-14791476D01*
X7833571Y-14791476D01*
X7814524Y-14781952D01*
X7805000Y-14772428D01*
X8100238Y-14591476D02*
X8062143Y-14591476D01*
X8043095Y-14601000D01*
X8033571Y-14610524D01*
X8014524Y-14639095D01*
X8005000Y-14677190D01*
X8005000Y-14753381D01*
X8014524Y-14772428D01*
X8024048Y-14781952D01*
X8043095Y-14791476D01*
X8081190Y-14791476D01*
X8100238Y-14781952D01*
X8109762Y-14772428D01*
X8119286Y-14753381D01*
X8119286Y-14705762D01*
X8109762Y-14686714D01*
X8100238Y-14677190D01*
X8081190Y-14667667D01*
X8043095Y-14667667D01*
X8024048Y-14677190D01*
X8014524Y-14686714D01*
X8005000Y-14705762D01*
X8195476Y-14591476D02*
X8195476Y-14629571D01*
X8271667Y-14591476D02*
X8271667Y-14629571D01*
X8566905Y-14867667D02*
X8557381Y-14858143D01*
X8538333Y-14829571D01*
X8528810Y-14810524D01*
X8519286Y-14781952D01*
X8509762Y-14734333D01*
X8509762Y-14696238D01*
X8519286Y-14648619D01*
X8528810Y-14620048D01*
X8538333Y-14601000D01*
X8557381Y-14572428D01*
X8566905Y-14562905D01*
X8681190Y-14591476D02*
X8700238Y-14591476D01*
X8719286Y-14601000D01*
X8728810Y-14610524D01*
X8738333Y-14629571D01*
X8747857Y-14667667D01*
X8747857Y-14715286D01*
X8738333Y-14753381D01*
X8728810Y-14772428D01*
X8719286Y-14781952D01*
X8700238Y-14791476D01*
X8681190Y-14791476D01*
X8662143Y-14781952D01*
X8652619Y-14772428D01*
X8643095Y-14753381D01*
X8633571Y-14715286D01*
X8633571Y-14667667D01*
X8643095Y-14629571D01*
X8652619Y-14610524D01*
X8662143Y-14601000D01*
X8681190Y-14591476D01*
X8985952Y-14791476D02*
X8985952Y-14591476D01*
X9071667Y-14791476D02*
X9071667Y-14686714D01*
X9062143Y-14667667D01*
X9043095Y-14658143D01*
X9014524Y-14658143D01*
X8995476Y-14667667D01*
X8985952Y-14677190D01*
X9195476Y-14791476D02*
X9176429Y-14781952D01*
X9166905Y-14772428D01*
X9157381Y-14753381D01*
X9157381Y-14696238D01*
X9166905Y-14677190D01*
X9176429Y-14667667D01*
X9195476Y-14658143D01*
X9224048Y-14658143D01*
X9243095Y-14667667D01*
X9252619Y-14677190D01*
X9262143Y-14696238D01*
X9262143Y-14753381D01*
X9252619Y-14772428D01*
X9243095Y-14781952D01*
X9224048Y-14791476D01*
X9195476Y-14791476D01*
X9376429Y-14791476D02*
X9357381Y-14781952D01*
X9347857Y-14762905D01*
X9347857Y-14591476D01*
X9528810Y-14781952D02*
X9509762Y-14791476D01*
X9471667Y-14791476D01*
X9452619Y-14781952D01*
X9443095Y-14762905D01*
X9443095Y-14686714D01*
X9452619Y-14667667D01*
X9471667Y-14658143D01*
X9509762Y-14658143D01*
X9528810Y-14667667D01*
X9538333Y-14686714D01*
X9538333Y-14705762D01*
X9443095Y-14724809D01*
X9614524Y-14781952D02*
X9633571Y-14791476D01*
X9671667Y-14791476D01*
X9690714Y-14781952D01*
X9700238Y-14762905D01*
X9700238Y-14753381D01*
X9690714Y-14734333D01*
X9671667Y-14724809D01*
X9643095Y-14724809D01*
X9624048Y-14715286D01*
X9614524Y-14696238D01*
X9614524Y-14686714D01*
X9624048Y-14667667D01*
X9643095Y-14658143D01*
X9671667Y-14658143D01*
X9690714Y-14667667D01*
X9938333Y-14715286D02*
X10090714Y-14715286D01*
X10014524Y-14791476D02*
X10014524Y-14639095D01*
X10424048Y-14658143D02*
X10424048Y-14791476D01*
X10376429Y-14581952D02*
X10328810Y-14724809D01*
X10452619Y-14724809D01*
X10671667Y-14781952D02*
X10690714Y-14791476D01*
X10728810Y-14791476D01*
X10747857Y-14781952D01*
X10757381Y-14762905D01*
X10757381Y-14753381D01*
X10747857Y-14734333D01*
X10728810Y-14724809D01*
X10700238Y-14724809D01*
X10681190Y-14715286D01*
X10671667Y-14696238D01*
X10671667Y-14686714D01*
X10681190Y-14667667D01*
X10700238Y-14658143D01*
X10728810Y-14658143D01*
X10747857Y-14667667D01*
X10871667Y-14791476D02*
X10852619Y-14781952D01*
X10843095Y-14762905D01*
X10843095Y-14591476D01*
X10976429Y-14791476D02*
X10957381Y-14781952D01*
X10947857Y-14772428D01*
X10938333Y-14753381D01*
X10938333Y-14696238D01*
X10947857Y-14677190D01*
X10957381Y-14667667D01*
X10976429Y-14658143D01*
X11005000Y-14658143D01*
X11024048Y-14667667D01*
X11033571Y-14677190D01*
X11043095Y-14696238D01*
X11043095Y-14753381D01*
X11033571Y-14772428D01*
X11024048Y-14781952D01*
X11005000Y-14791476D01*
X10976429Y-14791476D01*
X11100238Y-14658143D02*
X11176429Y-14658143D01*
X11128810Y-14591476D02*
X11128810Y-14762905D01*
X11138333Y-14781952D01*
X11157381Y-14791476D01*
X11176429Y-14791476D01*
X11233571Y-14781952D02*
X11252619Y-14791476D01*
X11290714Y-14791476D01*
X11309762Y-14781952D01*
X11319286Y-14762905D01*
X11319286Y-14753381D01*
X11309762Y-14734333D01*
X11290714Y-14724809D01*
X11262143Y-14724809D01*
X11243095Y-14715286D01*
X11233571Y-14696238D01*
X11233571Y-14686714D01*
X11243095Y-14667667D01*
X11262143Y-14658143D01*
X11290714Y-14658143D01*
X11309762Y-14667667D01*
X11385952Y-14867667D02*
X11395476Y-14858143D01*
X11414524Y-14829571D01*
X11424048Y-14810524D01*
X11433571Y-14781952D01*
X11443095Y-14734333D01*
X11443095Y-14696238D01*
X11433571Y-14648619D01*
X11424048Y-14620048D01*
X11414524Y-14601000D01*
X11395476Y-14572428D01*
X11385952Y-14562905D01*
D17*
X4918800Y-14926900D02*
X4995000Y-15003100D01*
X4995000Y-14926900D02*
X4918800Y-15003100D01*
X4995000Y-14965000D02*
G75*
G03*
X4995000Y-14965000I-38100J0D01*
G01*
D11*
X5290714Y-14855476D02*
X5309762Y-14855476D01*
X5328810Y-14865000D01*
X5338333Y-14874524D01*
X5347857Y-14893571D01*
X5357381Y-14931667D01*
X5357381Y-14979286D01*
X5347857Y-15017381D01*
X5338333Y-15036428D01*
X5328810Y-15045952D01*
X5309762Y-15055476D01*
X5290714Y-15055476D01*
X5271667Y-15045952D01*
X5262143Y-15036428D01*
X5252619Y-15017381D01*
X5243095Y-14979286D01*
X5243095Y-14931667D01*
X5252619Y-14893571D01*
X5262143Y-14874524D01*
X5271667Y-14865000D01*
X5290714Y-14855476D01*
X5443095Y-15036428D02*
X5452619Y-15045952D01*
X5443095Y-15055476D01*
X5433571Y-15045952D01*
X5443095Y-15036428D01*
X5443095Y-15055476D01*
X5519286Y-14855476D02*
X5652619Y-14855476D01*
X5566905Y-15055476D01*
X5814524Y-14855476D02*
X5776428Y-14855476D01*
X5757381Y-14865000D01*
X5747857Y-14874524D01*
X5728809Y-14903095D01*
X5719286Y-14941190D01*
X5719286Y-15017381D01*
X5728809Y-15036428D01*
X5738333Y-15045952D01*
X5757381Y-15055476D01*
X5795476Y-15055476D01*
X5814524Y-15045952D01*
X5824048Y-15036428D01*
X5833571Y-15017381D01*
X5833571Y-14969762D01*
X5824048Y-14950714D01*
X5814524Y-14941190D01*
X5795476Y-14931667D01*
X5757381Y-14931667D01*
X5738333Y-14941190D01*
X5728809Y-14950714D01*
X5719286Y-14969762D01*
X5909762Y-14874524D02*
X5919286Y-14865000D01*
X5938333Y-14855476D01*
X5985952Y-14855476D01*
X6005000Y-14865000D01*
X6014524Y-14874524D01*
X6024048Y-14893571D01*
X6024048Y-14912619D01*
X6014524Y-14941190D01*
X5900238Y-15055476D01*
X6024048Y-15055476D01*
X6109762Y-15055476D02*
X6109762Y-14922143D01*
X6109762Y-14941190D02*
X6119286Y-14931667D01*
X6138333Y-14922143D01*
X6166905Y-14922143D01*
X6185952Y-14931667D01*
X6195476Y-14950714D01*
X6195476Y-15055476D01*
X6195476Y-14950714D02*
X6205000Y-14931667D01*
X6224048Y-14922143D01*
X6252619Y-14922143D01*
X6271667Y-14931667D01*
X6281190Y-14950714D01*
X6281190Y-15055476D01*
X6376428Y-15055476D02*
X6376428Y-14922143D01*
X6376428Y-14941190D02*
X6385952Y-14931667D01*
X6405000Y-14922143D01*
X6433571Y-14922143D01*
X6452619Y-14931667D01*
X6462143Y-14950714D01*
X6462143Y-15055476D01*
X6462143Y-14950714D02*
X6471667Y-14931667D01*
X6490714Y-14922143D01*
X6519286Y-14922143D01*
X6538333Y-14931667D01*
X6547857Y-14950714D01*
X6547857Y-15055476D01*
X6938333Y-14845952D02*
X6766905Y-15103095D01*
X7195476Y-14855476D02*
X7214524Y-14855476D01*
X7233571Y-14865000D01*
X7243095Y-14874524D01*
X7252619Y-14893571D01*
X7262143Y-14931667D01*
X7262143Y-14979286D01*
X7252619Y-15017381D01*
X7243095Y-15036428D01*
X7233571Y-15045952D01*
X7214524Y-15055476D01*
X7195476Y-15055476D01*
X7176428Y-15045952D01*
X7166905Y-15036428D01*
X7157381Y-15017381D01*
X7147857Y-14979286D01*
X7147857Y-14931667D01*
X7157381Y-14893571D01*
X7166905Y-14874524D01*
X7176428Y-14865000D01*
X7195476Y-14855476D01*
X7347857Y-15036428D02*
X7357381Y-15045952D01*
X7347857Y-15055476D01*
X7338333Y-15045952D01*
X7347857Y-15036428D01*
X7347857Y-15055476D01*
X7481190Y-14855476D02*
X7500238Y-14855476D01*
X7519286Y-14865000D01*
X7528809Y-14874524D01*
X7538333Y-14893571D01*
X7547857Y-14931667D01*
X7547857Y-14979286D01*
X7538333Y-15017381D01*
X7528809Y-15036428D01*
X7519286Y-15045952D01*
X7500238Y-15055476D01*
X7481190Y-15055476D01*
X7462143Y-15045952D01*
X7452619Y-15036428D01*
X7443095Y-15017381D01*
X7433571Y-14979286D01*
X7433571Y-14931667D01*
X7443095Y-14893571D01*
X7452619Y-14874524D01*
X7462143Y-14865000D01*
X7481190Y-14855476D01*
X7614524Y-14855476D02*
X7738333Y-14855476D01*
X7671667Y-14931667D01*
X7700238Y-14931667D01*
X7719286Y-14941190D01*
X7728809Y-14950714D01*
X7738333Y-14969762D01*
X7738333Y-15017381D01*
X7728809Y-15036428D01*
X7719286Y-15045952D01*
X7700238Y-15055476D01*
X7643095Y-15055476D01*
X7624048Y-15045952D01*
X7614524Y-15036428D01*
X7862143Y-14855476D02*
X7881190Y-14855476D01*
X7900238Y-14865000D01*
X7909762Y-14874524D01*
X7919286Y-14893571D01*
X7928809Y-14931667D01*
X7928809Y-14979286D01*
X7919286Y-15017381D01*
X7909762Y-15036428D01*
X7900238Y-15045952D01*
X7881190Y-15055476D01*
X7862143Y-15055476D01*
X7843095Y-15045952D01*
X7833571Y-15036428D01*
X7824048Y-15017381D01*
X7814524Y-14979286D01*
X7814524Y-14931667D01*
X7824048Y-14893571D01*
X7833571Y-14874524D01*
X7843095Y-14865000D01*
X7862143Y-14855476D01*
X8052619Y-14855476D02*
X8071667Y-14855476D01*
X8090714Y-14865000D01*
X8100238Y-14874524D01*
X8109762Y-14893571D01*
X8119286Y-14931667D01*
X8119286Y-14979286D01*
X8109762Y-15017381D01*
X8100238Y-15036428D01*
X8090714Y-15045952D01*
X8071667Y-15055476D01*
X8052619Y-15055476D01*
X8033571Y-15045952D01*
X8024048Y-15036428D01*
X8014524Y-15017381D01*
X8005000Y-14979286D01*
X8005000Y-14931667D01*
X8014524Y-14893571D01*
X8024048Y-14874524D01*
X8033571Y-14865000D01*
X8052619Y-14855476D01*
X8195476Y-14855476D02*
X8195476Y-14893571D01*
X8271667Y-14855476D02*
X8271667Y-14893571D01*
X8566905Y-15131667D02*
X8557381Y-15122143D01*
X8538333Y-15093571D01*
X8528810Y-15074524D01*
X8519286Y-15045952D01*
X8509762Y-14998333D01*
X8509762Y-14960238D01*
X8519286Y-14912619D01*
X8528810Y-14884048D01*
X8538333Y-14865000D01*
X8557381Y-14836428D01*
X8566905Y-14826905D01*
X8747857Y-15055476D02*
X8633571Y-15055476D01*
X8690714Y-15055476D02*
X8690714Y-14855476D01*
X8671667Y-14884048D01*
X8652619Y-14903095D01*
X8633571Y-14912619D01*
X8985952Y-15055476D02*
X8985952Y-14855476D01*
X9071667Y-15055476D02*
X9071667Y-14950714D01*
X9062143Y-14931667D01*
X9043095Y-14922143D01*
X9014524Y-14922143D01*
X8995476Y-14931667D01*
X8985952Y-14941190D01*
X9195476Y-15055476D02*
X9176429Y-15045952D01*
X9166905Y-15036428D01*
X9157381Y-15017381D01*
X9157381Y-14960238D01*
X9166905Y-14941190D01*
X9176429Y-14931667D01*
X9195476Y-14922143D01*
X9224048Y-14922143D01*
X9243095Y-14931667D01*
X9252619Y-14941190D01*
X9262143Y-14960238D01*
X9262143Y-15017381D01*
X9252619Y-15036428D01*
X9243095Y-15045952D01*
X9224048Y-15055476D01*
X9195476Y-15055476D01*
X9376429Y-15055476D02*
X9357381Y-15045952D01*
X9347857Y-15026905D01*
X9347857Y-14855476D01*
X9528810Y-15045952D02*
X9509762Y-15055476D01*
X9471667Y-15055476D01*
X9452619Y-15045952D01*
X9443095Y-15026905D01*
X9443095Y-14950714D01*
X9452619Y-14931667D01*
X9471667Y-14922143D01*
X9509762Y-14922143D01*
X9528810Y-14931667D01*
X9538333Y-14950714D01*
X9538333Y-14969762D01*
X9443095Y-14988809D01*
X9605000Y-15131667D02*
X9614524Y-15122143D01*
X9633571Y-15093571D01*
X9643095Y-15074524D01*
X9652619Y-15045952D01*
X9662143Y-14998333D01*
X9662143Y-14960238D01*
X9652619Y-14912619D01*
X9643095Y-14884048D01*
X9633571Y-14865000D01*
X9614524Y-14836428D01*
X9605000Y-14826905D01*
D18*
X4916260Y-15189630D02*
X4995000Y-15268370D01*
X4995000Y-15189630D02*
X4916260Y-15268370D01*
X4955630Y-15189630D02*
X4955630Y-15268370D01*
X4916260Y-15229000D02*
X4995000Y-15229000D01*
D11*
X5290714Y-15119476D02*
X5309762Y-15119476D01*
X5328810Y-15129000D01*
X5338333Y-15138524D01*
X5347857Y-15157571D01*
X5357381Y-15195667D01*
X5357381Y-15243286D01*
X5347857Y-15281381D01*
X5338333Y-15300428D01*
X5328810Y-15309952D01*
X5309762Y-15319476D01*
X5290714Y-15319476D01*
X5271667Y-15309952D01*
X5262143Y-15300428D01*
X5252619Y-15281381D01*
X5243095Y-15243286D01*
X5243095Y-15195667D01*
X5252619Y-15157571D01*
X5262143Y-15138524D01*
X5271667Y-15129000D01*
X5290714Y-15119476D01*
X5443095Y-15300428D02*
X5452619Y-15309952D01*
X5443095Y-15319476D01*
X5433571Y-15309952D01*
X5443095Y-15300428D01*
X5443095Y-15319476D01*
X5519286Y-15119476D02*
X5652619Y-15119476D01*
X5566905Y-15319476D01*
X5757381Y-15205190D02*
X5738333Y-15195667D01*
X5728809Y-15186143D01*
X5719286Y-15167095D01*
X5719286Y-15157571D01*
X5728809Y-15138524D01*
X5738333Y-15129000D01*
X5757381Y-15119476D01*
X5795476Y-15119476D01*
X5814524Y-15129000D01*
X5824048Y-15138524D01*
X5833571Y-15157571D01*
X5833571Y-15167095D01*
X5824048Y-15186143D01*
X5814524Y-15195667D01*
X5795476Y-15205190D01*
X5757381Y-15205190D01*
X5738333Y-15214714D01*
X5728809Y-15224238D01*
X5719286Y-15243286D01*
X5719286Y-15281381D01*
X5728809Y-15300428D01*
X5738333Y-15309952D01*
X5757381Y-15319476D01*
X5795476Y-15319476D01*
X5814524Y-15309952D01*
X5824048Y-15300428D01*
X5833571Y-15281381D01*
X5833571Y-15243286D01*
X5824048Y-15224238D01*
X5814524Y-15214714D01*
X5795476Y-15205190D01*
X5900238Y-15119476D02*
X6033571Y-15119476D01*
X5947857Y-15319476D01*
X6109762Y-15319476D02*
X6109762Y-15186143D01*
X6109762Y-15205190D02*
X6119286Y-15195667D01*
X6138333Y-15186143D01*
X6166905Y-15186143D01*
X6185952Y-15195667D01*
X6195476Y-15214714D01*
X6195476Y-15319476D01*
X6195476Y-15214714D02*
X6205000Y-15195667D01*
X6224048Y-15186143D01*
X6252619Y-15186143D01*
X6271667Y-15195667D01*
X6281190Y-15214714D01*
X6281190Y-15319476D01*
X6376428Y-15319476D02*
X6376428Y-15186143D01*
X6376428Y-15205190D02*
X6385952Y-15195667D01*
X6405000Y-15186143D01*
X6433571Y-15186143D01*
X6452619Y-15195667D01*
X6462143Y-15214714D01*
X6462143Y-15319476D01*
X6462143Y-15214714D02*
X6471667Y-15195667D01*
X6490714Y-15186143D01*
X6519286Y-15186143D01*
X6538333Y-15195667D01*
X6547857Y-15214714D01*
X6547857Y-15319476D01*
X6938333Y-15109952D02*
X6766905Y-15367095D01*
X7195476Y-15119476D02*
X7214524Y-15119476D01*
X7233571Y-15129000D01*
X7243095Y-15138524D01*
X7252619Y-15157571D01*
X7262143Y-15195667D01*
X7262143Y-15243286D01*
X7252619Y-15281381D01*
X7243095Y-15300428D01*
X7233571Y-15309952D01*
X7214524Y-15319476D01*
X7195476Y-15319476D01*
X7176428Y-15309952D01*
X7166905Y-15300428D01*
X7157381Y-15281381D01*
X7147857Y-15243286D01*
X7147857Y-15195667D01*
X7157381Y-15157571D01*
X7166905Y-15138524D01*
X7176428Y-15129000D01*
X7195476Y-15119476D01*
X7347857Y-15300428D02*
X7357381Y-15309952D01*
X7347857Y-15319476D01*
X7338333Y-15309952D01*
X7347857Y-15300428D01*
X7347857Y-15319476D01*
X7481190Y-15119476D02*
X7500238Y-15119476D01*
X7519286Y-15129000D01*
X7528809Y-15138524D01*
X7538333Y-15157571D01*
X7547857Y-15195667D01*
X7547857Y-15243286D01*
X7538333Y-15281381D01*
X7528809Y-15300428D01*
X7519286Y-15309952D01*
X7500238Y-15319476D01*
X7481190Y-15319476D01*
X7462143Y-15309952D01*
X7452619Y-15300428D01*
X7443095Y-15281381D01*
X7433571Y-15243286D01*
X7433571Y-15195667D01*
X7443095Y-15157571D01*
X7452619Y-15138524D01*
X7462143Y-15129000D01*
X7481190Y-15119476D01*
X7614524Y-15119476D02*
X7738333Y-15119476D01*
X7671667Y-15195667D01*
X7700238Y-15195667D01*
X7719286Y-15205190D01*
X7728809Y-15214714D01*
X7738333Y-15233762D01*
X7738333Y-15281381D01*
X7728809Y-15300428D01*
X7719286Y-15309952D01*
X7700238Y-15319476D01*
X7643095Y-15319476D01*
X7624048Y-15309952D01*
X7614524Y-15300428D01*
X7928809Y-15319476D02*
X7814524Y-15319476D01*
X7871667Y-15319476D02*
X7871667Y-15119476D01*
X7852619Y-15148048D01*
X7833571Y-15167095D01*
X7814524Y-15176619D01*
X8052619Y-15119476D02*
X8071667Y-15119476D01*
X8090714Y-15129000D01*
X8100238Y-15138524D01*
X8109762Y-15157571D01*
X8119286Y-15195667D01*
X8119286Y-15243286D01*
X8109762Y-15281381D01*
X8100238Y-15300428D01*
X8090714Y-15309952D01*
X8071667Y-15319476D01*
X8052619Y-15319476D01*
X8033571Y-15309952D01*
X8024048Y-15300428D01*
X8014524Y-15281381D01*
X8005000Y-15243286D01*
X8005000Y-15195667D01*
X8014524Y-15157571D01*
X8024048Y-15138524D01*
X8033571Y-15129000D01*
X8052619Y-15119476D01*
X8195476Y-15119476D02*
X8195476Y-15157571D01*
X8271667Y-15119476D02*
X8271667Y-15157571D01*
X8566905Y-15395667D02*
X8557381Y-15386143D01*
X8538333Y-15357571D01*
X8528810Y-15338524D01*
X8519286Y-15309952D01*
X8509762Y-15262333D01*
X8509762Y-15224238D01*
X8519286Y-15176619D01*
X8528810Y-15148048D01*
X8538333Y-15129000D01*
X8557381Y-15100428D01*
X8566905Y-15090905D01*
X8747857Y-15319476D02*
X8633571Y-15319476D01*
X8690714Y-15319476D02*
X8690714Y-15119476D01*
X8671667Y-15148048D01*
X8652619Y-15167095D01*
X8633571Y-15176619D01*
X8985952Y-15319476D02*
X8985952Y-15119476D01*
X9071667Y-15319476D02*
X9071667Y-15214714D01*
X9062143Y-15195667D01*
X9043095Y-15186143D01*
X9014524Y-15186143D01*
X8995476Y-15195667D01*
X8985952Y-15205190D01*
X9195476Y-15319476D02*
X9176429Y-15309952D01*
X9166905Y-15300428D01*
X9157381Y-15281381D01*
X9157381Y-15224238D01*
X9166905Y-15205190D01*
X9176429Y-15195667D01*
X9195476Y-15186143D01*
X9224048Y-15186143D01*
X9243095Y-15195667D01*
X9252619Y-15205190D01*
X9262143Y-15224238D01*
X9262143Y-15281381D01*
X9252619Y-15300428D01*
X9243095Y-15309952D01*
X9224048Y-15319476D01*
X9195476Y-15319476D01*
X9376429Y-15319476D02*
X9357381Y-15309952D01*
X9347857Y-15290905D01*
X9347857Y-15119476D01*
X9528810Y-15309952D02*
X9509762Y-15319476D01*
X9471667Y-15319476D01*
X9452619Y-15309952D01*
X9443095Y-15290905D01*
X9443095Y-15214714D01*
X9452619Y-15195667D01*
X9471667Y-15186143D01*
X9509762Y-15186143D01*
X9528810Y-15195667D01*
X9538333Y-15214714D01*
X9538333Y-15233762D01*
X9443095Y-15252809D01*
X9605000Y-15395667D02*
X9614524Y-15386143D01*
X9633571Y-15357571D01*
X9643095Y-15338524D01*
X9652619Y-15309952D01*
X9662143Y-15262333D01*
X9662143Y-15224238D01*
X9652619Y-15176619D01*
X9643095Y-15148048D01*
X9633571Y-15129000D01*
X9614524Y-15100428D01*
X9605000Y-15090905D01*
D19*
X4914990Y-15452995D02*
X4995000Y-15533005D01*
X4995000Y-15452995D02*
X4914990Y-15533005D01*
X4983283Y-15521288D02*
X4983283Y-15464712D01*
X4926707Y-15464712D01*
X4926707Y-15521288D01*
X4983283Y-15521288D01*
D11*
X5290714Y-15383476D02*
X5309762Y-15383476D01*
X5328810Y-15393000D01*
X5338333Y-15402524D01*
X5347857Y-15421571D01*
X5357381Y-15459667D01*
X5357381Y-15507286D01*
X5347857Y-15545381D01*
X5338333Y-15564428D01*
X5328810Y-15573952D01*
X5309762Y-15583476D01*
X5290714Y-15583476D01*
X5271667Y-15573952D01*
X5262143Y-15564428D01*
X5252619Y-15545381D01*
X5243095Y-15507286D01*
X5243095Y-15459667D01*
X5252619Y-15421571D01*
X5262143Y-15402524D01*
X5271667Y-15393000D01*
X5290714Y-15383476D01*
X5443095Y-15564428D02*
X5452619Y-15573952D01*
X5443095Y-15583476D01*
X5433571Y-15573952D01*
X5443095Y-15564428D01*
X5443095Y-15583476D01*
X5566905Y-15469190D02*
X5547857Y-15459667D01*
X5538333Y-15450143D01*
X5528810Y-15431095D01*
X5528810Y-15421571D01*
X5538333Y-15402524D01*
X5547857Y-15393000D01*
X5566905Y-15383476D01*
X5605000Y-15383476D01*
X5624048Y-15393000D01*
X5633571Y-15402524D01*
X5643095Y-15421571D01*
X5643095Y-15431095D01*
X5633571Y-15450143D01*
X5624048Y-15459667D01*
X5605000Y-15469190D01*
X5566905Y-15469190D01*
X5547857Y-15478714D01*
X5538333Y-15488238D01*
X5528810Y-15507286D01*
X5528810Y-15545381D01*
X5538333Y-15564428D01*
X5547857Y-15573952D01*
X5566905Y-15583476D01*
X5605000Y-15583476D01*
X5624048Y-15573952D01*
X5633571Y-15564428D01*
X5643095Y-15545381D01*
X5643095Y-15507286D01*
X5633571Y-15488238D01*
X5624048Y-15478714D01*
X5605000Y-15469190D01*
X5766905Y-15383476D02*
X5785952Y-15383476D01*
X5805000Y-15393000D01*
X5814524Y-15402524D01*
X5824048Y-15421571D01*
X5833571Y-15459667D01*
X5833571Y-15507286D01*
X5824048Y-15545381D01*
X5814524Y-15564428D01*
X5805000Y-15573952D01*
X5785952Y-15583476D01*
X5766905Y-15583476D01*
X5747857Y-15573952D01*
X5738333Y-15564428D01*
X5728809Y-15545381D01*
X5719286Y-15507286D01*
X5719286Y-15459667D01*
X5728809Y-15421571D01*
X5738333Y-15402524D01*
X5747857Y-15393000D01*
X5766905Y-15383476D01*
X5957381Y-15383476D02*
X5976428Y-15383476D01*
X5995476Y-15393000D01*
X6005000Y-15402524D01*
X6014524Y-15421571D01*
X6024048Y-15459667D01*
X6024048Y-15507286D01*
X6014524Y-15545381D01*
X6005000Y-15564428D01*
X5995476Y-15573952D01*
X5976428Y-15583476D01*
X5957381Y-15583476D01*
X5938333Y-15573952D01*
X5928809Y-15564428D01*
X5919286Y-15545381D01*
X5909762Y-15507286D01*
X5909762Y-15459667D01*
X5919286Y-15421571D01*
X5928809Y-15402524D01*
X5938333Y-15393000D01*
X5957381Y-15383476D01*
X6109762Y-15583476D02*
X6109762Y-15450143D01*
X6109762Y-15469190D02*
X6119286Y-15459667D01*
X6138333Y-15450143D01*
X6166905Y-15450143D01*
X6185952Y-15459667D01*
X6195476Y-15478714D01*
X6195476Y-15583476D01*
X6195476Y-15478714D02*
X6205000Y-15459667D01*
X6224048Y-15450143D01*
X6252619Y-15450143D01*
X6271667Y-15459667D01*
X6281190Y-15478714D01*
X6281190Y-15583476D01*
X6376428Y-15583476D02*
X6376428Y-15450143D01*
X6376428Y-15469190D02*
X6385952Y-15459667D01*
X6405000Y-15450143D01*
X6433571Y-15450143D01*
X6452619Y-15459667D01*
X6462143Y-15478714D01*
X6462143Y-15583476D01*
X6462143Y-15478714D02*
X6471667Y-15459667D01*
X6490714Y-15450143D01*
X6519286Y-15450143D01*
X6538333Y-15459667D01*
X6547857Y-15478714D01*
X6547857Y-15583476D01*
X6938333Y-15373952D02*
X6766905Y-15631095D01*
X7195476Y-15383476D02*
X7214524Y-15383476D01*
X7233571Y-15393000D01*
X7243095Y-15402524D01*
X7252619Y-15421571D01*
X7262143Y-15459667D01*
X7262143Y-15507286D01*
X7252619Y-15545381D01*
X7243095Y-15564428D01*
X7233571Y-15573952D01*
X7214524Y-15583476D01*
X7195476Y-15583476D01*
X7176428Y-15573952D01*
X7166905Y-15564428D01*
X7157381Y-15545381D01*
X7147857Y-15507286D01*
X7147857Y-15459667D01*
X7157381Y-15421571D01*
X7166905Y-15402524D01*
X7176428Y-15393000D01*
X7195476Y-15383476D01*
X7347857Y-15564428D02*
X7357381Y-15573952D01*
X7347857Y-15583476D01*
X7338333Y-15573952D01*
X7347857Y-15564428D01*
X7347857Y-15583476D01*
X7481190Y-15383476D02*
X7500238Y-15383476D01*
X7519286Y-15393000D01*
X7528809Y-15402524D01*
X7538333Y-15421571D01*
X7547857Y-15459667D01*
X7547857Y-15507286D01*
X7538333Y-15545381D01*
X7528809Y-15564428D01*
X7519286Y-15573952D01*
X7500238Y-15583476D01*
X7481190Y-15583476D01*
X7462143Y-15573952D01*
X7452619Y-15564428D01*
X7443095Y-15545381D01*
X7433571Y-15507286D01*
X7433571Y-15459667D01*
X7443095Y-15421571D01*
X7452619Y-15402524D01*
X7462143Y-15393000D01*
X7481190Y-15383476D01*
X7614524Y-15383476D02*
X7738333Y-15383476D01*
X7671667Y-15459667D01*
X7700238Y-15459667D01*
X7719286Y-15469190D01*
X7728809Y-15478714D01*
X7738333Y-15497762D01*
X7738333Y-15545381D01*
X7728809Y-15564428D01*
X7719286Y-15573952D01*
X7700238Y-15583476D01*
X7643095Y-15583476D01*
X7624048Y-15573952D01*
X7614524Y-15564428D01*
X7928809Y-15583476D02*
X7814524Y-15583476D01*
X7871667Y-15583476D02*
X7871667Y-15383476D01*
X7852619Y-15412048D01*
X7833571Y-15431095D01*
X7814524Y-15440619D01*
X8109762Y-15383476D02*
X8014524Y-15383476D01*
X8005000Y-15478714D01*
X8014524Y-15469190D01*
X8033571Y-15459667D01*
X8081190Y-15459667D01*
X8100238Y-15469190D01*
X8109762Y-15478714D01*
X8119286Y-15497762D01*
X8119286Y-15545381D01*
X8109762Y-15564428D01*
X8100238Y-15573952D01*
X8081190Y-15583476D01*
X8033571Y-15583476D01*
X8014524Y-15573952D01*
X8005000Y-15564428D01*
X8195476Y-15383476D02*
X8195476Y-15421571D01*
X8271667Y-15383476D02*
X8271667Y-15421571D01*
X8566905Y-15659667D02*
X8557381Y-15650143D01*
X8538333Y-15621571D01*
X8528810Y-15602524D01*
X8519286Y-15573952D01*
X8509762Y-15526333D01*
X8509762Y-15488238D01*
X8519286Y-15440619D01*
X8528810Y-15412048D01*
X8538333Y-15393000D01*
X8557381Y-15364428D01*
X8566905Y-15354905D01*
X8671667Y-15469190D02*
X8652619Y-15459667D01*
X8643095Y-15450143D01*
X8633571Y-15431095D01*
X8633571Y-15421571D01*
X8643095Y-15402524D01*
X8652619Y-15393000D01*
X8671667Y-15383476D01*
X8709762Y-15383476D01*
X8728810Y-15393000D01*
X8738333Y-15402524D01*
X8747857Y-15421571D01*
X8747857Y-15431095D01*
X8738333Y-15450143D01*
X8728810Y-15459667D01*
X8709762Y-15469190D01*
X8671667Y-15469190D01*
X8652619Y-15478714D01*
X8643095Y-15488238D01*
X8633571Y-15507286D01*
X8633571Y-15545381D01*
X8643095Y-15564428D01*
X8652619Y-15573952D01*
X8671667Y-15583476D01*
X8709762Y-15583476D01*
X8728810Y-15573952D01*
X8738333Y-15564428D01*
X8747857Y-15545381D01*
X8747857Y-15507286D01*
X8738333Y-15488238D01*
X8728810Y-15478714D01*
X8709762Y-15469190D01*
X8985952Y-15583476D02*
X8985952Y-15383476D01*
X9071667Y-15583476D02*
X9071667Y-15478714D01*
X9062143Y-15459667D01*
X9043095Y-15450143D01*
X9014524Y-15450143D01*
X8995476Y-15459667D01*
X8985952Y-15469190D01*
X9195476Y-15583476D02*
X9176429Y-15573952D01*
X9166905Y-15564428D01*
X9157381Y-15545381D01*
X9157381Y-15488238D01*
X9166905Y-15469190D01*
X9176429Y-15459667D01*
X9195476Y-15450143D01*
X9224048Y-15450143D01*
X9243095Y-15459667D01*
X9252619Y-15469190D01*
X9262143Y-15488238D01*
X9262143Y-15545381D01*
X9252619Y-15564428D01*
X9243095Y-15573952D01*
X9224048Y-15583476D01*
X9195476Y-15583476D01*
X9376429Y-15583476D02*
X9357381Y-15573952D01*
X9347857Y-15554905D01*
X9347857Y-15383476D01*
X9528810Y-15573952D02*
X9509762Y-15583476D01*
X9471667Y-15583476D01*
X9452619Y-15573952D01*
X9443095Y-15554905D01*
X9443095Y-15478714D01*
X9452619Y-15459667D01*
X9471667Y-15450143D01*
X9509762Y-15450143D01*
X9528810Y-15459667D01*
X9538333Y-15478714D01*
X9538333Y-15497762D01*
X9443095Y-15516809D01*
X9614524Y-15573952D02*
X9633571Y-15583476D01*
X9671667Y-15583476D01*
X9690714Y-15573952D01*
X9700238Y-15554905D01*
X9700238Y-15545381D01*
X9690714Y-15526333D01*
X9671667Y-15516809D01*
X9643095Y-15516809D01*
X9624048Y-15507286D01*
X9614524Y-15488238D01*
X9614524Y-15478714D01*
X9624048Y-15459667D01*
X9643095Y-15450143D01*
X9671667Y-15450143D01*
X9690714Y-15459667D01*
X9766905Y-15659667D02*
X9776429Y-15650143D01*
X9795476Y-15621571D01*
X9805000Y-15602524D01*
X9814524Y-15573952D01*
X9824048Y-15526333D01*
X9824048Y-15488238D01*
X9814524Y-15440619D01*
X9805000Y-15412048D01*
X9795476Y-15393000D01*
X9776429Y-15364428D01*
X9766905Y-15354905D01*
D20*
X4906100Y-15712550D02*
X4995000Y-15801450D01*
X4995000Y-15712550D02*
X4906100Y-15801450D01*
X4950550Y-15801450D02*
X4995000Y-15757000D01*
X4950550Y-15712550D01*
X4906100Y-15757000D01*
X4950550Y-15801450D01*
D11*
X5290714Y-15647476D02*
X5309762Y-15647476D01*
X5328810Y-15657000D01*
X5338333Y-15666524D01*
X5347857Y-15685571D01*
X5357381Y-15723667D01*
X5357381Y-15771286D01*
X5347857Y-15809381D01*
X5338333Y-15828428D01*
X5328810Y-15837952D01*
X5309762Y-15847476D01*
X5290714Y-15847476D01*
X5271667Y-15837952D01*
X5262143Y-15828428D01*
X5252619Y-15809381D01*
X5243095Y-15771286D01*
X5243095Y-15723667D01*
X5252619Y-15685571D01*
X5262143Y-15666524D01*
X5271667Y-15657000D01*
X5290714Y-15647476D01*
X5443095Y-15828428D02*
X5452619Y-15837952D01*
X5443095Y-15847476D01*
X5433571Y-15837952D01*
X5443095Y-15828428D01*
X5443095Y-15847476D01*
X5566905Y-15733190D02*
X5547857Y-15723667D01*
X5538333Y-15714143D01*
X5528810Y-15695095D01*
X5528810Y-15685571D01*
X5538333Y-15666524D01*
X5547857Y-15657000D01*
X5566905Y-15647476D01*
X5605000Y-15647476D01*
X5624048Y-15657000D01*
X5633571Y-15666524D01*
X5643095Y-15685571D01*
X5643095Y-15695095D01*
X5633571Y-15714143D01*
X5624048Y-15723667D01*
X5605000Y-15733190D01*
X5566905Y-15733190D01*
X5547857Y-15742714D01*
X5538333Y-15752238D01*
X5528810Y-15771286D01*
X5528810Y-15809381D01*
X5538333Y-15828428D01*
X5547857Y-15837952D01*
X5566905Y-15847476D01*
X5605000Y-15847476D01*
X5624048Y-15837952D01*
X5633571Y-15828428D01*
X5643095Y-15809381D01*
X5643095Y-15771286D01*
X5633571Y-15752238D01*
X5624048Y-15742714D01*
X5605000Y-15733190D01*
X5757381Y-15733190D02*
X5738333Y-15723667D01*
X5728809Y-15714143D01*
X5719286Y-15695095D01*
X5719286Y-15685571D01*
X5728809Y-15666524D01*
X5738333Y-15657000D01*
X5757381Y-15647476D01*
X5795476Y-15647476D01*
X5814524Y-15657000D01*
X5824048Y-15666524D01*
X5833571Y-15685571D01*
X5833571Y-15695095D01*
X5824048Y-15714143D01*
X5814524Y-15723667D01*
X5795476Y-15733190D01*
X5757381Y-15733190D01*
X5738333Y-15742714D01*
X5728809Y-15752238D01*
X5719286Y-15771286D01*
X5719286Y-15809381D01*
X5728809Y-15828428D01*
X5738333Y-15837952D01*
X5757381Y-15847476D01*
X5795476Y-15847476D01*
X5814524Y-15837952D01*
X5824048Y-15828428D01*
X5833571Y-15809381D01*
X5833571Y-15771286D01*
X5824048Y-15752238D01*
X5814524Y-15742714D01*
X5795476Y-15733190D01*
X5928809Y-15847476D02*
X5966905Y-15847476D01*
X5985952Y-15837952D01*
X5995476Y-15828428D01*
X6014524Y-15799857D01*
X6024048Y-15761762D01*
X6024048Y-15685571D01*
X6014524Y-15666524D01*
X6005000Y-15657000D01*
X5985952Y-15647476D01*
X5947857Y-15647476D01*
X5928809Y-15657000D01*
X5919286Y-15666524D01*
X5909762Y-15685571D01*
X5909762Y-15733190D01*
X5919286Y-15752238D01*
X5928809Y-15761762D01*
X5947857Y-15771286D01*
X5985952Y-15771286D01*
X6005000Y-15761762D01*
X6014524Y-15752238D01*
X6024048Y-15733190D01*
X6109762Y-15847476D02*
X6109762Y-15714143D01*
X6109762Y-15733190D02*
X6119286Y-15723667D01*
X6138333Y-15714143D01*
X6166905Y-15714143D01*
X6185952Y-15723667D01*
X6195476Y-15742714D01*
X6195476Y-15847476D01*
X6195476Y-15742714D02*
X6205000Y-15723667D01*
X6224048Y-15714143D01*
X6252619Y-15714143D01*
X6271667Y-15723667D01*
X6281190Y-15742714D01*
X6281190Y-15847476D01*
X6376428Y-15847476D02*
X6376428Y-15714143D01*
X6376428Y-15733190D02*
X6385952Y-15723667D01*
X6405000Y-15714143D01*
X6433571Y-15714143D01*
X6452619Y-15723667D01*
X6462143Y-15742714D01*
X6462143Y-15847476D01*
X6462143Y-15742714D02*
X6471667Y-15723667D01*
X6490714Y-15714143D01*
X6519286Y-15714143D01*
X6538333Y-15723667D01*
X6547857Y-15742714D01*
X6547857Y-15847476D01*
X6938333Y-15637952D02*
X6766905Y-15895095D01*
X7195476Y-15647476D02*
X7214524Y-15647476D01*
X7233571Y-15657000D01*
X7243095Y-15666524D01*
X7252619Y-15685571D01*
X7262143Y-15723667D01*
X7262143Y-15771286D01*
X7252619Y-15809381D01*
X7243095Y-15828428D01*
X7233571Y-15837952D01*
X7214524Y-15847476D01*
X7195476Y-15847476D01*
X7176428Y-15837952D01*
X7166905Y-15828428D01*
X7157381Y-15809381D01*
X7147857Y-15771286D01*
X7147857Y-15723667D01*
X7157381Y-15685571D01*
X7166905Y-15666524D01*
X7176428Y-15657000D01*
X7195476Y-15647476D01*
X7347857Y-15828428D02*
X7357381Y-15837952D01*
X7347857Y-15847476D01*
X7338333Y-15837952D01*
X7347857Y-15828428D01*
X7347857Y-15847476D01*
X7481190Y-15647476D02*
X7500238Y-15647476D01*
X7519286Y-15657000D01*
X7528809Y-15666524D01*
X7538333Y-15685571D01*
X7547857Y-15723667D01*
X7547857Y-15771286D01*
X7538333Y-15809381D01*
X7528809Y-15828428D01*
X7519286Y-15837952D01*
X7500238Y-15847476D01*
X7481190Y-15847476D01*
X7462143Y-15837952D01*
X7452619Y-15828428D01*
X7443095Y-15809381D01*
X7433571Y-15771286D01*
X7433571Y-15723667D01*
X7443095Y-15685571D01*
X7452619Y-15666524D01*
X7462143Y-15657000D01*
X7481190Y-15647476D01*
X7614524Y-15647476D02*
X7738333Y-15647476D01*
X7671667Y-15723667D01*
X7700238Y-15723667D01*
X7719286Y-15733190D01*
X7728809Y-15742714D01*
X7738333Y-15761762D01*
X7738333Y-15809381D01*
X7728809Y-15828428D01*
X7719286Y-15837952D01*
X7700238Y-15847476D01*
X7643095Y-15847476D01*
X7624048Y-15837952D01*
X7614524Y-15828428D01*
X7919286Y-15647476D02*
X7824048Y-15647476D01*
X7814524Y-15742714D01*
X7824048Y-15733190D01*
X7843095Y-15723667D01*
X7890714Y-15723667D01*
X7909762Y-15733190D01*
X7919286Y-15742714D01*
X7928809Y-15761762D01*
X7928809Y-15809381D01*
X7919286Y-15828428D01*
X7909762Y-15837952D01*
X7890714Y-15847476D01*
X7843095Y-15847476D01*
X7824048Y-15837952D01*
X7814524Y-15828428D01*
X8052619Y-15647476D02*
X8071667Y-15647476D01*
X8090714Y-15657000D01*
X8100238Y-15666524D01*
X8109762Y-15685571D01*
X8119286Y-15723667D01*
X8119286Y-15771286D01*
X8109762Y-15809381D01*
X8100238Y-15828428D01*
X8090714Y-15837952D01*
X8071667Y-15847476D01*
X8052619Y-15847476D01*
X8033571Y-15837952D01*
X8024048Y-15828428D01*
X8014524Y-15809381D01*
X8005000Y-15771286D01*
X8005000Y-15723667D01*
X8014524Y-15685571D01*
X8024048Y-15666524D01*
X8033571Y-15657000D01*
X8052619Y-15647476D01*
X8195476Y-15647476D02*
X8195476Y-15685571D01*
X8271667Y-15647476D02*
X8271667Y-15685571D01*
X8566905Y-15923667D02*
X8557381Y-15914143D01*
X8538333Y-15885571D01*
X8528810Y-15866524D01*
X8519286Y-15837952D01*
X8509762Y-15790333D01*
X8509762Y-15752238D01*
X8519286Y-15704619D01*
X8528810Y-15676048D01*
X8538333Y-15657000D01*
X8557381Y-15628428D01*
X8566905Y-15618905D01*
X8728810Y-15647476D02*
X8690714Y-15647476D01*
X8671667Y-15657000D01*
X8662143Y-15666524D01*
X8643095Y-15695095D01*
X8633571Y-15733190D01*
X8633571Y-15809381D01*
X8643095Y-15828428D01*
X8652619Y-15837952D01*
X8671667Y-15847476D01*
X8709762Y-15847476D01*
X8728810Y-15837952D01*
X8738333Y-15828428D01*
X8747857Y-15809381D01*
X8747857Y-15761762D01*
X8738333Y-15742714D01*
X8728810Y-15733190D01*
X8709762Y-15723667D01*
X8671667Y-15723667D01*
X8652619Y-15733190D01*
X8643095Y-15742714D01*
X8633571Y-15761762D01*
X8985952Y-15847476D02*
X8985952Y-15647476D01*
X9071667Y-15847476D02*
X9071667Y-15742714D01*
X9062143Y-15723667D01*
X9043095Y-15714143D01*
X9014524Y-15714143D01*
X8995476Y-15723667D01*
X8985952Y-15733190D01*
X9195476Y-15847476D02*
X9176429Y-15837952D01*
X9166905Y-15828428D01*
X9157381Y-15809381D01*
X9157381Y-15752238D01*
X9166905Y-15733190D01*
X9176429Y-15723667D01*
X9195476Y-15714143D01*
X9224048Y-15714143D01*
X9243095Y-15723667D01*
X9252619Y-15733190D01*
X9262143Y-15752238D01*
X9262143Y-15809381D01*
X9252619Y-15828428D01*
X9243095Y-15837952D01*
X9224048Y-15847476D01*
X9195476Y-15847476D01*
X9376429Y-15847476D02*
X9357381Y-15837952D01*
X9347857Y-15818905D01*
X9347857Y-15647476D01*
X9528810Y-15837952D02*
X9509762Y-15847476D01*
X9471667Y-15847476D01*
X9452619Y-15837952D01*
X9443095Y-15818905D01*
X9443095Y-15742714D01*
X9452619Y-15723667D01*
X9471667Y-15714143D01*
X9509762Y-15714143D01*
X9528810Y-15723667D01*
X9538333Y-15742714D01*
X9538333Y-15761762D01*
X9443095Y-15780809D01*
X9614524Y-15837952D02*
X9633571Y-15847476D01*
X9671667Y-15847476D01*
X9690714Y-15837952D01*
X9700238Y-15818905D01*
X9700238Y-15809381D01*
X9690714Y-15790333D01*
X9671667Y-15780809D01*
X9643095Y-15780809D01*
X9624048Y-15771286D01*
X9614524Y-15752238D01*
X9614524Y-15742714D01*
X9624048Y-15723667D01*
X9643095Y-15714143D01*
X9671667Y-15714143D01*
X9690714Y-15723667D01*
X9766905Y-15923667D02*
X9776429Y-15914143D01*
X9795476Y-15885571D01*
X9805000Y-15866524D01*
X9814524Y-15837952D01*
X9824048Y-15790333D01*
X9824048Y-15752238D01*
X9814524Y-15704619D01*
X9805000Y-15676048D01*
X9795476Y-15657000D01*
X9776429Y-15628428D01*
X9766905Y-15618905D01*
D21*
X4950042Y-15976042D02*
X4950042Y-16065958D01*
X4905084Y-16021000D02*
X4995000Y-16021000D01*
X4995000Y-16021000D02*
G75*
G03*
X4995000Y-16021000I-44958J0D01*
G01*
D11*
X5290714Y-15911476D02*
X5309762Y-15911476D01*
X5328810Y-15921000D01*
X5338333Y-15930524D01*
X5347857Y-15949571D01*
X5357381Y-15987667D01*
X5357381Y-16035286D01*
X5347857Y-16073381D01*
X5338333Y-16092428D01*
X5328810Y-16101952D01*
X5309762Y-16111476D01*
X5290714Y-16111476D01*
X5271667Y-16101952D01*
X5262143Y-16092428D01*
X5252619Y-16073381D01*
X5243095Y-16035286D01*
X5243095Y-15987667D01*
X5252619Y-15949571D01*
X5262143Y-15930524D01*
X5271667Y-15921000D01*
X5290714Y-15911476D01*
X5443095Y-16092428D02*
X5452619Y-16101952D01*
X5443095Y-16111476D01*
X5433571Y-16101952D01*
X5443095Y-16092428D01*
X5443095Y-16111476D01*
X5566905Y-15997190D02*
X5547857Y-15987667D01*
X5538333Y-15978143D01*
X5528810Y-15959095D01*
X5528810Y-15949571D01*
X5538333Y-15930524D01*
X5547857Y-15921000D01*
X5566905Y-15911476D01*
X5605000Y-15911476D01*
X5624048Y-15921000D01*
X5633571Y-15930524D01*
X5643095Y-15949571D01*
X5643095Y-15959095D01*
X5633571Y-15978143D01*
X5624048Y-15987667D01*
X5605000Y-15997190D01*
X5566905Y-15997190D01*
X5547857Y-16006714D01*
X5538333Y-16016238D01*
X5528810Y-16035286D01*
X5528810Y-16073381D01*
X5538333Y-16092428D01*
X5547857Y-16101952D01*
X5566905Y-16111476D01*
X5605000Y-16111476D01*
X5624048Y-16101952D01*
X5633571Y-16092428D01*
X5643095Y-16073381D01*
X5643095Y-16035286D01*
X5633571Y-16016238D01*
X5624048Y-16006714D01*
X5605000Y-15997190D01*
X5738333Y-16111476D02*
X5776428Y-16111476D01*
X5795476Y-16101952D01*
X5805000Y-16092428D01*
X5824048Y-16063857D01*
X5833571Y-16025762D01*
X5833571Y-15949571D01*
X5824048Y-15930524D01*
X5814524Y-15921000D01*
X5795476Y-15911476D01*
X5757381Y-15911476D01*
X5738333Y-15921000D01*
X5728809Y-15930524D01*
X5719286Y-15949571D01*
X5719286Y-15997190D01*
X5728809Y-16016238D01*
X5738333Y-16025762D01*
X5757381Y-16035286D01*
X5795476Y-16035286D01*
X5814524Y-16025762D01*
X5824048Y-16016238D01*
X5833571Y-15997190D01*
X5928809Y-16111476D02*
X5966905Y-16111476D01*
X5985952Y-16101952D01*
X5995476Y-16092428D01*
X6014524Y-16063857D01*
X6024048Y-16025762D01*
X6024048Y-15949571D01*
X6014524Y-15930524D01*
X6005000Y-15921000D01*
X5985952Y-15911476D01*
X5947857Y-15911476D01*
X5928809Y-15921000D01*
X5919286Y-15930524D01*
X5909762Y-15949571D01*
X5909762Y-15997190D01*
X5919286Y-16016238D01*
X5928809Y-16025762D01*
X5947857Y-16035286D01*
X5985952Y-16035286D01*
X6005000Y-16025762D01*
X6014524Y-16016238D01*
X6024048Y-15997190D01*
X6109762Y-16111476D02*
X6109762Y-15978143D01*
X6109762Y-15997190D02*
X6119286Y-15987667D01*
X6138333Y-15978143D01*
X6166905Y-15978143D01*
X6185952Y-15987667D01*
X6195476Y-16006714D01*
X6195476Y-16111476D01*
X6195476Y-16006714D02*
X6205000Y-15987667D01*
X6224048Y-15978143D01*
X6252619Y-15978143D01*
X6271667Y-15987667D01*
X6281190Y-16006714D01*
X6281190Y-16111476D01*
X6376428Y-16111476D02*
X6376428Y-15978143D01*
X6376428Y-15997190D02*
X6385952Y-15987667D01*
X6405000Y-15978143D01*
X6433571Y-15978143D01*
X6452619Y-15987667D01*
X6462143Y-16006714D01*
X6462143Y-16111476D01*
X6462143Y-16006714D02*
X6471667Y-15987667D01*
X6490714Y-15978143D01*
X6519286Y-15978143D01*
X6538333Y-15987667D01*
X6547857Y-16006714D01*
X6547857Y-16111476D01*
X6938333Y-15901952D02*
X6766905Y-16159095D01*
X7195476Y-15911476D02*
X7214524Y-15911476D01*
X7233571Y-15921000D01*
X7243095Y-15930524D01*
X7252619Y-15949571D01*
X7262143Y-15987667D01*
X7262143Y-16035286D01*
X7252619Y-16073381D01*
X7243095Y-16092428D01*
X7233571Y-16101952D01*
X7214524Y-16111476D01*
X7195476Y-16111476D01*
X7176428Y-16101952D01*
X7166905Y-16092428D01*
X7157381Y-16073381D01*
X7147857Y-16035286D01*
X7147857Y-15987667D01*
X7157381Y-15949571D01*
X7166905Y-15930524D01*
X7176428Y-15921000D01*
X7195476Y-15911476D01*
X7347857Y-16092428D02*
X7357381Y-16101952D01*
X7347857Y-16111476D01*
X7338333Y-16101952D01*
X7347857Y-16092428D01*
X7347857Y-16111476D01*
X7481190Y-15911476D02*
X7500238Y-15911476D01*
X7519286Y-15921000D01*
X7528809Y-15930524D01*
X7538333Y-15949571D01*
X7547857Y-15987667D01*
X7547857Y-16035286D01*
X7538333Y-16073381D01*
X7528809Y-16092428D01*
X7519286Y-16101952D01*
X7500238Y-16111476D01*
X7481190Y-16111476D01*
X7462143Y-16101952D01*
X7452619Y-16092428D01*
X7443095Y-16073381D01*
X7433571Y-16035286D01*
X7433571Y-15987667D01*
X7443095Y-15949571D01*
X7452619Y-15930524D01*
X7462143Y-15921000D01*
X7481190Y-15911476D01*
X7614524Y-15911476D02*
X7738333Y-15911476D01*
X7671667Y-15987667D01*
X7700238Y-15987667D01*
X7719286Y-15997190D01*
X7728809Y-16006714D01*
X7738333Y-16025762D01*
X7738333Y-16073381D01*
X7728809Y-16092428D01*
X7719286Y-16101952D01*
X7700238Y-16111476D01*
X7643095Y-16111476D01*
X7624048Y-16101952D01*
X7614524Y-16092428D01*
X7919286Y-15911476D02*
X7824048Y-15911476D01*
X7814524Y-16006714D01*
X7824048Y-15997190D01*
X7843095Y-15987667D01*
X7890714Y-15987667D01*
X7909762Y-15997190D01*
X7919286Y-16006714D01*
X7928809Y-16025762D01*
X7928809Y-16073381D01*
X7919286Y-16092428D01*
X7909762Y-16101952D01*
X7890714Y-16111476D01*
X7843095Y-16111476D01*
X7824048Y-16101952D01*
X7814524Y-16092428D01*
X8100238Y-15978143D02*
X8100238Y-16111476D01*
X8052619Y-15901952D02*
X8005000Y-16044809D01*
X8128809Y-16044809D01*
X8195476Y-15911476D02*
X8195476Y-15949571D01*
X8271667Y-15911476D02*
X8271667Y-15949571D01*
X8566905Y-16187667D02*
X8557381Y-16178143D01*
X8538333Y-16149571D01*
X8528810Y-16130524D01*
X8519286Y-16101952D01*
X8509762Y-16054333D01*
X8509762Y-16016238D01*
X8519286Y-15968619D01*
X8528810Y-15940048D01*
X8538333Y-15921000D01*
X8557381Y-15892428D01*
X8566905Y-15882905D01*
X8728810Y-15978143D02*
X8728810Y-16111476D01*
X8681190Y-15901952D02*
X8633571Y-16044809D01*
X8757381Y-16044809D01*
X8985952Y-16111476D02*
X8985952Y-15911476D01*
X9071667Y-16111476D02*
X9071667Y-16006714D01*
X9062143Y-15987667D01*
X9043095Y-15978143D01*
X9014524Y-15978143D01*
X8995476Y-15987667D01*
X8985952Y-15997190D01*
X9195476Y-16111476D02*
X9176429Y-16101952D01*
X9166905Y-16092428D01*
X9157381Y-16073381D01*
X9157381Y-16016238D01*
X9166905Y-15997190D01*
X9176429Y-15987667D01*
X9195476Y-15978143D01*
X9224048Y-15978143D01*
X9243095Y-15987667D01*
X9252619Y-15997190D01*
X9262143Y-16016238D01*
X9262143Y-16073381D01*
X9252619Y-16092428D01*
X9243095Y-16101952D01*
X9224048Y-16111476D01*
X9195476Y-16111476D01*
X9376429Y-16111476D02*
X9357381Y-16101952D01*
X9347857Y-16082905D01*
X9347857Y-15911476D01*
X9528810Y-16101952D02*
X9509762Y-16111476D01*
X9471667Y-16111476D01*
X9452619Y-16101952D01*
X9443095Y-16082905D01*
X9443095Y-16006714D01*
X9452619Y-15987667D01*
X9471667Y-15978143D01*
X9509762Y-15978143D01*
X9528810Y-15987667D01*
X9538333Y-16006714D01*
X9538333Y-16025762D01*
X9443095Y-16044809D01*
X9614524Y-16101952D02*
X9633571Y-16111476D01*
X9671667Y-16111476D01*
X9690714Y-16101952D01*
X9700238Y-16082905D01*
X9700238Y-16073381D01*
X9690714Y-16054333D01*
X9671667Y-16044809D01*
X9643095Y-16044809D01*
X9624048Y-16035286D01*
X9614524Y-16016238D01*
X9614524Y-16006714D01*
X9624048Y-15987667D01*
X9643095Y-15978143D01*
X9671667Y-15978143D01*
X9690714Y-15987667D01*
X9766905Y-16187667D02*
X9776429Y-16178143D01*
X9795476Y-16149571D01*
X9805000Y-16130524D01*
X9814524Y-16101952D01*
X9824048Y-16054333D01*
X9824048Y-16016238D01*
X9814524Y-15968619D01*
X9805000Y-15940048D01*
X9795476Y-15921000D01*
X9776429Y-15892428D01*
X9766905Y-15882905D01*
D22*
X4980502Y-16320002D02*
X4980502Y-16249998D01*
X4910498Y-16249998D01*
X4910498Y-16320002D01*
X4980502Y-16320002D01*
X4995000Y-16285000D02*
G75*
G03*
X4995000Y-16285000I-49500J0D01*
G01*
D11*
X5290714Y-16175476D02*
X5309762Y-16175476D01*
X5328810Y-16185000D01*
X5338333Y-16194524D01*
X5347857Y-16213571D01*
X5357381Y-16251667D01*
X5357381Y-16299286D01*
X5347857Y-16337381D01*
X5338333Y-16356428D01*
X5328810Y-16365952D01*
X5309762Y-16375476D01*
X5290714Y-16375476D01*
X5271667Y-16365952D01*
X5262143Y-16356428D01*
X5252619Y-16337381D01*
X5243095Y-16299286D01*
X5243095Y-16251667D01*
X5252619Y-16213571D01*
X5262143Y-16194524D01*
X5271667Y-16185000D01*
X5290714Y-16175476D01*
X5443095Y-16356428D02*
X5452619Y-16365952D01*
X5443095Y-16375476D01*
X5433571Y-16365952D01*
X5443095Y-16356428D01*
X5443095Y-16375476D01*
X5547857Y-16375476D02*
X5585952Y-16375476D01*
X5605000Y-16365952D01*
X5614524Y-16356428D01*
X5633571Y-16327857D01*
X5643095Y-16289762D01*
X5643095Y-16213571D01*
X5633571Y-16194524D01*
X5624048Y-16185000D01*
X5605000Y-16175476D01*
X5566905Y-16175476D01*
X5547857Y-16185000D01*
X5538333Y-16194524D01*
X5528810Y-16213571D01*
X5528810Y-16261190D01*
X5538333Y-16280238D01*
X5547857Y-16289762D01*
X5566905Y-16299286D01*
X5605000Y-16299286D01*
X5624048Y-16289762D01*
X5633571Y-16280238D01*
X5643095Y-16261190D01*
X5738333Y-16375476D02*
X5776428Y-16375476D01*
X5795476Y-16365952D01*
X5805000Y-16356428D01*
X5824048Y-16327857D01*
X5833571Y-16289762D01*
X5833571Y-16213571D01*
X5824048Y-16194524D01*
X5814524Y-16185000D01*
X5795476Y-16175476D01*
X5757381Y-16175476D01*
X5738333Y-16185000D01*
X5728809Y-16194524D01*
X5719286Y-16213571D01*
X5719286Y-16261190D01*
X5728809Y-16280238D01*
X5738333Y-16289762D01*
X5757381Y-16299286D01*
X5795476Y-16299286D01*
X5814524Y-16289762D01*
X5824048Y-16280238D01*
X5833571Y-16261190D01*
X5957381Y-16175476D02*
X5976428Y-16175476D01*
X5995476Y-16185000D01*
X6005000Y-16194524D01*
X6014524Y-16213571D01*
X6024048Y-16251667D01*
X6024048Y-16299286D01*
X6014524Y-16337381D01*
X6005000Y-16356428D01*
X5995476Y-16365952D01*
X5976428Y-16375476D01*
X5957381Y-16375476D01*
X5938333Y-16365952D01*
X5928809Y-16356428D01*
X5919286Y-16337381D01*
X5909762Y-16299286D01*
X5909762Y-16251667D01*
X5919286Y-16213571D01*
X5928809Y-16194524D01*
X5938333Y-16185000D01*
X5957381Y-16175476D01*
X6109762Y-16375476D02*
X6109762Y-16242143D01*
X6109762Y-16261190D02*
X6119286Y-16251667D01*
X6138333Y-16242143D01*
X6166905Y-16242143D01*
X6185952Y-16251667D01*
X6195476Y-16270714D01*
X6195476Y-16375476D01*
X6195476Y-16270714D02*
X6205000Y-16251667D01*
X6224048Y-16242143D01*
X6252619Y-16242143D01*
X6271667Y-16251667D01*
X6281190Y-16270714D01*
X6281190Y-16375476D01*
X6376428Y-16375476D02*
X6376428Y-16242143D01*
X6376428Y-16261190D02*
X6385952Y-16251667D01*
X6405000Y-16242143D01*
X6433571Y-16242143D01*
X6452619Y-16251667D01*
X6462143Y-16270714D01*
X6462143Y-16375476D01*
X6462143Y-16270714D02*
X6471667Y-16251667D01*
X6490714Y-16242143D01*
X6519286Y-16242143D01*
X6538333Y-16251667D01*
X6547857Y-16270714D01*
X6547857Y-16375476D01*
X6938333Y-16165952D02*
X6766905Y-16423095D01*
X7195476Y-16175476D02*
X7214524Y-16175476D01*
X7233571Y-16185000D01*
X7243095Y-16194524D01*
X7252619Y-16213571D01*
X7262143Y-16251667D01*
X7262143Y-16299286D01*
X7252619Y-16337381D01*
X7243095Y-16356428D01*
X7233571Y-16365952D01*
X7214524Y-16375476D01*
X7195476Y-16375476D01*
X7176428Y-16365952D01*
X7166905Y-16356428D01*
X7157381Y-16337381D01*
X7147857Y-16299286D01*
X7147857Y-16251667D01*
X7157381Y-16213571D01*
X7166905Y-16194524D01*
X7176428Y-16185000D01*
X7195476Y-16175476D01*
X7347857Y-16356428D02*
X7357381Y-16365952D01*
X7347857Y-16375476D01*
X7338333Y-16365952D01*
X7347857Y-16356428D01*
X7347857Y-16375476D01*
X7481190Y-16175476D02*
X7500238Y-16175476D01*
X7519286Y-16185000D01*
X7528809Y-16194524D01*
X7538333Y-16213571D01*
X7547857Y-16251667D01*
X7547857Y-16299286D01*
X7538333Y-16337381D01*
X7528809Y-16356428D01*
X7519286Y-16365952D01*
X7500238Y-16375476D01*
X7481190Y-16375476D01*
X7462143Y-16365952D01*
X7452619Y-16356428D01*
X7443095Y-16337381D01*
X7433571Y-16299286D01*
X7433571Y-16251667D01*
X7443095Y-16213571D01*
X7452619Y-16194524D01*
X7462143Y-16185000D01*
X7481190Y-16175476D01*
X7614524Y-16175476D02*
X7738333Y-16175476D01*
X7671667Y-16251667D01*
X7700238Y-16251667D01*
X7719286Y-16261190D01*
X7728809Y-16270714D01*
X7738333Y-16289762D01*
X7738333Y-16337381D01*
X7728809Y-16356428D01*
X7719286Y-16365952D01*
X7700238Y-16375476D01*
X7643095Y-16375476D01*
X7624048Y-16365952D01*
X7614524Y-16356428D01*
X7833571Y-16375476D02*
X7871667Y-16375476D01*
X7890714Y-16365952D01*
X7900238Y-16356428D01*
X7919286Y-16327857D01*
X7928809Y-16289762D01*
X7928809Y-16213571D01*
X7919286Y-16194524D01*
X7909762Y-16185000D01*
X7890714Y-16175476D01*
X7852619Y-16175476D01*
X7833571Y-16185000D01*
X7824048Y-16194524D01*
X7814524Y-16213571D01*
X7814524Y-16261190D01*
X7824048Y-16280238D01*
X7833571Y-16289762D01*
X7852619Y-16299286D01*
X7890714Y-16299286D01*
X7909762Y-16289762D01*
X7919286Y-16280238D01*
X7928809Y-16261190D01*
X8052619Y-16175476D02*
X8071667Y-16175476D01*
X8090714Y-16185000D01*
X8100238Y-16194524D01*
X8109762Y-16213571D01*
X8119286Y-16251667D01*
X8119286Y-16299286D01*
X8109762Y-16337381D01*
X8100238Y-16356428D01*
X8090714Y-16365952D01*
X8071667Y-16375476D01*
X8052619Y-16375476D01*
X8033571Y-16365952D01*
X8024048Y-16356428D01*
X8014524Y-16337381D01*
X8005000Y-16299286D01*
X8005000Y-16251667D01*
X8014524Y-16213571D01*
X8024048Y-16194524D01*
X8033571Y-16185000D01*
X8052619Y-16175476D01*
X8195476Y-16175476D02*
X8195476Y-16213571D01*
X8271667Y-16175476D02*
X8271667Y-16213571D01*
X8566905Y-16451667D02*
X8557381Y-16442143D01*
X8538333Y-16413571D01*
X8528810Y-16394524D01*
X8519286Y-16365952D01*
X8509762Y-16318333D01*
X8509762Y-16280238D01*
X8519286Y-16232619D01*
X8528810Y-16204048D01*
X8538333Y-16185000D01*
X8557381Y-16156428D01*
X8566905Y-16146905D01*
X8728810Y-16242143D02*
X8728810Y-16375476D01*
X8681190Y-16165952D02*
X8633571Y-16308809D01*
X8757381Y-16308809D01*
X8985952Y-16375476D02*
X8985952Y-16175476D01*
X9071667Y-16375476D02*
X9071667Y-16270714D01*
X9062143Y-16251667D01*
X9043095Y-16242143D01*
X9014524Y-16242143D01*
X8995476Y-16251667D01*
X8985952Y-16261190D01*
X9195476Y-16375476D02*
X9176429Y-16365952D01*
X9166905Y-16356428D01*
X9157381Y-16337381D01*
X9157381Y-16280238D01*
X9166905Y-16261190D01*
X9176429Y-16251667D01*
X9195476Y-16242143D01*
X9224048Y-16242143D01*
X9243095Y-16251667D01*
X9252619Y-16261190D01*
X9262143Y-16280238D01*
X9262143Y-16337381D01*
X9252619Y-16356428D01*
X9243095Y-16365952D01*
X9224048Y-16375476D01*
X9195476Y-16375476D01*
X9376429Y-16375476D02*
X9357381Y-16365952D01*
X9347857Y-16346905D01*
X9347857Y-16175476D01*
X9528810Y-16365952D02*
X9509762Y-16375476D01*
X9471667Y-16375476D01*
X9452619Y-16365952D01*
X9443095Y-16346905D01*
X9443095Y-16270714D01*
X9452619Y-16251667D01*
X9471667Y-16242143D01*
X9509762Y-16242143D01*
X9528810Y-16251667D01*
X9538333Y-16270714D01*
X9538333Y-16289762D01*
X9443095Y-16308809D01*
X9614524Y-16365952D02*
X9633571Y-16375476D01*
X9671667Y-16375476D01*
X9690714Y-16365952D01*
X9700238Y-16346905D01*
X9700238Y-16337381D01*
X9690714Y-16318333D01*
X9671667Y-16308809D01*
X9643095Y-16308809D01*
X9624048Y-16299286D01*
X9614524Y-16280238D01*
X9614524Y-16270714D01*
X9624048Y-16251667D01*
X9643095Y-16242143D01*
X9671667Y-16242143D01*
X9690714Y-16251667D01*
X9766905Y-16451667D02*
X9776429Y-16442143D01*
X9795476Y-16413571D01*
X9805000Y-16394524D01*
X9814524Y-16365952D01*
X9824048Y-16318333D01*
X9824048Y-16280238D01*
X9814524Y-16232619D01*
X9805000Y-16204048D01*
X9795476Y-16185000D01*
X9776429Y-16156428D01*
X9766905Y-16146905D01*
D10*
X4945000Y-16599000D02*
X4995000Y-16549000D01*
X4945000Y-16499000D01*
X4895000Y-16549000D01*
X4945000Y-16599000D01*
X4995000Y-16549000D02*
G75*
G03*
X4995000Y-16549000I-50000J0D01*
G01*
D11*
X5357381Y-16639476D02*
X5243095Y-16639476D01*
X5300238Y-16639476D02*
X5300238Y-16439476D01*
X5281190Y-16468048D01*
X5262143Y-16487095D01*
X5243095Y-16496619D01*
X5443095Y-16620428D02*
X5452619Y-16629952D01*
X5443095Y-16639476D01*
X5433571Y-16629952D01*
X5443095Y-16620428D01*
X5443095Y-16639476D01*
X5576429Y-16439476D02*
X5595476Y-16439476D01*
X5614524Y-16449000D01*
X5624048Y-16458524D01*
X5633571Y-16477571D01*
X5643095Y-16515667D01*
X5643095Y-16563286D01*
X5633571Y-16601381D01*
X5624048Y-16620428D01*
X5614524Y-16629952D01*
X5595476Y-16639476D01*
X5576429Y-16639476D01*
X5557381Y-16629952D01*
X5547857Y-16620428D01*
X5538333Y-16601381D01*
X5528810Y-16563286D01*
X5528810Y-16515667D01*
X5538333Y-16477571D01*
X5547857Y-16458524D01*
X5557381Y-16449000D01*
X5576429Y-16439476D01*
X5766905Y-16439476D02*
X5785952Y-16439476D01*
X5805000Y-16449000D01*
X5814524Y-16458524D01*
X5824048Y-16477571D01*
X5833571Y-16515667D01*
X5833571Y-16563286D01*
X5824048Y-16601381D01*
X5814524Y-16620428D01*
X5805000Y-16629952D01*
X5785952Y-16639476D01*
X5766905Y-16639476D01*
X5747857Y-16629952D01*
X5738333Y-16620428D01*
X5728809Y-16601381D01*
X5719286Y-16563286D01*
X5719286Y-16515667D01*
X5728809Y-16477571D01*
X5738333Y-16458524D01*
X5747857Y-16449000D01*
X5766905Y-16439476D01*
X5957381Y-16439476D02*
X5976428Y-16439476D01*
X5995476Y-16449000D01*
X6005000Y-16458524D01*
X6014524Y-16477571D01*
X6024048Y-16515667D01*
X6024048Y-16563286D01*
X6014524Y-16601381D01*
X6005000Y-16620428D01*
X5995476Y-16629952D01*
X5976428Y-16639476D01*
X5957381Y-16639476D01*
X5938333Y-16629952D01*
X5928809Y-16620428D01*
X5919286Y-16601381D01*
X5909762Y-16563286D01*
X5909762Y-16515667D01*
X5919286Y-16477571D01*
X5928809Y-16458524D01*
X5938333Y-16449000D01*
X5957381Y-16439476D01*
X6109762Y-16639476D02*
X6109762Y-16506143D01*
X6109762Y-16525190D02*
X6119286Y-16515667D01*
X6138333Y-16506143D01*
X6166905Y-16506143D01*
X6185952Y-16515667D01*
X6195476Y-16534714D01*
X6195476Y-16639476D01*
X6195476Y-16534714D02*
X6205000Y-16515667D01*
X6224048Y-16506143D01*
X6252619Y-16506143D01*
X6271667Y-16515667D01*
X6281190Y-16534714D01*
X6281190Y-16639476D01*
X6376428Y-16639476D02*
X6376428Y-16506143D01*
X6376428Y-16525190D02*
X6385952Y-16515667D01*
X6405000Y-16506143D01*
X6433571Y-16506143D01*
X6452619Y-16515667D01*
X6462143Y-16534714D01*
X6462143Y-16639476D01*
X6462143Y-16534714D02*
X6471667Y-16515667D01*
X6490714Y-16506143D01*
X6519286Y-16506143D01*
X6538333Y-16515667D01*
X6547857Y-16534714D01*
X6547857Y-16639476D01*
X6938333Y-16429952D02*
X6766905Y-16687095D01*
X7195476Y-16439476D02*
X7214524Y-16439476D01*
X7233571Y-16449000D01*
X7243095Y-16458524D01*
X7252619Y-16477571D01*
X7262143Y-16515667D01*
X7262143Y-16563286D01*
X7252619Y-16601381D01*
X7243095Y-16620428D01*
X7233571Y-16629952D01*
X7214524Y-16639476D01*
X7195476Y-16639476D01*
X7176428Y-16629952D01*
X7166905Y-16620428D01*
X7157381Y-16601381D01*
X7147857Y-16563286D01*
X7147857Y-16515667D01*
X7157381Y-16477571D01*
X7166905Y-16458524D01*
X7176428Y-16449000D01*
X7195476Y-16439476D01*
X7347857Y-16620428D02*
X7357381Y-16629952D01*
X7347857Y-16639476D01*
X7338333Y-16629952D01*
X7347857Y-16620428D01*
X7347857Y-16639476D01*
X7481190Y-16439476D02*
X7500238Y-16439476D01*
X7519286Y-16449000D01*
X7528809Y-16458524D01*
X7538333Y-16477571D01*
X7547857Y-16515667D01*
X7547857Y-16563286D01*
X7538333Y-16601381D01*
X7528809Y-16620428D01*
X7519286Y-16629952D01*
X7500238Y-16639476D01*
X7481190Y-16639476D01*
X7462143Y-16629952D01*
X7452619Y-16620428D01*
X7443095Y-16601381D01*
X7433571Y-16563286D01*
X7433571Y-16515667D01*
X7443095Y-16477571D01*
X7452619Y-16458524D01*
X7462143Y-16449000D01*
X7481190Y-16439476D01*
X7614524Y-16439476D02*
X7738333Y-16439476D01*
X7671667Y-16515667D01*
X7700238Y-16515667D01*
X7719286Y-16525190D01*
X7728809Y-16534714D01*
X7738333Y-16553762D01*
X7738333Y-16601381D01*
X7728809Y-16620428D01*
X7719286Y-16629952D01*
X7700238Y-16639476D01*
X7643095Y-16639476D01*
X7624048Y-16629952D01*
X7614524Y-16620428D01*
X7833571Y-16639476D02*
X7871667Y-16639476D01*
X7890714Y-16629952D01*
X7900238Y-16620428D01*
X7919286Y-16591857D01*
X7928809Y-16553762D01*
X7928809Y-16477571D01*
X7919286Y-16458524D01*
X7909762Y-16449000D01*
X7890714Y-16439476D01*
X7852619Y-16439476D01*
X7833571Y-16449000D01*
X7824048Y-16458524D01*
X7814524Y-16477571D01*
X7814524Y-16525190D01*
X7824048Y-16544238D01*
X7833571Y-16553762D01*
X7852619Y-16563286D01*
X7890714Y-16563286D01*
X7909762Y-16553762D01*
X7919286Y-16544238D01*
X7928809Y-16525190D01*
X8100238Y-16506143D02*
X8100238Y-16639476D01*
X8052619Y-16429952D02*
X8005000Y-16572809D01*
X8128809Y-16572809D01*
X8195476Y-16439476D02*
X8195476Y-16477571D01*
X8271667Y-16439476D02*
X8271667Y-16477571D01*
X8566905Y-16715667D02*
X8557381Y-16706143D01*
X8538333Y-16677571D01*
X8528810Y-16658524D01*
X8519286Y-16629952D01*
X8509762Y-16582333D01*
X8509762Y-16544238D01*
X8519286Y-16496619D01*
X8528810Y-16468048D01*
X8538333Y-16449000D01*
X8557381Y-16420428D01*
X8566905Y-16410905D01*
X8671667Y-16525190D02*
X8652619Y-16515667D01*
X8643095Y-16506143D01*
X8633571Y-16487095D01*
X8633571Y-16477571D01*
X8643095Y-16458524D01*
X8652619Y-16449000D01*
X8671667Y-16439476D01*
X8709762Y-16439476D01*
X8728810Y-16449000D01*
X8738333Y-16458524D01*
X8747857Y-16477571D01*
X8747857Y-16487095D01*
X8738333Y-16506143D01*
X8728810Y-16515667D01*
X8709762Y-16525190D01*
X8671667Y-16525190D01*
X8652619Y-16534714D01*
X8643095Y-16544238D01*
X8633571Y-16563286D01*
X8633571Y-16601381D01*
X8643095Y-16620428D01*
X8652619Y-16629952D01*
X8671667Y-16639476D01*
X8709762Y-16639476D01*
X8728810Y-16629952D01*
X8738333Y-16620428D01*
X8747857Y-16601381D01*
X8747857Y-16563286D01*
X8738333Y-16544238D01*
X8728810Y-16534714D01*
X8709762Y-16525190D01*
X8985952Y-16639476D02*
X8985952Y-16439476D01*
X9071667Y-16639476D02*
X9071667Y-16534714D01*
X9062143Y-16515667D01*
X9043095Y-16506143D01*
X9014524Y-16506143D01*
X8995476Y-16515667D01*
X8985952Y-16525190D01*
X9195476Y-16639476D02*
X9176429Y-16629952D01*
X9166905Y-16620428D01*
X9157381Y-16601381D01*
X9157381Y-16544238D01*
X9166905Y-16525190D01*
X9176429Y-16515667D01*
X9195476Y-16506143D01*
X9224048Y-16506143D01*
X9243095Y-16515667D01*
X9252619Y-16525190D01*
X9262143Y-16544238D01*
X9262143Y-16601381D01*
X9252619Y-16620428D01*
X9243095Y-16629952D01*
X9224048Y-16639476D01*
X9195476Y-16639476D01*
X9376429Y-16639476D02*
X9357381Y-16629952D01*
X9347857Y-16610905D01*
X9347857Y-16439476D01*
X9528810Y-16629952D02*
X9509762Y-16639476D01*
X9471667Y-16639476D01*
X9452619Y-16629952D01*
X9443095Y-16610905D01*
X9443095Y-16534714D01*
X9452619Y-16515667D01*
X9471667Y-16506143D01*
X9509762Y-16506143D01*
X9528810Y-16515667D01*
X9538333Y-16534714D01*
X9538333Y-16553762D01*
X9443095Y-16572809D01*
X9614524Y-16629952D02*
X9633571Y-16639476D01*
X9671667Y-16639476D01*
X9690714Y-16629952D01*
X9700238Y-16610905D01*
X9700238Y-16601381D01*
X9690714Y-16582333D01*
X9671667Y-16572809D01*
X9643095Y-16572809D01*
X9624048Y-16563286D01*
X9614524Y-16544238D01*
X9614524Y-16534714D01*
X9624048Y-16515667D01*
X9643095Y-16506143D01*
X9671667Y-16506143D01*
X9690714Y-16515667D01*
X9766905Y-16715667D02*
X9776429Y-16706143D01*
X9795476Y-16677571D01*
X9805000Y-16658524D01*
X9814524Y-16629952D01*
X9824048Y-16582333D01*
X9824048Y-16544238D01*
X9814524Y-16496619D01*
X9805000Y-16468048D01*
X9795476Y-16449000D01*
X9776429Y-16420428D01*
X9766905Y-16410905D01*
D23*
X4944200Y-16762200D02*
X4944200Y-16863800D01*
X4893400Y-16813000D02*
X4995000Y-16813000D01*
X4980121Y-16848921D02*
X4980121Y-16777079D01*
X4908279Y-16777079D01*
X4908279Y-16848921D01*
X4980121Y-16848921D01*
D11*
X5357381Y-16903476D02*
X5243095Y-16903476D01*
X5300238Y-16903476D02*
X5300238Y-16703476D01*
X5281190Y-16732048D01*
X5262143Y-16751095D01*
X5243095Y-16760619D01*
X5443095Y-16884429D02*
X5452619Y-16893952D01*
X5443095Y-16903476D01*
X5433571Y-16893952D01*
X5443095Y-16884429D01*
X5443095Y-16903476D01*
X5576429Y-16703476D02*
X5595476Y-16703476D01*
X5614524Y-16713000D01*
X5624048Y-16722524D01*
X5633571Y-16741571D01*
X5643095Y-16779667D01*
X5643095Y-16827286D01*
X5633571Y-16865381D01*
X5624048Y-16884429D01*
X5614524Y-16893952D01*
X5595476Y-16903476D01*
X5576429Y-16903476D01*
X5557381Y-16893952D01*
X5547857Y-16884429D01*
X5538333Y-16865381D01*
X5528810Y-16827286D01*
X5528810Y-16779667D01*
X5538333Y-16741571D01*
X5547857Y-16722524D01*
X5557381Y-16713000D01*
X5576429Y-16703476D01*
X5833571Y-16903476D02*
X5719286Y-16903476D01*
X5776428Y-16903476D02*
X5776428Y-16703476D01*
X5757381Y-16732048D01*
X5738333Y-16751095D01*
X5719286Y-16760619D01*
X6005000Y-16703476D02*
X5966905Y-16703476D01*
X5947857Y-16713000D01*
X5938333Y-16722524D01*
X5919286Y-16751095D01*
X5909762Y-16789190D01*
X5909762Y-16865381D01*
X5919286Y-16884429D01*
X5928809Y-16893952D01*
X5947857Y-16903476D01*
X5985952Y-16903476D01*
X6005000Y-16893952D01*
X6014524Y-16884429D01*
X6024048Y-16865381D01*
X6024048Y-16817762D01*
X6014524Y-16798714D01*
X6005000Y-16789190D01*
X5985952Y-16779667D01*
X5947857Y-16779667D01*
X5928809Y-16789190D01*
X5919286Y-16798714D01*
X5909762Y-16817762D01*
X6109762Y-16903476D02*
X6109762Y-16770143D01*
X6109762Y-16789190D02*
X6119286Y-16779667D01*
X6138333Y-16770143D01*
X6166905Y-16770143D01*
X6185952Y-16779667D01*
X6195476Y-16798714D01*
X6195476Y-16903476D01*
X6195476Y-16798714D02*
X6205000Y-16779667D01*
X6224048Y-16770143D01*
X6252619Y-16770143D01*
X6271667Y-16779667D01*
X6281190Y-16798714D01*
X6281190Y-16903476D01*
X6376428Y-16903476D02*
X6376428Y-16770143D01*
X6376428Y-16789190D02*
X6385952Y-16779667D01*
X6405000Y-16770143D01*
X6433571Y-16770143D01*
X6452619Y-16779667D01*
X6462143Y-16798714D01*
X6462143Y-16903476D01*
X6462143Y-16798714D02*
X6471667Y-16779667D01*
X6490714Y-16770143D01*
X6519286Y-16770143D01*
X6538333Y-16779667D01*
X6547857Y-16798714D01*
X6547857Y-16903476D01*
X6938333Y-16693952D02*
X6766905Y-16951095D01*
X7195476Y-16703476D02*
X7214524Y-16703476D01*
X7233571Y-16713000D01*
X7243095Y-16722524D01*
X7252619Y-16741571D01*
X7262143Y-16779667D01*
X7262143Y-16827286D01*
X7252619Y-16865381D01*
X7243095Y-16884429D01*
X7233571Y-16893952D01*
X7214524Y-16903476D01*
X7195476Y-16903476D01*
X7176428Y-16893952D01*
X7166905Y-16884429D01*
X7157381Y-16865381D01*
X7147857Y-16827286D01*
X7147857Y-16779667D01*
X7157381Y-16741571D01*
X7166905Y-16722524D01*
X7176428Y-16713000D01*
X7195476Y-16703476D01*
X7347857Y-16884429D02*
X7357381Y-16893952D01*
X7347857Y-16903476D01*
X7338333Y-16893952D01*
X7347857Y-16884429D01*
X7347857Y-16903476D01*
X7481190Y-16703476D02*
X7500238Y-16703476D01*
X7519286Y-16713000D01*
X7528809Y-16722524D01*
X7538333Y-16741571D01*
X7547857Y-16779667D01*
X7547857Y-16827286D01*
X7538333Y-16865381D01*
X7528809Y-16884429D01*
X7519286Y-16893952D01*
X7500238Y-16903476D01*
X7481190Y-16903476D01*
X7462143Y-16893952D01*
X7452619Y-16884429D01*
X7443095Y-16865381D01*
X7433571Y-16827286D01*
X7433571Y-16779667D01*
X7443095Y-16741571D01*
X7452619Y-16722524D01*
X7462143Y-16713000D01*
X7481190Y-16703476D01*
X7719286Y-16770143D02*
X7719286Y-16903476D01*
X7671667Y-16693952D02*
X7624048Y-16836810D01*
X7747857Y-16836810D01*
X7862143Y-16703476D02*
X7881190Y-16703476D01*
X7900238Y-16713000D01*
X7909762Y-16722524D01*
X7919286Y-16741571D01*
X7928809Y-16779667D01*
X7928809Y-16827286D01*
X7919286Y-16865381D01*
X7909762Y-16884429D01*
X7900238Y-16893952D01*
X7881190Y-16903476D01*
X7862143Y-16903476D01*
X7843095Y-16893952D01*
X7833571Y-16884429D01*
X7824048Y-16865381D01*
X7814524Y-16827286D01*
X7814524Y-16779667D01*
X7824048Y-16741571D01*
X7833571Y-16722524D01*
X7843095Y-16713000D01*
X7862143Y-16703476D01*
X8052619Y-16703476D02*
X8071667Y-16703476D01*
X8090714Y-16713000D01*
X8100238Y-16722524D01*
X8109762Y-16741571D01*
X8119286Y-16779667D01*
X8119286Y-16827286D01*
X8109762Y-16865381D01*
X8100238Y-16884429D01*
X8090714Y-16893952D01*
X8071667Y-16903476D01*
X8052619Y-16903476D01*
X8033571Y-16893952D01*
X8024048Y-16884429D01*
X8014524Y-16865381D01*
X8005000Y-16827286D01*
X8005000Y-16779667D01*
X8014524Y-16741571D01*
X8024048Y-16722524D01*
X8033571Y-16713000D01*
X8052619Y-16703476D01*
X8195476Y-16703476D02*
X8195476Y-16741571D01*
X8271667Y-16703476D02*
X8271667Y-16741571D01*
X8566905Y-16979667D02*
X8557381Y-16970143D01*
X8538333Y-16941571D01*
X8528810Y-16922524D01*
X8519286Y-16893952D01*
X8509762Y-16846333D01*
X8509762Y-16808238D01*
X8519286Y-16760619D01*
X8528810Y-16732048D01*
X8538333Y-16713000D01*
X8557381Y-16684428D01*
X8566905Y-16674905D01*
X8747857Y-16903476D02*
X8633571Y-16903476D01*
X8690714Y-16903476D02*
X8690714Y-16703476D01*
X8671667Y-16732048D01*
X8652619Y-16751095D01*
X8633571Y-16760619D01*
X8938333Y-16903476D02*
X8824048Y-16903476D01*
X8881190Y-16903476D02*
X8881190Y-16703476D01*
X8862143Y-16732048D01*
X8843095Y-16751095D01*
X8824048Y-16760619D01*
X9176429Y-16903476D02*
X9176429Y-16703476D01*
X9262143Y-16903476D02*
X9262143Y-16798714D01*
X9252619Y-16779667D01*
X9233571Y-16770143D01*
X9205000Y-16770143D01*
X9185952Y-16779667D01*
X9176429Y-16789190D01*
X9385952Y-16903476D02*
X9366905Y-16893952D01*
X9357381Y-16884429D01*
X9347857Y-16865381D01*
X9347857Y-16808238D01*
X9357381Y-16789190D01*
X9366905Y-16779667D01*
X9385952Y-16770143D01*
X9414524Y-16770143D01*
X9433571Y-16779667D01*
X9443095Y-16789190D01*
X9452619Y-16808238D01*
X9452619Y-16865381D01*
X9443095Y-16884429D01*
X9433571Y-16893952D01*
X9414524Y-16903476D01*
X9385952Y-16903476D01*
X9566905Y-16903476D02*
X9547857Y-16893952D01*
X9538333Y-16874905D01*
X9538333Y-16703476D01*
X9719286Y-16893952D02*
X9700238Y-16903476D01*
X9662143Y-16903476D01*
X9643095Y-16893952D01*
X9633571Y-16874905D01*
X9633571Y-16798714D01*
X9643095Y-16779667D01*
X9662143Y-16770143D01*
X9700238Y-16770143D01*
X9719286Y-16779667D01*
X9728810Y-16798714D01*
X9728810Y-16817762D01*
X9633571Y-16836810D01*
X9805000Y-16893952D02*
X9824048Y-16903476D01*
X9862143Y-16903476D01*
X9881190Y-16893952D01*
X9890714Y-16874905D01*
X9890714Y-16865381D01*
X9881190Y-16846333D01*
X9862143Y-16836810D01*
X9833571Y-16836810D01*
X9814524Y-16827286D01*
X9805000Y-16808238D01*
X9805000Y-16798714D01*
X9814524Y-16779667D01*
X9833571Y-16770143D01*
X9862143Y-16770143D01*
X9881190Y-16779667D01*
X9957381Y-16979667D02*
X9966905Y-16970143D01*
X9985952Y-16941571D01*
X9995476Y-16922524D01*
X10005000Y-16893952D01*
X10014524Y-16846333D01*
X10014524Y-16808238D01*
X10005000Y-16760619D01*
X9995476Y-16732048D01*
X9985952Y-16713000D01*
X9966905Y-16684428D01*
X9957381Y-16674905D01*
D24*
X4940000Y-17022000D02*
X4940000Y-17132000D01*
X4885000Y-17077000D02*
X4995000Y-17077000D01*
X4940000Y-17132000D02*
X4995000Y-17077000D01*
X4940000Y-17022000D01*
X4885000Y-17077000D01*
X4940000Y-17132000D01*
D11*
X5357381Y-17167476D02*
X5243095Y-17167476D01*
X5300238Y-17167476D02*
X5300238Y-16967476D01*
X5281190Y-16996048D01*
X5262143Y-17015095D01*
X5243095Y-17024619D01*
X5443095Y-17148429D02*
X5452619Y-17157952D01*
X5443095Y-17167476D01*
X5433571Y-17157952D01*
X5443095Y-17148429D01*
X5443095Y-17167476D01*
X5643095Y-17167476D02*
X5528810Y-17167476D01*
X5585952Y-17167476D02*
X5585952Y-16967476D01*
X5566905Y-16996048D01*
X5547857Y-17015095D01*
X5528810Y-17024619D01*
X5766905Y-16967476D02*
X5785952Y-16967476D01*
X5805000Y-16977000D01*
X5814524Y-16986524D01*
X5824048Y-17005571D01*
X5833571Y-17043667D01*
X5833571Y-17091286D01*
X5824048Y-17129381D01*
X5814524Y-17148429D01*
X5805000Y-17157952D01*
X5785952Y-17167476D01*
X5766905Y-17167476D01*
X5747857Y-17157952D01*
X5738333Y-17148429D01*
X5728809Y-17129381D01*
X5719286Y-17091286D01*
X5719286Y-17043667D01*
X5728809Y-17005571D01*
X5738333Y-16986524D01*
X5747857Y-16977000D01*
X5766905Y-16967476D01*
X5957381Y-16967476D02*
X5976428Y-16967476D01*
X5995476Y-16977000D01*
X6005000Y-16986524D01*
X6014524Y-17005571D01*
X6024048Y-17043667D01*
X6024048Y-17091286D01*
X6014524Y-17129381D01*
X6005000Y-17148429D01*
X5995476Y-17157952D01*
X5976428Y-17167476D01*
X5957381Y-17167476D01*
X5938333Y-17157952D01*
X5928809Y-17148429D01*
X5919286Y-17129381D01*
X5909762Y-17091286D01*
X5909762Y-17043667D01*
X5919286Y-17005571D01*
X5928809Y-16986524D01*
X5938333Y-16977000D01*
X5957381Y-16967476D01*
X6109762Y-17167476D02*
X6109762Y-17034143D01*
X6109762Y-17053190D02*
X6119286Y-17043667D01*
X6138333Y-17034143D01*
X6166905Y-17034143D01*
X6185952Y-17043667D01*
X6195476Y-17062714D01*
X6195476Y-17167476D01*
X6195476Y-17062714D02*
X6205000Y-17043667D01*
X6224048Y-17034143D01*
X6252619Y-17034143D01*
X6271667Y-17043667D01*
X6281190Y-17062714D01*
X6281190Y-17167476D01*
X6376428Y-17167476D02*
X6376428Y-17034143D01*
X6376428Y-17053190D02*
X6385952Y-17043667D01*
X6405000Y-17034143D01*
X6433571Y-17034143D01*
X6452619Y-17043667D01*
X6462143Y-17062714D01*
X6462143Y-17167476D01*
X6462143Y-17062714D02*
X6471667Y-17043667D01*
X6490714Y-17034143D01*
X6519286Y-17034143D01*
X6538333Y-17043667D01*
X6547857Y-17062714D01*
X6547857Y-17167476D01*
X6938333Y-16957952D02*
X6766905Y-17215095D01*
X7195476Y-16967476D02*
X7214524Y-16967476D01*
X7233571Y-16977000D01*
X7243095Y-16986524D01*
X7252619Y-17005571D01*
X7262143Y-17043667D01*
X7262143Y-17091286D01*
X7252619Y-17129381D01*
X7243095Y-17148429D01*
X7233571Y-17157952D01*
X7214524Y-17167476D01*
X7195476Y-17167476D01*
X7176428Y-17157952D01*
X7166905Y-17148429D01*
X7157381Y-17129381D01*
X7147857Y-17091286D01*
X7147857Y-17043667D01*
X7157381Y-17005571D01*
X7166905Y-16986524D01*
X7176428Y-16977000D01*
X7195476Y-16967476D01*
X7347857Y-17148429D02*
X7357381Y-17157952D01*
X7347857Y-17167476D01*
X7338333Y-17157952D01*
X7347857Y-17148429D01*
X7347857Y-17167476D01*
X7481190Y-16967476D02*
X7500238Y-16967476D01*
X7519286Y-16977000D01*
X7528809Y-16986524D01*
X7538333Y-17005571D01*
X7547857Y-17043667D01*
X7547857Y-17091286D01*
X7538333Y-17129381D01*
X7528809Y-17148429D01*
X7519286Y-17157952D01*
X7500238Y-17167476D01*
X7481190Y-17167476D01*
X7462143Y-17157952D01*
X7452619Y-17148429D01*
X7443095Y-17129381D01*
X7433571Y-17091286D01*
X7433571Y-17043667D01*
X7443095Y-17005571D01*
X7452619Y-16986524D01*
X7462143Y-16977000D01*
X7481190Y-16967476D01*
X7719286Y-17034143D02*
X7719286Y-17167476D01*
X7671667Y-16957952D02*
X7624048Y-17100810D01*
X7747857Y-17100810D01*
X7805000Y-16967476D02*
X7928809Y-16967476D01*
X7862143Y-17043667D01*
X7890714Y-17043667D01*
X7909762Y-17053190D01*
X7919286Y-17062714D01*
X7928809Y-17081762D01*
X7928809Y-17129381D01*
X7919286Y-17148429D01*
X7909762Y-17157952D01*
X7890714Y-17167476D01*
X7833571Y-17167476D01*
X7814524Y-17157952D01*
X7805000Y-17148429D01*
X7995476Y-16967476D02*
X8119286Y-16967476D01*
X8052619Y-17043667D01*
X8081190Y-17043667D01*
X8100238Y-17053190D01*
X8109762Y-17062714D01*
X8119286Y-17081762D01*
X8119286Y-17129381D01*
X8109762Y-17148429D01*
X8100238Y-17157952D01*
X8081190Y-17167476D01*
X8024048Y-17167476D01*
X8005000Y-17157952D01*
X7995476Y-17148429D01*
X8195476Y-16967476D02*
X8195476Y-17005571D01*
X8271667Y-16967476D02*
X8271667Y-17005571D01*
X8566905Y-17243667D02*
X8557381Y-17234143D01*
X8538333Y-17205571D01*
X8528810Y-17186524D01*
X8519286Y-17157952D01*
X8509762Y-17110333D01*
X8509762Y-17072238D01*
X8519286Y-17024619D01*
X8528810Y-16996048D01*
X8538333Y-16977000D01*
X8557381Y-16948429D01*
X8566905Y-16938905D01*
X8728810Y-17034143D02*
X8728810Y-17167476D01*
X8681190Y-16957952D02*
X8633571Y-17100810D01*
X8757381Y-17100810D01*
X8985952Y-17167476D02*
X8985952Y-16967476D01*
X9071667Y-17167476D02*
X9071667Y-17062714D01*
X9062143Y-17043667D01*
X9043095Y-17034143D01*
X9014524Y-17034143D01*
X8995476Y-17043667D01*
X8985952Y-17053190D01*
X9195476Y-17167476D02*
X9176429Y-17157952D01*
X9166905Y-17148429D01*
X9157381Y-17129381D01*
X9157381Y-17072238D01*
X9166905Y-17053190D01*
X9176429Y-17043667D01*
X9195476Y-17034143D01*
X9224048Y-17034143D01*
X9243095Y-17043667D01*
X9252619Y-17053190D01*
X9262143Y-17072238D01*
X9262143Y-17129381D01*
X9252619Y-17148429D01*
X9243095Y-17157952D01*
X9224048Y-17167476D01*
X9195476Y-17167476D01*
X9376429Y-17167476D02*
X9357381Y-17157952D01*
X9347857Y-17138905D01*
X9347857Y-16967476D01*
X9528810Y-17157952D02*
X9509762Y-17167476D01*
X9471667Y-17167476D01*
X9452619Y-17157952D01*
X9443095Y-17138905D01*
X9443095Y-17062714D01*
X9452619Y-17043667D01*
X9471667Y-17034143D01*
X9509762Y-17034143D01*
X9528810Y-17043667D01*
X9538333Y-17062714D01*
X9538333Y-17081762D01*
X9443095Y-17100810D01*
X9614524Y-17157952D02*
X9633571Y-17167476D01*
X9671667Y-17167476D01*
X9690714Y-17157952D01*
X9700238Y-17138905D01*
X9700238Y-17129381D01*
X9690714Y-17110333D01*
X9671667Y-17100810D01*
X9643095Y-17100810D01*
X9624048Y-17091286D01*
X9614524Y-17072238D01*
X9614524Y-17062714D01*
X9624048Y-17043667D01*
X9643095Y-17034143D01*
X9671667Y-17034143D01*
X9690714Y-17043667D01*
X9766905Y-17243667D02*
X9776429Y-17234143D01*
X9795476Y-17205571D01*
X9805000Y-17186524D01*
X9814524Y-17157952D01*
X9824048Y-17110333D01*
X9824048Y-17072238D01*
X9814524Y-17024619D01*
X9805000Y-16996048D01*
X9795476Y-16977000D01*
X9776429Y-16948429D01*
X9766905Y-16938905D01*
D25*
X4930000Y-17406000D02*
X4995000Y-17341000D01*
X4930000Y-17276000D01*
X4865000Y-17341000D01*
X4930000Y-17406000D01*
X4975962Y-17386962D02*
X4975962Y-17295038D01*
X4884038Y-17295038D01*
X4884038Y-17386962D01*
X4975962Y-17386962D01*
D11*
X5357381Y-17431476D02*
X5243095Y-17431476D01*
X5300238Y-17431476D02*
X5300238Y-17231476D01*
X5281190Y-17260048D01*
X5262143Y-17279095D01*
X5243095Y-17288619D01*
X5443095Y-17412429D02*
X5452619Y-17421952D01*
X5443095Y-17431476D01*
X5433571Y-17421952D01*
X5443095Y-17412429D01*
X5443095Y-17431476D01*
X5519286Y-17231476D02*
X5643095Y-17231476D01*
X5576429Y-17307667D01*
X5605000Y-17307667D01*
X5624048Y-17317190D01*
X5633571Y-17326714D01*
X5643095Y-17345762D01*
X5643095Y-17393381D01*
X5633571Y-17412429D01*
X5624048Y-17421952D01*
X5605000Y-17431476D01*
X5547857Y-17431476D01*
X5528810Y-17421952D01*
X5519286Y-17412429D01*
X5766905Y-17231476D02*
X5785952Y-17231476D01*
X5805000Y-17241000D01*
X5814524Y-17250524D01*
X5824048Y-17269571D01*
X5833571Y-17307667D01*
X5833571Y-17355286D01*
X5824048Y-17393381D01*
X5814524Y-17412429D01*
X5805000Y-17421952D01*
X5785952Y-17431476D01*
X5766905Y-17431476D01*
X5747857Y-17421952D01*
X5738333Y-17412429D01*
X5728809Y-17393381D01*
X5719286Y-17355286D01*
X5719286Y-17307667D01*
X5728809Y-17269571D01*
X5738333Y-17250524D01*
X5747857Y-17241000D01*
X5766905Y-17231476D01*
X5957381Y-17231476D02*
X5976428Y-17231476D01*
X5995476Y-17241000D01*
X6005000Y-17250524D01*
X6014524Y-17269571D01*
X6024048Y-17307667D01*
X6024048Y-17355286D01*
X6014524Y-17393381D01*
X6005000Y-17412429D01*
X5995476Y-17421952D01*
X5976428Y-17431476D01*
X5957381Y-17431476D01*
X5938333Y-17421952D01*
X5928809Y-17412429D01*
X5919286Y-17393381D01*
X5909762Y-17355286D01*
X5909762Y-17307667D01*
X5919286Y-17269571D01*
X5928809Y-17250524D01*
X5938333Y-17241000D01*
X5957381Y-17231476D01*
X6109762Y-17431476D02*
X6109762Y-17298143D01*
X6109762Y-17317190D02*
X6119286Y-17307667D01*
X6138333Y-17298143D01*
X6166905Y-17298143D01*
X6185952Y-17307667D01*
X6195476Y-17326714D01*
X6195476Y-17431476D01*
X6195476Y-17326714D02*
X6205000Y-17307667D01*
X6224048Y-17298143D01*
X6252619Y-17298143D01*
X6271667Y-17307667D01*
X6281190Y-17326714D01*
X6281190Y-17431476D01*
X6376428Y-17431476D02*
X6376428Y-17298143D01*
X6376428Y-17317190D02*
X6385952Y-17307667D01*
X6405000Y-17298143D01*
X6433571Y-17298143D01*
X6452619Y-17307667D01*
X6462143Y-17326714D01*
X6462143Y-17431476D01*
X6462143Y-17326714D02*
X6471667Y-17307667D01*
X6490714Y-17298143D01*
X6519286Y-17298143D01*
X6538333Y-17307667D01*
X6547857Y-17326714D01*
X6547857Y-17431476D01*
X6938333Y-17221952D02*
X6766905Y-17479095D01*
X7195476Y-17231476D02*
X7214524Y-17231476D01*
X7233571Y-17241000D01*
X7243095Y-17250524D01*
X7252619Y-17269571D01*
X7262143Y-17307667D01*
X7262143Y-17355286D01*
X7252619Y-17393381D01*
X7243095Y-17412429D01*
X7233571Y-17421952D01*
X7214524Y-17431476D01*
X7195476Y-17431476D01*
X7176428Y-17421952D01*
X7166905Y-17412429D01*
X7157381Y-17393381D01*
X7147857Y-17355286D01*
X7147857Y-17307667D01*
X7157381Y-17269571D01*
X7166905Y-17250524D01*
X7176428Y-17241000D01*
X7195476Y-17231476D01*
X7347857Y-17412429D02*
X7357381Y-17421952D01*
X7347857Y-17431476D01*
X7338333Y-17421952D01*
X7347857Y-17412429D01*
X7347857Y-17431476D01*
X7481190Y-17231476D02*
X7500238Y-17231476D01*
X7519286Y-17241000D01*
X7528809Y-17250524D01*
X7538333Y-17269571D01*
X7547857Y-17307667D01*
X7547857Y-17355286D01*
X7538333Y-17393381D01*
X7528809Y-17412429D01*
X7519286Y-17421952D01*
X7500238Y-17431476D01*
X7481190Y-17431476D01*
X7462143Y-17421952D01*
X7452619Y-17412429D01*
X7443095Y-17393381D01*
X7433571Y-17355286D01*
X7433571Y-17307667D01*
X7443095Y-17269571D01*
X7452619Y-17250524D01*
X7462143Y-17241000D01*
X7481190Y-17231476D01*
X7728809Y-17231476D02*
X7633571Y-17231476D01*
X7624048Y-17326714D01*
X7633571Y-17317190D01*
X7652619Y-17307667D01*
X7700238Y-17307667D01*
X7719286Y-17317190D01*
X7728809Y-17326714D01*
X7738333Y-17345762D01*
X7738333Y-17393381D01*
X7728809Y-17412429D01*
X7719286Y-17421952D01*
X7700238Y-17431476D01*
X7652619Y-17431476D01*
X7633571Y-17421952D01*
X7624048Y-17412429D01*
X7928809Y-17431476D02*
X7814524Y-17431476D01*
X7871667Y-17431476D02*
X7871667Y-17231476D01*
X7852619Y-17260048D01*
X7833571Y-17279095D01*
X7814524Y-17288619D01*
X8005000Y-17250524D02*
X8014524Y-17241000D01*
X8033571Y-17231476D01*
X8081190Y-17231476D01*
X8100238Y-17241000D01*
X8109762Y-17250524D01*
X8119286Y-17269571D01*
X8119286Y-17288619D01*
X8109762Y-17317190D01*
X7995476Y-17431476D01*
X8119286Y-17431476D01*
X8195476Y-17231476D02*
X8195476Y-17269571D01*
X8271667Y-17231476D02*
X8271667Y-17269571D01*
X8566905Y-17507667D02*
X8557381Y-17498143D01*
X8538333Y-17469571D01*
X8528810Y-17450524D01*
X8519286Y-17421952D01*
X8509762Y-17374333D01*
X8509762Y-17336238D01*
X8519286Y-17288619D01*
X8528810Y-17260048D01*
X8538333Y-17241000D01*
X8557381Y-17212429D01*
X8566905Y-17202905D01*
X8728810Y-17298143D02*
X8728810Y-17431476D01*
X8681190Y-17221952D02*
X8633571Y-17364810D01*
X8757381Y-17364810D01*
X8985952Y-17431476D02*
X8985952Y-17231476D01*
X9071667Y-17431476D02*
X9071667Y-17326714D01*
X9062143Y-17307667D01*
X9043095Y-17298143D01*
X9014524Y-17298143D01*
X8995476Y-17307667D01*
X8985952Y-17317190D01*
X9195476Y-17431476D02*
X9176429Y-17421952D01*
X9166905Y-17412429D01*
X9157381Y-17393381D01*
X9157381Y-17336238D01*
X9166905Y-17317190D01*
X9176429Y-17307667D01*
X9195476Y-17298143D01*
X9224048Y-17298143D01*
X9243095Y-17307667D01*
X9252619Y-17317190D01*
X9262143Y-17336238D01*
X9262143Y-17393381D01*
X9252619Y-17412429D01*
X9243095Y-17421952D01*
X9224048Y-17431476D01*
X9195476Y-17431476D01*
X9376429Y-17431476D02*
X9357381Y-17421952D01*
X9347857Y-17402905D01*
X9347857Y-17231476D01*
X9528810Y-17421952D02*
X9509762Y-17431476D01*
X9471667Y-17431476D01*
X9452619Y-17421952D01*
X9443095Y-17402905D01*
X9443095Y-17326714D01*
X9452619Y-17307667D01*
X9471667Y-17298143D01*
X9509762Y-17298143D01*
X9528810Y-17307667D01*
X9538333Y-17326714D01*
X9538333Y-17345762D01*
X9443095Y-17364810D01*
X9614524Y-17421952D02*
X9633571Y-17431476D01*
X9671667Y-17431476D01*
X9690714Y-17421952D01*
X9700238Y-17402905D01*
X9700238Y-17393381D01*
X9690714Y-17374333D01*
X9671667Y-17364810D01*
X9643095Y-17364810D01*
X9624048Y-17355286D01*
X9614524Y-17336238D01*
X9614524Y-17326714D01*
X9624048Y-17307667D01*
X9643095Y-17298143D01*
X9671667Y-17298143D01*
X9690714Y-17307667D01*
X9766905Y-17507667D02*
X9776429Y-17498143D01*
X9795476Y-17469571D01*
X9805000Y-17450524D01*
X9814524Y-17421952D01*
X9824048Y-17374333D01*
X9824048Y-17336238D01*
X9814524Y-17288619D01*
X9805000Y-17260048D01*
X9795476Y-17241000D01*
X9776429Y-17212429D01*
X9766905Y-17202905D01*
D26*
X4855300Y-17535150D02*
X4995000Y-17674850D01*
X4995000Y-17535150D02*
X4855300Y-17674850D01*
X4925150Y-17535150D02*
X4925150Y-17674850D01*
X4855300Y-17605000D02*
X4995000Y-17605000D01*
X4995000Y-17605000D02*
G75*
G03*
X4995000Y-17605000I-69850J0D01*
G01*
D11*
X5357381Y-17695476D02*
X5243095Y-17695476D01*
X5300238Y-17695476D02*
X5300238Y-17495476D01*
X5281190Y-17524048D01*
X5262143Y-17543095D01*
X5243095Y-17552619D01*
X5443095Y-17676429D02*
X5452619Y-17685952D01*
X5443095Y-17695476D01*
X5433571Y-17685952D01*
X5443095Y-17676429D01*
X5443095Y-17695476D01*
X5519286Y-17495476D02*
X5643095Y-17495476D01*
X5576429Y-17571667D01*
X5605000Y-17571667D01*
X5624048Y-17581190D01*
X5633571Y-17590714D01*
X5643095Y-17609762D01*
X5643095Y-17657381D01*
X5633571Y-17676429D01*
X5624048Y-17685952D01*
X5605000Y-17695476D01*
X5547857Y-17695476D01*
X5528810Y-17685952D01*
X5519286Y-17676429D01*
X5738333Y-17695476D02*
X5776428Y-17695476D01*
X5795476Y-17685952D01*
X5805000Y-17676429D01*
X5824048Y-17647857D01*
X5833571Y-17609762D01*
X5833571Y-17533571D01*
X5824048Y-17514524D01*
X5814524Y-17505000D01*
X5795476Y-17495476D01*
X5757381Y-17495476D01*
X5738333Y-17505000D01*
X5728809Y-17514524D01*
X5719286Y-17533571D01*
X5719286Y-17581190D01*
X5728809Y-17600238D01*
X5738333Y-17609762D01*
X5757381Y-17619286D01*
X5795476Y-17619286D01*
X5814524Y-17609762D01*
X5824048Y-17600238D01*
X5833571Y-17581190D01*
X5900238Y-17495476D02*
X6033571Y-17495476D01*
X5947857Y-17695476D01*
X6109762Y-17695476D02*
X6109762Y-17562143D01*
X6109762Y-17581190D02*
X6119286Y-17571667D01*
X6138333Y-17562143D01*
X6166905Y-17562143D01*
X6185952Y-17571667D01*
X6195476Y-17590714D01*
X6195476Y-17695476D01*
X6195476Y-17590714D02*
X6205000Y-17571667D01*
X6224048Y-17562143D01*
X6252619Y-17562143D01*
X6271667Y-17571667D01*
X6281190Y-17590714D01*
X6281190Y-17695476D01*
X6376428Y-17695476D02*
X6376428Y-17562143D01*
X6376428Y-17581190D02*
X6385952Y-17571667D01*
X6405000Y-17562143D01*
X6433571Y-17562143D01*
X6452619Y-17571667D01*
X6462143Y-17590714D01*
X6462143Y-17695476D01*
X6462143Y-17590714D02*
X6471667Y-17571667D01*
X6490714Y-17562143D01*
X6519286Y-17562143D01*
X6538333Y-17571667D01*
X6547857Y-17590714D01*
X6547857Y-17695476D01*
X6938333Y-17485952D02*
X6766905Y-17743095D01*
X7195476Y-17495476D02*
X7214524Y-17495476D01*
X7233571Y-17505000D01*
X7243095Y-17514524D01*
X7252619Y-17533571D01*
X7262143Y-17571667D01*
X7262143Y-17619286D01*
X7252619Y-17657381D01*
X7243095Y-17676429D01*
X7233571Y-17685952D01*
X7214524Y-17695476D01*
X7195476Y-17695476D01*
X7176428Y-17685952D01*
X7166905Y-17676429D01*
X7157381Y-17657381D01*
X7147857Y-17619286D01*
X7147857Y-17571667D01*
X7157381Y-17533571D01*
X7166905Y-17514524D01*
X7176428Y-17505000D01*
X7195476Y-17495476D01*
X7347857Y-17676429D02*
X7357381Y-17685952D01*
X7347857Y-17695476D01*
X7338333Y-17685952D01*
X7347857Y-17676429D01*
X7347857Y-17695476D01*
X7481190Y-17495476D02*
X7500238Y-17495476D01*
X7519286Y-17505000D01*
X7528809Y-17514524D01*
X7538333Y-17533571D01*
X7547857Y-17571667D01*
X7547857Y-17619286D01*
X7538333Y-17657381D01*
X7528809Y-17676429D01*
X7519286Y-17685952D01*
X7500238Y-17695476D01*
X7481190Y-17695476D01*
X7462143Y-17685952D01*
X7452619Y-17676429D01*
X7443095Y-17657381D01*
X7433571Y-17619286D01*
X7433571Y-17571667D01*
X7443095Y-17533571D01*
X7452619Y-17514524D01*
X7462143Y-17505000D01*
X7481190Y-17495476D01*
X7728809Y-17495476D02*
X7633571Y-17495476D01*
X7624048Y-17590714D01*
X7633571Y-17581190D01*
X7652619Y-17571667D01*
X7700238Y-17571667D01*
X7719286Y-17581190D01*
X7728809Y-17590714D01*
X7738333Y-17609762D01*
X7738333Y-17657381D01*
X7728809Y-17676429D01*
X7719286Y-17685952D01*
X7700238Y-17695476D01*
X7652619Y-17695476D01*
X7633571Y-17685952D01*
X7624048Y-17676429D01*
X7919286Y-17495476D02*
X7824048Y-17495476D01*
X7814524Y-17590714D01*
X7824048Y-17581190D01*
X7843095Y-17571667D01*
X7890714Y-17571667D01*
X7909762Y-17581190D01*
X7919286Y-17590714D01*
X7928809Y-17609762D01*
X7928809Y-17657381D01*
X7919286Y-17676429D01*
X7909762Y-17685952D01*
X7890714Y-17695476D01*
X7843095Y-17695476D01*
X7824048Y-17685952D01*
X7814524Y-17676429D01*
X8052619Y-17495476D02*
X8071667Y-17495476D01*
X8090714Y-17505000D01*
X8100238Y-17514524D01*
X8109762Y-17533571D01*
X8119286Y-17571667D01*
X8119286Y-17619286D01*
X8109762Y-17657381D01*
X8100238Y-17676429D01*
X8090714Y-17685952D01*
X8071667Y-17695476D01*
X8052619Y-17695476D01*
X8033571Y-17685952D01*
X8024048Y-17676429D01*
X8014524Y-17657381D01*
X8005000Y-17619286D01*
X8005000Y-17571667D01*
X8014524Y-17533571D01*
X8024048Y-17514524D01*
X8033571Y-17505000D01*
X8052619Y-17495476D01*
X8195476Y-17495476D02*
X8195476Y-17533571D01*
X8271667Y-17495476D02*
X8271667Y-17533571D01*
X8566905Y-17771667D02*
X8557381Y-17762143D01*
X8538333Y-17733571D01*
X8528810Y-17714524D01*
X8519286Y-17685952D01*
X8509762Y-17638333D01*
X8509762Y-17600238D01*
X8519286Y-17552619D01*
X8528810Y-17524048D01*
X8538333Y-17505000D01*
X8557381Y-17476429D01*
X8566905Y-17466905D01*
X8728810Y-17562143D02*
X8728810Y-17695476D01*
X8681190Y-17485952D02*
X8633571Y-17628810D01*
X8757381Y-17628810D01*
X8985952Y-17695476D02*
X8985952Y-17495476D01*
X9071667Y-17695476D02*
X9071667Y-17590714D01*
X9062143Y-17571667D01*
X9043095Y-17562143D01*
X9014524Y-17562143D01*
X8995476Y-17571667D01*
X8985952Y-17581190D01*
X9195476Y-17695476D02*
X9176429Y-17685952D01*
X9166905Y-17676429D01*
X9157381Y-17657381D01*
X9157381Y-17600238D01*
X9166905Y-17581190D01*
X9176429Y-17571667D01*
X9195476Y-17562143D01*
X9224048Y-17562143D01*
X9243095Y-17571667D01*
X9252619Y-17581190D01*
X9262143Y-17600238D01*
X9262143Y-17657381D01*
X9252619Y-17676429D01*
X9243095Y-17685952D01*
X9224048Y-17695476D01*
X9195476Y-17695476D01*
X9376429Y-17695476D02*
X9357381Y-17685952D01*
X9347857Y-17666905D01*
X9347857Y-17495476D01*
X9528810Y-17685952D02*
X9509762Y-17695476D01*
X9471667Y-17695476D01*
X9452619Y-17685952D01*
X9443095Y-17666905D01*
X9443095Y-17590714D01*
X9452619Y-17571667D01*
X9471667Y-17562143D01*
X9509762Y-17562143D01*
X9528810Y-17571667D01*
X9538333Y-17590714D01*
X9538333Y-17609762D01*
X9443095Y-17628810D01*
X9614524Y-17685952D02*
X9633571Y-17695476D01*
X9671667Y-17695476D01*
X9690714Y-17685952D01*
X9700238Y-17666905D01*
X9700238Y-17657381D01*
X9690714Y-17638333D01*
X9671667Y-17628810D01*
X9643095Y-17628810D01*
X9624048Y-17619286D01*
X9614524Y-17600238D01*
X9614524Y-17590714D01*
X9624048Y-17571667D01*
X9643095Y-17562143D01*
X9671667Y-17562143D01*
X9690714Y-17571667D01*
X9766905Y-17771667D02*
X9776429Y-17762143D01*
X9795476Y-17733571D01*
X9805000Y-17714524D01*
X9814524Y-17685952D01*
X9824048Y-17638333D01*
X9824048Y-17600238D01*
X9814524Y-17552619D01*
X9805000Y-17524048D01*
X9795476Y-17505000D01*
X9776429Y-17476429D01*
X9766905Y-17466905D01*
X4795000Y-17769000D02*
X4995000Y-17969000D01*
X4995000Y-17769000D02*
X4795000Y-17969000D01*
X4965711Y-17939711D02*
X4965711Y-17798289D01*
X4824289Y-17798289D01*
X4824289Y-17939711D01*
X4965711Y-17939711D01*
X4995000Y-17869000D02*
G75*
G03*
X4995000Y-17869000I-100000J0D01*
G01*
X5243095Y-17778524D02*
X5252619Y-17769000D01*
X5271667Y-17759476D01*
X5319286Y-17759476D01*
X5338333Y-17769000D01*
X5347857Y-17778524D01*
X5357381Y-17797571D01*
X5357381Y-17816619D01*
X5347857Y-17845190D01*
X5233571Y-17959476D01*
X5357381Y-17959476D01*
X5443095Y-17940429D02*
X5452619Y-17949952D01*
X5443095Y-17959476D01*
X5433571Y-17949952D01*
X5443095Y-17940429D01*
X5443095Y-17959476D01*
X5528810Y-17778524D02*
X5538333Y-17769000D01*
X5557381Y-17759476D01*
X5605000Y-17759476D01*
X5624048Y-17769000D01*
X5633571Y-17778524D01*
X5643095Y-17797571D01*
X5643095Y-17816619D01*
X5633571Y-17845190D01*
X5519286Y-17959476D01*
X5643095Y-17959476D01*
X5757381Y-17845190D02*
X5738333Y-17835667D01*
X5728809Y-17826143D01*
X5719286Y-17807095D01*
X5719286Y-17797571D01*
X5728809Y-17778524D01*
X5738333Y-17769000D01*
X5757381Y-17759476D01*
X5795476Y-17759476D01*
X5814524Y-17769000D01*
X5824048Y-17778524D01*
X5833571Y-17797571D01*
X5833571Y-17807095D01*
X5824048Y-17826143D01*
X5814524Y-17835667D01*
X5795476Y-17845190D01*
X5757381Y-17845190D01*
X5738333Y-17854714D01*
X5728809Y-17864238D01*
X5719286Y-17883286D01*
X5719286Y-17921381D01*
X5728809Y-17940429D01*
X5738333Y-17949952D01*
X5757381Y-17959476D01*
X5795476Y-17959476D01*
X5814524Y-17949952D01*
X5824048Y-17940429D01*
X5833571Y-17921381D01*
X5833571Y-17883286D01*
X5824048Y-17864238D01*
X5814524Y-17854714D01*
X5795476Y-17845190D01*
X6005000Y-17759476D02*
X5966905Y-17759476D01*
X5947857Y-17769000D01*
X5938333Y-17778524D01*
X5919286Y-17807095D01*
X5909762Y-17845190D01*
X5909762Y-17921381D01*
X5919286Y-17940429D01*
X5928809Y-17949952D01*
X5947857Y-17959476D01*
X5985952Y-17959476D01*
X6005000Y-17949952D01*
X6014524Y-17940429D01*
X6024048Y-17921381D01*
X6024048Y-17873762D01*
X6014524Y-17854714D01*
X6005000Y-17845190D01*
X5985952Y-17835667D01*
X5947857Y-17835667D01*
X5928809Y-17845190D01*
X5919286Y-17854714D01*
X5909762Y-17873762D01*
X6109762Y-17959476D02*
X6109762Y-17826143D01*
X6109762Y-17845190D02*
X6119286Y-17835667D01*
X6138333Y-17826143D01*
X6166905Y-17826143D01*
X6185952Y-17835667D01*
X6195476Y-17854714D01*
X6195476Y-17959476D01*
X6195476Y-17854714D02*
X6205000Y-17835667D01*
X6224048Y-17826143D01*
X6252619Y-17826143D01*
X6271667Y-17835667D01*
X6281190Y-17854714D01*
X6281190Y-17959476D01*
X6376428Y-17959476D02*
X6376428Y-17826143D01*
X6376428Y-17845190D02*
X6385952Y-17835667D01*
X6405000Y-17826143D01*
X6433571Y-17826143D01*
X6452619Y-17835667D01*
X6462143Y-17854714D01*
X6462143Y-17959476D01*
X6462143Y-17854714D02*
X6471667Y-17835667D01*
X6490714Y-17826143D01*
X6519286Y-17826143D01*
X6538333Y-17835667D01*
X6547857Y-17854714D01*
X6547857Y-17959476D01*
X6938333Y-17749952D02*
X6766905Y-18007095D01*
X7195476Y-17759476D02*
X7214524Y-17759476D01*
X7233571Y-17769000D01*
X7243095Y-17778524D01*
X7252619Y-17797571D01*
X7262143Y-17835667D01*
X7262143Y-17883286D01*
X7252619Y-17921381D01*
X7243095Y-17940429D01*
X7233571Y-17949952D01*
X7214524Y-17959476D01*
X7195476Y-17959476D01*
X7176428Y-17949952D01*
X7166905Y-17940429D01*
X7157381Y-17921381D01*
X7147857Y-17883286D01*
X7147857Y-17835667D01*
X7157381Y-17797571D01*
X7166905Y-17778524D01*
X7176428Y-17769000D01*
X7195476Y-17759476D01*
X7347857Y-17940429D02*
X7357381Y-17949952D01*
X7347857Y-17959476D01*
X7338333Y-17949952D01*
X7347857Y-17940429D01*
X7347857Y-17959476D01*
X7481190Y-17759476D02*
X7500238Y-17759476D01*
X7519286Y-17769000D01*
X7528809Y-17778524D01*
X7538333Y-17797571D01*
X7547857Y-17835667D01*
X7547857Y-17883286D01*
X7538333Y-17921381D01*
X7528809Y-17940429D01*
X7519286Y-17949952D01*
X7500238Y-17959476D01*
X7481190Y-17959476D01*
X7462143Y-17949952D01*
X7452619Y-17940429D01*
X7443095Y-17921381D01*
X7433571Y-17883286D01*
X7433571Y-17835667D01*
X7443095Y-17797571D01*
X7452619Y-17778524D01*
X7462143Y-17769000D01*
X7481190Y-17759476D01*
X7643095Y-17959476D02*
X7681190Y-17959476D01*
X7700238Y-17949952D01*
X7709762Y-17940429D01*
X7728809Y-17911857D01*
X7738333Y-17873762D01*
X7738333Y-17797571D01*
X7728809Y-17778524D01*
X7719286Y-17769000D01*
X7700238Y-17759476D01*
X7662143Y-17759476D01*
X7643095Y-17769000D01*
X7633571Y-17778524D01*
X7624048Y-17797571D01*
X7624048Y-17845190D01*
X7633571Y-17864238D01*
X7643095Y-17873762D01*
X7662143Y-17883286D01*
X7700238Y-17883286D01*
X7719286Y-17873762D01*
X7728809Y-17864238D01*
X7738333Y-17845190D01*
X7862143Y-17759476D02*
X7881190Y-17759476D01*
X7900238Y-17769000D01*
X7909762Y-17778524D01*
X7919286Y-17797571D01*
X7928809Y-17835667D01*
X7928809Y-17883286D01*
X7919286Y-17921381D01*
X7909762Y-17940429D01*
X7900238Y-17949952D01*
X7881190Y-17959476D01*
X7862143Y-17959476D01*
X7843095Y-17949952D01*
X7833571Y-17940429D01*
X7824048Y-17921381D01*
X7814524Y-17883286D01*
X7814524Y-17835667D01*
X7824048Y-17797571D01*
X7833571Y-17778524D01*
X7843095Y-17769000D01*
X7862143Y-17759476D01*
X8052619Y-17759476D02*
X8071667Y-17759476D01*
X8090714Y-17769000D01*
X8100238Y-17778524D01*
X8109762Y-17797571D01*
X8119286Y-17835667D01*
X8119286Y-17883286D01*
X8109762Y-17921381D01*
X8100238Y-17940429D01*
X8090714Y-17949952D01*
X8071667Y-17959476D01*
X8052619Y-17959476D01*
X8033571Y-17949952D01*
X8024048Y-17940429D01*
X8014524Y-17921381D01*
X8005000Y-17883286D01*
X8005000Y-17835667D01*
X8014524Y-17797571D01*
X8024048Y-17778524D01*
X8033571Y-17769000D01*
X8052619Y-17759476D01*
X8195476Y-17759476D02*
X8195476Y-17797571D01*
X8271667Y-17759476D02*
X8271667Y-17797571D01*
X8566905Y-18035667D02*
X8557381Y-18026143D01*
X8538333Y-17997571D01*
X8528810Y-17978524D01*
X8519286Y-17949952D01*
X8509762Y-17902333D01*
X8509762Y-17864238D01*
X8519286Y-17816619D01*
X8528810Y-17788048D01*
X8538333Y-17769000D01*
X8557381Y-17740429D01*
X8566905Y-17730905D01*
X8728810Y-17826143D02*
X8728810Y-17959476D01*
X8681190Y-17749952D02*
X8633571Y-17892810D01*
X8757381Y-17892810D01*
X8985952Y-17959476D02*
X8985952Y-17759476D01*
X9071667Y-17959476D02*
X9071667Y-17854714D01*
X9062143Y-17835667D01*
X9043095Y-17826143D01*
X9014524Y-17826143D01*
X8995476Y-17835667D01*
X8985952Y-17845190D01*
X9195476Y-17959476D02*
X9176429Y-17949952D01*
X9166905Y-17940429D01*
X9157381Y-17921381D01*
X9157381Y-17864238D01*
X9166905Y-17845190D01*
X9176429Y-17835667D01*
X9195476Y-17826143D01*
X9224048Y-17826143D01*
X9243095Y-17835667D01*
X9252619Y-17845190D01*
X9262143Y-17864238D01*
X9262143Y-17921381D01*
X9252619Y-17940429D01*
X9243095Y-17949952D01*
X9224048Y-17959476D01*
X9195476Y-17959476D01*
X9376429Y-17959476D02*
X9357381Y-17949952D01*
X9347857Y-17930905D01*
X9347857Y-17759476D01*
X9528810Y-17949952D02*
X9509762Y-17959476D01*
X9471667Y-17959476D01*
X9452619Y-17949952D01*
X9443095Y-17930905D01*
X9443095Y-17854714D01*
X9452619Y-17835667D01*
X9471667Y-17826143D01*
X9509762Y-17826143D01*
X9528810Y-17835667D01*
X9538333Y-17854714D01*
X9538333Y-17873762D01*
X9443095Y-17892810D01*
X9614524Y-17949952D02*
X9633571Y-17959476D01*
X9671667Y-17959476D01*
X9690714Y-17949952D01*
X9700238Y-17930905D01*
X9700238Y-17921381D01*
X9690714Y-17902333D01*
X9671667Y-17892810D01*
X9643095Y-17892810D01*
X9624048Y-17883286D01*
X9614524Y-17864238D01*
X9614524Y-17854714D01*
X9624048Y-17835667D01*
X9643095Y-17826143D01*
X9671667Y-17826143D01*
X9690714Y-17835667D01*
X9766905Y-18035667D02*
X9776429Y-18026143D01*
X9795476Y-17997571D01*
X9805000Y-17978524D01*
X9814524Y-17949952D01*
X9824048Y-17902333D01*
X9824048Y-17864238D01*
X9814524Y-17816619D01*
X9805000Y-17788048D01*
X9795476Y-17769000D01*
X9776429Y-17740429D01*
X9766905Y-17730905D01*
M02*
